%TF.GenerationSoftware,KiCad,Pcbnew,8.0.0*%
%TF.CreationDate,2024-02-27T15:34:20-08:00*%
%TF.ProjectId,PCB,5043422e-6b69-4636-9164-5f7063625858,rev?*%
%TF.SameCoordinates,Original*%
%TF.FileFunction,Paste,Top*%
%TF.FilePolarity,Positive*%
%FSLAX46Y46*%
G04 Gerber Fmt 4.6, Leading zero omitted, Abs format (unit mm)*
G04 Created by KiCad (PCBNEW 8.0.0) date 2024-02-27 15:34:20*
%MOMM*%
%LPD*%
G01*
G04 APERTURE LIST*
G04 Aperture macros list*
%AMRoundRect*
0 Rectangle with rounded corners*
0 $1 Rounding radius*
0 $2 $3 $4 $5 $6 $7 $8 $9 X,Y pos of 4 corners*
0 Add a 4 corners polygon primitive as box body*
4,1,4,$2,$3,$4,$5,$6,$7,$8,$9,$2,$3,0*
0 Add four circle primitives for the rounded corners*
1,1,$1+$1,$2,$3*
1,1,$1+$1,$4,$5*
1,1,$1+$1,$6,$7*
1,1,$1+$1,$8,$9*
0 Add four rect primitives between the rounded corners*
20,1,$1+$1,$2,$3,$4,$5,0*
20,1,$1+$1,$4,$5,$6,$7,0*
20,1,$1+$1,$6,$7,$8,$9,0*
20,1,$1+$1,$8,$9,$2,$3,0*%
G04 Aperture macros list end*
%ADD10RoundRect,0.250000X-0.041714X0.581198X-0.562560X0.151845X0.041714X-0.581198X0.562560X-0.151845X0*%
%ADD11RoundRect,0.250000X-0.552920X0.183876X-0.355569X-0.461629X0.552920X-0.183876X0.355569X0.461629X0*%
%ADD12RoundRect,0.250000X0.260953X-0.520994X0.577847X0.074996X-0.260953X0.520994X-0.577847X-0.074996X0*%
%ADD13RoundRect,0.250000X-0.127030X-0.555755X0.507386X-0.259922X0.127030X0.555755X-0.507386X0.259922X0*%
%ADD14RoundRect,0.250000X-0.095117X-0.574877X0.511569X-0.278977X0.095117X0.574877X-0.511569X0.278977X0*%
%ADD15RoundRect,0.250000X-0.303155X0.482801X-0.542569X-0.174983X0.303155X-0.482801X0.542569X0.174983X0*%
%ADD16RoundRect,0.150000X-0.725000X-0.150000X0.725000X-0.150000X0.725000X0.150000X-0.725000X0.150000X0*%
%ADD17RoundRect,0.250000X-0.475000X0.337500X-0.475000X-0.337500X0.475000X-0.337500X0.475000X0.337500X0*%
%ADD18RoundRect,0.150000X-0.819603X0.177132X0.704798X-0.454296X0.819603X-0.177132X-0.704798X0.454296X0*%
%ADD19RoundRect,0.250000X0.557370X0.119744X0.021139X0.569696X-0.557370X-0.119744X-0.021139X-0.569696X0*%
%ADD20RoundRect,0.250000X0.132120X-0.567517X0.579388X-0.061972X-0.132120X0.567517X-0.579388X0.061972X0*%
%ADD21RoundRect,0.250000X-0.554625X0.131874X-0.264340X-0.505098X0.554625X-0.131874X0.264340X0.505098X0*%
%ADD22RoundRect,0.250000X-0.132120X0.567517X-0.579388X0.061972X0.132120X-0.567517X0.579388X-0.061972X0*%
%ADD23RoundRect,0.250000X-0.378682X-0.426145X0.319819X-0.471928X0.378682X0.426145X-0.319819X0.471928X0*%
%ADD24RoundRect,0.150000X-0.704798X-0.454296X0.819603X0.177132X0.704798X0.454296X-0.819603X-0.177132X0*%
%ADD25RoundRect,0.250000X-0.520994X-0.260953X0.074996X-0.577847X0.520994X0.260953X-0.074996X0.577847X0*%
%ADD26RoundRect,0.250000X-0.450000X0.350000X-0.450000X-0.350000X0.450000X-0.350000X0.450000X0.350000X0*%
%ADD27RoundRect,0.250000X-0.574877X0.095117X-0.278977X-0.511569X0.574877X-0.095117X0.278977X0.511569X0*%
%ADD28RoundRect,0.250000X-0.555755X0.127030X-0.259922X-0.507386X0.555755X-0.127030X0.259922X0.507386X0*%
%ADD29RoundRect,0.250000X0.555755X-0.127030X0.259922X0.507386X-0.555755X0.127030X-0.259922X-0.507386X0*%
%ADD30RoundRect,0.250000X-0.102667X-0.560767X0.518241X-0.237543X0.102667X0.560767X-0.518241X0.237543X0*%
%ADD31RoundRect,0.250000X0.581198X0.041714X0.151845X0.562560X-0.581198X-0.041714X-0.151845X-0.562560X0*%
%ADD32RoundRect,0.250000X0.350000X0.450000X-0.350000X0.450000X-0.350000X-0.450000X0.350000X-0.450000X0*%
%ADD33RoundRect,0.250000X0.303155X-0.482801X0.542569X0.174983X-0.303155X0.482801X-0.542569X-0.174983X0*%
%ADD34RoundRect,0.250000X0.041714X-0.581198X0.562560X-0.151845X-0.041714X0.581198X-0.562560X0.151845X0*%
%ADD35RoundRect,0.250000X-0.119744X0.557370X-0.569696X0.021139X0.119744X-0.557370X0.569696X-0.021139X0*%
%ADD36RoundRect,0.250000X0.095117X0.574877X-0.511569X0.278977X-0.095117X-0.574877X0.511569X-0.278977X0*%
%ADD37RoundRect,0.250000X-0.485429X-0.298930X0.170242X-0.544075X0.485429X0.298930X-0.170242X0.544075X0*%
%ADD38RoundRect,0.250000X-0.567517X-0.132120X-0.061972X-0.579388X0.567517X0.132120X0.061972X0.579388X0*%
%ADD39RoundRect,0.250000X-0.323926X0.469119X-0.534420X-0.198483X0.323926X-0.469119X0.534420X0.198483X0*%
%ADD40RoundRect,0.250000X-0.581198X-0.041714X-0.151845X-0.562560X0.581198X0.041714X0.151845X0.562560X0*%
%ADD41RoundRect,0.150000X-0.454296X0.704798X0.177132X-0.819603X0.454296X-0.704798X-0.177132X0.819603X0*%
%ADD42RoundRect,0.150000X0.477297X0.689429X-0.689429X-0.477297X-0.477297X-0.689429X0.689429X0.477297X0*%
%ADD43RoundRect,0.150000X0.704798X0.454296X-0.819603X-0.177132X-0.704798X-0.454296X0.819603X0.177132X0*%
%ADD44RoundRect,0.250000X0.469119X0.323926X-0.198483X0.534420X-0.469119X-0.323926X0.198483X-0.534420X0*%
%ADD45RoundRect,0.250000X-0.562063X-0.095318X-0.045969X-0.568231X0.562063X0.095318X0.045969X0.568231X0*%
%ADD46RoundRect,0.250000X-0.183876X-0.552920X0.461629X-0.355569X0.183876X0.552920X-0.461629X0.355569X0*%
%ADD47RoundRect,0.250000X0.475000X-0.337500X0.475000X0.337500X-0.475000X0.337500X-0.475000X-0.337500X0*%
%ADD48RoundRect,0.250000X0.127030X0.555755X-0.507386X0.259922X-0.127030X-0.555755X0.507386X-0.259922X0*%
%ADD49RoundRect,0.250000X0.473757X0.339242X-0.164468X0.559001X-0.473757X-0.339242X0.164468X-0.559001X0*%
%ADD50RoundRect,0.250000X-0.298930X0.485429X-0.544075X-0.170242X0.298930X-0.485429X0.544075X0.170242X0*%
%ADD51RoundRect,0.250000X-0.260953X0.520994X-0.577847X-0.074996X0.260953X-0.520994X0.577847X0.074996X0*%
%ADD52RoundRect,0.250000X0.552920X-0.183876X0.355569X0.461629X-0.552920X0.183876X-0.355569X-0.461629X0*%
%ADD53RoundRect,0.250000X-0.095318X0.562063X-0.568231X0.045969X0.095318X-0.562063X0.568231X-0.045969X0*%
%ADD54RoundRect,0.150000X-0.689429X0.477297X0.477297X-0.689429X0.689429X-0.477297X-0.477297X0.689429X0*%
%ADD55RoundRect,0.250000X-0.426145X0.378682X-0.471928X-0.319819X0.426145X-0.378682X0.471928X0.319819X0*%
%ADD56RoundRect,0.250000X0.033562X-0.569099X0.559850X-0.107557X-0.033562X0.569099X-0.559850X0.107557X0*%
%ADD57RoundRect,0.250000X-0.557370X-0.119744X-0.021139X-0.569696X0.557370X0.119744X0.021139X0.569696X0*%
%ADD58RoundRect,0.250000X0.095318X-0.562063X0.568231X-0.045969X-0.095318X0.562063X-0.568231X0.045969X0*%
%ADD59RoundRect,0.250000X0.298930X-0.485429X0.544075X0.170242X-0.298930X0.485429X-0.544075X-0.170242X0*%
%ADD60RoundRect,0.250000X0.512935X0.248792X-0.114876X0.558394X-0.512935X-0.248792X0.114876X-0.558394X0*%
%ADD61RoundRect,0.150000X0.819603X-0.177132X-0.704798X0.454296X-0.819603X0.177132X0.704798X-0.454296X0*%
%ADD62RoundRect,0.250000X0.562063X0.095318X0.045969X0.568231X-0.562063X-0.095318X-0.045969X-0.568231X0*%
%ADD63RoundRect,0.250000X-0.473757X-0.339242X0.164468X-0.559001X0.473757X0.339242X-0.164468X0.559001X0*%
%ADD64RoundRect,0.250000X-0.033562X0.569099X-0.559850X0.107557X0.033562X-0.569099X0.559850X-0.107557X0*%
%ADD65RoundRect,0.150000X-0.477297X-0.689429X0.689429X0.477297X0.477297X0.689429X-0.689429X-0.477297X0*%
%ADD66RoundRect,0.250000X-0.482801X-0.303155X0.174983X-0.542569X0.482801X0.303155X-0.174983X0.542569X0*%
%ADD67RoundRect,0.250000X0.520994X0.260953X-0.074996X0.577847X-0.520994X-0.260953X0.074996X-0.577847X0*%
%ADD68RoundRect,0.250000X0.183876X0.552920X-0.461629X0.355569X-0.183876X-0.552920X0.461629X-0.355569X0*%
%ADD69RoundRect,0.250000X0.090410X-0.562873X0.567809X-0.050925X-0.090410X0.562873X-0.567809X0.050925X0*%
%ADD70RoundRect,0.250000X0.339242X-0.473757X0.559001X0.164468X-0.339242X0.473757X-0.559001X-0.164468X0*%
%ADD71RoundRect,0.250000X-0.339242X0.473757X-0.559001X-0.164468X0.339242X-0.473757X0.559001X0.164468X0*%
%ADD72RoundRect,0.250000X-0.248792X0.512935X-0.558394X-0.114876X0.248792X-0.512935X0.558394X0.114876X0*%
%ADD73RoundRect,0.250000X0.482801X0.303155X-0.174983X0.542569X-0.482801X-0.303155X0.174983X-0.542569X0*%
%ADD74RoundRect,0.250000X0.574877X-0.095117X0.278977X0.511569X-0.574877X0.095117X-0.278977X-0.511569X0*%
%ADD75RoundRect,0.250000X-0.512935X-0.248792X0.114876X-0.558394X0.512935X0.248792X-0.114876X0.558394X0*%
%ADD76RoundRect,0.150000X0.689429X-0.477297X-0.477297X0.689429X-0.689429X0.477297X0.477297X-0.689429X0*%
%ADD77RoundRect,0.250000X-0.562873X-0.090410X-0.050925X-0.567809X0.562873X0.090410X0.050925X0.567809X0*%
%ADD78RoundRect,0.250000X-0.560767X0.102667X-0.237543X-0.518241X0.560767X-0.102667X0.237543X0.518241X0*%
%ADD79RoundRect,0.237500X-0.287500X-0.237500X0.287500X-0.237500X0.287500X0.237500X-0.287500X0.237500X0*%
%ADD80RoundRect,0.250000X0.426145X-0.378682X0.471928X0.319819X-0.426145X0.378682X-0.471928X-0.319819X0*%
%ADD81RoundRect,0.250000X0.567517X0.132120X0.061972X0.579388X-0.567517X-0.132120X-0.061972X-0.579388X0*%
%ADD82RoundRect,0.250000X-0.469119X-0.323926X0.198483X-0.534420X0.469119X0.323926X-0.198483X0.534420X0*%
%ADD83RoundRect,0.250000X0.569099X0.033562X0.107557X0.559850X-0.569099X-0.033562X-0.107557X-0.559850X0*%
%ADD84RoundRect,0.170000X-0.170000X-0.210000X0.170000X-0.210000X0.170000X0.210000X-0.170000X0.210000X0*%
%ADD85RoundRect,0.075000X-0.650000X-0.075000X0.650000X-0.075000X0.650000X0.075000X-0.650000X0.075000X0*%
%ADD86RoundRect,0.250000X0.450000X-0.350000X0.450000X0.350000X-0.450000X0.350000X-0.450000X-0.350000X0*%
%ADD87RoundRect,0.150000X-0.177132X-0.819603X0.454296X0.704798X0.177132X0.819603X-0.454296X-0.704798X0*%
%ADD88RoundRect,0.250000X-0.090410X0.562873X-0.567809X0.050925X0.090410X-0.562873X0.567809X-0.050925X0*%
%ADD89RoundRect,0.250000X0.378682X0.426145X-0.319819X0.471928X-0.378682X-0.426145X0.319819X-0.471928X0*%
%ADD90RoundRect,0.250000X0.102667X0.560767X-0.518241X0.237543X-0.102667X-0.560767X0.518241X-0.237543X0*%
%ADD91RoundRect,0.150000X0.454296X-0.704798X-0.177132X0.819603X-0.454296X0.704798X0.177132X-0.819603X0*%
%ADD92RoundRect,0.250000X-0.131874X-0.554625X0.505098X-0.264340X0.131874X0.554625X-0.505098X0.264340X0*%
%ADD93RoundRect,0.250000X-0.569099X-0.033562X-0.107557X-0.559850X0.569099X0.033562X0.107557X0.559850X0*%
%ADD94RoundRect,0.150000X0.725000X0.150000X-0.725000X0.150000X-0.725000X-0.150000X0.725000X-0.150000X0*%
%ADD95RoundRect,0.150000X0.177132X0.819603X-0.454296X-0.704798X-0.177132X-0.819603X0.454296X0.704798X0*%
%ADD96RoundRect,0.250000X0.119744X-0.557370X0.569696X-0.021139X-0.119744X0.557370X-0.569696X0.021139X0*%
%ADD97RoundRect,0.250000X0.485429X0.298930X-0.170242X0.544075X-0.485429X-0.298930X0.170242X-0.544075X0*%
%ADD98RoundRect,0.250000X0.323926X-0.469119X0.534420X0.198483X-0.323926X0.469119X-0.534420X-0.198483X0*%
%ADD99RoundRect,0.250000X0.554625X-0.131874X0.264340X0.505098X-0.554625X0.131874X-0.264340X-0.505098X0*%
%ADD100RoundRect,0.250000X0.248792X-0.512935X0.558394X0.114876X-0.248792X0.512935X-0.558394X-0.114876X0*%
%ADD101RoundRect,0.250000X0.562873X0.090410X0.050925X0.567809X-0.562873X-0.090410X-0.050925X-0.567809X0*%
%ADD102RoundRect,0.250000X0.560767X-0.102667X0.237543X0.518241X-0.560767X0.102667X-0.237543X-0.518241X0*%
%ADD103RoundRect,0.250000X0.131874X0.554625X-0.505098X0.264340X-0.131874X-0.554625X0.505098X-0.264340X0*%
G04 APERTURE END LIST*
D10*
X182925343Y-120357870D03*
X181324221Y-121677732D03*
D11*
X196820163Y-80437198D03*
X197426835Y-82421530D03*
D12*
X127202290Y-70726134D03*
X128176444Y-68894018D03*
D13*
X133531013Y-107023215D03*
X135343629Y-106177979D03*
D14*
X129987931Y-108625741D03*
X131852929Y-107716121D03*
D15*
X166679168Y-59246368D03*
X165995128Y-61125754D03*
D16*
X157425000Y-63457000D03*
X157425000Y-64727000D03*
X157425000Y-65997000D03*
X157425000Y-67267000D03*
X157425000Y-68537000D03*
X157425000Y-69807000D03*
X157425000Y-71077000D03*
X157425000Y-72347000D03*
X162575000Y-72347000D03*
X162575000Y-71077000D03*
X162575000Y-69807000D03*
X162575000Y-68537000D03*
X162575000Y-67267000D03*
X162575000Y-65997000D03*
X162575000Y-64727000D03*
X162575000Y-63457000D03*
D17*
X167640000Y-74125000D03*
X167640000Y-76200000D03*
D18*
X173994664Y-49746403D03*
X173508656Y-50919730D03*
X173022648Y-52093057D03*
X172536640Y-53266384D03*
X172050632Y-54439711D03*
X171564624Y-55613038D03*
X171078616Y-56786365D03*
X170592608Y-57959692D03*
X175165812Y-59853975D03*
X175651820Y-58680648D03*
X176137828Y-57507321D03*
X176623836Y-56333994D03*
X177109844Y-55160667D03*
X177595852Y-53987340D03*
X178081860Y-52814013D03*
X178567868Y-51640686D03*
D19*
X190061017Y-108948319D03*
X188528929Y-107662743D03*
D20*
X139400227Y-118693063D03*
X140775163Y-117138979D03*
D10*
X185729583Y-123029710D03*
X184128461Y-124349572D03*
D21*
X133675720Y-102577715D03*
X134505106Y-104397637D03*
D22*
X180599772Y-61306936D03*
X179224836Y-62861020D03*
D23*
X161078690Y-58252576D03*
X163074408Y-58383382D03*
D24*
X141432131Y-51640686D03*
X141918139Y-52814013D03*
X142404147Y-53987340D03*
X142890155Y-55160667D03*
X143376163Y-56333994D03*
X143862171Y-57507321D03*
X144348179Y-58680648D03*
X144834187Y-59853975D03*
X149407391Y-57959692D03*
X148921383Y-56786365D03*
X148435375Y-55613038D03*
X147949367Y-54439711D03*
X147463359Y-53266384D03*
X146977351Y-52093057D03*
X146491343Y-50919730D03*
X146005335Y-49746403D03*
D25*
X179273865Y-57202290D03*
X181105981Y-58176444D03*
D26*
X160020000Y-74200000D03*
X160020000Y-76200000D03*
D27*
X141374258Y-59987931D03*
X142283878Y-61852929D03*
D28*
X142976784Y-63531013D03*
X143822020Y-65343629D03*
D29*
X177023215Y-116468986D03*
X176177979Y-114656370D03*
D30*
X130990182Y-110521551D03*
X132764204Y-109598053D03*
D31*
X126970289Y-115729583D03*
X125650427Y-114128461D03*
D32*
X158480000Y-81280000D03*
X156480000Y-81280000D03*
D33*
X153320831Y-120753631D03*
X154004871Y-118874245D03*
D34*
X134270416Y-56970289D03*
X135871538Y-55650427D03*
D35*
X178948319Y-59938982D03*
X177662743Y-61471070D03*
D36*
X190012068Y-71374258D03*
X188147070Y-72283878D03*
D25*
X180669187Y-53589041D03*
X182501303Y-54563195D03*
D37*
X150279711Y-117507865D03*
X152153055Y-118208279D03*
D38*
X131306936Y-69400227D03*
X132861020Y-70775163D03*
D39*
X166002110Y-54976033D03*
X165400698Y-56883467D03*
D40*
X190357870Y-67074656D03*
X191677732Y-68675778D03*
X193029710Y-64270416D03*
X194349572Y-65871538D03*
D41*
X198359313Y-71432131D03*
X197185986Y-71918139D03*
X196012659Y-72404147D03*
X194839332Y-72890155D03*
X193666005Y-73376163D03*
X192492678Y-73862171D03*
X191319351Y-74348179D03*
X190146024Y-74834187D03*
X192040307Y-79407391D03*
X193213634Y-78921383D03*
X194386961Y-78435375D03*
X195560288Y-77949367D03*
X196733615Y-77463359D03*
X197906942Y-76977351D03*
X199080269Y-76491343D03*
X200253596Y-76005335D03*
D42*
X191833947Y-118333768D03*
X190935921Y-117435743D03*
X190037896Y-116537717D03*
X189139870Y-115639692D03*
X188241844Y-114741666D03*
X187343819Y-113843640D03*
X186445793Y-112945615D03*
X185547768Y-112047589D03*
X182047589Y-115547768D03*
X182945615Y-116445793D03*
X183843640Y-117343819D03*
X184741666Y-118241844D03*
X185639692Y-119139870D03*
X186537717Y-120037896D03*
X187435743Y-120935921D03*
X188333768Y-121833947D03*
D43*
X178567868Y-128359313D03*
X178081860Y-127185986D03*
X177595852Y-126012659D03*
X177109844Y-124839332D03*
X176623836Y-123666005D03*
X176137828Y-122492678D03*
X175651820Y-121319351D03*
X175165812Y-120146024D03*
X170592608Y-122040307D03*
X171078616Y-123213634D03*
X171564624Y-124386961D03*
X172050632Y-125560288D03*
X172536640Y-126733615D03*
X173022648Y-127906942D03*
X173508656Y-129080269D03*
X173994664Y-130253596D03*
D44*
X195023966Y-96002110D03*
X193116532Y-95400698D03*
D45*
X134143356Y-72060347D03*
X135617910Y-73411527D03*
D46*
X148868887Y-49638242D03*
X150853219Y-49031570D03*
D47*
X162560000Y-79777500D03*
X162560000Y-77702500D03*
D26*
X145817500Y-76740000D03*
X145817500Y-78740000D03*
D48*
X186468986Y-72976784D03*
X184656370Y-73822020D03*
D49*
X194392125Y-98051348D03*
X192430173Y-97375794D03*
D50*
X132492134Y-80279711D03*
X131791720Y-82153055D03*
D51*
X196410958Y-110669187D03*
X195436804Y-112501303D03*
D52*
X119638242Y-101131112D03*
X119031570Y-99146780D03*
D53*
X177939652Y-64143356D03*
X176588472Y-65617910D03*
D54*
X188333768Y-58166052D03*
X187435743Y-59064078D03*
X186537717Y-59962103D03*
X185639692Y-60860129D03*
X184741666Y-61758155D03*
X183843640Y-62656180D03*
X182945615Y-63554206D03*
X182047589Y-64452231D03*
X185547768Y-67952410D03*
X186445793Y-67054384D03*
X187343819Y-66156359D03*
X188241844Y-65258333D03*
X189139870Y-64360307D03*
X190037896Y-63462282D03*
X190935921Y-62564256D03*
X191833947Y-61666231D03*
D55*
X191747423Y-91078690D03*
X191616617Y-93074408D03*
D56*
X138313930Y-66788432D03*
X139817610Y-65469740D03*
D57*
X129938982Y-71051680D03*
X131471070Y-72337256D03*
D58*
X142060347Y-115856643D03*
X143411527Y-114382089D03*
D59*
X187507865Y-99720288D03*
X188208279Y-97846944D03*
D60*
X146854207Y-118917998D03*
X145060461Y-118033420D03*
D61*
X146005335Y-130253596D03*
X146491343Y-129080269D03*
X146977351Y-127906942D03*
X147463359Y-126733615D03*
X147949367Y-125560288D03*
X148435375Y-124386961D03*
X148921383Y-123213634D03*
X149407391Y-122040307D03*
X144834187Y-120146024D03*
X144348179Y-121319351D03*
X143862171Y-122492678D03*
X143376163Y-123666005D03*
X142890155Y-124839332D03*
X142404147Y-126012659D03*
X141918139Y-127185986D03*
X141432131Y-128359313D03*
D62*
X185856643Y-107939652D03*
X184382089Y-106588472D03*
D63*
X125607874Y-81948651D03*
X127569826Y-82624205D03*
D46*
X150437198Y-53179836D03*
X152421530Y-52573164D03*
D64*
X181686069Y-113211567D03*
X180182389Y-114530259D03*
D65*
X128166052Y-61666231D03*
X129064078Y-62564256D03*
X129962103Y-63462282D03*
X130860129Y-64360307D03*
X131758155Y-65258333D03*
X132656180Y-66156359D03*
X133554206Y-67054384D03*
X134452231Y-67952410D03*
X137952410Y-64452231D03*
X137054384Y-63554206D03*
X136156359Y-62656180D03*
X135258333Y-61758155D03*
X134360307Y-60860129D03*
X133462282Y-59962103D03*
X132564256Y-59064078D03*
X131666231Y-58166052D03*
D66*
X129246368Y-83320831D03*
X131125754Y-84004871D03*
D67*
X139330812Y-126410958D03*
X137498696Y-125436804D03*
D68*
X169562801Y-126820163D03*
X167578469Y-127426835D03*
D12*
X123589041Y-69330812D03*
X124563195Y-67498696D03*
D69*
X181694160Y-109507180D03*
X183058156Y-108044472D03*
D70*
X151948651Y-124392125D03*
X152624205Y-122430173D03*
D71*
X168051348Y-55607874D03*
X167375794Y-57569826D03*
D67*
X140726134Y-122797709D03*
X138894018Y-121823555D03*
D34*
X137074656Y-59642129D03*
X138675778Y-58322267D03*
D11*
X200361757Y-78868887D03*
X200968429Y-80853219D03*
D72*
X188917998Y-103145792D03*
X188033420Y-104939538D03*
D73*
X190753631Y-96679168D03*
X188874245Y-95995128D03*
D74*
X178625741Y-120012068D03*
X177716121Y-118147070D03*
D75*
X173145792Y-61082001D03*
X174939538Y-61966579D03*
D76*
X131666231Y-121833947D03*
X132564256Y-120935921D03*
X133462282Y-120037896D03*
X134360307Y-119139870D03*
X135258333Y-118241844D03*
X136156359Y-117343819D03*
X137054384Y-116445793D03*
X137952410Y-115547768D03*
X134452231Y-112047589D03*
X133554206Y-112945615D03*
X132656180Y-113843640D03*
X131758155Y-114741666D03*
X130860129Y-115639692D03*
X129962103Y-116537717D03*
X129064078Y-117435743D03*
X128166052Y-118333768D03*
D77*
X140492819Y-111694160D03*
X141955527Y-113058156D03*
D78*
X139478448Y-60990182D03*
X140401946Y-62764204D03*
D79*
X142402500Y-81280000D03*
X144152500Y-81280000D03*
D80*
X128252576Y-88921309D03*
X128383382Y-86925591D03*
D81*
X188693063Y-110599772D03*
X187138979Y-109224836D03*
D68*
X171131112Y-130361757D03*
X169146780Y-130968429D03*
D82*
X124976033Y-83997889D03*
X126883467Y-84599301D03*
D83*
X136788432Y-111686069D03*
X135469740Y-110182389D03*
D84*
X154100000Y-75260000D03*
X154100000Y-76200000D03*
X154940000Y-75260000D03*
X154940000Y-76200000D03*
D85*
X152370000Y-74730000D03*
X152370000Y-75230000D03*
X152370000Y-75730000D03*
X152370000Y-76230000D03*
X152370000Y-76730000D03*
X156670000Y-76730000D03*
X156670000Y-76230000D03*
X156670000Y-75730000D03*
X156670000Y-75230000D03*
X156670000Y-74730000D03*
D86*
X165100000Y-79740000D03*
X165100000Y-77740000D03*
D51*
X192797709Y-109273865D03*
X191823555Y-111105981D03*
D87*
X119746403Y-76005335D03*
X120919730Y-76491343D03*
X122093057Y-76977351D03*
X123266384Y-77463359D03*
X124439711Y-77949367D03*
X125613038Y-78435375D03*
X126786365Y-78921383D03*
X127959692Y-79407391D03*
X129853975Y-74834187D03*
X128680648Y-74348179D03*
X127507321Y-73862171D03*
X126333994Y-73376163D03*
X125160667Y-72890155D03*
X123987340Y-72404147D03*
X122814013Y-71918139D03*
X121640686Y-71432131D03*
D88*
X138305839Y-70492819D03*
X136941843Y-71955527D03*
D89*
X158921309Y-121747423D03*
X156925591Y-121616617D03*
D90*
X189009817Y-69478448D03*
X187235795Y-70401946D03*
D91*
X121640686Y-108567868D03*
X122814013Y-108081860D03*
X123987340Y-107595852D03*
X125160667Y-107109844D03*
X126333994Y-106623836D03*
X127507321Y-106137828D03*
X128680648Y-105651820D03*
X129853975Y-105165812D03*
X127959692Y-100592608D03*
X126786365Y-101078616D03*
X125613038Y-101564624D03*
X124439711Y-102050632D03*
X123266384Y-102536640D03*
X122093057Y-103022648D03*
X120919730Y-103508656D03*
X119746403Y-103994664D03*
D47*
X149860000Y-79777500D03*
X149860000Y-77702500D03*
D92*
X172577715Y-116324279D03*
X174397637Y-115494893D03*
D93*
X183211567Y-68313930D03*
X184530259Y-69817610D03*
D94*
X162575000Y-116543000D03*
X162575000Y-115273000D03*
X162575000Y-114003000D03*
X162575000Y-112733000D03*
X162575000Y-111463000D03*
X162575000Y-110193000D03*
X162575000Y-108923000D03*
X162575000Y-107653000D03*
X157425000Y-107653000D03*
X157425000Y-108923000D03*
X157425000Y-110193000D03*
X157425000Y-111463000D03*
X157425000Y-112733000D03*
X157425000Y-114003000D03*
X157425000Y-115273000D03*
X157425000Y-116543000D03*
D95*
X200253596Y-103994664D03*
X199080269Y-103508656D03*
X197906942Y-103022648D03*
X196733615Y-102536640D03*
X195560288Y-102050632D03*
X194386961Y-101564624D03*
X193213634Y-101078616D03*
X192040307Y-100592608D03*
X190146024Y-105165812D03*
X191319351Y-105651820D03*
X192492678Y-106137828D03*
X193666005Y-106623836D03*
X194839332Y-107109844D03*
X196012659Y-107595852D03*
X197185986Y-108081860D03*
X198359313Y-108567868D03*
D96*
X141051680Y-120061017D03*
X142337256Y-118528929D03*
D97*
X169720288Y-62492134D03*
X167846944Y-61791720D03*
D98*
X153997889Y-125023966D03*
X154599301Y-123116532D03*
D99*
X186324279Y-77422284D03*
X185494893Y-75602362D03*
D100*
X131082001Y-76854207D03*
X131966579Y-75060461D03*
D52*
X123179836Y-99562801D03*
X122573164Y-97578469D03*
D101*
X179507180Y-68305839D03*
X178044472Y-66941843D03*
D102*
X180521551Y-119009817D03*
X179598053Y-117235795D03*
D103*
X147422284Y-63675720D03*
X145602362Y-64505106D03*
D31*
X129642129Y-112925343D03*
X128322267Y-111324221D03*
M02*
