%TF.GenerationSoftware,KiCad,Pcbnew,8.0.1-rc1*%
%TF.CreationDate,2024-04-13T15:11:56-07:00*%
%TF.ProjectId,PCB,5043422e-6b69-4636-9164-5f7063625858,rev?*%
%TF.SameCoordinates,Original*%
%TF.FileFunction,Drillmap*%
%TF.FilePolarity,Positive*%
%FSLAX45Y45*%
G04 Gerber Fmt 4.5, Leading zero omitted, Abs format (unit mm)*
G04 Created by KiCad (PCBNEW 8.0.1-rc1) date 2024-04-13 15:11:56*
%MOMM*%
%LPD*%
G01*
G04 APERTURE LIST*
%ADD10C,0.200000*%
%ADD11C,0.100000*%
%ADD12C,0.370000*%
G04 APERTURE END LIST*
D10*
X28028000Y-8382000D02*
G75*
G02*
X28328000Y-8682000I0J-300000D01*
G01*
X28328000Y-15582000D02*
G75*
G02*
X28028000Y-15882000I-300000J0D01*
G01*
X20828000Y-8682000D02*
G75*
G02*
X21128000Y-8382000I300000J0D01*
G01*
X21128000Y-8382000D02*
X28028000Y-8382000D01*
X28028000Y-15882000D02*
X21128000Y-15882000D01*
X28328000Y-8682000D02*
X28328000Y-15582000D01*
X20828000Y-15582000D02*
X20828000Y-8682000D01*
X21128000Y-15882000D02*
G75*
G02*
X20828000Y-15582000I0J300000D01*
G01*
D11*
X21282800Y-11208400D02*
X21322800Y-11248400D01*
X21322800Y-11208400D02*
X21282800Y-11248400D01*
X21443000Y-9632000D02*
X21483000Y-9672000D01*
X21483000Y-9632000D02*
X21443000Y-9672000D01*
X21448000Y-12732000D02*
X21488000Y-12772000D01*
X21488000Y-12732000D02*
X21448000Y-12772000D01*
X21486000Y-11183000D02*
X21526000Y-11223000D01*
X21526000Y-11183000D02*
X21486000Y-11223000D01*
X21524000Y-12013000D02*
X21564000Y-12053000D01*
X21564000Y-12013000D02*
X21524000Y-12053000D01*
X21525000Y-12541000D02*
X21565000Y-12581000D01*
X21565000Y-12541000D02*
X21525000Y-12581000D01*
X21570000Y-10438000D02*
X21610000Y-10478000D01*
X21610000Y-10438000D02*
X21570000Y-10478000D01*
X21570000Y-10956000D02*
X21610000Y-10996000D01*
X21610000Y-10956000D02*
X21570000Y-10996000D01*
X21609000Y-13505000D02*
X21649000Y-13545000D01*
X21649000Y-13505000D02*
X21609000Y-13545000D01*
X21609000Y-14020000D02*
X21649000Y-14060000D01*
X21649000Y-14020000D02*
X21609000Y-14060000D01*
X21697000Y-14155000D02*
X21737000Y-14195000D01*
X21737000Y-14155000D02*
X21697000Y-14195000D01*
X21719000Y-10943000D02*
X21759000Y-10983000D01*
X21759000Y-10943000D02*
X21719000Y-10983000D01*
X21730000Y-11541000D02*
X21770000Y-11581000D01*
X21770000Y-11541000D02*
X21730000Y-11581000D01*
X21747000Y-12533000D02*
X21787000Y-12573000D01*
X21787000Y-12533000D02*
X21747000Y-12573000D01*
X21768533Y-10557457D02*
X21808533Y-10597457D01*
X21808533Y-10557457D02*
X21768533Y-10597457D01*
X21771000Y-9920000D02*
X21811000Y-9960000D01*
X21811000Y-9920000D02*
X21771000Y-9960000D01*
X21788000Y-13035000D02*
X21828000Y-13075000D01*
X21828000Y-13035000D02*
X21788000Y-13075000D01*
X21789000Y-10104000D02*
X21829000Y-10144000D01*
X21829000Y-10104000D02*
X21789000Y-10144000D01*
X21799000Y-11658000D02*
X21839000Y-11698000D01*
X21839000Y-11658000D02*
X21799000Y-11698000D01*
X21821000Y-10957000D02*
X21861000Y-10997000D01*
X21861000Y-10957000D02*
X21821000Y-10997000D01*
X21824000Y-13569000D02*
X21864000Y-13609000D01*
X21864000Y-13569000D02*
X21824000Y-13609000D01*
X21824000Y-14051600D02*
X21864000Y-14091600D01*
X21864000Y-14051600D02*
X21824000Y-14091600D01*
X21849400Y-9759000D02*
X21889400Y-9799000D01*
X21889400Y-9759000D02*
X21849400Y-9799000D01*
X21849400Y-11206800D02*
X21889400Y-11246800D01*
X21889400Y-11206800D02*
X21849400Y-11246800D01*
X21867000Y-12072000D02*
X21907000Y-12112000D01*
X21907000Y-12072000D02*
X21867000Y-12112000D01*
X21870003Y-12808997D02*
X21910003Y-12848997D01*
X21910003Y-12808997D02*
X21870003Y-12848997D01*
X21874800Y-14458000D02*
X21914800Y-14498000D01*
X21914800Y-14458000D02*
X21874800Y-14498000D01*
X21925600Y-14635800D02*
X21965600Y-14675800D01*
X21965600Y-14635800D02*
X21925600Y-14675800D01*
X21955000Y-14058000D02*
X21995000Y-14098000D01*
X21995000Y-14058000D02*
X21955000Y-14098000D01*
X22007967Y-13199721D02*
X22047967Y-13239721D01*
X22047967Y-13199721D02*
X22007967Y-13239721D01*
X22041000Y-13565000D02*
X22081000Y-13605000D01*
X22081000Y-13565000D02*
X22041000Y-13605000D01*
X22079000Y-12072000D02*
X22119000Y-12112000D01*
X22119000Y-12072000D02*
X22079000Y-12112000D01*
X22103400Y-10521000D02*
X22143400Y-10561000D01*
X22143400Y-10521000D02*
X22103400Y-10561000D01*
X22103400Y-15042200D02*
X22143400Y-15082200D01*
X22143400Y-15042200D02*
X22103400Y-15082200D01*
X22118000Y-11659000D02*
X22158000Y-11699000D01*
X22158000Y-11659000D02*
X22118000Y-11699000D01*
X22138000Y-15235000D02*
X22178000Y-15275000D01*
X22178000Y-15235000D02*
X22138000Y-15275000D01*
X22154200Y-9809800D02*
X22194200Y-9849800D01*
X22194200Y-9809800D02*
X22154200Y-9849800D01*
X22165000Y-11454000D02*
X22205000Y-11494000D01*
X22205000Y-11454000D02*
X22165000Y-11494000D01*
X22293000Y-12448000D02*
X22333000Y-12488000D01*
X22333000Y-12448000D02*
X22293000Y-12488000D01*
X22318000Y-11918000D02*
X22358000Y-11958000D01*
X22358000Y-11918000D02*
X22318000Y-11958000D01*
X22332000Y-14966000D02*
X22372000Y-15006000D01*
X22372000Y-14966000D02*
X22332000Y-15006000D01*
X22336000Y-11563000D02*
X22376000Y-11603000D01*
X22376000Y-11563000D02*
X22336000Y-11603000D01*
X22356000Y-12218000D02*
X22396000Y-12258000D01*
X22396000Y-12218000D02*
X22356000Y-12258000D01*
X22408200Y-9403400D02*
X22448200Y-9443400D01*
X22448200Y-9403400D02*
X22408200Y-9443400D01*
X22429000Y-13713000D02*
X22469000Y-13753000D01*
X22469000Y-13713000D02*
X22429000Y-13753000D01*
X22489000Y-11762000D02*
X22529000Y-11802000D01*
X22529000Y-11762000D02*
X22489000Y-11802000D01*
X22496000Y-12926000D02*
X22536000Y-12966000D01*
X22536000Y-12926000D02*
X22496000Y-12966000D01*
X22530000Y-11331000D02*
X22570000Y-11371000D01*
X22570000Y-11331000D02*
X22530000Y-11371000D01*
X22537000Y-14877000D02*
X22577000Y-14917000D01*
X22577000Y-14877000D02*
X22537000Y-14917000D01*
X22542000Y-14769000D02*
X22582000Y-14809000D01*
X22582000Y-14769000D02*
X22542000Y-14809000D01*
X22563000Y-10798000D02*
X22603000Y-10838000D01*
X22603000Y-10798000D02*
X22563000Y-10838000D01*
X22565000Y-14277000D02*
X22605000Y-14317000D01*
X22605000Y-14277000D02*
X22565000Y-14317000D01*
X22645000Y-12730000D02*
X22685000Y-12770000D01*
X22685000Y-12730000D02*
X22645000Y-12770000D01*
X22709000Y-9985000D02*
X22749000Y-10025000D01*
X22749000Y-9985000D02*
X22709000Y-10025000D01*
X22713000Y-9378000D02*
X22753000Y-9418000D01*
X22753000Y-9378000D02*
X22713000Y-9418000D01*
X22798250Y-10987250D02*
X22838250Y-11027250D01*
X22838250Y-10987250D02*
X22798250Y-11027250D01*
X22884000Y-12807000D02*
X22924000Y-12847000D01*
X22924000Y-12807000D02*
X22884000Y-12847000D01*
X22903500Y-15156500D02*
X22943500Y-15196500D01*
X22943500Y-15156500D02*
X22903500Y-15196500D01*
X22909000Y-13107000D02*
X22949000Y-13147000D01*
X22949000Y-13107000D02*
X22909000Y-13147000D01*
X22918000Y-13235000D02*
X22958000Y-13275000D01*
X22958000Y-13235000D02*
X22918000Y-13275000D01*
X22958000Y-14875000D02*
X22998000Y-14915000D01*
X22998000Y-14875000D02*
X22958000Y-14915000D01*
X22967000Y-14966000D02*
X23007000Y-15006000D01*
X23007000Y-14966000D02*
X22967000Y-15006000D01*
X23007000Y-11704000D02*
X23047000Y-11744000D01*
X23047000Y-11704000D02*
X23007000Y-11744000D01*
X23017000Y-11842000D02*
X23057000Y-11882000D01*
X23057000Y-11842000D02*
X23017000Y-11882000D01*
X23027000Y-11172000D02*
X23067000Y-11212000D01*
X23067000Y-11172000D02*
X23027000Y-11212000D01*
X23029000Y-10911000D02*
X23069000Y-10951000D01*
X23069000Y-10911000D02*
X23029000Y-10951000D01*
X23050000Y-9232000D02*
X23090000Y-9272000D01*
X23090000Y-9232000D02*
X23050000Y-9272000D01*
X23083000Y-9040000D02*
X23123000Y-9080000D01*
X23123000Y-9040000D02*
X23083000Y-9080000D01*
X23123000Y-13645000D02*
X23163000Y-13685000D01*
X23163000Y-13645000D02*
X23123000Y-13685000D01*
X23209687Y-13082000D02*
X23249687Y-13122000D01*
X23249687Y-13082000D02*
X23209687Y-13122000D01*
X23271000Y-13408000D02*
X23311000Y-13448000D01*
X23311000Y-13408000D02*
X23271000Y-13448000D01*
X23297200Y-10851200D02*
X23337200Y-10891200D01*
X23337200Y-10851200D02*
X23297200Y-10891200D01*
X23297200Y-10978200D02*
X23337200Y-11018200D01*
X23337200Y-10978200D02*
X23297200Y-11018200D01*
X23297200Y-11079800D02*
X23337200Y-11119800D01*
X23337200Y-11079800D02*
X23297200Y-11119800D01*
X23299000Y-14178000D02*
X23339000Y-14218000D01*
X23339000Y-14178000D02*
X23299000Y-14218000D01*
X23308000Y-11555000D02*
X23348000Y-11595000D01*
X23348000Y-11555000D02*
X23308000Y-11595000D01*
X23310000Y-12206000D02*
X23350000Y-12246000D01*
X23350000Y-12206000D02*
X23310000Y-12246000D01*
X23312000Y-12983000D02*
X23352000Y-13023000D01*
X23352000Y-12983000D02*
X23312000Y-13023000D01*
X23353000Y-11792000D02*
X23393000Y-11832000D01*
X23393000Y-11792000D02*
X23353000Y-11832000D01*
X23372000Y-9880000D02*
X23412000Y-9920000D01*
X23412000Y-9880000D02*
X23372000Y-9920000D01*
X23378000Y-12545000D02*
X23418000Y-12585000D01*
X23418000Y-12545000D02*
X23378000Y-12585000D01*
X23401000Y-10538000D02*
X23441000Y-10578000D01*
X23441000Y-10538000D02*
X23401000Y-10578000D01*
X23412000Y-13443000D02*
X23452000Y-13483000D01*
X23452000Y-13443000D02*
X23412000Y-13483000D01*
X23420000Y-11649000D02*
X23460000Y-11689000D01*
X23460000Y-11649000D02*
X23420000Y-11689000D01*
X23420000Y-12171000D02*
X23460000Y-12211000D01*
X23460000Y-12171000D02*
X23420000Y-12211000D01*
X23420000Y-15156500D02*
X23460000Y-15196500D01*
X23460000Y-15156500D02*
X23420000Y-15196500D01*
X23439005Y-12714995D02*
X23479005Y-12754995D01*
X23479005Y-12714995D02*
X23439005Y-12754995D01*
X23449600Y-14940600D02*
X23489600Y-14980600D01*
X23489600Y-14940600D02*
X23449600Y-14980600D01*
X23475000Y-9505000D02*
X23515000Y-9545000D01*
X23515000Y-9505000D02*
X23475000Y-9545000D01*
X23475000Y-14839000D02*
X23515000Y-14879000D01*
X23515000Y-14839000D02*
X23475000Y-14879000D01*
X23545500Y-12297500D02*
X23585500Y-12337500D01*
X23585500Y-12297500D02*
X23545500Y-12337500D01*
X23546000Y-10536000D02*
X23586000Y-10576000D01*
X23586000Y-10536000D02*
X23546000Y-10576000D01*
X23551200Y-14966000D02*
X23591200Y-15006000D01*
X23591200Y-14966000D02*
X23551200Y-15006000D01*
X23576600Y-9581200D02*
X23616600Y-9621200D01*
X23616600Y-9581200D02*
X23576600Y-9621200D01*
X23602000Y-9044000D02*
X23642000Y-9084000D01*
X23642000Y-9044000D02*
X23602000Y-9084000D01*
X23645000Y-10679000D02*
X23685000Y-10719000D01*
X23685000Y-10679000D02*
X23645000Y-10719000D01*
X23652800Y-11156000D02*
X23692800Y-11196000D01*
X23692800Y-11156000D02*
X23652800Y-11196000D01*
X23676000Y-10520000D02*
X23716000Y-10560000D01*
X23716000Y-10520000D02*
X23676000Y-10560000D01*
X23703600Y-14839000D02*
X23743600Y-14879000D01*
X23743600Y-14839000D02*
X23703600Y-14879000D01*
X23729000Y-14966000D02*
X23769000Y-15006000D01*
X23769000Y-14966000D02*
X23729000Y-15006000D01*
X23740000Y-14160000D02*
X23780000Y-14200000D01*
X23780000Y-14160000D02*
X23740000Y-14200000D01*
X23754000Y-10676000D02*
X23794000Y-10716000D01*
X23794000Y-10676000D02*
X23754000Y-10716000D01*
X23828000Y-11653000D02*
X23868000Y-11693000D01*
X23868000Y-11653000D02*
X23828000Y-11693000D01*
X23830600Y-10521000D02*
X23870600Y-10561000D01*
X23870600Y-10521000D02*
X23830600Y-10561000D01*
X23856000Y-11156000D02*
X23896000Y-11196000D01*
X23896000Y-11156000D02*
X23856000Y-11196000D01*
X23876320Y-10673400D02*
X23916320Y-10713400D01*
X23916320Y-10673400D02*
X23876320Y-10713400D01*
X23932200Y-10521000D02*
X23972200Y-10561000D01*
X23972200Y-10521000D02*
X23932200Y-10561000D01*
X23937000Y-9287000D02*
X23977000Y-9327000D01*
X23977000Y-9287000D02*
X23937000Y-9327000D01*
X23942000Y-9553000D02*
X23982000Y-9593000D01*
X23982000Y-9553000D02*
X23942000Y-9593000D01*
X23983000Y-10038400D02*
X24023000Y-10078400D01*
X24023000Y-10038400D02*
X23983000Y-10078400D01*
X23983000Y-11156000D02*
X24023000Y-11196000D01*
X24023000Y-11156000D02*
X23983000Y-11196000D01*
X24004000Y-9462000D02*
X24044000Y-9502000D01*
X24044000Y-9462000D02*
X24004000Y-9502000D01*
X24015000Y-10663000D02*
X24055000Y-10703000D01*
X24055000Y-10663000D02*
X24015000Y-10703000D01*
X24032000Y-9351000D02*
X24072000Y-9391000D01*
X24072000Y-9351000D02*
X24032000Y-9391000D01*
X24033800Y-10521000D02*
X24073800Y-10561000D01*
X24073800Y-10521000D02*
X24033800Y-10561000D01*
X24071000Y-11489000D02*
X24111000Y-11529000D01*
X24111000Y-11489000D02*
X24071000Y-11529000D01*
X24110000Y-11156000D02*
X24150000Y-11196000D01*
X24150000Y-11156000D02*
X24110000Y-11196000D01*
X24167000Y-10019000D02*
X24207000Y-10059000D01*
X24207000Y-10019000D02*
X24167000Y-10059000D01*
X24199000Y-9362000D02*
X24239000Y-9402000D01*
X24239000Y-9362000D02*
X24199000Y-9402000D01*
X24237000Y-9124000D02*
X24277000Y-9164000D01*
X24277000Y-9124000D02*
X24237000Y-9164000D01*
X24244000Y-15539000D02*
X24284000Y-15579000D01*
X24284000Y-15539000D02*
X24244000Y-15579000D01*
X24245000Y-14963000D02*
X24285000Y-15003000D01*
X24285000Y-14963000D02*
X24245000Y-15003000D01*
X24285000Y-9262000D02*
X24325000Y-9302000D01*
X24325000Y-9262000D02*
X24285000Y-9302000D01*
X24309000Y-10378000D02*
X24349000Y-10418000D01*
X24349000Y-10378000D02*
X24309000Y-10418000D01*
X24309000Y-11163000D02*
X24349000Y-11203000D01*
X24349000Y-11163000D02*
X24309000Y-11203000D01*
X24347000Y-10192000D02*
X24387000Y-10232000D01*
X24387000Y-10192000D02*
X24347000Y-10232000D01*
X24364000Y-14839000D02*
X24404000Y-14879000D01*
X24404000Y-14839000D02*
X24364000Y-14879000D01*
X24383000Y-9052000D02*
X24423000Y-9092000D01*
X24423000Y-9052000D02*
X24383000Y-9092000D01*
X24402000Y-11106000D02*
X24442000Y-11146000D01*
X24442000Y-11106000D02*
X24402000Y-11146000D01*
X24520000Y-14943000D02*
X24560000Y-14983000D01*
X24560000Y-14943000D02*
X24520000Y-14983000D01*
X24528000Y-10605000D02*
X24568000Y-10645000D01*
X24568000Y-10605000D02*
X24528000Y-10645000D01*
X24530000Y-10682000D02*
X24570000Y-10722000D01*
X24570000Y-10682000D02*
X24530000Y-10722000D01*
X24583000Y-14701000D02*
X24623000Y-14741000D01*
X24623000Y-14701000D02*
X24583000Y-14741000D01*
X24628000Y-13249000D02*
X24668000Y-13289000D01*
X24668000Y-13249000D02*
X24628000Y-13289000D01*
X24664000Y-11646500D02*
X24704000Y-11686500D01*
X24704000Y-11646500D02*
X24664000Y-11686500D01*
X24664000Y-12890000D02*
X24704000Y-12930000D01*
X24704000Y-12890000D02*
X24664000Y-12930000D01*
X24874000Y-12921000D02*
X24914000Y-12961000D01*
X24914000Y-12921000D02*
X24874000Y-12961000D01*
X24888000Y-9054000D02*
X24928000Y-9094000D01*
X24928000Y-9054000D02*
X24888000Y-9094000D01*
X24935500Y-15156500D02*
X24975500Y-15196500D01*
X24975500Y-15156500D02*
X24935500Y-15196500D01*
X24973000Y-14777000D02*
X25013000Y-14817000D01*
X25013000Y-14777000D02*
X24973000Y-14817000D01*
X24999000Y-14966000D02*
X25039000Y-15006000D01*
X25039000Y-14966000D02*
X24999000Y-15006000D01*
X25154533Y-13283533D02*
X25194533Y-13323533D01*
X25194533Y-13283533D02*
X25154533Y-13323533D01*
X25205675Y-14323000D02*
X25245675Y-14363000D01*
X25245675Y-14323000D02*
X25205675Y-14363000D01*
X25240000Y-9341000D02*
X25280000Y-9381000D01*
X25280000Y-9341000D02*
X25240000Y-9381000D01*
X25251000Y-9542000D02*
X25291000Y-9582000D01*
X25291000Y-9542000D02*
X25251000Y-9582000D01*
X25268000Y-10726000D02*
X25308000Y-10766000D01*
X25308000Y-10726000D02*
X25268000Y-10766000D01*
X25323250Y-10004948D02*
X25363250Y-10044948D01*
X25363250Y-10004948D02*
X25323250Y-10044948D01*
X25356000Y-9523000D02*
X25396000Y-9563000D01*
X25396000Y-9523000D02*
X25356000Y-9563000D01*
X25400000Y-9316000D02*
X25440000Y-9356000D01*
X25440000Y-9316000D02*
X25400000Y-9356000D01*
X25401000Y-13020000D02*
X25441000Y-13060000D01*
X25441000Y-13020000D02*
X25401000Y-13060000D01*
X25441000Y-14838000D02*
X25481000Y-14878000D01*
X25481000Y-14838000D02*
X25441000Y-14878000D01*
X25443500Y-15156500D02*
X25483500Y-15196500D01*
X25483500Y-15156500D02*
X25443500Y-15196500D01*
X25500000Y-15019000D02*
X25540000Y-15059000D01*
X25540000Y-15019000D02*
X25500000Y-15059000D01*
X25583200Y-9301800D02*
X25623200Y-9341800D01*
X25623200Y-9301800D02*
X25583200Y-9341800D01*
X25604000Y-11699000D02*
X25644000Y-11739000D01*
X25644000Y-11699000D02*
X25604000Y-11739000D01*
X25634000Y-8743000D02*
X25674000Y-8783000D01*
X25674000Y-8743000D02*
X25634000Y-8783000D01*
X25634000Y-14966000D02*
X25674000Y-15006000D01*
X25674000Y-14966000D02*
X25634000Y-15006000D01*
X25640000Y-11593000D02*
X25680000Y-11633000D01*
X25680000Y-11593000D02*
X25640000Y-11633000D01*
X25646467Y-10888533D02*
X25686467Y-10928533D01*
X25686467Y-10888533D02*
X25646467Y-10928533D01*
X25659400Y-9124000D02*
X25699400Y-9164000D01*
X25699400Y-9124000D02*
X25659400Y-9164000D01*
X25688000Y-11325000D02*
X25728000Y-11365000D01*
X25728000Y-11325000D02*
X25688000Y-11365000D01*
X25703000Y-10273000D02*
X25743000Y-10313000D01*
X25743000Y-10273000D02*
X25703000Y-10313000D01*
X25716000Y-12091000D02*
X25756000Y-12131000D01*
X25756000Y-12091000D02*
X25716000Y-12131000D01*
X25759000Y-11068000D02*
X25799000Y-11108000D01*
X25799000Y-11068000D02*
X25759000Y-11108000D01*
X25760000Y-9063000D02*
X25800000Y-9103000D01*
X25800000Y-9063000D02*
X25760000Y-9103000D01*
X25761000Y-9378000D02*
X25801000Y-9418000D01*
X25801000Y-9378000D02*
X25761000Y-9418000D01*
X25837750Y-14214250D02*
X25877750Y-14254250D01*
X25877750Y-14214250D02*
X25837750Y-14254250D01*
X25866000Y-12093000D02*
X25906000Y-12133000D01*
X25906000Y-12093000D02*
X25866000Y-12133000D01*
X25871000Y-11962000D02*
X25911000Y-12002000D01*
X25911000Y-11962000D02*
X25871000Y-12002000D01*
X25874000Y-12264000D02*
X25914000Y-12304000D01*
X25914000Y-12264000D02*
X25874000Y-12304000D01*
X25951500Y-14902500D02*
X25991500Y-14942500D01*
X25991500Y-14902500D02*
X25951500Y-14942500D01*
X25964000Y-11397000D02*
X26004000Y-11437000D01*
X26004000Y-11397000D02*
X25964000Y-11437000D01*
X25977000Y-15053000D02*
X26017000Y-15093000D01*
X26017000Y-15053000D02*
X25977000Y-15093000D01*
X25987000Y-13057000D02*
X26027000Y-13097000D01*
X26027000Y-13057000D02*
X25987000Y-13097000D01*
X25987000Y-14726000D02*
X26027000Y-14766000D01*
X26027000Y-14726000D02*
X25987000Y-14766000D01*
X25998000Y-12799000D02*
X26038000Y-12839000D01*
X26038000Y-12799000D02*
X25998000Y-12839000D01*
X26016000Y-10806000D02*
X26056000Y-10846000D01*
X26056000Y-10806000D02*
X26016000Y-10846000D01*
X26119000Y-13710000D02*
X26159000Y-13750000D01*
X26159000Y-13710000D02*
X26119000Y-13750000D01*
X26142000Y-9378000D02*
X26182000Y-9418000D01*
X26182000Y-9378000D02*
X26142000Y-9418000D01*
X26188000Y-9525000D02*
X26228000Y-9565000D01*
X26228000Y-9525000D02*
X26188000Y-9565000D01*
X26188000Y-12605000D02*
X26228000Y-12645000D01*
X26228000Y-12605000D02*
X26188000Y-12645000D01*
X26263000Y-9327000D02*
X26303000Y-9367000D01*
X26303000Y-9327000D02*
X26263000Y-9367000D01*
X26269000Y-9073200D02*
X26309000Y-9113200D01*
X26309000Y-9073200D02*
X26269000Y-9113200D01*
X26332500Y-15156500D02*
X26372500Y-15196500D01*
X26372500Y-15156500D02*
X26332500Y-15196500D01*
X26359000Y-14766000D02*
X26399000Y-14806000D01*
X26399000Y-14766000D02*
X26359000Y-14806000D01*
X26388000Y-11833000D02*
X26428000Y-11873000D01*
X26428000Y-11833000D02*
X26388000Y-11873000D01*
X26403000Y-14907000D02*
X26443000Y-14947000D01*
X26443000Y-14907000D02*
X26403000Y-14947000D01*
X26435000Y-13089000D02*
X26475000Y-13129000D01*
X26475000Y-13089000D02*
X26435000Y-13129000D01*
X26505000Y-11561000D02*
X26545000Y-11601000D01*
X26545000Y-11561000D02*
X26505000Y-11601000D01*
X26506000Y-9980000D02*
X26546000Y-10020000D01*
X26546000Y-9980000D02*
X26506000Y-10020000D01*
X26537500Y-12756000D02*
X26577500Y-12796000D01*
X26577500Y-12756000D02*
X26537500Y-12796000D01*
X26566000Y-14322000D02*
X26606000Y-14362000D01*
X26606000Y-14322000D02*
X26566000Y-14362000D01*
X26639500Y-9314500D02*
X26679500Y-9354500D01*
X26679500Y-9314500D02*
X26639500Y-9354500D01*
X26655000Y-11520000D02*
X26695000Y-11560000D01*
X26695000Y-11520000D02*
X26655000Y-11560000D01*
X26670000Y-11340000D02*
X26710000Y-11380000D01*
X26710000Y-11340000D02*
X26670000Y-11380000D01*
X26711000Y-11993000D02*
X26751000Y-12033000D01*
X26751000Y-11993000D02*
X26711000Y-12033000D01*
X26712000Y-12177000D02*
X26752000Y-12217000D01*
X26752000Y-12177000D02*
X26712000Y-12217000D01*
X26770000Y-12555000D02*
X26810000Y-12595000D01*
X26810000Y-12555000D02*
X26770000Y-12595000D01*
X26819000Y-11984000D02*
X26859000Y-12024000D01*
X26859000Y-11984000D02*
X26819000Y-12024000D01*
X26823000Y-9350000D02*
X26863000Y-9390000D01*
X26863000Y-9350000D02*
X26823000Y-9390000D01*
X26836000Y-14826000D02*
X26876000Y-14866000D01*
X26876000Y-14826000D02*
X26836000Y-14866000D01*
X26841000Y-14993000D02*
X26881000Y-15033000D01*
X26881000Y-14993000D02*
X26841000Y-15033000D01*
X26843033Y-12290033D02*
X26883033Y-12330033D01*
X26883033Y-12290033D02*
X26843033Y-12330033D01*
X26874000Y-15158000D02*
X26914000Y-15198000D01*
X26914000Y-15158000D02*
X26874000Y-15198000D01*
X26884000Y-12754000D02*
X26924000Y-12794000D01*
X26924000Y-12754000D02*
X26884000Y-12794000D01*
X26980200Y-9378000D02*
X27020200Y-9418000D01*
X27020200Y-9378000D02*
X26980200Y-9418000D01*
X27031000Y-8870000D02*
X27071000Y-8910000D01*
X27071000Y-8870000D02*
X27031000Y-8910000D01*
X27054000Y-9076000D02*
X27094000Y-9116000D01*
X27094000Y-9076000D02*
X27054000Y-9116000D01*
X27069000Y-15025000D02*
X27109000Y-15065000D01*
X27109000Y-15025000D02*
X27069000Y-15065000D01*
X27081800Y-14889800D02*
X27121800Y-14929800D01*
X27121800Y-14889800D02*
X27081800Y-14929800D01*
X27132600Y-9479600D02*
X27172600Y-9519600D01*
X27172600Y-9479600D02*
X27132600Y-9519600D01*
X27178500Y-13989500D02*
X27218500Y-14029500D01*
X27218500Y-13989500D02*
X27178500Y-14029500D01*
X27213250Y-14201375D02*
X27253250Y-14241375D01*
X27253250Y-14201375D02*
X27213250Y-14241375D01*
X27285000Y-11276000D02*
X27325000Y-11316000D01*
X27325000Y-11276000D02*
X27285000Y-11316000D01*
X27285000Y-13061000D02*
X27325000Y-13101000D01*
X27325000Y-13061000D02*
X27285000Y-13101000D01*
X27287000Y-10292000D02*
X27327000Y-10332000D01*
X27327000Y-10292000D02*
X27287000Y-10332000D01*
X27297700Y-11143300D02*
X27337700Y-11183300D01*
X27337700Y-11143300D02*
X27297700Y-11183300D01*
X27304000Y-11717000D02*
X27344000Y-11757000D01*
X27344000Y-11717000D02*
X27304000Y-11757000D01*
X27310000Y-12604000D02*
X27350000Y-12644000D01*
X27350000Y-12604000D02*
X27310000Y-12644000D01*
X27329000Y-12211000D02*
X27369000Y-12251000D01*
X27369000Y-12211000D02*
X27329000Y-12251000D01*
X27338000Y-14007000D02*
X27378000Y-14047000D01*
X27378000Y-14007000D02*
X27338000Y-14047000D01*
X27347000Y-10674000D02*
X27387000Y-10714000D01*
X27387000Y-10674000D02*
X27347000Y-10714000D01*
X27361200Y-11486200D02*
X27401200Y-11526200D01*
X27401200Y-11486200D02*
X27361200Y-11526200D01*
X27361200Y-12908600D02*
X27401200Y-12948600D01*
X27401200Y-12908600D02*
X27361200Y-12948600D01*
X27386000Y-13542000D02*
X27426000Y-13582000D01*
X27426000Y-13542000D02*
X27386000Y-13582000D01*
X27412000Y-9733600D02*
X27452000Y-9773600D01*
X27452000Y-9733600D02*
X27412000Y-9773600D01*
X27412000Y-10267000D02*
X27452000Y-10307000D01*
X27452000Y-10267000D02*
X27412000Y-10307000D01*
X27412000Y-10775000D02*
X27452000Y-10815000D01*
X27452000Y-10775000D02*
X27412000Y-10815000D01*
X27412000Y-11283000D02*
X27452000Y-11323000D01*
X27452000Y-11283000D02*
X27412000Y-11323000D01*
X27412000Y-11664000D02*
X27452000Y-11704000D01*
X27452000Y-11664000D02*
X27412000Y-11704000D01*
X27412000Y-12680000D02*
X27452000Y-12720000D01*
X27452000Y-12680000D02*
X27412000Y-12720000D01*
X27412000Y-14077000D02*
X27452000Y-14117000D01*
X27452000Y-14077000D02*
X27412000Y-14117000D01*
X27412000Y-14458000D02*
X27452000Y-14498000D01*
X27452000Y-14458000D02*
X27412000Y-14498000D01*
X27422000Y-14652000D02*
X27462000Y-14692000D01*
X27462000Y-14652000D02*
X27422000Y-14692000D01*
X27431000Y-12162000D02*
X27471000Y-12202000D01*
X27471000Y-12162000D02*
X27431000Y-12202000D01*
X27437400Y-9962200D02*
X27477400Y-10002200D01*
X27477400Y-9962200D02*
X27437400Y-10002200D01*
X27437400Y-13086400D02*
X27477400Y-13126400D01*
X27477400Y-13086400D02*
X27437400Y-13126400D01*
X27437400Y-13645200D02*
X27477400Y-13685200D01*
X27477400Y-13645200D02*
X27437400Y-13685200D01*
X27594000Y-11736000D02*
X27634000Y-11776000D01*
X27634000Y-11736000D02*
X27594000Y-11776000D01*
X27602000Y-13131000D02*
X27642000Y-13171000D01*
X27642000Y-13131000D02*
X27602000Y-13171000D01*
X27602500Y-10838500D02*
X27642500Y-10878500D01*
X27642500Y-10838500D02*
X27602500Y-10878500D01*
X27602500Y-13657900D02*
X27642500Y-13697900D01*
X27642500Y-13657900D02*
X27602500Y-13697900D01*
X27608000Y-12233000D02*
X27648000Y-12273000D01*
X27648000Y-12233000D02*
X27608000Y-12273000D01*
X27633500Y-10322500D02*
X27673500Y-10362500D01*
X27673500Y-10322500D02*
X27633500Y-10362500D01*
X27665000Y-14404000D02*
X27705000Y-14444000D01*
X27705000Y-14404000D02*
X27665000Y-14444000D01*
X27715000Y-12983000D02*
X27755000Y-13023000D01*
X27755000Y-12983000D02*
X27715000Y-13023000D01*
X27793000Y-14432600D02*
X27833000Y-14472600D01*
X27833000Y-14432600D02*
X27793000Y-14472600D01*
X27920000Y-11537000D02*
X27960000Y-11577000D01*
X27960000Y-11537000D02*
X27920000Y-11577000D01*
X21884000Y-11426000D02*
G75*
G02*
X21834000Y-11426000I-25000J0D01*
G01*
X21834000Y-11426000D02*
G75*
G02*
X21884000Y-11426000I25000J0D01*
G01*
X21970600Y-10033000D02*
G75*
G02*
X21920600Y-10033000I-25000J0D01*
G01*
X21920600Y-10033000D02*
G75*
G02*
X21970600Y-10033000I25000J0D01*
G01*
X22060000Y-9675000D02*
G75*
G02*
X22010000Y-9675000I-25000J0D01*
G01*
X22010000Y-9675000D02*
G75*
G02*
X22060000Y-9675000I25000J0D01*
G01*
X22184000Y-10007000D02*
G75*
G02*
X22134000Y-10007000I-25000J0D01*
G01*
X22134000Y-10007000D02*
G75*
G02*
X22184000Y-10007000I25000J0D01*
G01*
X22498000Y-13206000D02*
G75*
G02*
X22448000Y-13206000I-25000J0D01*
G01*
X22448000Y-13206000D02*
G75*
G02*
X22498000Y-13206000I25000J0D01*
G01*
X22631000Y-9017000D02*
G75*
G02*
X22581000Y-9017000I-25000J0D01*
G01*
X22581000Y-9017000D02*
G75*
G02*
X22631000Y-9017000I25000J0D01*
G01*
X23025000Y-14199000D02*
G75*
G02*
X22975000Y-14199000I-25000J0D01*
G01*
X22975000Y-14199000D02*
G75*
G02*
X23025000Y-14199000I25000J0D01*
G01*
X23552000Y-13164000D02*
G75*
G02*
X23502000Y-13164000I-25000J0D01*
G01*
X23502000Y-13164000D02*
G75*
G02*
X23552000Y-13164000I25000J0D01*
G01*
X23748600Y-9931400D02*
G75*
G02*
X23698600Y-9931400I-25000J0D01*
G01*
X23698600Y-9931400D02*
G75*
G02*
X23748600Y-9931400I25000J0D01*
G01*
X24058000Y-15698000D02*
G75*
G02*
X24008000Y-15698000I-25000J0D01*
G01*
X24008000Y-15698000D02*
G75*
G02*
X24058000Y-15698000I25000J0D01*
G01*
X24384000Y-14636000D02*
G75*
G02*
X24334000Y-14636000I-25000J0D01*
G01*
X24334000Y-14636000D02*
G75*
G02*
X24384000Y-14636000I25000J0D01*
G01*
X24552000Y-14269000D02*
G75*
G02*
X24502000Y-14269000I-25000J0D01*
G01*
X24502000Y-14269000D02*
G75*
G02*
X24552000Y-14269000I25000J0D01*
G01*
X24777000Y-11299000D02*
G75*
G02*
X24727000Y-11299000I-25000J0D01*
G01*
X24727000Y-11299000D02*
G75*
G02*
X24777000Y-11299000I25000J0D01*
G01*
X25044000Y-14300200D02*
G75*
G02*
X24994000Y-14300200I-25000J0D01*
G01*
X24994000Y-14300200D02*
G75*
G02*
X25044000Y-14300200I25000J0D01*
G01*
X25099000Y-9916000D02*
G75*
G02*
X25049000Y-9916000I-25000J0D01*
G01*
X25049000Y-9916000D02*
G75*
G02*
X25099000Y-9916000I25000J0D01*
G01*
X26136200Y-10109200D02*
G75*
G02*
X26086200Y-10109200I-25000J0D01*
G01*
X26086200Y-10109200D02*
G75*
G02*
X26136200Y-10109200I25000J0D01*
G01*
X26175000Y-14287000D02*
G75*
G02*
X26125000Y-14287000I-25000J0D01*
G01*
X26125000Y-14287000D02*
G75*
G02*
X26175000Y-14287000I25000J0D01*
G01*
X26444000Y-14183000D02*
G75*
G02*
X26394000Y-14183000I-25000J0D01*
G01*
X26394000Y-14183000D02*
G75*
G02*
X26444000Y-14183000I25000J0D01*
G01*
X26639000Y-13565000D02*
G75*
G02*
X26589000Y-13565000I-25000J0D01*
G01*
X26589000Y-13565000D02*
G75*
G02*
X26639000Y-13565000I25000J0D01*
G01*
X26720400Y-10871200D02*
G75*
G02*
X26670400Y-10871200I-25000J0D01*
G01*
X26670400Y-10871200D02*
G75*
G02*
X26720400Y-10871200I25000J0D01*
G01*
X26824000Y-9545000D02*
G75*
G02*
X26774000Y-9545000I-25000J0D01*
G01*
X26774000Y-9545000D02*
G75*
G02*
X26824000Y-9545000I25000J0D01*
G01*
X28164000Y-11100000D02*
G75*
G02*
X28114000Y-11100000I-25000J0D01*
G01*
X28114000Y-11100000D02*
G75*
G02*
X28164000Y-11100000I25000J0D01*
G01*
X28199000Y-14683000D02*
G75*
G02*
X28149000Y-14683000I-25000J0D01*
G01*
X28149000Y-14683000D02*
G75*
G02*
X28199000Y-14683000I25000J0D01*
G01*
X24142000Y-13690500D02*
X24142000Y-13785500D01*
X24094500Y-13738000D02*
X24189500Y-13738000D01*
X24392000Y-13690500D02*
X24392000Y-13785500D01*
X24344500Y-13738000D02*
X24439500Y-13738000D01*
X24642000Y-13690500D02*
X24642000Y-13785500D01*
X24594500Y-13738000D02*
X24689500Y-13738000D01*
X24892000Y-13690500D02*
X24892000Y-13785500D01*
X24844500Y-13738000D02*
X24939500Y-13738000D01*
X25142000Y-13690500D02*
X25142000Y-13785500D01*
X25094500Y-13738000D02*
X25189500Y-13738000D01*
X25392000Y-13690500D02*
X25392000Y-13785500D01*
X25344500Y-13738000D02*
X25439500Y-13738000D01*
X25642000Y-13690500D02*
X25642000Y-13785500D01*
X25594500Y-13738000D02*
X25689500Y-13738000D01*
D12*
X21720816Y-9370816D02*
X21720816Y-9109184D01*
X21459184Y-9109184D01*
X21459184Y-9370816D01*
X21720816Y-9370816D01*
X21720816Y-15370816D02*
X21720816Y-15109184D01*
X21459184Y-15109184D01*
X21459184Y-15370816D01*
X21720816Y-15370816D01*
X27720816Y-9370816D02*
X27720816Y-9109184D01*
X27459184Y-9109184D01*
X27459184Y-9370816D01*
X27720816Y-9370816D01*
X27720816Y-15370816D02*
X27720816Y-15109184D01*
X27459184Y-15109184D01*
X27459184Y-15370816D01*
X27720816Y-15370816D01*
D10*
X21078777Y-16203484D02*
X21078777Y-16003484D01*
X21078777Y-16003484D02*
X21126396Y-16003484D01*
X21126396Y-16003484D02*
X21154967Y-16013008D01*
X21154967Y-16013008D02*
X21174015Y-16032055D01*
X21174015Y-16032055D02*
X21183539Y-16051103D01*
X21183539Y-16051103D02*
X21193063Y-16089198D01*
X21193063Y-16089198D02*
X21193063Y-16117769D01*
X21193063Y-16117769D02*
X21183539Y-16155865D01*
X21183539Y-16155865D02*
X21174015Y-16174912D01*
X21174015Y-16174912D02*
X21154967Y-16193960D01*
X21154967Y-16193960D02*
X21126396Y-16203484D01*
X21126396Y-16203484D02*
X21078777Y-16203484D01*
X21278777Y-16203484D02*
X21278777Y-16070150D01*
X21278777Y-16108246D02*
X21288301Y-16089198D01*
X21288301Y-16089198D02*
X21297824Y-16079674D01*
X21297824Y-16079674D02*
X21316872Y-16070150D01*
X21316872Y-16070150D02*
X21335920Y-16070150D01*
X21402586Y-16203484D02*
X21402586Y-16070150D01*
X21402586Y-16003484D02*
X21393063Y-16013008D01*
X21393063Y-16013008D02*
X21402586Y-16022531D01*
X21402586Y-16022531D02*
X21412110Y-16013008D01*
X21412110Y-16013008D02*
X21402586Y-16003484D01*
X21402586Y-16003484D02*
X21402586Y-16022531D01*
X21526396Y-16203484D02*
X21507348Y-16193960D01*
X21507348Y-16193960D02*
X21497824Y-16174912D01*
X21497824Y-16174912D02*
X21497824Y-16003484D01*
X21631158Y-16203484D02*
X21612110Y-16193960D01*
X21612110Y-16193960D02*
X21602586Y-16174912D01*
X21602586Y-16174912D02*
X21602586Y-16003484D01*
X21859729Y-16203484D02*
X21859729Y-16003484D01*
X21859729Y-16003484D02*
X21926396Y-16146341D01*
X21926396Y-16146341D02*
X21993063Y-16003484D01*
X21993063Y-16003484D02*
X21993063Y-16203484D01*
X22174015Y-16203484D02*
X22174015Y-16098722D01*
X22174015Y-16098722D02*
X22164491Y-16079674D01*
X22164491Y-16079674D02*
X22145444Y-16070150D01*
X22145444Y-16070150D02*
X22107348Y-16070150D01*
X22107348Y-16070150D02*
X22088301Y-16079674D01*
X22174015Y-16193960D02*
X22154967Y-16203484D01*
X22154967Y-16203484D02*
X22107348Y-16203484D01*
X22107348Y-16203484D02*
X22088301Y-16193960D01*
X22088301Y-16193960D02*
X22078777Y-16174912D01*
X22078777Y-16174912D02*
X22078777Y-16155865D01*
X22078777Y-16155865D02*
X22088301Y-16136817D01*
X22088301Y-16136817D02*
X22107348Y-16127293D01*
X22107348Y-16127293D02*
X22154967Y-16127293D01*
X22154967Y-16127293D02*
X22174015Y-16117769D01*
X22269253Y-16070150D02*
X22269253Y-16270150D01*
X22269253Y-16079674D02*
X22288301Y-16070150D01*
X22288301Y-16070150D02*
X22326396Y-16070150D01*
X22326396Y-16070150D02*
X22345444Y-16079674D01*
X22345444Y-16079674D02*
X22354967Y-16089198D01*
X22354967Y-16089198D02*
X22364491Y-16108246D01*
X22364491Y-16108246D02*
X22364491Y-16165388D01*
X22364491Y-16165388D02*
X22354967Y-16184436D01*
X22354967Y-16184436D02*
X22345444Y-16193960D01*
X22345444Y-16193960D02*
X22326396Y-16203484D01*
X22326396Y-16203484D02*
X22288301Y-16203484D01*
X22288301Y-16203484D02*
X22269253Y-16193960D01*
X22450205Y-16184436D02*
X22459729Y-16193960D01*
X22459729Y-16193960D02*
X22450205Y-16203484D01*
X22450205Y-16203484D02*
X22440682Y-16193960D01*
X22440682Y-16193960D02*
X22450205Y-16184436D01*
X22450205Y-16184436D02*
X22450205Y-16203484D01*
X22450205Y-16079674D02*
X22459729Y-16089198D01*
X22459729Y-16089198D02*
X22450205Y-16098722D01*
X22450205Y-16098722D02*
X22440682Y-16089198D01*
X22440682Y-16089198D02*
X22450205Y-16079674D01*
X22450205Y-16079674D02*
X22450205Y-16098722D01*
D11*
X20778000Y-16512000D02*
X20818000Y-16552000D01*
X20818000Y-16512000D02*
X20778000Y-16552000D01*
D10*
X21116872Y-16423484D02*
X21135920Y-16423484D01*
X21135920Y-16423484D02*
X21154967Y-16433008D01*
X21154967Y-16433008D02*
X21164491Y-16442531D01*
X21164491Y-16442531D02*
X21174015Y-16461579D01*
X21174015Y-16461579D02*
X21183539Y-16499674D01*
X21183539Y-16499674D02*
X21183539Y-16547293D01*
X21183539Y-16547293D02*
X21174015Y-16585388D01*
X21174015Y-16585388D02*
X21164491Y-16604436D01*
X21164491Y-16604436D02*
X21154967Y-16613960D01*
X21154967Y-16613960D02*
X21135920Y-16623484D01*
X21135920Y-16623484D02*
X21116872Y-16623484D01*
X21116872Y-16623484D02*
X21097824Y-16613960D01*
X21097824Y-16613960D02*
X21088301Y-16604436D01*
X21088301Y-16604436D02*
X21078777Y-16585388D01*
X21078777Y-16585388D02*
X21069253Y-16547293D01*
X21069253Y-16547293D02*
X21069253Y-16499674D01*
X21069253Y-16499674D02*
X21078777Y-16461579D01*
X21078777Y-16461579D02*
X21088301Y-16442531D01*
X21088301Y-16442531D02*
X21097824Y-16433008D01*
X21097824Y-16433008D02*
X21116872Y-16423484D01*
X21269253Y-16604436D02*
X21278777Y-16613960D01*
X21278777Y-16613960D02*
X21269253Y-16623484D01*
X21269253Y-16623484D02*
X21259729Y-16613960D01*
X21259729Y-16613960D02*
X21269253Y-16604436D01*
X21269253Y-16604436D02*
X21269253Y-16623484D01*
X21450205Y-16490150D02*
X21450205Y-16623484D01*
X21402586Y-16413960D02*
X21354967Y-16556817D01*
X21354967Y-16556817D02*
X21478777Y-16556817D01*
X21593063Y-16423484D02*
X21612110Y-16423484D01*
X21612110Y-16423484D02*
X21631158Y-16433008D01*
X21631158Y-16433008D02*
X21640682Y-16442531D01*
X21640682Y-16442531D02*
X21650205Y-16461579D01*
X21650205Y-16461579D02*
X21659729Y-16499674D01*
X21659729Y-16499674D02*
X21659729Y-16547293D01*
X21659729Y-16547293D02*
X21650205Y-16585388D01*
X21650205Y-16585388D02*
X21640682Y-16604436D01*
X21640682Y-16604436D02*
X21631158Y-16613960D01*
X21631158Y-16613960D02*
X21612110Y-16623484D01*
X21612110Y-16623484D02*
X21593063Y-16623484D01*
X21593063Y-16623484D02*
X21574015Y-16613960D01*
X21574015Y-16613960D02*
X21564491Y-16604436D01*
X21564491Y-16604436D02*
X21554967Y-16585388D01*
X21554967Y-16585388D02*
X21545444Y-16547293D01*
X21545444Y-16547293D02*
X21545444Y-16499674D01*
X21545444Y-16499674D02*
X21554967Y-16461579D01*
X21554967Y-16461579D02*
X21564491Y-16442531D01*
X21564491Y-16442531D02*
X21574015Y-16433008D01*
X21574015Y-16433008D02*
X21593063Y-16423484D01*
X21783539Y-16423484D02*
X21802586Y-16423484D01*
X21802586Y-16423484D02*
X21821634Y-16433008D01*
X21821634Y-16433008D02*
X21831158Y-16442531D01*
X21831158Y-16442531D02*
X21840682Y-16461579D01*
X21840682Y-16461579D02*
X21850205Y-16499674D01*
X21850205Y-16499674D02*
X21850205Y-16547293D01*
X21850205Y-16547293D02*
X21840682Y-16585388D01*
X21840682Y-16585388D02*
X21831158Y-16604436D01*
X21831158Y-16604436D02*
X21821634Y-16613960D01*
X21821634Y-16613960D02*
X21802586Y-16623484D01*
X21802586Y-16623484D02*
X21783539Y-16623484D01*
X21783539Y-16623484D02*
X21764491Y-16613960D01*
X21764491Y-16613960D02*
X21754967Y-16604436D01*
X21754967Y-16604436D02*
X21745444Y-16585388D01*
X21745444Y-16585388D02*
X21735920Y-16547293D01*
X21735920Y-16547293D02*
X21735920Y-16499674D01*
X21735920Y-16499674D02*
X21745444Y-16461579D01*
X21745444Y-16461579D02*
X21754967Y-16442531D01*
X21754967Y-16442531D02*
X21764491Y-16433008D01*
X21764491Y-16433008D02*
X21783539Y-16423484D01*
X21935920Y-16623484D02*
X21935920Y-16490150D01*
X21935920Y-16509198D02*
X21945444Y-16499674D01*
X21945444Y-16499674D02*
X21964491Y-16490150D01*
X21964491Y-16490150D02*
X21993063Y-16490150D01*
X21993063Y-16490150D02*
X22012110Y-16499674D01*
X22012110Y-16499674D02*
X22021634Y-16518722D01*
X22021634Y-16518722D02*
X22021634Y-16623484D01*
X22021634Y-16518722D02*
X22031158Y-16499674D01*
X22031158Y-16499674D02*
X22050205Y-16490150D01*
X22050205Y-16490150D02*
X22078777Y-16490150D01*
X22078777Y-16490150D02*
X22097825Y-16499674D01*
X22097825Y-16499674D02*
X22107348Y-16518722D01*
X22107348Y-16518722D02*
X22107348Y-16623484D01*
X22202586Y-16623484D02*
X22202586Y-16490150D01*
X22202586Y-16509198D02*
X22212110Y-16499674D01*
X22212110Y-16499674D02*
X22231158Y-16490150D01*
X22231158Y-16490150D02*
X22259729Y-16490150D01*
X22259729Y-16490150D02*
X22278777Y-16499674D01*
X22278777Y-16499674D02*
X22288301Y-16518722D01*
X22288301Y-16518722D02*
X22288301Y-16623484D01*
X22288301Y-16518722D02*
X22297825Y-16499674D01*
X22297825Y-16499674D02*
X22316872Y-16490150D01*
X22316872Y-16490150D02*
X22345444Y-16490150D01*
X22345444Y-16490150D02*
X22364491Y-16499674D01*
X22364491Y-16499674D02*
X22374015Y-16518722D01*
X22374015Y-16518722D02*
X22374015Y-16623484D01*
X22764491Y-16413960D02*
X22593063Y-16671103D01*
X23021634Y-16423484D02*
X23040682Y-16423484D01*
X23040682Y-16423484D02*
X23059729Y-16433008D01*
X23059729Y-16433008D02*
X23069253Y-16442531D01*
X23069253Y-16442531D02*
X23078777Y-16461579D01*
X23078777Y-16461579D02*
X23088301Y-16499674D01*
X23088301Y-16499674D02*
X23088301Y-16547293D01*
X23088301Y-16547293D02*
X23078777Y-16585388D01*
X23078777Y-16585388D02*
X23069253Y-16604436D01*
X23069253Y-16604436D02*
X23059729Y-16613960D01*
X23059729Y-16613960D02*
X23040682Y-16623484D01*
X23040682Y-16623484D02*
X23021634Y-16623484D01*
X23021634Y-16623484D02*
X23002586Y-16613960D01*
X23002586Y-16613960D02*
X22993063Y-16604436D01*
X22993063Y-16604436D02*
X22983539Y-16585388D01*
X22983539Y-16585388D02*
X22974015Y-16547293D01*
X22974015Y-16547293D02*
X22974015Y-16499674D01*
X22974015Y-16499674D02*
X22983539Y-16461579D01*
X22983539Y-16461579D02*
X22993063Y-16442531D01*
X22993063Y-16442531D02*
X23002586Y-16433008D01*
X23002586Y-16433008D02*
X23021634Y-16423484D01*
X23174015Y-16604436D02*
X23183539Y-16613960D01*
X23183539Y-16613960D02*
X23174015Y-16623484D01*
X23174015Y-16623484D02*
X23164491Y-16613960D01*
X23164491Y-16613960D02*
X23174015Y-16604436D01*
X23174015Y-16604436D02*
X23174015Y-16623484D01*
X23307348Y-16423484D02*
X23326396Y-16423484D01*
X23326396Y-16423484D02*
X23345444Y-16433008D01*
X23345444Y-16433008D02*
X23354967Y-16442531D01*
X23354967Y-16442531D02*
X23364491Y-16461579D01*
X23364491Y-16461579D02*
X23374015Y-16499674D01*
X23374015Y-16499674D02*
X23374015Y-16547293D01*
X23374015Y-16547293D02*
X23364491Y-16585388D01*
X23364491Y-16585388D02*
X23354967Y-16604436D01*
X23354967Y-16604436D02*
X23345444Y-16613960D01*
X23345444Y-16613960D02*
X23326396Y-16623484D01*
X23326396Y-16623484D02*
X23307348Y-16623484D01*
X23307348Y-16623484D02*
X23288301Y-16613960D01*
X23288301Y-16613960D02*
X23278777Y-16604436D01*
X23278777Y-16604436D02*
X23269253Y-16585388D01*
X23269253Y-16585388D02*
X23259729Y-16547293D01*
X23259729Y-16547293D02*
X23259729Y-16499674D01*
X23259729Y-16499674D02*
X23269253Y-16461579D01*
X23269253Y-16461579D02*
X23278777Y-16442531D01*
X23278777Y-16442531D02*
X23288301Y-16433008D01*
X23288301Y-16433008D02*
X23307348Y-16423484D01*
X23564491Y-16623484D02*
X23450206Y-16623484D01*
X23507348Y-16623484D02*
X23507348Y-16423484D01*
X23507348Y-16423484D02*
X23488301Y-16452055D01*
X23488301Y-16452055D02*
X23469253Y-16471103D01*
X23469253Y-16471103D02*
X23450206Y-16480627D01*
X23745444Y-16423484D02*
X23650206Y-16423484D01*
X23650206Y-16423484D02*
X23640682Y-16518722D01*
X23640682Y-16518722D02*
X23650206Y-16509198D01*
X23650206Y-16509198D02*
X23669253Y-16499674D01*
X23669253Y-16499674D02*
X23716872Y-16499674D01*
X23716872Y-16499674D02*
X23735920Y-16509198D01*
X23735920Y-16509198D02*
X23745444Y-16518722D01*
X23745444Y-16518722D02*
X23754967Y-16537769D01*
X23754967Y-16537769D02*
X23754967Y-16585388D01*
X23754967Y-16585388D02*
X23745444Y-16604436D01*
X23745444Y-16604436D02*
X23735920Y-16613960D01*
X23735920Y-16613960D02*
X23716872Y-16623484D01*
X23716872Y-16623484D02*
X23669253Y-16623484D01*
X23669253Y-16623484D02*
X23650206Y-16613960D01*
X23650206Y-16613960D02*
X23640682Y-16604436D01*
X23821634Y-16423484D02*
X23954967Y-16423484D01*
X23954967Y-16423484D02*
X23869253Y-16623484D01*
X24021634Y-16423484D02*
X24021634Y-16461579D01*
X24097825Y-16423484D02*
X24097825Y-16461579D01*
X24393063Y-16699674D02*
X24383539Y-16690150D01*
X24383539Y-16690150D02*
X24364491Y-16661579D01*
X24364491Y-16661579D02*
X24354968Y-16642531D01*
X24354968Y-16642531D02*
X24345444Y-16613960D01*
X24345444Y-16613960D02*
X24335920Y-16566341D01*
X24335920Y-16566341D02*
X24335920Y-16528246D01*
X24335920Y-16528246D02*
X24345444Y-16480627D01*
X24345444Y-16480627D02*
X24354968Y-16452055D01*
X24354968Y-16452055D02*
X24364491Y-16433008D01*
X24364491Y-16433008D02*
X24383539Y-16404436D01*
X24383539Y-16404436D02*
X24393063Y-16394912D01*
X24459729Y-16442531D02*
X24469253Y-16433008D01*
X24469253Y-16433008D02*
X24488301Y-16423484D01*
X24488301Y-16423484D02*
X24535920Y-16423484D01*
X24535920Y-16423484D02*
X24554968Y-16433008D01*
X24554968Y-16433008D02*
X24564491Y-16442531D01*
X24564491Y-16442531D02*
X24574015Y-16461579D01*
X24574015Y-16461579D02*
X24574015Y-16480627D01*
X24574015Y-16480627D02*
X24564491Y-16509198D01*
X24564491Y-16509198D02*
X24450206Y-16623484D01*
X24450206Y-16623484D02*
X24574015Y-16623484D01*
X24745444Y-16490150D02*
X24745444Y-16623484D01*
X24697825Y-16413960D02*
X24650206Y-16556817D01*
X24650206Y-16556817D02*
X24774015Y-16556817D01*
X24878777Y-16509198D02*
X24859729Y-16499674D01*
X24859729Y-16499674D02*
X24850206Y-16490150D01*
X24850206Y-16490150D02*
X24840682Y-16471103D01*
X24840682Y-16471103D02*
X24840682Y-16461579D01*
X24840682Y-16461579D02*
X24850206Y-16442531D01*
X24850206Y-16442531D02*
X24859729Y-16433008D01*
X24859729Y-16433008D02*
X24878777Y-16423484D01*
X24878777Y-16423484D02*
X24916872Y-16423484D01*
X24916872Y-16423484D02*
X24935920Y-16433008D01*
X24935920Y-16433008D02*
X24945444Y-16442531D01*
X24945444Y-16442531D02*
X24954968Y-16461579D01*
X24954968Y-16461579D02*
X24954968Y-16471103D01*
X24954968Y-16471103D02*
X24945444Y-16490150D01*
X24945444Y-16490150D02*
X24935920Y-16499674D01*
X24935920Y-16499674D02*
X24916872Y-16509198D01*
X24916872Y-16509198D02*
X24878777Y-16509198D01*
X24878777Y-16509198D02*
X24859729Y-16518722D01*
X24859729Y-16518722D02*
X24850206Y-16528246D01*
X24850206Y-16528246D02*
X24840682Y-16547293D01*
X24840682Y-16547293D02*
X24840682Y-16585388D01*
X24840682Y-16585388D02*
X24850206Y-16604436D01*
X24850206Y-16604436D02*
X24859729Y-16613960D01*
X24859729Y-16613960D02*
X24878777Y-16623484D01*
X24878777Y-16623484D02*
X24916872Y-16623484D01*
X24916872Y-16623484D02*
X24935920Y-16613960D01*
X24935920Y-16613960D02*
X24945444Y-16604436D01*
X24945444Y-16604436D02*
X24954968Y-16585388D01*
X24954968Y-16585388D02*
X24954968Y-16547293D01*
X24954968Y-16547293D02*
X24945444Y-16528246D01*
X24945444Y-16528246D02*
X24935920Y-16518722D01*
X24935920Y-16518722D02*
X24916872Y-16509198D01*
X25193063Y-16623484D02*
X25193063Y-16423484D01*
X25278777Y-16623484D02*
X25278777Y-16518722D01*
X25278777Y-16518722D02*
X25269253Y-16499674D01*
X25269253Y-16499674D02*
X25250206Y-16490150D01*
X25250206Y-16490150D02*
X25221634Y-16490150D01*
X25221634Y-16490150D02*
X25202587Y-16499674D01*
X25202587Y-16499674D02*
X25193063Y-16509198D01*
X25402587Y-16623484D02*
X25383539Y-16613960D01*
X25383539Y-16613960D02*
X25374015Y-16604436D01*
X25374015Y-16604436D02*
X25364491Y-16585388D01*
X25364491Y-16585388D02*
X25364491Y-16528246D01*
X25364491Y-16528246D02*
X25374015Y-16509198D01*
X25374015Y-16509198D02*
X25383539Y-16499674D01*
X25383539Y-16499674D02*
X25402587Y-16490150D01*
X25402587Y-16490150D02*
X25431158Y-16490150D01*
X25431158Y-16490150D02*
X25450206Y-16499674D01*
X25450206Y-16499674D02*
X25459730Y-16509198D01*
X25459730Y-16509198D02*
X25469253Y-16528246D01*
X25469253Y-16528246D02*
X25469253Y-16585388D01*
X25469253Y-16585388D02*
X25459730Y-16604436D01*
X25459730Y-16604436D02*
X25450206Y-16613960D01*
X25450206Y-16613960D02*
X25431158Y-16623484D01*
X25431158Y-16623484D02*
X25402587Y-16623484D01*
X25583539Y-16623484D02*
X25564491Y-16613960D01*
X25564491Y-16613960D02*
X25554968Y-16594912D01*
X25554968Y-16594912D02*
X25554968Y-16423484D01*
X25735920Y-16613960D02*
X25716872Y-16623484D01*
X25716872Y-16623484D02*
X25678777Y-16623484D01*
X25678777Y-16623484D02*
X25659730Y-16613960D01*
X25659730Y-16613960D02*
X25650206Y-16594912D01*
X25650206Y-16594912D02*
X25650206Y-16518722D01*
X25650206Y-16518722D02*
X25659730Y-16499674D01*
X25659730Y-16499674D02*
X25678777Y-16490150D01*
X25678777Y-16490150D02*
X25716872Y-16490150D01*
X25716872Y-16490150D02*
X25735920Y-16499674D01*
X25735920Y-16499674D02*
X25745444Y-16518722D01*
X25745444Y-16518722D02*
X25745444Y-16537769D01*
X25745444Y-16537769D02*
X25650206Y-16556817D01*
X25821634Y-16613960D02*
X25840682Y-16623484D01*
X25840682Y-16623484D02*
X25878777Y-16623484D01*
X25878777Y-16623484D02*
X25897825Y-16613960D01*
X25897825Y-16613960D02*
X25907349Y-16594912D01*
X25907349Y-16594912D02*
X25907349Y-16585388D01*
X25907349Y-16585388D02*
X25897825Y-16566341D01*
X25897825Y-16566341D02*
X25878777Y-16556817D01*
X25878777Y-16556817D02*
X25850206Y-16556817D01*
X25850206Y-16556817D02*
X25831158Y-16547293D01*
X25831158Y-16547293D02*
X25821634Y-16528246D01*
X25821634Y-16528246D02*
X25821634Y-16518722D01*
X25821634Y-16518722D02*
X25831158Y-16499674D01*
X25831158Y-16499674D02*
X25850206Y-16490150D01*
X25850206Y-16490150D02*
X25878777Y-16490150D01*
X25878777Y-16490150D02*
X25897825Y-16499674D01*
X25974015Y-16699674D02*
X25983539Y-16690150D01*
X25983539Y-16690150D02*
X26002587Y-16661579D01*
X26002587Y-16661579D02*
X26012111Y-16642531D01*
X26012111Y-16642531D02*
X26021634Y-16613960D01*
X26021634Y-16613960D02*
X26031158Y-16566341D01*
X26031158Y-16566341D02*
X26031158Y-16528246D01*
X26031158Y-16528246D02*
X26021634Y-16480627D01*
X26021634Y-16480627D02*
X26012111Y-16452055D01*
X26012111Y-16452055D02*
X26002587Y-16433008D01*
X26002587Y-16433008D02*
X25983539Y-16404436D01*
X25983539Y-16404436D02*
X25974015Y-16394912D01*
D11*
X20818000Y-16796000D02*
G75*
G02*
X20768000Y-16796000I-25000J0D01*
G01*
X20768000Y-16796000D02*
G75*
G02*
X20818000Y-16796000I25000J0D01*
G01*
D10*
X21116872Y-16687484D02*
X21135920Y-16687484D01*
X21135920Y-16687484D02*
X21154967Y-16697008D01*
X21154967Y-16697008D02*
X21164491Y-16706531D01*
X21164491Y-16706531D02*
X21174015Y-16725579D01*
X21174015Y-16725579D02*
X21183539Y-16763674D01*
X21183539Y-16763674D02*
X21183539Y-16811293D01*
X21183539Y-16811293D02*
X21174015Y-16849389D01*
X21174015Y-16849389D02*
X21164491Y-16868436D01*
X21164491Y-16868436D02*
X21154967Y-16877960D01*
X21154967Y-16877960D02*
X21135920Y-16887484D01*
X21135920Y-16887484D02*
X21116872Y-16887484D01*
X21116872Y-16887484D02*
X21097824Y-16877960D01*
X21097824Y-16877960D02*
X21088301Y-16868436D01*
X21088301Y-16868436D02*
X21078777Y-16849389D01*
X21078777Y-16849389D02*
X21069253Y-16811293D01*
X21069253Y-16811293D02*
X21069253Y-16763674D01*
X21069253Y-16763674D02*
X21078777Y-16725579D01*
X21078777Y-16725579D02*
X21088301Y-16706531D01*
X21088301Y-16706531D02*
X21097824Y-16697008D01*
X21097824Y-16697008D02*
X21116872Y-16687484D01*
X21269253Y-16868436D02*
X21278777Y-16877960D01*
X21278777Y-16877960D02*
X21269253Y-16887484D01*
X21269253Y-16887484D02*
X21259729Y-16877960D01*
X21259729Y-16877960D02*
X21269253Y-16868436D01*
X21269253Y-16868436D02*
X21269253Y-16887484D01*
X21459729Y-16687484D02*
X21364491Y-16687484D01*
X21364491Y-16687484D02*
X21354967Y-16782722D01*
X21354967Y-16782722D02*
X21364491Y-16773198D01*
X21364491Y-16773198D02*
X21383539Y-16763674D01*
X21383539Y-16763674D02*
X21431158Y-16763674D01*
X21431158Y-16763674D02*
X21450205Y-16773198D01*
X21450205Y-16773198D02*
X21459729Y-16782722D01*
X21459729Y-16782722D02*
X21469253Y-16801770D01*
X21469253Y-16801770D02*
X21469253Y-16849389D01*
X21469253Y-16849389D02*
X21459729Y-16868436D01*
X21459729Y-16868436D02*
X21450205Y-16877960D01*
X21450205Y-16877960D02*
X21431158Y-16887484D01*
X21431158Y-16887484D02*
X21383539Y-16887484D01*
X21383539Y-16887484D02*
X21364491Y-16877960D01*
X21364491Y-16877960D02*
X21354967Y-16868436D01*
X21593063Y-16687484D02*
X21612110Y-16687484D01*
X21612110Y-16687484D02*
X21631158Y-16697008D01*
X21631158Y-16697008D02*
X21640682Y-16706531D01*
X21640682Y-16706531D02*
X21650205Y-16725579D01*
X21650205Y-16725579D02*
X21659729Y-16763674D01*
X21659729Y-16763674D02*
X21659729Y-16811293D01*
X21659729Y-16811293D02*
X21650205Y-16849389D01*
X21650205Y-16849389D02*
X21640682Y-16868436D01*
X21640682Y-16868436D02*
X21631158Y-16877960D01*
X21631158Y-16877960D02*
X21612110Y-16887484D01*
X21612110Y-16887484D02*
X21593063Y-16887484D01*
X21593063Y-16887484D02*
X21574015Y-16877960D01*
X21574015Y-16877960D02*
X21564491Y-16868436D01*
X21564491Y-16868436D02*
X21554967Y-16849389D01*
X21554967Y-16849389D02*
X21545444Y-16811293D01*
X21545444Y-16811293D02*
X21545444Y-16763674D01*
X21545444Y-16763674D02*
X21554967Y-16725579D01*
X21554967Y-16725579D02*
X21564491Y-16706531D01*
X21564491Y-16706531D02*
X21574015Y-16697008D01*
X21574015Y-16697008D02*
X21593063Y-16687484D01*
X21783539Y-16687484D02*
X21802586Y-16687484D01*
X21802586Y-16687484D02*
X21821634Y-16697008D01*
X21821634Y-16697008D02*
X21831158Y-16706531D01*
X21831158Y-16706531D02*
X21840682Y-16725579D01*
X21840682Y-16725579D02*
X21850205Y-16763674D01*
X21850205Y-16763674D02*
X21850205Y-16811293D01*
X21850205Y-16811293D02*
X21840682Y-16849389D01*
X21840682Y-16849389D02*
X21831158Y-16868436D01*
X21831158Y-16868436D02*
X21821634Y-16877960D01*
X21821634Y-16877960D02*
X21802586Y-16887484D01*
X21802586Y-16887484D02*
X21783539Y-16887484D01*
X21783539Y-16887484D02*
X21764491Y-16877960D01*
X21764491Y-16877960D02*
X21754967Y-16868436D01*
X21754967Y-16868436D02*
X21745444Y-16849389D01*
X21745444Y-16849389D02*
X21735920Y-16811293D01*
X21735920Y-16811293D02*
X21735920Y-16763674D01*
X21735920Y-16763674D02*
X21745444Y-16725579D01*
X21745444Y-16725579D02*
X21754967Y-16706531D01*
X21754967Y-16706531D02*
X21764491Y-16697008D01*
X21764491Y-16697008D02*
X21783539Y-16687484D01*
X21935920Y-16887484D02*
X21935920Y-16754150D01*
X21935920Y-16773198D02*
X21945444Y-16763674D01*
X21945444Y-16763674D02*
X21964491Y-16754150D01*
X21964491Y-16754150D02*
X21993063Y-16754150D01*
X21993063Y-16754150D02*
X22012110Y-16763674D01*
X22012110Y-16763674D02*
X22021634Y-16782722D01*
X22021634Y-16782722D02*
X22021634Y-16887484D01*
X22021634Y-16782722D02*
X22031158Y-16763674D01*
X22031158Y-16763674D02*
X22050205Y-16754150D01*
X22050205Y-16754150D02*
X22078777Y-16754150D01*
X22078777Y-16754150D02*
X22097825Y-16763674D01*
X22097825Y-16763674D02*
X22107348Y-16782722D01*
X22107348Y-16782722D02*
X22107348Y-16887484D01*
X22202586Y-16887484D02*
X22202586Y-16754150D01*
X22202586Y-16773198D02*
X22212110Y-16763674D01*
X22212110Y-16763674D02*
X22231158Y-16754150D01*
X22231158Y-16754150D02*
X22259729Y-16754150D01*
X22259729Y-16754150D02*
X22278777Y-16763674D01*
X22278777Y-16763674D02*
X22288301Y-16782722D01*
X22288301Y-16782722D02*
X22288301Y-16887484D01*
X22288301Y-16782722D02*
X22297825Y-16763674D01*
X22297825Y-16763674D02*
X22316872Y-16754150D01*
X22316872Y-16754150D02*
X22345444Y-16754150D01*
X22345444Y-16754150D02*
X22364491Y-16763674D01*
X22364491Y-16763674D02*
X22374015Y-16782722D01*
X22374015Y-16782722D02*
X22374015Y-16887484D01*
X22764491Y-16677960D02*
X22593063Y-16935103D01*
X23021634Y-16687484D02*
X23040682Y-16687484D01*
X23040682Y-16687484D02*
X23059729Y-16697008D01*
X23059729Y-16697008D02*
X23069253Y-16706531D01*
X23069253Y-16706531D02*
X23078777Y-16725579D01*
X23078777Y-16725579D02*
X23088301Y-16763674D01*
X23088301Y-16763674D02*
X23088301Y-16811293D01*
X23088301Y-16811293D02*
X23078777Y-16849389D01*
X23078777Y-16849389D02*
X23069253Y-16868436D01*
X23069253Y-16868436D02*
X23059729Y-16877960D01*
X23059729Y-16877960D02*
X23040682Y-16887484D01*
X23040682Y-16887484D02*
X23021634Y-16887484D01*
X23021634Y-16887484D02*
X23002586Y-16877960D01*
X23002586Y-16877960D02*
X22993063Y-16868436D01*
X22993063Y-16868436D02*
X22983539Y-16849389D01*
X22983539Y-16849389D02*
X22974015Y-16811293D01*
X22974015Y-16811293D02*
X22974015Y-16763674D01*
X22974015Y-16763674D02*
X22983539Y-16725579D01*
X22983539Y-16725579D02*
X22993063Y-16706531D01*
X22993063Y-16706531D02*
X23002586Y-16697008D01*
X23002586Y-16697008D02*
X23021634Y-16687484D01*
X23174015Y-16868436D02*
X23183539Y-16877960D01*
X23183539Y-16877960D02*
X23174015Y-16887484D01*
X23174015Y-16887484D02*
X23164491Y-16877960D01*
X23164491Y-16877960D02*
X23174015Y-16868436D01*
X23174015Y-16868436D02*
X23174015Y-16887484D01*
X23307348Y-16687484D02*
X23326396Y-16687484D01*
X23326396Y-16687484D02*
X23345444Y-16697008D01*
X23345444Y-16697008D02*
X23354967Y-16706531D01*
X23354967Y-16706531D02*
X23364491Y-16725579D01*
X23364491Y-16725579D02*
X23374015Y-16763674D01*
X23374015Y-16763674D02*
X23374015Y-16811293D01*
X23374015Y-16811293D02*
X23364491Y-16849389D01*
X23364491Y-16849389D02*
X23354967Y-16868436D01*
X23354967Y-16868436D02*
X23345444Y-16877960D01*
X23345444Y-16877960D02*
X23326396Y-16887484D01*
X23326396Y-16887484D02*
X23307348Y-16887484D01*
X23307348Y-16887484D02*
X23288301Y-16877960D01*
X23288301Y-16877960D02*
X23278777Y-16868436D01*
X23278777Y-16868436D02*
X23269253Y-16849389D01*
X23269253Y-16849389D02*
X23259729Y-16811293D01*
X23259729Y-16811293D02*
X23259729Y-16763674D01*
X23259729Y-16763674D02*
X23269253Y-16725579D01*
X23269253Y-16725579D02*
X23278777Y-16706531D01*
X23278777Y-16706531D02*
X23288301Y-16697008D01*
X23288301Y-16697008D02*
X23307348Y-16687484D01*
X23564491Y-16887484D02*
X23450206Y-16887484D01*
X23507348Y-16887484D02*
X23507348Y-16687484D01*
X23507348Y-16687484D02*
X23488301Y-16716055D01*
X23488301Y-16716055D02*
X23469253Y-16735103D01*
X23469253Y-16735103D02*
X23450206Y-16744627D01*
X23659729Y-16887484D02*
X23697825Y-16887484D01*
X23697825Y-16887484D02*
X23716872Y-16877960D01*
X23716872Y-16877960D02*
X23726396Y-16868436D01*
X23726396Y-16868436D02*
X23745444Y-16839865D01*
X23745444Y-16839865D02*
X23754967Y-16801770D01*
X23754967Y-16801770D02*
X23754967Y-16725579D01*
X23754967Y-16725579D02*
X23745444Y-16706531D01*
X23745444Y-16706531D02*
X23735920Y-16697008D01*
X23735920Y-16697008D02*
X23716872Y-16687484D01*
X23716872Y-16687484D02*
X23678777Y-16687484D01*
X23678777Y-16687484D02*
X23659729Y-16697008D01*
X23659729Y-16697008D02*
X23650206Y-16706531D01*
X23650206Y-16706531D02*
X23640682Y-16725579D01*
X23640682Y-16725579D02*
X23640682Y-16773198D01*
X23640682Y-16773198D02*
X23650206Y-16792246D01*
X23650206Y-16792246D02*
X23659729Y-16801770D01*
X23659729Y-16801770D02*
X23678777Y-16811293D01*
X23678777Y-16811293D02*
X23716872Y-16811293D01*
X23716872Y-16811293D02*
X23735920Y-16801770D01*
X23735920Y-16801770D02*
X23745444Y-16792246D01*
X23745444Y-16792246D02*
X23754967Y-16773198D01*
X23821634Y-16687484D02*
X23954967Y-16687484D01*
X23954967Y-16687484D02*
X23869253Y-16887484D01*
X24021634Y-16687484D02*
X24021634Y-16725579D01*
X24097825Y-16687484D02*
X24097825Y-16725579D01*
X24393063Y-16963674D02*
X24383539Y-16954150D01*
X24383539Y-16954150D02*
X24364491Y-16925579D01*
X24364491Y-16925579D02*
X24354968Y-16906531D01*
X24354968Y-16906531D02*
X24345444Y-16877960D01*
X24345444Y-16877960D02*
X24335920Y-16830341D01*
X24335920Y-16830341D02*
X24335920Y-16792246D01*
X24335920Y-16792246D02*
X24345444Y-16744627D01*
X24345444Y-16744627D02*
X24354968Y-16716055D01*
X24354968Y-16716055D02*
X24364491Y-16697008D01*
X24364491Y-16697008D02*
X24383539Y-16668436D01*
X24383539Y-16668436D02*
X24393063Y-16658912D01*
X24459729Y-16706531D02*
X24469253Y-16697008D01*
X24469253Y-16697008D02*
X24488301Y-16687484D01*
X24488301Y-16687484D02*
X24535920Y-16687484D01*
X24535920Y-16687484D02*
X24554968Y-16697008D01*
X24554968Y-16697008D02*
X24564491Y-16706531D01*
X24564491Y-16706531D02*
X24574015Y-16725579D01*
X24574015Y-16725579D02*
X24574015Y-16744627D01*
X24574015Y-16744627D02*
X24564491Y-16773198D01*
X24564491Y-16773198D02*
X24450206Y-16887484D01*
X24450206Y-16887484D02*
X24574015Y-16887484D01*
X24640682Y-16687484D02*
X24764491Y-16687484D01*
X24764491Y-16687484D02*
X24697825Y-16763674D01*
X24697825Y-16763674D02*
X24726396Y-16763674D01*
X24726396Y-16763674D02*
X24745444Y-16773198D01*
X24745444Y-16773198D02*
X24754968Y-16782722D01*
X24754968Y-16782722D02*
X24764491Y-16801770D01*
X24764491Y-16801770D02*
X24764491Y-16849389D01*
X24764491Y-16849389D02*
X24754968Y-16868436D01*
X24754968Y-16868436D02*
X24745444Y-16877960D01*
X24745444Y-16877960D02*
X24726396Y-16887484D01*
X24726396Y-16887484D02*
X24669253Y-16887484D01*
X24669253Y-16887484D02*
X24650206Y-16877960D01*
X24650206Y-16877960D02*
X24640682Y-16868436D01*
X25002587Y-16887484D02*
X25002587Y-16687484D01*
X25088301Y-16887484D02*
X25088301Y-16782722D01*
X25088301Y-16782722D02*
X25078777Y-16763674D01*
X25078777Y-16763674D02*
X25059730Y-16754150D01*
X25059730Y-16754150D02*
X25031158Y-16754150D01*
X25031158Y-16754150D02*
X25012110Y-16763674D01*
X25012110Y-16763674D02*
X25002587Y-16773198D01*
X25212110Y-16887484D02*
X25193063Y-16877960D01*
X25193063Y-16877960D02*
X25183539Y-16868436D01*
X25183539Y-16868436D02*
X25174015Y-16849389D01*
X25174015Y-16849389D02*
X25174015Y-16792246D01*
X25174015Y-16792246D02*
X25183539Y-16773198D01*
X25183539Y-16773198D02*
X25193063Y-16763674D01*
X25193063Y-16763674D02*
X25212110Y-16754150D01*
X25212110Y-16754150D02*
X25240682Y-16754150D01*
X25240682Y-16754150D02*
X25259730Y-16763674D01*
X25259730Y-16763674D02*
X25269253Y-16773198D01*
X25269253Y-16773198D02*
X25278777Y-16792246D01*
X25278777Y-16792246D02*
X25278777Y-16849389D01*
X25278777Y-16849389D02*
X25269253Y-16868436D01*
X25269253Y-16868436D02*
X25259730Y-16877960D01*
X25259730Y-16877960D02*
X25240682Y-16887484D01*
X25240682Y-16887484D02*
X25212110Y-16887484D01*
X25393063Y-16887484D02*
X25374015Y-16877960D01*
X25374015Y-16877960D02*
X25364491Y-16858912D01*
X25364491Y-16858912D02*
X25364491Y-16687484D01*
X25545444Y-16877960D02*
X25526396Y-16887484D01*
X25526396Y-16887484D02*
X25488301Y-16887484D01*
X25488301Y-16887484D02*
X25469253Y-16877960D01*
X25469253Y-16877960D02*
X25459730Y-16858912D01*
X25459730Y-16858912D02*
X25459730Y-16782722D01*
X25459730Y-16782722D02*
X25469253Y-16763674D01*
X25469253Y-16763674D02*
X25488301Y-16754150D01*
X25488301Y-16754150D02*
X25526396Y-16754150D01*
X25526396Y-16754150D02*
X25545444Y-16763674D01*
X25545444Y-16763674D02*
X25554968Y-16782722D01*
X25554968Y-16782722D02*
X25554968Y-16801770D01*
X25554968Y-16801770D02*
X25459730Y-16820817D01*
X25631158Y-16877960D02*
X25650206Y-16887484D01*
X25650206Y-16887484D02*
X25688301Y-16887484D01*
X25688301Y-16887484D02*
X25707349Y-16877960D01*
X25707349Y-16877960D02*
X25716872Y-16858912D01*
X25716872Y-16858912D02*
X25716872Y-16849389D01*
X25716872Y-16849389D02*
X25707349Y-16830341D01*
X25707349Y-16830341D02*
X25688301Y-16820817D01*
X25688301Y-16820817D02*
X25659730Y-16820817D01*
X25659730Y-16820817D02*
X25640682Y-16811293D01*
X25640682Y-16811293D02*
X25631158Y-16792246D01*
X25631158Y-16792246D02*
X25631158Y-16782722D01*
X25631158Y-16782722D02*
X25640682Y-16763674D01*
X25640682Y-16763674D02*
X25659730Y-16754150D01*
X25659730Y-16754150D02*
X25688301Y-16754150D01*
X25688301Y-16754150D02*
X25707349Y-16763674D01*
X25783539Y-16963674D02*
X25793063Y-16954150D01*
X25793063Y-16954150D02*
X25812111Y-16925579D01*
X25812111Y-16925579D02*
X25821634Y-16906531D01*
X25821634Y-16906531D02*
X25831158Y-16877960D01*
X25831158Y-16877960D02*
X25840682Y-16830341D01*
X25840682Y-16830341D02*
X25840682Y-16792246D01*
X25840682Y-16792246D02*
X25831158Y-16744627D01*
X25831158Y-16744627D02*
X25821634Y-16716055D01*
X25821634Y-16716055D02*
X25812111Y-16697008D01*
X25812111Y-16697008D02*
X25793063Y-16668436D01*
X25793063Y-16668436D02*
X25783539Y-16658912D01*
D11*
X20770500Y-17012500D02*
X20770500Y-17107500D01*
X20723000Y-17060000D02*
X20818000Y-17060000D01*
D10*
X21116872Y-16951484D02*
X21135920Y-16951484D01*
X21135920Y-16951484D02*
X21154967Y-16961008D01*
X21154967Y-16961008D02*
X21164491Y-16970531D01*
X21164491Y-16970531D02*
X21174015Y-16989579D01*
X21174015Y-16989579D02*
X21183539Y-17027674D01*
X21183539Y-17027674D02*
X21183539Y-17075293D01*
X21183539Y-17075293D02*
X21174015Y-17113389D01*
X21174015Y-17113389D02*
X21164491Y-17132436D01*
X21164491Y-17132436D02*
X21154967Y-17141960D01*
X21154967Y-17141960D02*
X21135920Y-17151484D01*
X21135920Y-17151484D02*
X21116872Y-17151484D01*
X21116872Y-17151484D02*
X21097824Y-17141960D01*
X21097824Y-17141960D02*
X21088301Y-17132436D01*
X21088301Y-17132436D02*
X21078777Y-17113389D01*
X21078777Y-17113389D02*
X21069253Y-17075293D01*
X21069253Y-17075293D02*
X21069253Y-17027674D01*
X21069253Y-17027674D02*
X21078777Y-16989579D01*
X21078777Y-16989579D02*
X21088301Y-16970531D01*
X21088301Y-16970531D02*
X21097824Y-16961008D01*
X21097824Y-16961008D02*
X21116872Y-16951484D01*
X21269253Y-17132436D02*
X21278777Y-17141960D01*
X21278777Y-17141960D02*
X21269253Y-17151484D01*
X21269253Y-17151484D02*
X21259729Y-17141960D01*
X21259729Y-17141960D02*
X21269253Y-17132436D01*
X21269253Y-17132436D02*
X21269253Y-17151484D01*
X21374015Y-17151484D02*
X21412110Y-17151484D01*
X21412110Y-17151484D02*
X21431158Y-17141960D01*
X21431158Y-17141960D02*
X21440682Y-17132436D01*
X21440682Y-17132436D02*
X21459729Y-17103865D01*
X21459729Y-17103865D02*
X21469253Y-17065770D01*
X21469253Y-17065770D02*
X21469253Y-16989579D01*
X21469253Y-16989579D02*
X21459729Y-16970531D01*
X21459729Y-16970531D02*
X21450205Y-16961008D01*
X21450205Y-16961008D02*
X21431158Y-16951484D01*
X21431158Y-16951484D02*
X21393063Y-16951484D01*
X21393063Y-16951484D02*
X21374015Y-16961008D01*
X21374015Y-16961008D02*
X21364491Y-16970531D01*
X21364491Y-16970531D02*
X21354967Y-16989579D01*
X21354967Y-16989579D02*
X21354967Y-17037198D01*
X21354967Y-17037198D02*
X21364491Y-17056246D01*
X21364491Y-17056246D02*
X21374015Y-17065770D01*
X21374015Y-17065770D02*
X21393063Y-17075293D01*
X21393063Y-17075293D02*
X21431158Y-17075293D01*
X21431158Y-17075293D02*
X21450205Y-17065770D01*
X21450205Y-17065770D02*
X21459729Y-17056246D01*
X21459729Y-17056246D02*
X21469253Y-17037198D01*
X21650205Y-16951484D02*
X21554967Y-16951484D01*
X21554967Y-16951484D02*
X21545444Y-17046722D01*
X21545444Y-17046722D02*
X21554967Y-17037198D01*
X21554967Y-17037198D02*
X21574015Y-17027674D01*
X21574015Y-17027674D02*
X21621634Y-17027674D01*
X21621634Y-17027674D02*
X21640682Y-17037198D01*
X21640682Y-17037198D02*
X21650205Y-17046722D01*
X21650205Y-17046722D02*
X21659729Y-17065770D01*
X21659729Y-17065770D02*
X21659729Y-17113389D01*
X21659729Y-17113389D02*
X21650205Y-17132436D01*
X21650205Y-17132436D02*
X21640682Y-17141960D01*
X21640682Y-17141960D02*
X21621634Y-17151484D01*
X21621634Y-17151484D02*
X21574015Y-17151484D01*
X21574015Y-17151484D02*
X21554967Y-17141960D01*
X21554967Y-17141960D02*
X21545444Y-17132436D01*
X21783539Y-16951484D02*
X21802586Y-16951484D01*
X21802586Y-16951484D02*
X21821634Y-16961008D01*
X21821634Y-16961008D02*
X21831158Y-16970531D01*
X21831158Y-16970531D02*
X21840682Y-16989579D01*
X21840682Y-16989579D02*
X21850205Y-17027674D01*
X21850205Y-17027674D02*
X21850205Y-17075293D01*
X21850205Y-17075293D02*
X21840682Y-17113389D01*
X21840682Y-17113389D02*
X21831158Y-17132436D01*
X21831158Y-17132436D02*
X21821634Y-17141960D01*
X21821634Y-17141960D02*
X21802586Y-17151484D01*
X21802586Y-17151484D02*
X21783539Y-17151484D01*
X21783539Y-17151484D02*
X21764491Y-17141960D01*
X21764491Y-17141960D02*
X21754967Y-17132436D01*
X21754967Y-17132436D02*
X21745444Y-17113389D01*
X21745444Y-17113389D02*
X21735920Y-17075293D01*
X21735920Y-17075293D02*
X21735920Y-17027674D01*
X21735920Y-17027674D02*
X21745444Y-16989579D01*
X21745444Y-16989579D02*
X21754967Y-16970531D01*
X21754967Y-16970531D02*
X21764491Y-16961008D01*
X21764491Y-16961008D02*
X21783539Y-16951484D01*
X21935920Y-17151484D02*
X21935920Y-17018150D01*
X21935920Y-17037198D02*
X21945444Y-17027674D01*
X21945444Y-17027674D02*
X21964491Y-17018150D01*
X21964491Y-17018150D02*
X21993063Y-17018150D01*
X21993063Y-17018150D02*
X22012110Y-17027674D01*
X22012110Y-17027674D02*
X22021634Y-17046722D01*
X22021634Y-17046722D02*
X22021634Y-17151484D01*
X22021634Y-17046722D02*
X22031158Y-17027674D01*
X22031158Y-17027674D02*
X22050205Y-17018150D01*
X22050205Y-17018150D02*
X22078777Y-17018150D01*
X22078777Y-17018150D02*
X22097825Y-17027674D01*
X22097825Y-17027674D02*
X22107348Y-17046722D01*
X22107348Y-17046722D02*
X22107348Y-17151484D01*
X22202586Y-17151484D02*
X22202586Y-17018150D01*
X22202586Y-17037198D02*
X22212110Y-17027674D01*
X22212110Y-17027674D02*
X22231158Y-17018150D01*
X22231158Y-17018150D02*
X22259729Y-17018150D01*
X22259729Y-17018150D02*
X22278777Y-17027674D01*
X22278777Y-17027674D02*
X22288301Y-17046722D01*
X22288301Y-17046722D02*
X22288301Y-17151484D01*
X22288301Y-17046722D02*
X22297825Y-17027674D01*
X22297825Y-17027674D02*
X22316872Y-17018150D01*
X22316872Y-17018150D02*
X22345444Y-17018150D01*
X22345444Y-17018150D02*
X22364491Y-17027674D01*
X22364491Y-17027674D02*
X22374015Y-17046722D01*
X22374015Y-17046722D02*
X22374015Y-17151484D01*
X22764491Y-16941960D02*
X22593063Y-17199103D01*
X23021634Y-16951484D02*
X23040682Y-16951484D01*
X23040682Y-16951484D02*
X23059729Y-16961008D01*
X23059729Y-16961008D02*
X23069253Y-16970531D01*
X23069253Y-16970531D02*
X23078777Y-16989579D01*
X23078777Y-16989579D02*
X23088301Y-17027674D01*
X23088301Y-17027674D02*
X23088301Y-17075293D01*
X23088301Y-17075293D02*
X23078777Y-17113389D01*
X23078777Y-17113389D02*
X23069253Y-17132436D01*
X23069253Y-17132436D02*
X23059729Y-17141960D01*
X23059729Y-17141960D02*
X23040682Y-17151484D01*
X23040682Y-17151484D02*
X23021634Y-17151484D01*
X23021634Y-17151484D02*
X23002586Y-17141960D01*
X23002586Y-17141960D02*
X22993063Y-17132436D01*
X22993063Y-17132436D02*
X22983539Y-17113389D01*
X22983539Y-17113389D02*
X22974015Y-17075293D01*
X22974015Y-17075293D02*
X22974015Y-17027674D01*
X22974015Y-17027674D02*
X22983539Y-16989579D01*
X22983539Y-16989579D02*
X22993063Y-16970531D01*
X22993063Y-16970531D02*
X23002586Y-16961008D01*
X23002586Y-16961008D02*
X23021634Y-16951484D01*
X23174015Y-17132436D02*
X23183539Y-17141960D01*
X23183539Y-17141960D02*
X23174015Y-17151484D01*
X23174015Y-17151484D02*
X23164491Y-17141960D01*
X23164491Y-17141960D02*
X23174015Y-17132436D01*
X23174015Y-17132436D02*
X23174015Y-17151484D01*
X23307348Y-16951484D02*
X23326396Y-16951484D01*
X23326396Y-16951484D02*
X23345444Y-16961008D01*
X23345444Y-16961008D02*
X23354967Y-16970531D01*
X23354967Y-16970531D02*
X23364491Y-16989579D01*
X23364491Y-16989579D02*
X23374015Y-17027674D01*
X23374015Y-17027674D02*
X23374015Y-17075293D01*
X23374015Y-17075293D02*
X23364491Y-17113389D01*
X23364491Y-17113389D02*
X23354967Y-17132436D01*
X23354967Y-17132436D02*
X23345444Y-17141960D01*
X23345444Y-17141960D02*
X23326396Y-17151484D01*
X23326396Y-17151484D02*
X23307348Y-17151484D01*
X23307348Y-17151484D02*
X23288301Y-17141960D01*
X23288301Y-17141960D02*
X23278777Y-17132436D01*
X23278777Y-17132436D02*
X23269253Y-17113389D01*
X23269253Y-17113389D02*
X23259729Y-17075293D01*
X23259729Y-17075293D02*
X23259729Y-17027674D01*
X23259729Y-17027674D02*
X23269253Y-16989579D01*
X23269253Y-16989579D02*
X23278777Y-16970531D01*
X23278777Y-16970531D02*
X23288301Y-16961008D01*
X23288301Y-16961008D02*
X23307348Y-16951484D01*
X23440682Y-16951484D02*
X23564491Y-16951484D01*
X23564491Y-16951484D02*
X23497825Y-17027674D01*
X23497825Y-17027674D02*
X23526396Y-17027674D01*
X23526396Y-17027674D02*
X23545444Y-17037198D01*
X23545444Y-17037198D02*
X23554967Y-17046722D01*
X23554967Y-17046722D02*
X23564491Y-17065770D01*
X23564491Y-17065770D02*
X23564491Y-17113389D01*
X23564491Y-17113389D02*
X23554967Y-17132436D01*
X23554967Y-17132436D02*
X23545444Y-17141960D01*
X23545444Y-17141960D02*
X23526396Y-17151484D01*
X23526396Y-17151484D02*
X23469253Y-17151484D01*
X23469253Y-17151484D02*
X23450206Y-17141960D01*
X23450206Y-17141960D02*
X23440682Y-17132436D01*
X23631158Y-16951484D02*
X23764491Y-16951484D01*
X23764491Y-16951484D02*
X23678777Y-17151484D01*
X23926396Y-17018150D02*
X23926396Y-17151484D01*
X23878777Y-16941960D02*
X23831158Y-17084817D01*
X23831158Y-17084817D02*
X23954967Y-17084817D01*
X24021634Y-16951484D02*
X24021634Y-16989579D01*
X24097825Y-16951484D02*
X24097825Y-16989579D01*
X24393063Y-17227674D02*
X24383539Y-17218150D01*
X24383539Y-17218150D02*
X24364491Y-17189579D01*
X24364491Y-17189579D02*
X24354968Y-17170531D01*
X24354968Y-17170531D02*
X24345444Y-17141960D01*
X24345444Y-17141960D02*
X24335920Y-17094341D01*
X24335920Y-17094341D02*
X24335920Y-17056246D01*
X24335920Y-17056246D02*
X24345444Y-17008627D01*
X24345444Y-17008627D02*
X24354968Y-16980055D01*
X24354968Y-16980055D02*
X24364491Y-16961008D01*
X24364491Y-16961008D02*
X24383539Y-16932436D01*
X24383539Y-16932436D02*
X24393063Y-16922912D01*
X24450206Y-16951484D02*
X24583539Y-16951484D01*
X24583539Y-16951484D02*
X24497825Y-17151484D01*
X24812110Y-17151484D02*
X24812110Y-16951484D01*
X24897825Y-17151484D02*
X24897825Y-17046722D01*
X24897825Y-17046722D02*
X24888301Y-17027674D01*
X24888301Y-17027674D02*
X24869253Y-17018150D01*
X24869253Y-17018150D02*
X24840682Y-17018150D01*
X24840682Y-17018150D02*
X24821634Y-17027674D01*
X24821634Y-17027674D02*
X24812110Y-17037198D01*
X25021634Y-17151484D02*
X25002587Y-17141960D01*
X25002587Y-17141960D02*
X24993063Y-17132436D01*
X24993063Y-17132436D02*
X24983539Y-17113389D01*
X24983539Y-17113389D02*
X24983539Y-17056246D01*
X24983539Y-17056246D02*
X24993063Y-17037198D01*
X24993063Y-17037198D02*
X25002587Y-17027674D01*
X25002587Y-17027674D02*
X25021634Y-17018150D01*
X25021634Y-17018150D02*
X25050206Y-17018150D01*
X25050206Y-17018150D02*
X25069253Y-17027674D01*
X25069253Y-17027674D02*
X25078777Y-17037198D01*
X25078777Y-17037198D02*
X25088301Y-17056246D01*
X25088301Y-17056246D02*
X25088301Y-17113389D01*
X25088301Y-17113389D02*
X25078777Y-17132436D01*
X25078777Y-17132436D02*
X25069253Y-17141960D01*
X25069253Y-17141960D02*
X25050206Y-17151484D01*
X25050206Y-17151484D02*
X25021634Y-17151484D01*
X25202587Y-17151484D02*
X25183539Y-17141960D01*
X25183539Y-17141960D02*
X25174015Y-17122912D01*
X25174015Y-17122912D02*
X25174015Y-16951484D01*
X25354968Y-17141960D02*
X25335920Y-17151484D01*
X25335920Y-17151484D02*
X25297825Y-17151484D01*
X25297825Y-17151484D02*
X25278777Y-17141960D01*
X25278777Y-17141960D02*
X25269253Y-17122912D01*
X25269253Y-17122912D02*
X25269253Y-17046722D01*
X25269253Y-17046722D02*
X25278777Y-17027674D01*
X25278777Y-17027674D02*
X25297825Y-17018150D01*
X25297825Y-17018150D02*
X25335920Y-17018150D01*
X25335920Y-17018150D02*
X25354968Y-17027674D01*
X25354968Y-17027674D02*
X25364491Y-17046722D01*
X25364491Y-17046722D02*
X25364491Y-17065770D01*
X25364491Y-17065770D02*
X25269253Y-17084817D01*
X25440682Y-17141960D02*
X25459730Y-17151484D01*
X25459730Y-17151484D02*
X25497825Y-17151484D01*
X25497825Y-17151484D02*
X25516872Y-17141960D01*
X25516872Y-17141960D02*
X25526396Y-17122912D01*
X25526396Y-17122912D02*
X25526396Y-17113389D01*
X25526396Y-17113389D02*
X25516872Y-17094341D01*
X25516872Y-17094341D02*
X25497825Y-17084817D01*
X25497825Y-17084817D02*
X25469253Y-17084817D01*
X25469253Y-17084817D02*
X25450206Y-17075293D01*
X25450206Y-17075293D02*
X25440682Y-17056246D01*
X25440682Y-17056246D02*
X25440682Y-17046722D01*
X25440682Y-17046722D02*
X25450206Y-17027674D01*
X25450206Y-17027674D02*
X25469253Y-17018150D01*
X25469253Y-17018150D02*
X25497825Y-17018150D01*
X25497825Y-17018150D02*
X25516872Y-17027674D01*
X25593063Y-17227674D02*
X25602587Y-17218150D01*
X25602587Y-17218150D02*
X25621634Y-17189579D01*
X25621634Y-17189579D02*
X25631158Y-17170531D01*
X25631158Y-17170531D02*
X25640682Y-17141960D01*
X25640682Y-17141960D02*
X25650206Y-17094341D01*
X25650206Y-17094341D02*
X25650206Y-17056246D01*
X25650206Y-17056246D02*
X25640682Y-17008627D01*
X25640682Y-17008627D02*
X25631158Y-16980055D01*
X25631158Y-16980055D02*
X25621634Y-16961008D01*
X25621634Y-16961008D02*
X25602587Y-16932436D01*
X25602587Y-16932436D02*
X25593063Y-16922912D01*
X20788711Y-17394711D02*
X20788711Y-17253289D01*
X20647289Y-17253289D01*
X20647289Y-17394711D01*
X20788711Y-17394711D01*
X21059729Y-17215484D02*
X21183539Y-17215484D01*
X21183539Y-17215484D02*
X21116872Y-17291674D01*
X21116872Y-17291674D02*
X21145444Y-17291674D01*
X21145444Y-17291674D02*
X21164491Y-17301198D01*
X21164491Y-17301198D02*
X21174015Y-17310722D01*
X21174015Y-17310722D02*
X21183539Y-17329770D01*
X21183539Y-17329770D02*
X21183539Y-17377389D01*
X21183539Y-17377389D02*
X21174015Y-17396436D01*
X21174015Y-17396436D02*
X21164491Y-17405960D01*
X21164491Y-17405960D02*
X21145444Y-17415484D01*
X21145444Y-17415484D02*
X21088301Y-17415484D01*
X21088301Y-17415484D02*
X21069253Y-17405960D01*
X21069253Y-17405960D02*
X21059729Y-17396436D01*
X21269253Y-17396436D02*
X21278777Y-17405960D01*
X21278777Y-17405960D02*
X21269253Y-17415484D01*
X21269253Y-17415484D02*
X21259729Y-17405960D01*
X21259729Y-17405960D02*
X21269253Y-17396436D01*
X21269253Y-17396436D02*
X21269253Y-17415484D01*
X21345444Y-17215484D02*
X21478777Y-17215484D01*
X21478777Y-17215484D02*
X21393063Y-17415484D01*
X21593063Y-17215484D02*
X21612110Y-17215484D01*
X21612110Y-17215484D02*
X21631158Y-17225008D01*
X21631158Y-17225008D02*
X21640682Y-17234531D01*
X21640682Y-17234531D02*
X21650205Y-17253579D01*
X21650205Y-17253579D02*
X21659729Y-17291674D01*
X21659729Y-17291674D02*
X21659729Y-17339293D01*
X21659729Y-17339293D02*
X21650205Y-17377389D01*
X21650205Y-17377389D02*
X21640682Y-17396436D01*
X21640682Y-17396436D02*
X21631158Y-17405960D01*
X21631158Y-17405960D02*
X21612110Y-17415484D01*
X21612110Y-17415484D02*
X21593063Y-17415484D01*
X21593063Y-17415484D02*
X21574015Y-17405960D01*
X21574015Y-17405960D02*
X21564491Y-17396436D01*
X21564491Y-17396436D02*
X21554967Y-17377389D01*
X21554967Y-17377389D02*
X21545444Y-17339293D01*
X21545444Y-17339293D02*
X21545444Y-17291674D01*
X21545444Y-17291674D02*
X21554967Y-17253579D01*
X21554967Y-17253579D02*
X21564491Y-17234531D01*
X21564491Y-17234531D02*
X21574015Y-17225008D01*
X21574015Y-17225008D02*
X21593063Y-17215484D01*
X21783539Y-17215484D02*
X21802586Y-17215484D01*
X21802586Y-17215484D02*
X21821634Y-17225008D01*
X21821634Y-17225008D02*
X21831158Y-17234531D01*
X21831158Y-17234531D02*
X21840682Y-17253579D01*
X21840682Y-17253579D02*
X21850205Y-17291674D01*
X21850205Y-17291674D02*
X21850205Y-17339293D01*
X21850205Y-17339293D02*
X21840682Y-17377389D01*
X21840682Y-17377389D02*
X21831158Y-17396436D01*
X21831158Y-17396436D02*
X21821634Y-17405960D01*
X21821634Y-17405960D02*
X21802586Y-17415484D01*
X21802586Y-17415484D02*
X21783539Y-17415484D01*
X21783539Y-17415484D02*
X21764491Y-17405960D01*
X21764491Y-17405960D02*
X21754967Y-17396436D01*
X21754967Y-17396436D02*
X21745444Y-17377389D01*
X21745444Y-17377389D02*
X21735920Y-17339293D01*
X21735920Y-17339293D02*
X21735920Y-17291674D01*
X21735920Y-17291674D02*
X21745444Y-17253579D01*
X21745444Y-17253579D02*
X21754967Y-17234531D01*
X21754967Y-17234531D02*
X21764491Y-17225008D01*
X21764491Y-17225008D02*
X21783539Y-17215484D01*
X21935920Y-17415484D02*
X21935920Y-17282150D01*
X21935920Y-17301198D02*
X21945444Y-17291674D01*
X21945444Y-17291674D02*
X21964491Y-17282150D01*
X21964491Y-17282150D02*
X21993063Y-17282150D01*
X21993063Y-17282150D02*
X22012110Y-17291674D01*
X22012110Y-17291674D02*
X22021634Y-17310722D01*
X22021634Y-17310722D02*
X22021634Y-17415484D01*
X22021634Y-17310722D02*
X22031158Y-17291674D01*
X22031158Y-17291674D02*
X22050205Y-17282150D01*
X22050205Y-17282150D02*
X22078777Y-17282150D01*
X22078777Y-17282150D02*
X22097825Y-17291674D01*
X22097825Y-17291674D02*
X22107348Y-17310722D01*
X22107348Y-17310722D02*
X22107348Y-17415484D01*
X22202586Y-17415484D02*
X22202586Y-17282150D01*
X22202586Y-17301198D02*
X22212110Y-17291674D01*
X22212110Y-17291674D02*
X22231158Y-17282150D01*
X22231158Y-17282150D02*
X22259729Y-17282150D01*
X22259729Y-17282150D02*
X22278777Y-17291674D01*
X22278777Y-17291674D02*
X22288301Y-17310722D01*
X22288301Y-17310722D02*
X22288301Y-17415484D01*
X22288301Y-17310722D02*
X22297825Y-17291674D01*
X22297825Y-17291674D02*
X22316872Y-17282150D01*
X22316872Y-17282150D02*
X22345444Y-17282150D01*
X22345444Y-17282150D02*
X22364491Y-17291674D01*
X22364491Y-17291674D02*
X22374015Y-17310722D01*
X22374015Y-17310722D02*
X22374015Y-17415484D01*
X22764491Y-17205960D02*
X22593063Y-17463103D01*
X23021634Y-17215484D02*
X23040682Y-17215484D01*
X23040682Y-17215484D02*
X23059729Y-17225008D01*
X23059729Y-17225008D02*
X23069253Y-17234531D01*
X23069253Y-17234531D02*
X23078777Y-17253579D01*
X23078777Y-17253579D02*
X23088301Y-17291674D01*
X23088301Y-17291674D02*
X23088301Y-17339293D01*
X23088301Y-17339293D02*
X23078777Y-17377389D01*
X23078777Y-17377389D02*
X23069253Y-17396436D01*
X23069253Y-17396436D02*
X23059729Y-17405960D01*
X23059729Y-17405960D02*
X23040682Y-17415484D01*
X23040682Y-17415484D02*
X23021634Y-17415484D01*
X23021634Y-17415484D02*
X23002586Y-17405960D01*
X23002586Y-17405960D02*
X22993063Y-17396436D01*
X22993063Y-17396436D02*
X22983539Y-17377389D01*
X22983539Y-17377389D02*
X22974015Y-17339293D01*
X22974015Y-17339293D02*
X22974015Y-17291674D01*
X22974015Y-17291674D02*
X22983539Y-17253579D01*
X22983539Y-17253579D02*
X22993063Y-17234531D01*
X22993063Y-17234531D02*
X23002586Y-17225008D01*
X23002586Y-17225008D02*
X23021634Y-17215484D01*
X23174015Y-17396436D02*
X23183539Y-17405960D01*
X23183539Y-17405960D02*
X23174015Y-17415484D01*
X23174015Y-17415484D02*
X23164491Y-17405960D01*
X23164491Y-17405960D02*
X23174015Y-17396436D01*
X23174015Y-17396436D02*
X23174015Y-17415484D01*
X23374015Y-17415484D02*
X23259729Y-17415484D01*
X23316872Y-17415484D02*
X23316872Y-17215484D01*
X23316872Y-17215484D02*
X23297825Y-17244055D01*
X23297825Y-17244055D02*
X23278777Y-17263103D01*
X23278777Y-17263103D02*
X23259729Y-17272627D01*
X23545444Y-17282150D02*
X23545444Y-17415484D01*
X23497825Y-17205960D02*
X23450206Y-17348817D01*
X23450206Y-17348817D02*
X23574015Y-17348817D01*
X23745444Y-17215484D02*
X23650206Y-17215484D01*
X23650206Y-17215484D02*
X23640682Y-17310722D01*
X23640682Y-17310722D02*
X23650206Y-17301198D01*
X23650206Y-17301198D02*
X23669253Y-17291674D01*
X23669253Y-17291674D02*
X23716872Y-17291674D01*
X23716872Y-17291674D02*
X23735920Y-17301198D01*
X23735920Y-17301198D02*
X23745444Y-17310722D01*
X23745444Y-17310722D02*
X23754967Y-17329770D01*
X23754967Y-17329770D02*
X23754967Y-17377389D01*
X23754967Y-17377389D02*
X23745444Y-17396436D01*
X23745444Y-17396436D02*
X23735920Y-17405960D01*
X23735920Y-17405960D02*
X23716872Y-17415484D01*
X23716872Y-17415484D02*
X23669253Y-17415484D01*
X23669253Y-17415484D02*
X23650206Y-17405960D01*
X23650206Y-17405960D02*
X23640682Y-17396436D01*
X23821634Y-17215484D02*
X23954967Y-17215484D01*
X23954967Y-17215484D02*
X23869253Y-17415484D01*
X24021634Y-17215484D02*
X24021634Y-17253579D01*
X24097825Y-17215484D02*
X24097825Y-17253579D01*
X24393063Y-17491674D02*
X24383539Y-17482150D01*
X24383539Y-17482150D02*
X24364491Y-17453579D01*
X24364491Y-17453579D02*
X24354968Y-17434531D01*
X24354968Y-17434531D02*
X24345444Y-17405960D01*
X24345444Y-17405960D02*
X24335920Y-17358341D01*
X24335920Y-17358341D02*
X24335920Y-17320246D01*
X24335920Y-17320246D02*
X24345444Y-17272627D01*
X24345444Y-17272627D02*
X24354968Y-17244055D01*
X24354968Y-17244055D02*
X24364491Y-17225008D01*
X24364491Y-17225008D02*
X24383539Y-17196436D01*
X24383539Y-17196436D02*
X24393063Y-17186912D01*
X24554968Y-17282150D02*
X24554968Y-17415484D01*
X24507348Y-17205960D02*
X24459729Y-17348817D01*
X24459729Y-17348817D02*
X24583539Y-17348817D01*
X24812110Y-17415484D02*
X24812110Y-17215484D01*
X24897825Y-17415484D02*
X24897825Y-17310722D01*
X24897825Y-17310722D02*
X24888301Y-17291674D01*
X24888301Y-17291674D02*
X24869253Y-17282150D01*
X24869253Y-17282150D02*
X24840682Y-17282150D01*
X24840682Y-17282150D02*
X24821634Y-17291674D01*
X24821634Y-17291674D02*
X24812110Y-17301198D01*
X25021634Y-17415484D02*
X25002587Y-17405960D01*
X25002587Y-17405960D02*
X24993063Y-17396436D01*
X24993063Y-17396436D02*
X24983539Y-17377389D01*
X24983539Y-17377389D02*
X24983539Y-17320246D01*
X24983539Y-17320246D02*
X24993063Y-17301198D01*
X24993063Y-17301198D02*
X25002587Y-17291674D01*
X25002587Y-17291674D02*
X25021634Y-17282150D01*
X25021634Y-17282150D02*
X25050206Y-17282150D01*
X25050206Y-17282150D02*
X25069253Y-17291674D01*
X25069253Y-17291674D02*
X25078777Y-17301198D01*
X25078777Y-17301198D02*
X25088301Y-17320246D01*
X25088301Y-17320246D02*
X25088301Y-17377389D01*
X25088301Y-17377389D02*
X25078777Y-17396436D01*
X25078777Y-17396436D02*
X25069253Y-17405960D01*
X25069253Y-17405960D02*
X25050206Y-17415484D01*
X25050206Y-17415484D02*
X25021634Y-17415484D01*
X25202587Y-17415484D02*
X25183539Y-17405960D01*
X25183539Y-17405960D02*
X25174015Y-17386912D01*
X25174015Y-17386912D02*
X25174015Y-17215484D01*
X25354968Y-17405960D02*
X25335920Y-17415484D01*
X25335920Y-17415484D02*
X25297825Y-17415484D01*
X25297825Y-17415484D02*
X25278777Y-17405960D01*
X25278777Y-17405960D02*
X25269253Y-17386912D01*
X25269253Y-17386912D02*
X25269253Y-17310722D01*
X25269253Y-17310722D02*
X25278777Y-17291674D01*
X25278777Y-17291674D02*
X25297825Y-17282150D01*
X25297825Y-17282150D02*
X25335920Y-17282150D01*
X25335920Y-17282150D02*
X25354968Y-17291674D01*
X25354968Y-17291674D02*
X25364491Y-17310722D01*
X25364491Y-17310722D02*
X25364491Y-17329770D01*
X25364491Y-17329770D02*
X25269253Y-17348817D01*
X25440682Y-17405960D02*
X25459730Y-17415484D01*
X25459730Y-17415484D02*
X25497825Y-17415484D01*
X25497825Y-17415484D02*
X25516872Y-17405960D01*
X25516872Y-17405960D02*
X25526396Y-17386912D01*
X25526396Y-17386912D02*
X25526396Y-17377389D01*
X25526396Y-17377389D02*
X25516872Y-17358341D01*
X25516872Y-17358341D02*
X25497825Y-17348817D01*
X25497825Y-17348817D02*
X25469253Y-17348817D01*
X25469253Y-17348817D02*
X25450206Y-17339293D01*
X25450206Y-17339293D02*
X25440682Y-17320246D01*
X25440682Y-17320246D02*
X25440682Y-17310722D01*
X25440682Y-17310722D02*
X25450206Y-17291674D01*
X25450206Y-17291674D02*
X25469253Y-17282150D01*
X25469253Y-17282150D02*
X25497825Y-17282150D01*
X25497825Y-17282150D02*
X25516872Y-17291674D01*
X25593063Y-17491674D02*
X25602587Y-17482150D01*
X25602587Y-17482150D02*
X25621634Y-17453579D01*
X25621634Y-17453579D02*
X25631158Y-17434531D01*
X25631158Y-17434531D02*
X25640682Y-17405960D01*
X25640682Y-17405960D02*
X25650206Y-17358341D01*
X25650206Y-17358341D02*
X25650206Y-17320246D01*
X25650206Y-17320246D02*
X25640682Y-17272627D01*
X25640682Y-17272627D02*
X25631158Y-17244055D01*
X25631158Y-17244055D02*
X25621634Y-17225008D01*
X25621634Y-17225008D02*
X25602587Y-17196436D01*
X25602587Y-17196436D02*
X25593063Y-17186912D01*
M02*
