M48
; DRILL file {KiCad (6.0.4)} date Wed Nov  2 15:13:37 2022
; FORMAT={-:-/ absolute / metric / decimal}
; #@! TF.CreationDate,2022-11-02T15:13:37-07:00
; #@! TF.GenerationSoftware,Kicad,Pcbnew,(6.0.4)
; #@! TF.FileFunction,NonPlated,1,2,NPTH
FMAT,2
METRIC
; #@! TA.AperFunction,NonPlated,NPTH,ComponentDrill
T1C1.700
%
G90
G05
T1
X101.117Y-74.222
X101.117Y-105.778
X104.751Y-64.237
X104.751Y-115.763
X110.064Y-55.035
X110.064Y-124.965
X116.895Y-46.895
X116.895Y-133.105
X125.035Y-40.064
X125.035Y-139.936
X134.237Y-34.751
X134.237Y-145.249
X144.222Y-31.117
X144.222Y-148.883
X175.778Y-31.117
X175.778Y-148.883
X185.763Y-34.751
X185.763Y-145.249
X194.965Y-40.064
X194.965Y-139.936
X203.105Y-46.895
X203.105Y-133.105
X209.936Y-55.035
X209.936Y-124.965
X215.249Y-64.237
X215.249Y-115.763
X218.883Y-74.222
X218.883Y-105.778
T0
M30
