%TF.GenerationSoftware,KiCad,Pcbnew,8.0.0*%
%TF.CreationDate,2024-03-11T20:15:50-07:00*%
%TF.ProjectId,PCB,5043422e-6b69-4636-9164-5f7063625858,rev?*%
%TF.SameCoordinates,Original*%
%TF.FileFunction,Copper,L4,Bot*%
%TF.FilePolarity,Positive*%
%FSLAX46Y46*%
G04 Gerber Fmt 4.6, Leading zero omitted, Abs format (unit mm)*
G04 Created by KiCad (PCBNEW 8.0.0) date 2024-03-11 20:15:50*
%MOMM*%
%LPD*%
G01*
G04 APERTURE LIST*
G04 Aperture macros list*
%AMRoundRect*
0 Rectangle with rounded corners*
0 $1 Rounding radius*
0 $2 $3 $4 $5 $6 $7 $8 $9 X,Y pos of 4 corners*
0 Add a 4 corners polygon primitive as box body*
4,1,4,$2,$3,$4,$5,$6,$7,$8,$9,$2,$3,0*
0 Add four circle primitives for the rounded corners*
1,1,$1+$1,$2,$3*
1,1,$1+$1,$4,$5*
1,1,$1+$1,$6,$7*
1,1,$1+$1,$8,$9*
0 Add four rect primitives between the rounded corners*
20,1,$1+$1,$2,$3,$4,$5,0*
20,1,$1+$1,$4,$5,$6,$7,0*
20,1,$1+$1,$6,$7,$8,$9,0*
20,1,$1+$1,$8,$9,$2,$3,0*%
G04 Aperture macros list end*
%TA.AperFunction,ComponentPad*%
%ADD10C,4.100000*%
%TD*%
%TA.AperFunction,ConnectorPad*%
%ADD11C,7.400000*%
%TD*%
%TA.AperFunction,ComponentPad*%
%ADD12RoundRect,0.250000X0.600000X0.725000X-0.600000X0.725000X-0.600000X-0.725000X0.600000X-0.725000X0*%
%TD*%
%TA.AperFunction,ComponentPad*%
%ADD13O,1.700000X1.950000*%
%TD*%
%TA.AperFunction,ViaPad*%
%ADD14C,0.600000*%
%TD*%
%TA.AperFunction,ViaPad*%
%ADD15C,0.800000*%
%TD*%
%TA.AperFunction,Conductor*%
%ADD16C,0.250000*%
%TD*%
%TA.AperFunction,Conductor*%
%ADD17C,0.200000*%
%TD*%
G04 APERTURE END LIST*
D10*
X275900000Y-152400000D03*
D11*
X275900000Y-152400000D03*
D10*
X215900000Y-92400000D03*
D11*
X215900000Y-92400000D03*
D10*
X215900000Y-152400000D03*
D11*
X215900000Y-152400000D03*
D10*
X275900000Y-92400000D03*
D11*
X275900000Y-92400000D03*
D12*
X256420000Y-135890000D03*
D13*
X253920000Y-135890000D03*
X251420000Y-135890000D03*
X248920000Y-135890000D03*
X246420000Y-135890000D03*
X243920000Y-135890000D03*
X241420000Y-135890000D03*
D14*
X227330000Y-104140000D03*
X240030000Y-133350000D03*
X223520000Y-146050000D03*
X276225000Y-136779000D03*
X217170000Y-121920000D03*
X261620000Y-137160000D03*
X234950000Y-111760000D03*
X227330000Y-119380000D03*
X262890000Y-90932000D03*
X241300000Y-111760000D03*
X249555000Y-151765000D03*
X279400000Y-115570000D03*
X276225000Y-108585000D03*
X246380000Y-104140000D03*
X248920000Y-115570000D03*
X238760000Y-111760000D03*
X266700000Y-134620000D03*
X276860000Y-144780000D03*
X242570000Y-91440000D03*
X274320000Y-102870000D03*
D15*
X243840000Y-156210000D03*
D14*
X237490000Y-140970000D03*
X229870000Y-125730000D03*
D15*
X250825000Y-99060000D03*
D14*
X270510000Y-88900000D03*
X213360000Y-127000000D03*
D15*
X241300000Y-102870000D03*
D14*
X262890000Y-127000000D03*
X242570000Y-100330000D03*
X262890000Y-100330000D03*
D15*
X243840000Y-149860000D03*
D14*
X224790000Y-137160000D03*
X270510000Y-140970000D03*
X219710000Y-127000000D03*
X229870000Y-93980000D03*
X229870000Y-152400000D03*
X269240000Y-148590000D03*
X261620000Y-142240000D03*
X248920000Y-91440000D03*
X218440000Y-142240000D03*
X276860000Y-130810000D03*
X215900000Y-105410000D03*
X256540000Y-140970000D03*
X259080000Y-120650000D03*
X226060000Y-99060000D03*
X264160000Y-106680000D03*
X246144091Y-113892500D03*
X265430000Y-115570000D03*
X254000000Y-114300000D03*
X246380000Y-142240000D03*
X263525000Y-151765000D03*
X217170000Y-132080000D03*
X256540000Y-149860000D03*
X255270000Y-102870000D03*
X234950000Y-133350000D03*
X274320000Y-116840000D03*
X232410000Y-107950000D03*
X265430000Y-129540000D03*
X229870000Y-116840000D03*
X247650000Y-132080000D03*
X231140000Y-104140000D03*
X222250000Y-152400000D03*
X226060000Y-132080000D03*
X214630000Y-96520000D03*
X260350000Y-102870000D03*
X218440000Y-110490000D03*
X247896765Y-109890000D03*
X274320000Y-125730000D03*
X234950000Y-123190000D03*
X265905000Y-101600000D03*
X236220000Y-140970000D03*
X267970000Y-110490000D03*
X227330000Y-111760000D03*
X237490000Y-135890000D03*
X273050000Y-130810000D03*
X227330000Y-142240000D03*
X236220000Y-102870000D03*
X251460000Y-111760000D03*
X215900000Y-113030000D03*
D15*
X259080000Y-111760000D03*
D14*
X227330000Y-128270000D03*
X234950000Y-148590000D03*
X256540000Y-87630000D03*
X257810000Y-93980000D03*
X267970000Y-129540000D03*
X236220000Y-90639997D03*
X217170000Y-105410000D03*
X234950000Y-95250000D03*
X219710000Y-121920000D03*
X261620000Y-93980000D03*
X275590000Y-135890000D03*
X237490000Y-107950000D03*
X261620000Y-104140000D03*
X274320000Y-127000000D03*
X274320000Y-120650000D03*
X236220000Y-109220000D03*
X240030000Y-95250000D03*
X218440000Y-100330000D03*
X274320000Y-144780000D03*
X237490000Y-149860000D03*
X223520000Y-149860000D03*
X252730000Y-93980000D03*
X219710000Y-116840000D03*
X259080000Y-148590000D03*
X233680000Y-129540000D03*
X218440000Y-130810000D03*
X237490000Y-106680000D03*
X243840000Y-148590000D03*
X227330000Y-93980000D03*
X266700000Y-93980000D03*
X250190000Y-149860000D03*
X220980000Y-93980000D03*
X274320000Y-140970000D03*
X229870000Y-149860000D03*
X240030000Y-92710000D03*
X274320000Y-113030000D03*
X274320000Y-107950000D03*
X218440000Y-135890000D03*
X215900000Y-140970000D03*
X257835000Y-90170000D03*
X276606000Y-102108000D03*
X255270000Y-152400000D03*
D15*
X246380000Y-116205000D03*
D14*
X234950000Y-151130000D03*
X277292501Y-117272501D03*
X231140000Y-90170000D03*
X276294313Y-131375687D03*
X243840000Y-90170000D03*
X215900000Y-110490000D03*
X269240000Y-152400000D03*
X247650000Y-129540000D03*
X215900000Y-127000000D03*
X248920000Y-107480000D03*
X248920000Y-111760000D03*
X246021744Y-109890000D03*
X254000000Y-106680000D03*
X233680000Y-132080000D03*
X240700000Y-132680000D03*
X259080000Y-123190000D03*
X250190000Y-139700000D03*
X239670000Y-139700000D03*
X255057867Y-105622133D03*
X231140000Y-129540000D03*
X251460000Y-129540000D03*
X254000000Y-115570000D03*
X272415000Y-122555000D03*
X220980000Y-135890000D03*
X229235000Y-147955000D03*
X272415000Y-137160000D03*
X248920000Y-95250000D03*
X266700000Y-95250000D03*
X248939565Y-147349438D03*
X220980000Y-121920000D03*
X263525000Y-147955000D03*
X219710000Y-100330000D03*
X273050000Y-111760000D03*
X236220000Y-93980000D03*
X252095000Y-114935000D03*
X259158529Y-107655000D03*
X265430000Y-99060000D03*
X266700000Y-106680000D03*
X259080000Y-116840000D03*
X242570000Y-111760000D03*
X241300000Y-106680000D03*
X247180003Y-115570000D03*
X245421744Y-111090000D03*
X245110000Y-105410000D03*
X241300000Y-116840000D03*
X228600000Y-110490000D03*
X228600000Y-137160000D03*
X227330000Y-143510000D03*
X240030000Y-130810000D03*
X228600000Y-135890000D03*
X240590000Y-128980000D03*
X271780000Y-140970000D03*
X266700000Y-138430000D03*
X273685000Y-135890000D03*
X266700000Y-123190000D03*
X264160000Y-111760000D03*
X266700000Y-120650000D03*
X274320000Y-121920000D03*
X264160000Y-109220000D03*
X236220000Y-91440000D03*
X254000000Y-110490000D03*
X229235000Y-132715000D03*
X224790000Y-123190000D03*
X218440000Y-105410000D03*
X218440000Y-121920000D03*
X224790000Y-133350000D03*
X233680000Y-134620000D03*
X231140000Y-142240000D03*
X259715000Y-149225000D03*
X238125000Y-133280000D03*
X243840000Y-140970000D03*
X243840000Y-147320000D03*
X238760000Y-134620000D03*
X250190000Y-130810000D03*
X234950000Y-137160000D03*
X261620000Y-116840000D03*
X238760000Y-129540000D03*
X261620000Y-120650000D03*
X250190000Y-105410000D03*
X250290736Y-115670736D03*
X251460000Y-102870000D03*
X251240000Y-115570000D03*
X252730000Y-105410000D03*
X228600000Y-105410000D03*
X241300000Y-114300000D03*
X242570000Y-130810000D03*
X233680000Y-138430000D03*
X252730000Y-132080000D03*
X259080000Y-134620000D03*
D16*
X246021744Y-109890000D02*
X247891744Y-111760000D01*
X247891744Y-111760000D02*
X248920000Y-111760000D01*
D17*
X240700000Y-132680000D02*
X234280000Y-132680000D01*
X259080000Y-129540000D02*
X256420000Y-132200000D01*
X259080000Y-123190000D02*
X259080000Y-129540000D01*
X234280000Y-132680000D02*
X233680000Y-132080000D01*
X256420000Y-132200000D02*
X256420000Y-135890000D01*
X250190000Y-139700000D02*
X239670000Y-139700000D01*
X251460000Y-118110000D02*
X254000000Y-115570000D01*
X251460000Y-129540000D02*
X251460000Y-118110000D01*
X248920000Y-135890000D02*
X244510000Y-131480000D01*
X229021471Y-130810000D02*
X220980000Y-122768529D01*
X271780000Y-121920000D02*
X272415000Y-122555000D01*
X262890000Y-147320000D02*
X262890000Y-138430000D01*
X220980000Y-135890000D02*
X223941471Y-135890000D01*
X255270000Y-113030000D02*
X256540000Y-111760000D01*
X254000000Y-104140000D02*
X243840000Y-93980000D01*
X255270000Y-113030000D02*
X232410000Y-113030000D01*
X232410000Y-146050000D02*
X232410000Y-130810000D01*
X230505000Y-147955000D02*
X232410000Y-146050000D01*
X264160000Y-137160000D02*
X262890000Y-138430000D01*
X251460000Y-144829003D02*
X248939565Y-147349438D01*
X266700000Y-95250000D02*
X265430000Y-96520000D01*
X257810000Y-104140000D02*
X248920000Y-95250000D01*
X229235000Y-147955000D02*
X230505000Y-147955000D01*
X264160000Y-104140000D02*
X261620000Y-106680000D01*
X244510000Y-131480000D02*
X233080000Y-131480000D01*
X223941471Y-135890000D02*
X229021471Y-130810000D01*
X233080000Y-131480000D02*
X232410000Y-130810000D01*
X251460000Y-138430000D02*
X251460000Y-144829003D01*
X273050000Y-110490000D02*
X267970000Y-105410000D01*
X264160000Y-96520000D02*
X264160000Y-104140000D01*
X232410000Y-113030000D02*
X219710000Y-100330000D01*
X261620000Y-106680000D02*
X259080000Y-104140000D01*
X260350000Y-107950000D02*
X259080000Y-106680000D01*
X250190000Y-137160000D02*
X251460000Y-138430000D01*
X232410000Y-130810000D02*
X229021471Y-130810000D01*
X220980000Y-122768529D02*
X220980000Y-121920000D01*
X255270000Y-130810000D02*
X255270000Y-121920000D01*
X263525000Y-147955000D02*
X262890000Y-147320000D01*
X267970000Y-105410000D02*
X262890000Y-105410000D01*
X259080000Y-104140000D02*
X257810000Y-104140000D01*
X256540000Y-111760000D02*
X257810000Y-111760000D01*
X251460000Y-133350000D02*
X254000000Y-133350000D01*
X272415000Y-137160000D02*
X264160000Y-137160000D01*
X257810000Y-111760000D02*
X260350000Y-109220000D01*
X265430000Y-96520000D02*
X264160000Y-96520000D01*
X243840000Y-93980000D02*
X236220000Y-93980000D01*
X273050000Y-111760000D02*
X273050000Y-110490000D01*
X261620000Y-106680000D02*
X260350000Y-107950000D01*
X255270000Y-121920000D02*
X271780000Y-121920000D01*
X254000000Y-133350000D02*
X254000000Y-132080000D01*
X248920000Y-135890000D02*
X251460000Y-133350000D01*
X262890000Y-105410000D02*
X261620000Y-106680000D01*
X259080000Y-106680000D02*
X256964264Y-106680000D01*
X256964264Y-106680000D02*
X254424264Y-104140000D01*
X255270000Y-121920000D02*
X255270000Y-113030000D01*
X248920000Y-135890000D02*
X250190000Y-137160000D01*
X251460000Y-138430000D02*
X262890000Y-138430000D01*
X260350000Y-109220000D02*
X260350000Y-107950000D01*
X254000000Y-132080000D02*
X255270000Y-130810000D01*
X254424264Y-104140000D02*
X254000000Y-104140000D01*
X272410000Y-137165000D02*
X272415000Y-137160000D01*
X259080000Y-113030000D02*
X265430000Y-106680000D01*
X265430000Y-106680000D02*
X266700000Y-106680000D01*
X259080000Y-116840000D02*
X259080000Y-113030000D01*
X241300000Y-106680000D02*
X242570000Y-107950000D01*
X242570000Y-107950000D02*
X242570000Y-111760000D01*
X245110000Y-110778256D02*
X245110000Y-105410000D01*
X245421744Y-111090000D02*
X245110000Y-110778256D01*
X228600000Y-110490000D02*
X234950000Y-116840000D01*
X234950000Y-116840000D02*
X241300000Y-116840000D01*
X227330000Y-143510000D02*
X228600000Y-142240000D01*
X228600000Y-142240000D02*
X228600000Y-137160000D01*
X271780000Y-140970000D02*
X270510000Y-139700000D01*
X270510000Y-139700000D02*
X267970000Y-139700000D01*
X267970000Y-139700000D02*
X266700000Y-138430000D01*
X273685000Y-130175000D02*
X273685000Y-135890000D01*
X266700000Y-114300000D02*
X264160000Y-111760000D01*
X266700000Y-123190000D02*
X273685000Y-130175000D01*
X266700000Y-120650000D02*
X266700000Y-114300000D01*
X274320000Y-121920000D02*
X269240000Y-116840000D01*
X269240000Y-116840000D02*
X269240000Y-114300000D01*
X269240000Y-114300000D02*
X264160000Y-109220000D01*
X248071471Y-106680000D02*
X250190000Y-106680000D01*
X235620000Y-92040000D02*
X235620000Y-94228529D01*
X236220000Y-91440000D02*
X235620000Y-92040000D01*
X250190000Y-106680000D02*
X254000000Y-110490000D01*
X235620000Y-94228529D02*
X248071471Y-106680000D01*
X224790000Y-111760000D02*
X224790000Y-123190000D01*
X218440000Y-105410000D02*
X224790000Y-111760000D01*
X218440000Y-127000000D02*
X224790000Y-133350000D01*
X218440000Y-121920000D02*
X218440000Y-127000000D01*
X259715000Y-149225000D02*
X258480000Y-150460000D01*
X258480000Y-150460000D02*
X249941471Y-150460000D01*
X243840000Y-144358529D02*
X243840000Y-140970000D01*
X249941471Y-150460000D02*
X243840000Y-144358529D01*
X238760000Y-142240000D02*
X238760000Y-134620000D01*
X243840000Y-147320000D02*
X238760000Y-142240000D01*
X249520000Y-130140000D02*
X239360000Y-130140000D01*
X239360000Y-130140000D02*
X238760000Y-129540000D01*
X261620000Y-120650000D02*
X261620000Y-116840000D01*
X250190000Y-130810000D02*
X249520000Y-130140000D01*
M02*
