%FSLAX45Y45*%
G04 Gerber Fmt 4.5, Leading zero omitted, Abs format (unit mm)*
G04 Created by KiCad (PCBNEW (6.0.4)) date 2022-11-02 15:14:06*
%MOMM*%
%LPD*%
G01*
G04 APERTURE LIST*
%TA.AperFunction,Profile*%
%ADD10C,0.200000*%
%TD*%
%ADD11C,0.200000*%
%ADD12C,0.040000*%
%ADD13C,0.070000*%
%ADD14C,0.095000*%
%ADD15C,0.100000*%
%ADD16C,0.370000*%
%ADD17C,0.640000*%
G04 APERTURE END LIST*
D10*
X16635001Y-15030829D02*
G75*
G03*
X16926042Y-15282113I253999J-1D01*
G01*
X10920000Y-8365000D02*
X9969171Y-8365000D01*
X22282115Y-9926042D02*
G75*
G03*
X22030829Y-9635000I-251285J37042D01*
G01*
X15365000Y-2969171D02*
X15365000Y-3920000D01*
X15073958Y-2717887D02*
G75*
G03*
X9717887Y-8073958I926042J-6282113D01*
G01*
X16926042Y-2717886D02*
G75*
G03*
X16635000Y-2969171I-37042J-251284D01*
G01*
X9717887Y-9926042D02*
G75*
G03*
X15073958Y-15282113I6282113J926042D01*
G01*
X22030829Y-8365000D02*
X21080000Y-8365000D01*
X15364999Y-2969171D02*
G75*
G03*
X15073958Y-2717887I-253999J1D01*
G01*
X9969171Y-9635001D02*
G75*
G03*
X9717887Y-9926042I-1J-253999D01*
G01*
X15365000Y-14080000D02*
X15365000Y-15030829D01*
X15073958Y-15282114D02*
G75*
G03*
X15365000Y-15030829I37042J251285D01*
G01*
X16635000Y-3920000D02*
X16635000Y-2969171D01*
X9717886Y-8073958D02*
G75*
G03*
X9969171Y-8365000I251285J-37042D01*
G01*
X16635000Y-15030829D02*
X16635000Y-14080000D01*
X22282113Y-8073958D02*
G75*
G03*
X16926042Y-2717887I-6282113J-926042D01*
G01*
X9969171Y-9635000D02*
X10920000Y-9635000D01*
X22030829Y-8364999D02*
G75*
G03*
X22282113Y-8073958I1J253999D01*
G01*
X16926042Y-15282113D02*
G75*
G03*
X22282113Y-9926042I-926042J6282113D01*
G01*
X10920000Y-9635000D02*
G75*
G03*
X10920000Y-8365000I0J635000D01*
G01*
X15365000Y-3920000D02*
G75*
G03*
X16635000Y-3920000I635000J0D01*
G01*
X21080000Y-9635000D02*
X22030829Y-9635000D01*
X21080000Y-8365000D02*
G75*
G03*
X21080000Y-9635000I0J-635000D01*
G01*
X16635000Y-14080000D02*
G75*
G03*
X15365000Y-14080000I-635000J0D01*
G01*
D11*
D12*
X11727500Y-7384100D02*
X11767500Y-7424100D01*
X11767500Y-7384100D02*
X11727500Y-7424100D01*
X12121200Y-11524300D02*
X12161200Y-11564300D01*
X12161200Y-11524300D02*
X12121200Y-11564300D01*
X12311700Y-10228900D02*
X12351700Y-10268900D01*
X12351700Y-10228900D02*
X12311700Y-10268900D01*
X12451400Y-6152200D02*
X12491400Y-6192200D01*
X12491400Y-6152200D02*
X12451400Y-6192200D01*
X12476800Y-7676200D02*
X12516800Y-7716200D01*
X12516800Y-7676200D02*
X12476800Y-7716200D01*
X12705400Y-7516180D02*
X12745400Y-7556180D01*
X12745400Y-7516180D02*
X12705400Y-7556180D01*
X12723180Y-10528620D02*
X12763180Y-10568620D01*
X12763180Y-10528620D02*
X12723180Y-10568620D01*
X12857800Y-6965000D02*
X12897800Y-7005000D01*
X12897800Y-6965000D02*
X12857800Y-7005000D01*
X12895900Y-7958140D02*
X12935900Y-7998140D01*
X12935900Y-7958140D02*
X12895900Y-7998140D01*
X12934000Y-10978200D02*
X12974000Y-11018200D01*
X12974000Y-10978200D02*
X12934000Y-11018200D01*
X13048300Y-6660200D02*
X13088300Y-6700200D01*
X13088300Y-6660200D02*
X13048300Y-6700200D01*
X13149900Y-11333800D02*
X13189900Y-11373800D01*
X13189900Y-11333800D02*
X13149900Y-11373800D01*
X13149900Y-12553000D02*
X13189900Y-12593000D01*
X13189900Y-12553000D02*
X13149900Y-12593000D01*
X13175300Y-10076500D02*
X13215300Y-10116500D01*
X13215300Y-10076500D02*
X13175300Y-10116500D01*
X13375960Y-11465880D02*
X13415960Y-11505880D01*
X13415960Y-11465880D02*
X13375960Y-11505880D01*
X13518200Y-5187000D02*
X13558200Y-5227000D01*
X13558200Y-5187000D02*
X13518200Y-5227000D01*
X13523280Y-6495100D02*
X13563280Y-6535100D01*
X13563280Y-6495100D02*
X13523280Y-6535100D01*
X13632500Y-6076000D02*
X13672500Y-6116000D01*
X13672500Y-6076000D02*
X13632500Y-6116000D01*
X13708700Y-8527100D02*
X13748700Y-8567100D01*
X13748700Y-8527100D02*
X13708700Y-8567100D01*
X13708700Y-11829100D02*
X13748700Y-11869100D01*
X13748700Y-11829100D02*
X13708700Y-11869100D01*
X13746800Y-9784400D02*
X13786800Y-9824400D01*
X13786800Y-9784400D02*
X13746800Y-9824400D01*
X13880000Y-13180000D02*
X13920000Y-13220000D01*
X13920000Y-13180000D02*
X13880000Y-13220000D01*
X13899200Y-9581200D02*
X13939200Y-9621200D01*
X13939200Y-9581200D02*
X13899200Y-9621200D01*
X14026200Y-12133900D02*
X14066200Y-12173900D01*
X14066200Y-12133900D02*
X14026200Y-12173900D01*
X14115100Y-5872800D02*
X14155100Y-5912800D01*
X14155100Y-5872800D02*
X14115100Y-5912800D01*
X14262420Y-8184200D02*
X14302420Y-8224200D01*
X14302420Y-8184200D02*
X14262420Y-8224200D01*
X14267500Y-11143300D02*
X14307500Y-11183300D01*
X14307500Y-11143300D02*
X14267500Y-11183300D01*
X14305600Y-13378500D02*
X14345600Y-13418500D01*
X14345600Y-13378500D02*
X14305600Y-13418500D01*
X14473240Y-5822000D02*
X14513240Y-5862000D01*
X14513240Y-5822000D02*
X14473240Y-5862000D01*
X14572300Y-5555300D02*
X14612300Y-5595300D01*
X14612300Y-5555300D02*
X14572300Y-5595300D01*
X14712000Y-12400600D02*
X14752000Y-12440600D01*
X14752000Y-12400600D02*
X14712000Y-12440600D01*
X15026960Y-9873300D02*
X15066960Y-9913300D01*
X15066960Y-9873300D02*
X15026960Y-9913300D01*
X15270800Y-9746300D02*
X15310800Y-9786300D01*
X15310800Y-9746300D02*
X15270800Y-9786300D01*
X15278420Y-6703380D02*
X15318420Y-6743380D01*
X15318420Y-6703380D02*
X15278420Y-6743380D01*
X15321600Y-11041700D02*
X15361600Y-11081700D01*
X15361600Y-11041700D02*
X15321600Y-11081700D01*
X15550200Y-11270300D02*
X15590200Y-11310300D01*
X15590200Y-11270300D02*
X15550200Y-11310300D01*
X15661960Y-6876100D02*
X15701960Y-6916100D01*
X15701960Y-6876100D02*
X15661960Y-6916100D01*
X15980000Y-7080000D02*
X16020000Y-7120000D01*
X16020000Y-7080000D02*
X15980000Y-7120000D01*
X15980000Y-9980000D02*
X16020000Y-10020000D01*
X16020000Y-9980000D02*
X15980000Y-10020000D01*
X16421420Y-9873300D02*
X16461420Y-9913300D01*
X16461420Y-9873300D02*
X16421420Y-9913300D01*
X16642400Y-9797100D02*
X16682400Y-9837100D01*
X16682400Y-9797100D02*
X16642400Y-9837100D01*
X17239300Y-5466400D02*
X17279300Y-5506400D01*
X17279300Y-5466400D02*
X17239300Y-5506400D01*
X17353600Y-12337100D02*
X17393600Y-12377100D01*
X17393600Y-12337100D02*
X17353600Y-12377100D01*
X17442500Y-9670100D02*
X17482500Y-9710100D01*
X17482500Y-9670100D02*
X17442500Y-9710100D01*
X17442500Y-11143300D02*
X17482500Y-11183300D01*
X17482500Y-11143300D02*
X17442500Y-11183300D01*
X17569500Y-12189780D02*
X17609500Y-12229780D01*
X17609500Y-12189780D02*
X17569500Y-12229780D01*
X17612680Y-5725480D02*
X17652680Y-5765480D01*
X17652680Y-5725480D02*
X17612680Y-5765480D01*
X17633000Y-4628200D02*
X17673000Y-4668200D01*
X17673000Y-4628200D02*
X17633000Y-4668200D01*
X17653320Y-4280220D02*
X17693320Y-4320220D01*
X17693320Y-4280220D02*
X17653320Y-4320220D01*
X17683314Y-11054400D02*
X17723314Y-11094400D01*
X17723314Y-11054400D02*
X17683314Y-11094400D01*
X17823500Y-7333300D02*
X17863500Y-7373300D01*
X17863500Y-7333300D02*
X17823500Y-7373300D01*
X17940340Y-11813860D02*
X17980340Y-11853860D01*
X17980340Y-11813860D02*
X17940340Y-11853860D01*
X17963200Y-6584000D02*
X18003200Y-6624000D01*
X18003200Y-6584000D02*
X17963200Y-6624000D01*
X17993680Y-11270300D02*
X18033680Y-11310300D01*
X18033680Y-11270300D02*
X17993680Y-11310300D01*
X18001300Y-12032300D02*
X18041300Y-12072300D01*
X18041300Y-12032300D02*
X18001300Y-12072300D01*
X18026700Y-5847400D02*
X18066700Y-5887400D01*
X18066700Y-5847400D02*
X18026700Y-5887400D01*
X18077500Y-7135180D02*
X18117500Y-7175180D01*
X18117500Y-7135180D02*
X18077500Y-7175180D01*
X18077500Y-9555800D02*
X18117500Y-9595800D01*
X18117500Y-9555800D02*
X18077500Y-9595800D01*
X18153700Y-6822760D02*
X18193700Y-6862760D01*
X18193700Y-6822760D02*
X18153700Y-6862760D01*
X18204500Y-9962200D02*
X18244500Y-10002200D01*
X18244500Y-9962200D02*
X18204500Y-10002200D01*
X18268000Y-9441500D02*
X18308000Y-9481500D01*
X18308000Y-9441500D02*
X18268000Y-9481500D01*
X18306100Y-5999800D02*
X18346100Y-6039800D01*
X18346100Y-5999800D02*
X18306100Y-6039800D01*
X18306100Y-9682800D02*
X18346100Y-9722800D01*
X18346100Y-9682800D02*
X18306100Y-9722800D01*
X18311180Y-10427020D02*
X18351180Y-10467020D01*
X18351180Y-10427020D02*
X18311180Y-10467020D01*
X18331500Y-11740200D02*
X18371500Y-11780200D01*
X18371500Y-11740200D02*
X18331500Y-11780200D01*
X18356900Y-4419920D02*
X18396900Y-4459920D01*
X18396900Y-4419920D02*
X18356900Y-4459920D01*
X18433100Y-9771700D02*
X18473100Y-9811700D01*
X18473100Y-9771700D02*
X18433100Y-9811700D01*
X18509300Y-12807000D02*
X18549300Y-12847000D01*
X18549300Y-12807000D02*
X18509300Y-12847000D01*
X18527080Y-6451920D02*
X18567080Y-6491920D01*
X18567080Y-6451920D02*
X18527080Y-6491920D01*
X18529620Y-11493820D02*
X18569620Y-11533820D01*
X18569620Y-11493820D02*
X18529620Y-11533820D01*
X18623600Y-9873300D02*
X18663600Y-9913300D01*
X18663600Y-9873300D02*
X18623600Y-9913300D01*
X18826800Y-11244900D02*
X18866800Y-11284900D01*
X18866800Y-11244900D02*
X18826800Y-11284900D01*
X18839500Y-10089200D02*
X18879500Y-10129200D01*
X18879500Y-10089200D02*
X18839500Y-10129200D01*
X18903000Y-6634800D02*
X18943000Y-6674800D01*
X18943000Y-6634800D02*
X18903000Y-6674800D01*
X19004600Y-5301300D02*
X19044600Y-5341300D01*
X19044600Y-5301300D02*
X19004600Y-5341300D01*
X19080800Y-6888800D02*
X19120800Y-6928800D01*
X19120800Y-6888800D02*
X19080800Y-6928800D01*
X19093500Y-10863900D02*
X19133500Y-10903900D01*
X19133500Y-10863900D02*
X19093500Y-10903900D01*
X19195100Y-7333300D02*
X19235100Y-7373300D01*
X19235100Y-7333300D02*
X19195100Y-7373300D01*
X19347500Y-7536500D02*
X19387500Y-7576500D01*
X19387500Y-7536500D02*
X19347500Y-7576500D01*
X19461800Y-10228900D02*
X19501800Y-10268900D01*
X19501800Y-10228900D02*
X19461800Y-10268900D01*
X19588800Y-11892600D02*
X19628800Y-11932600D01*
X19628800Y-11892600D02*
X19588800Y-11932600D01*
X19855500Y-6469700D02*
X19895500Y-6509700D01*
X19895500Y-6469700D02*
X19855500Y-6509700D01*
X20287300Y-10648000D02*
X20327300Y-10688000D01*
X20327300Y-10648000D02*
X20287300Y-10688000D01*
D13*
X10232500Y-8077500D02*
G75*
G03*
X10232500Y-8077500I-35000J0D01*
G01*
X10830000Y-8280400D02*
G75*
G03*
X10830000Y-8280400I-35000J0D01*
G01*
X12318440Y-8432800D02*
G75*
G03*
X12318440Y-8432800I-35000J0D01*
G01*
X12343840Y-9652000D02*
G75*
G03*
X12343840Y-9652000I-35000J0D01*
G01*
X13385240Y-6654800D02*
G75*
G03*
X13385240Y-6654800I-35000J0D01*
G01*
X13400480Y-7350760D02*
G75*
G03*
X13400480Y-7350760I-35000J0D01*
G01*
X13522400Y-10662920D02*
G75*
G03*
X13522400Y-10662920I-35000J0D01*
G01*
X13547800Y-11699240D02*
G75*
G03*
X13547800Y-11699240I-35000J0D01*
G01*
X13878000Y-6314440D02*
G75*
G03*
X13878000Y-6314440I-35000J0D01*
G01*
X14020240Y-7818120D02*
G75*
G03*
X14020240Y-7818120I-35000J0D01*
G01*
X14304720Y-9606280D02*
G75*
G03*
X14304720Y-9606280I-35000J0D01*
G01*
X14380920Y-11496040D02*
G75*
G03*
X14380920Y-11496040I-35000J0D01*
G01*
X14640000Y-10520680D02*
G75*
G03*
X14640000Y-10520680I-35000J0D01*
G01*
X14711120Y-6791960D02*
G75*
G03*
X14711120Y-6791960I-35000J0D01*
G01*
X14817800Y-9585960D02*
G75*
G03*
X14817800Y-9585960I-35000J0D01*
G01*
X14848280Y-8524240D02*
G75*
G03*
X14848280Y-8524240I-35000J0D01*
G01*
X15097200Y-3545840D02*
G75*
G03*
X15097200Y-3545840I-35000J0D01*
G01*
X15100000Y-14760000D02*
G75*
G03*
X15100000Y-14760000I-35000J0D01*
G01*
X15117520Y-13736320D02*
G75*
G03*
X15117520Y-13736320I-35000J0D01*
G01*
X15127680Y-4429760D02*
G75*
G03*
X15127680Y-4429760I-35000J0D01*
G01*
X15137840Y-11531600D02*
G75*
G03*
X15137840Y-11531600I-35000J0D01*
G01*
X15173400Y-5471160D02*
G75*
G03*
X15173400Y-5471160I-35000J0D01*
G01*
X15214040Y-12136120D02*
G75*
G03*
X15214040Y-12136120I-35000J0D01*
G01*
X15422320Y-8356600D02*
G75*
G03*
X15422320Y-8356600I-35000J0D01*
G01*
X15711880Y-10871200D02*
G75*
G03*
X15711880Y-10871200I-35000J0D01*
G01*
X15772840Y-11785600D02*
G75*
G03*
X15772840Y-11785600I-35000J0D01*
G01*
X16636440Y-5471160D02*
G75*
G03*
X16636440Y-5471160I-35000J0D01*
G01*
X16687240Y-11678920D02*
G75*
G03*
X16687240Y-11678920I-35000J0D01*
G01*
X16748200Y-14198600D02*
G75*
G03*
X16748200Y-14198600I-35000J0D01*
G01*
X16799000Y-9519920D02*
G75*
G03*
X16799000Y-9519920I-35000J0D01*
G01*
X16920920Y-13543280D02*
G75*
G03*
X16920920Y-13543280I-35000J0D01*
G01*
X16941240Y-3525520D02*
G75*
G03*
X16941240Y-3525520I-35000J0D01*
G01*
X16981880Y-14767560D02*
G75*
G03*
X16981880Y-14767560I-35000J0D01*
G01*
X17235000Y-8200000D02*
G75*
G03*
X17235000Y-8200000I-35000J0D01*
G01*
X17251120Y-11628120D02*
G75*
G03*
X17251120Y-11628120I-35000J0D01*
G01*
X17286680Y-10607040D02*
G75*
G03*
X17286680Y-10607040I-35000J0D01*
G01*
X17787060Y-11473180D02*
G75*
G03*
X17787060Y-11473180I-35000J0D01*
G01*
X17942000Y-10292080D02*
G75*
G03*
X17942000Y-10292080I-35000J0D01*
G01*
X18353480Y-6314440D02*
G75*
G03*
X18353480Y-6314440I-35000J0D01*
G01*
X18409360Y-7101840D02*
G75*
G03*
X18409360Y-7101840I-35000J0D01*
G01*
X18643040Y-7747000D02*
G75*
G03*
X18643040Y-7747000I-35000J0D01*
G01*
X18643040Y-10815320D02*
G75*
G03*
X18643040Y-10815320I-35000J0D01*
G01*
X18648120Y-11303000D02*
G75*
G03*
X18648120Y-11303000I-35000J0D01*
G01*
X18683680Y-9392920D02*
G75*
G03*
X18683680Y-9392920I-35000J0D01*
G01*
X18688760Y-8818880D02*
G75*
G03*
X18688760Y-8818880I-35000J0D01*
G01*
X18744640Y-6659880D02*
G75*
G03*
X18744640Y-6659880I-35000J0D01*
G01*
X18973240Y-10530840D02*
G75*
G03*
X18973240Y-10530840I-35000J0D01*
G01*
X19435520Y-8229600D02*
G75*
G03*
X19435520Y-8229600I-35000J0D01*
G01*
X19486320Y-9779000D02*
G75*
G03*
X19486320Y-9779000I-35000J0D01*
G01*
X20436280Y-8036560D02*
G75*
G03*
X20436280Y-8036560I-35000J0D01*
G01*
X20568360Y-9890760D02*
G75*
G03*
X20568360Y-9890760I-35000J0D01*
G01*
X21767240Y-8067040D02*
G75*
G03*
X21767240Y-8067040I-35000J0D01*
G01*
X21812960Y-9987280D02*
G75*
G03*
X21812960Y-9987280I-35000J0D01*
G01*
D14*
X15375000Y-10352500D02*
X15375000Y-10447500D01*
X15327500Y-10400000D02*
X15422500Y-10400000D01*
X15625000Y-10352500D02*
X15625000Y-10447500D01*
X15577500Y-10400000D02*
X15672500Y-10400000D01*
X15875000Y-10352500D02*
X15875000Y-10447500D01*
X15827500Y-10400000D02*
X15922500Y-10400000D01*
X16125000Y-10352500D02*
X16125000Y-10447500D01*
X16077500Y-10400000D02*
X16172500Y-10400000D01*
X16375000Y-10352500D02*
X16375000Y-10447500D01*
X16327500Y-10400000D02*
X16422500Y-10400000D01*
X16625000Y-10352500D02*
X16625000Y-10447500D01*
X16577500Y-10400000D02*
X16672500Y-10400000D01*
D15*
X10932176Y-7667963D02*
X10932176Y-7597251D01*
X10861465Y-7597251D01*
X10861465Y-7667963D01*
X10932176Y-7667963D01*
X10932176Y-10402748D02*
X10932176Y-10332037D01*
X10861465Y-10332037D01*
X10861465Y-10402748D01*
X10932176Y-10402748D01*
X11247150Y-6802579D02*
X11247150Y-6731867D01*
X11176439Y-6731867D01*
X11176439Y-6802579D01*
X11247150Y-6802579D01*
X11247150Y-11268132D02*
X11247150Y-11197421D01*
X11176439Y-11197421D01*
X11176439Y-11268132D01*
X11247150Y-11268132D01*
X11707611Y-6005037D02*
X11707611Y-5934325D01*
X11636900Y-5934325D01*
X11636900Y-6005037D01*
X11707611Y-6005037D01*
X11707611Y-12065675D02*
X11707611Y-11994963D01*
X11636900Y-11994963D01*
X11636900Y-12065675D01*
X11707611Y-12065675D01*
X12299569Y-5299569D02*
X12299569Y-5228858D01*
X12228858Y-5228858D01*
X12228858Y-5299569D01*
X12299569Y-5299569D01*
X12299569Y-12771142D02*
X12299569Y-12700431D01*
X12228858Y-12700431D01*
X12228858Y-12771142D01*
X12299569Y-12771142D01*
X13005037Y-4707612D02*
X13005037Y-4636900D01*
X12934325Y-4636900D01*
X12934325Y-4707612D01*
X13005037Y-4707612D01*
X13005037Y-13363100D02*
X13005037Y-13292388D01*
X12934325Y-13292388D01*
X12934325Y-13363100D01*
X13005037Y-13363100D01*
X13802579Y-4247150D02*
X13802579Y-4176439D01*
X13731867Y-4176439D01*
X13731867Y-4247150D01*
X13802579Y-4247150D01*
X13802579Y-13823561D02*
X13802579Y-13752850D01*
X13731867Y-13752850D01*
X13731867Y-13823561D01*
X13802579Y-13823561D01*
X14667963Y-3932176D02*
X14667963Y-3861465D01*
X14597251Y-3861465D01*
X14597251Y-3932176D01*
X14667963Y-3932176D01*
X14667963Y-14138535D02*
X14667963Y-14067824D01*
X14597251Y-14067824D01*
X14597251Y-14138535D01*
X14667963Y-14138535D01*
X17402748Y-3932176D02*
X17402748Y-3861465D01*
X17332037Y-3861465D01*
X17332037Y-3932176D01*
X17402748Y-3932176D01*
X17402748Y-14138535D02*
X17402748Y-14067824D01*
X17332037Y-14067824D01*
X17332037Y-14138535D01*
X17402748Y-14138535D01*
X18268133Y-4247150D02*
X18268133Y-4176439D01*
X18197421Y-4176439D01*
X18197421Y-4247150D01*
X18268133Y-4247150D01*
X18268133Y-13823561D02*
X18268133Y-13752850D01*
X18197421Y-13752850D01*
X18197421Y-13823561D01*
X18268133Y-13823561D01*
X19065675Y-4707612D02*
X19065675Y-4636900D01*
X18994963Y-4636900D01*
X18994963Y-4707612D01*
X19065675Y-4707612D01*
X19065675Y-13363100D02*
X19065675Y-13292388D01*
X18994963Y-13292388D01*
X18994963Y-13363100D01*
X19065675Y-13363100D01*
X19771142Y-5299569D02*
X19771142Y-5228858D01*
X19700431Y-5228858D01*
X19700431Y-5299569D01*
X19771142Y-5299569D01*
X19771142Y-12771142D02*
X19771142Y-12700431D01*
X19700431Y-12700431D01*
X19700431Y-12771142D01*
X19771142Y-12771142D01*
X20363100Y-6005037D02*
X20363100Y-5934325D01*
X20292388Y-5934325D01*
X20292388Y-6005037D01*
X20363100Y-6005037D01*
X20363100Y-12065675D02*
X20363100Y-11994963D01*
X20292388Y-11994963D01*
X20292388Y-12065675D01*
X20363100Y-12065675D01*
X20823561Y-6802579D02*
X20823561Y-6731867D01*
X20752850Y-6731867D01*
X20752850Y-6802579D01*
X20823561Y-6802579D01*
X20823561Y-11268132D02*
X20823561Y-11197421D01*
X20752850Y-11197421D01*
X20752850Y-11268132D01*
X20823561Y-11268132D01*
X21138535Y-7667963D02*
X21138535Y-7597251D01*
X21067824Y-7597251D01*
X21067824Y-7667963D01*
X21138535Y-7667963D01*
X21138535Y-10402748D02*
X21138535Y-10332037D01*
X21067824Y-10332037D01*
X21067824Y-10402748D01*
X21138535Y-10402748D01*
D16*
X12190000Y-9185000D02*
X12375000Y-9000000D01*
X12190000Y-8815000D01*
X12005000Y-9000000D01*
X12190000Y-9185000D01*
X16000000Y-5375000D02*
X16185000Y-5190000D01*
X16000000Y-5005000D01*
X15815000Y-5190000D01*
X16000000Y-5375000D01*
X16000000Y-12995000D02*
X16185000Y-12810000D01*
X16000000Y-12625000D01*
X15815000Y-12810000D01*
X16000000Y-12995000D01*
X19810000Y-9185000D02*
X19995000Y-9000000D01*
X19810000Y-8815000D01*
X19625000Y-9000000D01*
X19810000Y-9185000D01*
D17*
X15680000Y-8680000D02*
X16320000Y-9320000D01*
X16320000Y-8680000D02*
X15680000Y-9320000D01*
X16320000Y-9000000D02*
G75*
G03*
X16320000Y-9000000I-320000J0D01*
G01*
D11*
X9962789Y-15605306D02*
X9962789Y-15405306D01*
X10010408Y-15405306D01*
X10038980Y-15414830D01*
X10058027Y-15433878D01*
X10067551Y-15452925D01*
X10077075Y-15491020D01*
X10077075Y-15519592D01*
X10067551Y-15557687D01*
X10058027Y-15576735D01*
X10038980Y-15595782D01*
X10010408Y-15605306D01*
X9962789Y-15605306D01*
X10162789Y-15605306D02*
X10162789Y-15471973D01*
X10162789Y-15510068D02*
X10172313Y-15491020D01*
X10181837Y-15481497D01*
X10200884Y-15471973D01*
X10219932Y-15471973D01*
X10286599Y-15605306D02*
X10286599Y-15471973D01*
X10286599Y-15405306D02*
X10277075Y-15414830D01*
X10286599Y-15424354D01*
X10296122Y-15414830D01*
X10286599Y-15405306D01*
X10286599Y-15424354D01*
X10410408Y-15605306D02*
X10391360Y-15595782D01*
X10381837Y-15576735D01*
X10381837Y-15405306D01*
X10515170Y-15605306D02*
X10496122Y-15595782D01*
X10486599Y-15576735D01*
X10486599Y-15405306D01*
X10743741Y-15605306D02*
X10743741Y-15405306D01*
X10810408Y-15548163D01*
X10877075Y-15405306D01*
X10877075Y-15605306D01*
X11058027Y-15605306D02*
X11058027Y-15500544D01*
X11048503Y-15481497D01*
X11029456Y-15471973D01*
X10991360Y-15471973D01*
X10972313Y-15481497D01*
X11058027Y-15595782D02*
X11038980Y-15605306D01*
X10991360Y-15605306D01*
X10972313Y-15595782D01*
X10962789Y-15576735D01*
X10962789Y-15557687D01*
X10972313Y-15538639D01*
X10991360Y-15529116D01*
X11038980Y-15529116D01*
X11058027Y-15519592D01*
X11153265Y-15471973D02*
X11153265Y-15671973D01*
X11153265Y-15481497D02*
X11172313Y-15471973D01*
X11210408Y-15471973D01*
X11229456Y-15481497D01*
X11238979Y-15491020D01*
X11248503Y-15510068D01*
X11248503Y-15567211D01*
X11238979Y-15586258D01*
X11229456Y-15595782D01*
X11210408Y-15605306D01*
X11172313Y-15605306D01*
X11153265Y-15595782D01*
X11334218Y-15586258D02*
X11343741Y-15595782D01*
X11334218Y-15605306D01*
X11324694Y-15595782D01*
X11334218Y-15586258D01*
X11334218Y-15605306D01*
X11334218Y-15481497D02*
X11343741Y-15491020D01*
X11334218Y-15500544D01*
X11324694Y-15491020D01*
X11334218Y-15481497D01*
X11334218Y-15500544D01*
D12*
X9665170Y-15914830D02*
X9705170Y-15954830D01*
X9705170Y-15914830D02*
X9665170Y-15954830D01*
D11*
X10000884Y-15825306D02*
X10019932Y-15825306D01*
X10038980Y-15834830D01*
X10048503Y-15844354D01*
X10058027Y-15863401D01*
X10067551Y-15901497D01*
X10067551Y-15949116D01*
X10058027Y-15987211D01*
X10048503Y-16006258D01*
X10038980Y-16015782D01*
X10019932Y-16025306D01*
X10000884Y-16025306D01*
X9981837Y-16015782D01*
X9972313Y-16006258D01*
X9962789Y-15987211D01*
X9953265Y-15949116D01*
X9953265Y-15901497D01*
X9962789Y-15863401D01*
X9972313Y-15844354D01*
X9981837Y-15834830D01*
X10000884Y-15825306D01*
X10153265Y-16006258D02*
X10162789Y-16015782D01*
X10153265Y-16025306D01*
X10143741Y-16015782D01*
X10153265Y-16006258D01*
X10153265Y-16025306D01*
X10334218Y-15891973D02*
X10334218Y-16025306D01*
X10286599Y-15815782D02*
X10238980Y-15958639D01*
X10362789Y-15958639D01*
X10477075Y-15825306D02*
X10496122Y-15825306D01*
X10515170Y-15834830D01*
X10524694Y-15844354D01*
X10534218Y-15863401D01*
X10543741Y-15901497D01*
X10543741Y-15949116D01*
X10534218Y-15987211D01*
X10524694Y-16006258D01*
X10515170Y-16015782D01*
X10496122Y-16025306D01*
X10477075Y-16025306D01*
X10458027Y-16015782D01*
X10448503Y-16006258D01*
X10438980Y-15987211D01*
X10429456Y-15949116D01*
X10429456Y-15901497D01*
X10438980Y-15863401D01*
X10448503Y-15844354D01*
X10458027Y-15834830D01*
X10477075Y-15825306D01*
X10667551Y-15825306D02*
X10686599Y-15825306D01*
X10705646Y-15834830D01*
X10715170Y-15844354D01*
X10724694Y-15863401D01*
X10734218Y-15901497D01*
X10734218Y-15949116D01*
X10724694Y-15987211D01*
X10715170Y-16006258D01*
X10705646Y-16015782D01*
X10686599Y-16025306D01*
X10667551Y-16025306D01*
X10648503Y-16015782D01*
X10638980Y-16006258D01*
X10629456Y-15987211D01*
X10619932Y-15949116D01*
X10619932Y-15901497D01*
X10629456Y-15863401D01*
X10638980Y-15844354D01*
X10648503Y-15834830D01*
X10667551Y-15825306D01*
X10819932Y-16025306D02*
X10819932Y-15891973D01*
X10819932Y-15911020D02*
X10829456Y-15901497D01*
X10848503Y-15891973D01*
X10877075Y-15891973D01*
X10896122Y-15901497D01*
X10905646Y-15920544D01*
X10905646Y-16025306D01*
X10905646Y-15920544D02*
X10915170Y-15901497D01*
X10934218Y-15891973D01*
X10962789Y-15891973D01*
X10981837Y-15901497D01*
X10991360Y-15920544D01*
X10991360Y-16025306D01*
X11086599Y-16025306D02*
X11086599Y-15891973D01*
X11086599Y-15911020D02*
X11096122Y-15901497D01*
X11115170Y-15891973D01*
X11143741Y-15891973D01*
X11162789Y-15901497D01*
X11172313Y-15920544D01*
X11172313Y-16025306D01*
X11172313Y-15920544D02*
X11181837Y-15901497D01*
X11200884Y-15891973D01*
X11229456Y-15891973D01*
X11248503Y-15901497D01*
X11258027Y-15920544D01*
X11258027Y-16025306D01*
X11648503Y-15815782D02*
X11477075Y-16072925D01*
X11905646Y-15825306D02*
X11924694Y-15825306D01*
X11943741Y-15834830D01*
X11953265Y-15844354D01*
X11962789Y-15863401D01*
X11972313Y-15901497D01*
X11972313Y-15949116D01*
X11962789Y-15987211D01*
X11953265Y-16006258D01*
X11943741Y-16015782D01*
X11924694Y-16025306D01*
X11905646Y-16025306D01*
X11886598Y-16015782D01*
X11877075Y-16006258D01*
X11867551Y-15987211D01*
X11858027Y-15949116D01*
X11858027Y-15901497D01*
X11867551Y-15863401D01*
X11877075Y-15844354D01*
X11886598Y-15834830D01*
X11905646Y-15825306D01*
X12058027Y-16006258D02*
X12067551Y-16015782D01*
X12058027Y-16025306D01*
X12048503Y-16015782D01*
X12058027Y-16006258D01*
X12058027Y-16025306D01*
X12191360Y-15825306D02*
X12210408Y-15825306D01*
X12229456Y-15834830D01*
X12238979Y-15844354D01*
X12248503Y-15863401D01*
X12258027Y-15901497D01*
X12258027Y-15949116D01*
X12248503Y-15987211D01*
X12238979Y-16006258D01*
X12229456Y-16015782D01*
X12210408Y-16025306D01*
X12191360Y-16025306D01*
X12172313Y-16015782D01*
X12162789Y-16006258D01*
X12153265Y-15987211D01*
X12143741Y-15949116D01*
X12143741Y-15901497D01*
X12153265Y-15863401D01*
X12162789Y-15844354D01*
X12172313Y-15834830D01*
X12191360Y-15825306D01*
X12448503Y-16025306D02*
X12334218Y-16025306D01*
X12391360Y-16025306D02*
X12391360Y-15825306D01*
X12372313Y-15853878D01*
X12353265Y-15872925D01*
X12334218Y-15882449D01*
X12629456Y-15825306D02*
X12534218Y-15825306D01*
X12524694Y-15920544D01*
X12534218Y-15911020D01*
X12553265Y-15901497D01*
X12600884Y-15901497D01*
X12619932Y-15911020D01*
X12629456Y-15920544D01*
X12638979Y-15939592D01*
X12638979Y-15987211D01*
X12629456Y-16006258D01*
X12619932Y-16015782D01*
X12600884Y-16025306D01*
X12553265Y-16025306D01*
X12534218Y-16015782D01*
X12524694Y-16006258D01*
X12705646Y-15825306D02*
X12838979Y-15825306D01*
X12753265Y-16025306D01*
X12905646Y-15825306D02*
X12905646Y-15863401D01*
X12981837Y-15825306D02*
X12981837Y-15863401D01*
X13277075Y-16101497D02*
X13267551Y-16091973D01*
X13248503Y-16063401D01*
X13238979Y-16044354D01*
X13229456Y-16015782D01*
X13219932Y-15968163D01*
X13219932Y-15930068D01*
X13229456Y-15882449D01*
X13238979Y-15853878D01*
X13248503Y-15834830D01*
X13267551Y-15806258D01*
X13277075Y-15796735D01*
X13381837Y-15911020D02*
X13362789Y-15901497D01*
X13353265Y-15891973D01*
X13343741Y-15872925D01*
X13343741Y-15863401D01*
X13353265Y-15844354D01*
X13362789Y-15834830D01*
X13381837Y-15825306D01*
X13419932Y-15825306D01*
X13438979Y-15834830D01*
X13448503Y-15844354D01*
X13458027Y-15863401D01*
X13458027Y-15872925D01*
X13448503Y-15891973D01*
X13438979Y-15901497D01*
X13419932Y-15911020D01*
X13381837Y-15911020D01*
X13362789Y-15920544D01*
X13353265Y-15930068D01*
X13343741Y-15949116D01*
X13343741Y-15987211D01*
X13353265Y-16006258D01*
X13362789Y-16015782D01*
X13381837Y-16025306D01*
X13419932Y-16025306D01*
X13438979Y-16015782D01*
X13448503Y-16006258D01*
X13458027Y-15987211D01*
X13458027Y-15949116D01*
X13448503Y-15930068D01*
X13438979Y-15920544D01*
X13419932Y-15911020D01*
X13524694Y-15825306D02*
X13648503Y-15825306D01*
X13581837Y-15901497D01*
X13610408Y-15901497D01*
X13629456Y-15911020D01*
X13638979Y-15920544D01*
X13648503Y-15939592D01*
X13648503Y-15987211D01*
X13638979Y-16006258D01*
X13629456Y-16015782D01*
X13610408Y-16025306D01*
X13553265Y-16025306D01*
X13534218Y-16015782D01*
X13524694Y-16006258D01*
X13886598Y-16025306D02*
X13886598Y-15825306D01*
X13972313Y-16025306D02*
X13972313Y-15920544D01*
X13962789Y-15901497D01*
X13943741Y-15891973D01*
X13915170Y-15891973D01*
X13896122Y-15901497D01*
X13886598Y-15911020D01*
X14096122Y-16025306D02*
X14077075Y-16015782D01*
X14067551Y-16006258D01*
X14058027Y-15987211D01*
X14058027Y-15930068D01*
X14067551Y-15911020D01*
X14077075Y-15901497D01*
X14096122Y-15891973D01*
X14124694Y-15891973D01*
X14143741Y-15901497D01*
X14153265Y-15911020D01*
X14162789Y-15930068D01*
X14162789Y-15987211D01*
X14153265Y-16006258D01*
X14143741Y-16015782D01*
X14124694Y-16025306D01*
X14096122Y-16025306D01*
X14277075Y-16025306D02*
X14258027Y-16015782D01*
X14248503Y-15996735D01*
X14248503Y-15825306D01*
X14429456Y-16015782D02*
X14410408Y-16025306D01*
X14372313Y-16025306D01*
X14353265Y-16015782D01*
X14343741Y-15996735D01*
X14343741Y-15920544D01*
X14353265Y-15901497D01*
X14372313Y-15891973D01*
X14410408Y-15891973D01*
X14429456Y-15901497D01*
X14438979Y-15920544D01*
X14438979Y-15939592D01*
X14343741Y-15958639D01*
X14515170Y-16015782D02*
X14534218Y-16025306D01*
X14572313Y-16025306D01*
X14591360Y-16015782D01*
X14600884Y-15996735D01*
X14600884Y-15987211D01*
X14591360Y-15968163D01*
X14572313Y-15958639D01*
X14543741Y-15958639D01*
X14524694Y-15949116D01*
X14515170Y-15930068D01*
X14515170Y-15920544D01*
X14524694Y-15901497D01*
X14543741Y-15891973D01*
X14572313Y-15891973D01*
X14591360Y-15901497D01*
X14667551Y-16101497D02*
X14677075Y-16091973D01*
X14696122Y-16063401D01*
X14705646Y-16044354D01*
X14715170Y-16015782D01*
X14724694Y-15968163D01*
X14724694Y-15930068D01*
X14715170Y-15882449D01*
X14705646Y-15853878D01*
X14696122Y-15834830D01*
X14677075Y-15806258D01*
X14667551Y-15796735D01*
D13*
X9705170Y-16198830D02*
G75*
G03*
X9705170Y-16198830I-35000J0D01*
G01*
D11*
X10000884Y-16089306D02*
X10019932Y-16089306D01*
X10038980Y-16098830D01*
X10048503Y-16108354D01*
X10058027Y-16127401D01*
X10067551Y-16165497D01*
X10067551Y-16213116D01*
X10058027Y-16251211D01*
X10048503Y-16270258D01*
X10038980Y-16279782D01*
X10019932Y-16289306D01*
X10000884Y-16289306D01*
X9981837Y-16279782D01*
X9972313Y-16270258D01*
X9962789Y-16251211D01*
X9953265Y-16213116D01*
X9953265Y-16165497D01*
X9962789Y-16127401D01*
X9972313Y-16108354D01*
X9981837Y-16098830D01*
X10000884Y-16089306D01*
X10153265Y-16270258D02*
X10162789Y-16279782D01*
X10153265Y-16289306D01*
X10143741Y-16279782D01*
X10153265Y-16270258D01*
X10153265Y-16289306D01*
X10229456Y-16089306D02*
X10362789Y-16089306D01*
X10277075Y-16289306D01*
X10477075Y-16089306D02*
X10496122Y-16089306D01*
X10515170Y-16098830D01*
X10524694Y-16108354D01*
X10534218Y-16127401D01*
X10543741Y-16165497D01*
X10543741Y-16213116D01*
X10534218Y-16251211D01*
X10524694Y-16270258D01*
X10515170Y-16279782D01*
X10496122Y-16289306D01*
X10477075Y-16289306D01*
X10458027Y-16279782D01*
X10448503Y-16270258D01*
X10438980Y-16251211D01*
X10429456Y-16213116D01*
X10429456Y-16165497D01*
X10438980Y-16127401D01*
X10448503Y-16108354D01*
X10458027Y-16098830D01*
X10477075Y-16089306D01*
X10667551Y-16089306D02*
X10686599Y-16089306D01*
X10705646Y-16098830D01*
X10715170Y-16108354D01*
X10724694Y-16127401D01*
X10734218Y-16165497D01*
X10734218Y-16213116D01*
X10724694Y-16251211D01*
X10715170Y-16270258D01*
X10705646Y-16279782D01*
X10686599Y-16289306D01*
X10667551Y-16289306D01*
X10648503Y-16279782D01*
X10638980Y-16270258D01*
X10629456Y-16251211D01*
X10619932Y-16213116D01*
X10619932Y-16165497D01*
X10629456Y-16127401D01*
X10638980Y-16108354D01*
X10648503Y-16098830D01*
X10667551Y-16089306D01*
X10819932Y-16289306D02*
X10819932Y-16155973D01*
X10819932Y-16175020D02*
X10829456Y-16165497D01*
X10848503Y-16155973D01*
X10877075Y-16155973D01*
X10896122Y-16165497D01*
X10905646Y-16184544D01*
X10905646Y-16289306D01*
X10905646Y-16184544D02*
X10915170Y-16165497D01*
X10934218Y-16155973D01*
X10962789Y-16155973D01*
X10981837Y-16165497D01*
X10991360Y-16184544D01*
X10991360Y-16289306D01*
X11086599Y-16289306D02*
X11086599Y-16155973D01*
X11086599Y-16175020D02*
X11096122Y-16165497D01*
X11115170Y-16155973D01*
X11143741Y-16155973D01*
X11162789Y-16165497D01*
X11172313Y-16184544D01*
X11172313Y-16289306D01*
X11172313Y-16184544D02*
X11181837Y-16165497D01*
X11200884Y-16155973D01*
X11229456Y-16155973D01*
X11248503Y-16165497D01*
X11258027Y-16184544D01*
X11258027Y-16289306D01*
X11648503Y-16079782D02*
X11477075Y-16336925D01*
X11905646Y-16089306D02*
X11924694Y-16089306D01*
X11943741Y-16098830D01*
X11953265Y-16108354D01*
X11962789Y-16127401D01*
X11972313Y-16165497D01*
X11972313Y-16213116D01*
X11962789Y-16251211D01*
X11953265Y-16270258D01*
X11943741Y-16279782D01*
X11924694Y-16289306D01*
X11905646Y-16289306D01*
X11886598Y-16279782D01*
X11877075Y-16270258D01*
X11867551Y-16251211D01*
X11858027Y-16213116D01*
X11858027Y-16165497D01*
X11867551Y-16127401D01*
X11877075Y-16108354D01*
X11886598Y-16098830D01*
X11905646Y-16089306D01*
X12058027Y-16270258D02*
X12067551Y-16279782D01*
X12058027Y-16289306D01*
X12048503Y-16279782D01*
X12058027Y-16270258D01*
X12058027Y-16289306D01*
X12191360Y-16089306D02*
X12210408Y-16089306D01*
X12229456Y-16098830D01*
X12238979Y-16108354D01*
X12248503Y-16127401D01*
X12258027Y-16165497D01*
X12258027Y-16213116D01*
X12248503Y-16251211D01*
X12238979Y-16270258D01*
X12229456Y-16279782D01*
X12210408Y-16289306D01*
X12191360Y-16289306D01*
X12172313Y-16279782D01*
X12162789Y-16270258D01*
X12153265Y-16251211D01*
X12143741Y-16213116D01*
X12143741Y-16165497D01*
X12153265Y-16127401D01*
X12162789Y-16108354D01*
X12172313Y-16098830D01*
X12191360Y-16089306D01*
X12334218Y-16108354D02*
X12343741Y-16098830D01*
X12362789Y-16089306D01*
X12410408Y-16089306D01*
X12429456Y-16098830D01*
X12438979Y-16108354D01*
X12448503Y-16127401D01*
X12448503Y-16146449D01*
X12438979Y-16175020D01*
X12324694Y-16289306D01*
X12448503Y-16289306D01*
X12515170Y-16089306D02*
X12648503Y-16089306D01*
X12562789Y-16289306D01*
X12810408Y-16089306D02*
X12772313Y-16089306D01*
X12753265Y-16098830D01*
X12743741Y-16108354D01*
X12724694Y-16136925D01*
X12715170Y-16175020D01*
X12715170Y-16251211D01*
X12724694Y-16270258D01*
X12734218Y-16279782D01*
X12753265Y-16289306D01*
X12791360Y-16289306D01*
X12810408Y-16279782D01*
X12819932Y-16270258D01*
X12829456Y-16251211D01*
X12829456Y-16203592D01*
X12819932Y-16184544D01*
X12810408Y-16175020D01*
X12791360Y-16165497D01*
X12753265Y-16165497D01*
X12734218Y-16175020D01*
X12724694Y-16184544D01*
X12715170Y-16203592D01*
X12905646Y-16089306D02*
X12905646Y-16127401D01*
X12981837Y-16089306D02*
X12981837Y-16127401D01*
X13277075Y-16365497D02*
X13267551Y-16355973D01*
X13248503Y-16327401D01*
X13238979Y-16308354D01*
X13229456Y-16279782D01*
X13219932Y-16232163D01*
X13219932Y-16194068D01*
X13229456Y-16146449D01*
X13238979Y-16117878D01*
X13248503Y-16098830D01*
X13267551Y-16070258D01*
X13277075Y-16060735D01*
X13448503Y-16089306D02*
X13353265Y-16089306D01*
X13343741Y-16184544D01*
X13353265Y-16175020D01*
X13372313Y-16165497D01*
X13419932Y-16165497D01*
X13438979Y-16175020D01*
X13448503Y-16184544D01*
X13458027Y-16203592D01*
X13458027Y-16251211D01*
X13448503Y-16270258D01*
X13438979Y-16279782D01*
X13419932Y-16289306D01*
X13372313Y-16289306D01*
X13353265Y-16279782D01*
X13343741Y-16270258D01*
X13524694Y-16089306D02*
X13648503Y-16089306D01*
X13581837Y-16165497D01*
X13610408Y-16165497D01*
X13629456Y-16175020D01*
X13638979Y-16184544D01*
X13648503Y-16203592D01*
X13648503Y-16251211D01*
X13638979Y-16270258D01*
X13629456Y-16279782D01*
X13610408Y-16289306D01*
X13553265Y-16289306D01*
X13534218Y-16279782D01*
X13524694Y-16270258D01*
X13886598Y-16289306D02*
X13886598Y-16089306D01*
X13972313Y-16289306D02*
X13972313Y-16184544D01*
X13962789Y-16165497D01*
X13943741Y-16155973D01*
X13915170Y-16155973D01*
X13896122Y-16165497D01*
X13886598Y-16175020D01*
X14096122Y-16289306D02*
X14077075Y-16279782D01*
X14067551Y-16270258D01*
X14058027Y-16251211D01*
X14058027Y-16194068D01*
X14067551Y-16175020D01*
X14077075Y-16165497D01*
X14096122Y-16155973D01*
X14124694Y-16155973D01*
X14143741Y-16165497D01*
X14153265Y-16175020D01*
X14162789Y-16194068D01*
X14162789Y-16251211D01*
X14153265Y-16270258D01*
X14143741Y-16279782D01*
X14124694Y-16289306D01*
X14096122Y-16289306D01*
X14277075Y-16289306D02*
X14258027Y-16279782D01*
X14248503Y-16260735D01*
X14248503Y-16089306D01*
X14429456Y-16279782D02*
X14410408Y-16289306D01*
X14372313Y-16289306D01*
X14353265Y-16279782D01*
X14343741Y-16260735D01*
X14343741Y-16184544D01*
X14353265Y-16165497D01*
X14372313Y-16155973D01*
X14410408Y-16155973D01*
X14429456Y-16165497D01*
X14438979Y-16184544D01*
X14438979Y-16203592D01*
X14343741Y-16222639D01*
X14515170Y-16279782D02*
X14534218Y-16289306D01*
X14572313Y-16289306D01*
X14591360Y-16279782D01*
X14600884Y-16260735D01*
X14600884Y-16251211D01*
X14591360Y-16232163D01*
X14572313Y-16222639D01*
X14543741Y-16222639D01*
X14524694Y-16213116D01*
X14515170Y-16194068D01*
X14515170Y-16184544D01*
X14524694Y-16165497D01*
X14543741Y-16155973D01*
X14572313Y-16155973D01*
X14591360Y-16165497D01*
X14667551Y-16365497D02*
X14677075Y-16355973D01*
X14696122Y-16327401D01*
X14705646Y-16308354D01*
X14715170Y-16279782D01*
X14724694Y-16232163D01*
X14724694Y-16194068D01*
X14715170Y-16146449D01*
X14705646Y-16117878D01*
X14696122Y-16098830D01*
X14677075Y-16070258D01*
X14667551Y-16060735D01*
D14*
X9657670Y-16415330D02*
X9657670Y-16510330D01*
X9610170Y-16462830D02*
X9705170Y-16462830D01*
D11*
X10000884Y-16353306D02*
X10019932Y-16353306D01*
X10038980Y-16362830D01*
X10048503Y-16372354D01*
X10058027Y-16391401D01*
X10067551Y-16429497D01*
X10067551Y-16477116D01*
X10058027Y-16515211D01*
X10048503Y-16534258D01*
X10038980Y-16543782D01*
X10019932Y-16553306D01*
X10000884Y-16553306D01*
X9981837Y-16543782D01*
X9972313Y-16534258D01*
X9962789Y-16515211D01*
X9953265Y-16477116D01*
X9953265Y-16429497D01*
X9962789Y-16391401D01*
X9972313Y-16372354D01*
X9981837Y-16362830D01*
X10000884Y-16353306D01*
X10153265Y-16534258D02*
X10162789Y-16543782D01*
X10153265Y-16553306D01*
X10143741Y-16543782D01*
X10153265Y-16534258D01*
X10153265Y-16553306D01*
X10258027Y-16553306D02*
X10296122Y-16553306D01*
X10315170Y-16543782D01*
X10324694Y-16534258D01*
X10343741Y-16505687D01*
X10353265Y-16467592D01*
X10353265Y-16391401D01*
X10343741Y-16372354D01*
X10334218Y-16362830D01*
X10315170Y-16353306D01*
X10277075Y-16353306D01*
X10258027Y-16362830D01*
X10248503Y-16372354D01*
X10238980Y-16391401D01*
X10238980Y-16439020D01*
X10248503Y-16458068D01*
X10258027Y-16467592D01*
X10277075Y-16477116D01*
X10315170Y-16477116D01*
X10334218Y-16467592D01*
X10343741Y-16458068D01*
X10353265Y-16439020D01*
X10534218Y-16353306D02*
X10438980Y-16353306D01*
X10429456Y-16448544D01*
X10438980Y-16439020D01*
X10458027Y-16429497D01*
X10505646Y-16429497D01*
X10524694Y-16439020D01*
X10534218Y-16448544D01*
X10543741Y-16467592D01*
X10543741Y-16515211D01*
X10534218Y-16534258D01*
X10524694Y-16543782D01*
X10505646Y-16553306D01*
X10458027Y-16553306D01*
X10438980Y-16543782D01*
X10429456Y-16534258D01*
X10667551Y-16353306D02*
X10686599Y-16353306D01*
X10705646Y-16362830D01*
X10715170Y-16372354D01*
X10724694Y-16391401D01*
X10734218Y-16429497D01*
X10734218Y-16477116D01*
X10724694Y-16515211D01*
X10715170Y-16534258D01*
X10705646Y-16543782D01*
X10686599Y-16553306D01*
X10667551Y-16553306D01*
X10648503Y-16543782D01*
X10638980Y-16534258D01*
X10629456Y-16515211D01*
X10619932Y-16477116D01*
X10619932Y-16429497D01*
X10629456Y-16391401D01*
X10638980Y-16372354D01*
X10648503Y-16362830D01*
X10667551Y-16353306D01*
X10819932Y-16553306D02*
X10819932Y-16419973D01*
X10819932Y-16439020D02*
X10829456Y-16429497D01*
X10848503Y-16419973D01*
X10877075Y-16419973D01*
X10896122Y-16429497D01*
X10905646Y-16448544D01*
X10905646Y-16553306D01*
X10905646Y-16448544D02*
X10915170Y-16429497D01*
X10934218Y-16419973D01*
X10962789Y-16419973D01*
X10981837Y-16429497D01*
X10991360Y-16448544D01*
X10991360Y-16553306D01*
X11086599Y-16553306D02*
X11086599Y-16419973D01*
X11086599Y-16439020D02*
X11096122Y-16429497D01*
X11115170Y-16419973D01*
X11143741Y-16419973D01*
X11162789Y-16429497D01*
X11172313Y-16448544D01*
X11172313Y-16553306D01*
X11172313Y-16448544D02*
X11181837Y-16429497D01*
X11200884Y-16419973D01*
X11229456Y-16419973D01*
X11248503Y-16429497D01*
X11258027Y-16448544D01*
X11258027Y-16553306D01*
X11648503Y-16343782D02*
X11477075Y-16600925D01*
X11905646Y-16353306D02*
X11924694Y-16353306D01*
X11943741Y-16362830D01*
X11953265Y-16372354D01*
X11962789Y-16391401D01*
X11972313Y-16429497D01*
X11972313Y-16477116D01*
X11962789Y-16515211D01*
X11953265Y-16534258D01*
X11943741Y-16543782D01*
X11924694Y-16553306D01*
X11905646Y-16553306D01*
X11886598Y-16543782D01*
X11877075Y-16534258D01*
X11867551Y-16515211D01*
X11858027Y-16477116D01*
X11858027Y-16429497D01*
X11867551Y-16391401D01*
X11877075Y-16372354D01*
X11886598Y-16362830D01*
X11905646Y-16353306D01*
X12058027Y-16534258D02*
X12067551Y-16543782D01*
X12058027Y-16553306D01*
X12048503Y-16543782D01*
X12058027Y-16534258D01*
X12058027Y-16553306D01*
X12191360Y-16353306D02*
X12210408Y-16353306D01*
X12229456Y-16362830D01*
X12238979Y-16372354D01*
X12248503Y-16391401D01*
X12258027Y-16429497D01*
X12258027Y-16477116D01*
X12248503Y-16515211D01*
X12238979Y-16534258D01*
X12229456Y-16543782D01*
X12210408Y-16553306D01*
X12191360Y-16553306D01*
X12172313Y-16543782D01*
X12162789Y-16534258D01*
X12153265Y-16515211D01*
X12143741Y-16477116D01*
X12143741Y-16429497D01*
X12153265Y-16391401D01*
X12162789Y-16372354D01*
X12172313Y-16362830D01*
X12191360Y-16353306D01*
X12324694Y-16353306D02*
X12448503Y-16353306D01*
X12381837Y-16429497D01*
X12410408Y-16429497D01*
X12429456Y-16439020D01*
X12438979Y-16448544D01*
X12448503Y-16467592D01*
X12448503Y-16515211D01*
X12438979Y-16534258D01*
X12429456Y-16543782D01*
X12410408Y-16553306D01*
X12353265Y-16553306D01*
X12334218Y-16543782D01*
X12324694Y-16534258D01*
X12515170Y-16353306D02*
X12648503Y-16353306D01*
X12562789Y-16553306D01*
X12810408Y-16419973D02*
X12810408Y-16553306D01*
X12762789Y-16343782D02*
X12715170Y-16486639D01*
X12838979Y-16486639D01*
X12905646Y-16353306D02*
X12905646Y-16391401D01*
X12981837Y-16353306D02*
X12981837Y-16391401D01*
X13277075Y-16629497D02*
X13267551Y-16619973D01*
X13248503Y-16591401D01*
X13238979Y-16572354D01*
X13229456Y-16543782D01*
X13219932Y-16496163D01*
X13219932Y-16458068D01*
X13229456Y-16410449D01*
X13238979Y-16381878D01*
X13248503Y-16362830D01*
X13267551Y-16334258D01*
X13277075Y-16324735D01*
X13438979Y-16353306D02*
X13400884Y-16353306D01*
X13381837Y-16362830D01*
X13372313Y-16372354D01*
X13353265Y-16400925D01*
X13343741Y-16439020D01*
X13343741Y-16515211D01*
X13353265Y-16534258D01*
X13362789Y-16543782D01*
X13381837Y-16553306D01*
X13419932Y-16553306D01*
X13438979Y-16543782D01*
X13448503Y-16534258D01*
X13458027Y-16515211D01*
X13458027Y-16467592D01*
X13448503Y-16448544D01*
X13438979Y-16439020D01*
X13419932Y-16429497D01*
X13381837Y-16429497D01*
X13362789Y-16439020D01*
X13353265Y-16448544D01*
X13343741Y-16467592D01*
X13696122Y-16553306D02*
X13696122Y-16353306D01*
X13781837Y-16553306D02*
X13781837Y-16448544D01*
X13772313Y-16429497D01*
X13753265Y-16419973D01*
X13724694Y-16419973D01*
X13705646Y-16429497D01*
X13696122Y-16439020D01*
X13905646Y-16553306D02*
X13886598Y-16543782D01*
X13877075Y-16534258D01*
X13867551Y-16515211D01*
X13867551Y-16458068D01*
X13877075Y-16439020D01*
X13886598Y-16429497D01*
X13905646Y-16419973D01*
X13934218Y-16419973D01*
X13953265Y-16429497D01*
X13962789Y-16439020D01*
X13972313Y-16458068D01*
X13972313Y-16515211D01*
X13962789Y-16534258D01*
X13953265Y-16543782D01*
X13934218Y-16553306D01*
X13905646Y-16553306D01*
X14086598Y-16553306D02*
X14067551Y-16543782D01*
X14058027Y-16524735D01*
X14058027Y-16353306D01*
X14238979Y-16543782D02*
X14219932Y-16553306D01*
X14181837Y-16553306D01*
X14162789Y-16543782D01*
X14153265Y-16524735D01*
X14153265Y-16448544D01*
X14162789Y-16429497D01*
X14181837Y-16419973D01*
X14219932Y-16419973D01*
X14238979Y-16429497D01*
X14248503Y-16448544D01*
X14248503Y-16467592D01*
X14153265Y-16486639D01*
X14324694Y-16543782D02*
X14343741Y-16553306D01*
X14381837Y-16553306D01*
X14400884Y-16543782D01*
X14410408Y-16524735D01*
X14410408Y-16515211D01*
X14400884Y-16496163D01*
X14381837Y-16486639D01*
X14353265Y-16486639D01*
X14334218Y-16477116D01*
X14324694Y-16458068D01*
X14324694Y-16448544D01*
X14334218Y-16429497D01*
X14353265Y-16419973D01*
X14381837Y-16419973D01*
X14400884Y-16429497D01*
X14477075Y-16629497D02*
X14486598Y-16619973D01*
X14505646Y-16591401D01*
X14515170Y-16572354D01*
X14524694Y-16543782D01*
X14534218Y-16496163D01*
X14534218Y-16458068D01*
X14524694Y-16410449D01*
X14515170Y-16381878D01*
X14505646Y-16362830D01*
X14486598Y-16334258D01*
X14477075Y-16324735D01*
D15*
X9690526Y-16762186D02*
X9690526Y-16691474D01*
X9619814Y-16691474D01*
X9619814Y-16762186D01*
X9690526Y-16762186D01*
D11*
X10067551Y-16817306D02*
X9953265Y-16817306D01*
X10010408Y-16817306D02*
X10010408Y-16617306D01*
X9991360Y-16645878D01*
X9972313Y-16664925D01*
X9953265Y-16674449D01*
X10153265Y-16798259D02*
X10162789Y-16807782D01*
X10153265Y-16817306D01*
X10143741Y-16807782D01*
X10153265Y-16798259D01*
X10153265Y-16817306D01*
X10286599Y-16617306D02*
X10305646Y-16617306D01*
X10324694Y-16626830D01*
X10334218Y-16636354D01*
X10343741Y-16655401D01*
X10353265Y-16693497D01*
X10353265Y-16741116D01*
X10343741Y-16779211D01*
X10334218Y-16798259D01*
X10324694Y-16807782D01*
X10305646Y-16817306D01*
X10286599Y-16817306D01*
X10267551Y-16807782D01*
X10258027Y-16798259D01*
X10248503Y-16779211D01*
X10238980Y-16741116D01*
X10238980Y-16693497D01*
X10248503Y-16655401D01*
X10258027Y-16636354D01*
X10267551Y-16626830D01*
X10286599Y-16617306D01*
X10477075Y-16617306D02*
X10496122Y-16617306D01*
X10515170Y-16626830D01*
X10524694Y-16636354D01*
X10534218Y-16655401D01*
X10543741Y-16693497D01*
X10543741Y-16741116D01*
X10534218Y-16779211D01*
X10524694Y-16798259D01*
X10515170Y-16807782D01*
X10496122Y-16817306D01*
X10477075Y-16817306D01*
X10458027Y-16807782D01*
X10448503Y-16798259D01*
X10438980Y-16779211D01*
X10429456Y-16741116D01*
X10429456Y-16693497D01*
X10438980Y-16655401D01*
X10448503Y-16636354D01*
X10458027Y-16626830D01*
X10477075Y-16617306D01*
X10667551Y-16617306D02*
X10686599Y-16617306D01*
X10705646Y-16626830D01*
X10715170Y-16636354D01*
X10724694Y-16655401D01*
X10734218Y-16693497D01*
X10734218Y-16741116D01*
X10724694Y-16779211D01*
X10715170Y-16798259D01*
X10705646Y-16807782D01*
X10686599Y-16817306D01*
X10667551Y-16817306D01*
X10648503Y-16807782D01*
X10638980Y-16798259D01*
X10629456Y-16779211D01*
X10619932Y-16741116D01*
X10619932Y-16693497D01*
X10629456Y-16655401D01*
X10638980Y-16636354D01*
X10648503Y-16626830D01*
X10667551Y-16617306D01*
X10819932Y-16817306D02*
X10819932Y-16683973D01*
X10819932Y-16703020D02*
X10829456Y-16693497D01*
X10848503Y-16683973D01*
X10877075Y-16683973D01*
X10896122Y-16693497D01*
X10905646Y-16712544D01*
X10905646Y-16817306D01*
X10905646Y-16712544D02*
X10915170Y-16693497D01*
X10934218Y-16683973D01*
X10962789Y-16683973D01*
X10981837Y-16693497D01*
X10991360Y-16712544D01*
X10991360Y-16817306D01*
X11086599Y-16817306D02*
X11086599Y-16683973D01*
X11086599Y-16703020D02*
X11096122Y-16693497D01*
X11115170Y-16683973D01*
X11143741Y-16683973D01*
X11162789Y-16693497D01*
X11172313Y-16712544D01*
X11172313Y-16817306D01*
X11172313Y-16712544D02*
X11181837Y-16693497D01*
X11200884Y-16683973D01*
X11229456Y-16683973D01*
X11248503Y-16693497D01*
X11258027Y-16712544D01*
X11258027Y-16817306D01*
X11648503Y-16607782D02*
X11477075Y-16864925D01*
X11905646Y-16617306D02*
X11924694Y-16617306D01*
X11943741Y-16626830D01*
X11953265Y-16636354D01*
X11962789Y-16655401D01*
X11972313Y-16693497D01*
X11972313Y-16741116D01*
X11962789Y-16779211D01*
X11953265Y-16798259D01*
X11943741Y-16807782D01*
X11924694Y-16817306D01*
X11905646Y-16817306D01*
X11886598Y-16807782D01*
X11877075Y-16798259D01*
X11867551Y-16779211D01*
X11858027Y-16741116D01*
X11858027Y-16693497D01*
X11867551Y-16655401D01*
X11877075Y-16636354D01*
X11886598Y-16626830D01*
X11905646Y-16617306D01*
X12058027Y-16798259D02*
X12067551Y-16807782D01*
X12058027Y-16817306D01*
X12048503Y-16807782D01*
X12058027Y-16798259D01*
X12058027Y-16817306D01*
X12191360Y-16617306D02*
X12210408Y-16617306D01*
X12229456Y-16626830D01*
X12238979Y-16636354D01*
X12248503Y-16655401D01*
X12258027Y-16693497D01*
X12258027Y-16741116D01*
X12248503Y-16779211D01*
X12238979Y-16798259D01*
X12229456Y-16807782D01*
X12210408Y-16817306D01*
X12191360Y-16817306D01*
X12172313Y-16807782D01*
X12162789Y-16798259D01*
X12153265Y-16779211D01*
X12143741Y-16741116D01*
X12143741Y-16693497D01*
X12153265Y-16655401D01*
X12162789Y-16636354D01*
X12172313Y-16626830D01*
X12191360Y-16617306D01*
X12324694Y-16617306D02*
X12448503Y-16617306D01*
X12381837Y-16693497D01*
X12410408Y-16693497D01*
X12429456Y-16703020D01*
X12438979Y-16712544D01*
X12448503Y-16731592D01*
X12448503Y-16779211D01*
X12438979Y-16798259D01*
X12429456Y-16807782D01*
X12410408Y-16817306D01*
X12353265Y-16817306D01*
X12334218Y-16807782D01*
X12324694Y-16798259D01*
X12543741Y-16817306D02*
X12581837Y-16817306D01*
X12600884Y-16807782D01*
X12610408Y-16798259D01*
X12629456Y-16769687D01*
X12638979Y-16731592D01*
X12638979Y-16655401D01*
X12629456Y-16636354D01*
X12619932Y-16626830D01*
X12600884Y-16617306D01*
X12562789Y-16617306D01*
X12543741Y-16626830D01*
X12534218Y-16636354D01*
X12524694Y-16655401D01*
X12524694Y-16703020D01*
X12534218Y-16722068D01*
X12543741Y-16731592D01*
X12562789Y-16741116D01*
X12600884Y-16741116D01*
X12619932Y-16731592D01*
X12629456Y-16722068D01*
X12638979Y-16703020D01*
X12810408Y-16683973D02*
X12810408Y-16817306D01*
X12762789Y-16607782D02*
X12715170Y-16750639D01*
X12838979Y-16750639D01*
X12905646Y-16617306D02*
X12905646Y-16655401D01*
X12981837Y-16617306D02*
X12981837Y-16655401D01*
X13277075Y-16893497D02*
X13267551Y-16883973D01*
X13248503Y-16855401D01*
X13238979Y-16836354D01*
X13229456Y-16807782D01*
X13219932Y-16760163D01*
X13219932Y-16722068D01*
X13229456Y-16674449D01*
X13238979Y-16645878D01*
X13248503Y-16626830D01*
X13267551Y-16598258D01*
X13277075Y-16588735D01*
X13343741Y-16636354D02*
X13353265Y-16626830D01*
X13372313Y-16617306D01*
X13419932Y-16617306D01*
X13438979Y-16626830D01*
X13448503Y-16636354D01*
X13458027Y-16655401D01*
X13458027Y-16674449D01*
X13448503Y-16703020D01*
X13334218Y-16817306D01*
X13458027Y-16817306D01*
X13572313Y-16703020D02*
X13553265Y-16693497D01*
X13543741Y-16683973D01*
X13534218Y-16664925D01*
X13534218Y-16655401D01*
X13543741Y-16636354D01*
X13553265Y-16626830D01*
X13572313Y-16617306D01*
X13610408Y-16617306D01*
X13629456Y-16626830D01*
X13638979Y-16636354D01*
X13648503Y-16655401D01*
X13648503Y-16664925D01*
X13638979Y-16683973D01*
X13629456Y-16693497D01*
X13610408Y-16703020D01*
X13572313Y-16703020D01*
X13553265Y-16712544D01*
X13543741Y-16722068D01*
X13534218Y-16741116D01*
X13534218Y-16779211D01*
X13543741Y-16798259D01*
X13553265Y-16807782D01*
X13572313Y-16817306D01*
X13610408Y-16817306D01*
X13629456Y-16807782D01*
X13638979Y-16798259D01*
X13648503Y-16779211D01*
X13648503Y-16741116D01*
X13638979Y-16722068D01*
X13629456Y-16712544D01*
X13610408Y-16703020D01*
X13886598Y-16817306D02*
X13886598Y-16617306D01*
X13972313Y-16817306D02*
X13972313Y-16712544D01*
X13962789Y-16693497D01*
X13943741Y-16683973D01*
X13915170Y-16683973D01*
X13896122Y-16693497D01*
X13886598Y-16703020D01*
X14096122Y-16817306D02*
X14077075Y-16807782D01*
X14067551Y-16798259D01*
X14058027Y-16779211D01*
X14058027Y-16722068D01*
X14067551Y-16703020D01*
X14077075Y-16693497D01*
X14096122Y-16683973D01*
X14124694Y-16683973D01*
X14143741Y-16693497D01*
X14153265Y-16703020D01*
X14162789Y-16722068D01*
X14162789Y-16779211D01*
X14153265Y-16798259D01*
X14143741Y-16807782D01*
X14124694Y-16817306D01*
X14096122Y-16817306D01*
X14277075Y-16817306D02*
X14258027Y-16807782D01*
X14248503Y-16788735D01*
X14248503Y-16617306D01*
X14429456Y-16807782D02*
X14410408Y-16817306D01*
X14372313Y-16817306D01*
X14353265Y-16807782D01*
X14343741Y-16788735D01*
X14343741Y-16712544D01*
X14353265Y-16693497D01*
X14372313Y-16683973D01*
X14410408Y-16683973D01*
X14429456Y-16693497D01*
X14438979Y-16712544D01*
X14438979Y-16731592D01*
X14343741Y-16750639D01*
X14515170Y-16807782D02*
X14534218Y-16817306D01*
X14572313Y-16817306D01*
X14591360Y-16807782D01*
X14600884Y-16788735D01*
X14600884Y-16779211D01*
X14591360Y-16760163D01*
X14572313Y-16750639D01*
X14543741Y-16750639D01*
X14524694Y-16741116D01*
X14515170Y-16722068D01*
X14515170Y-16712544D01*
X14524694Y-16693497D01*
X14543741Y-16683973D01*
X14572313Y-16683973D01*
X14591360Y-16693497D01*
X14667551Y-16893497D02*
X14677075Y-16883973D01*
X14696122Y-16855401D01*
X14705646Y-16836354D01*
X14715170Y-16807782D01*
X14724694Y-16760163D01*
X14724694Y-16722068D01*
X14715170Y-16674449D01*
X14705646Y-16645878D01*
X14696122Y-16626830D01*
X14677075Y-16598258D01*
X14667551Y-16588735D01*
X9605170Y-17090830D02*
X9705170Y-16990830D01*
X9605170Y-16890830D01*
X9505170Y-16990830D01*
X9605170Y-17090830D01*
X9943741Y-16881306D02*
X10067551Y-16881306D01*
X10000884Y-16957497D01*
X10029456Y-16957497D01*
X10048503Y-16967020D01*
X10058027Y-16976544D01*
X10067551Y-16995592D01*
X10067551Y-17043211D01*
X10058027Y-17062259D01*
X10048503Y-17071782D01*
X10029456Y-17081306D01*
X9972313Y-17081306D01*
X9953265Y-17071782D01*
X9943741Y-17062259D01*
X10153265Y-17062259D02*
X10162789Y-17071782D01*
X10153265Y-17081306D01*
X10143741Y-17071782D01*
X10153265Y-17062259D01*
X10153265Y-17081306D01*
X10229456Y-16881306D02*
X10362789Y-16881306D01*
X10277075Y-17081306D01*
X10477075Y-16881306D02*
X10496122Y-16881306D01*
X10515170Y-16890830D01*
X10524694Y-16900354D01*
X10534218Y-16919401D01*
X10543741Y-16957497D01*
X10543741Y-17005116D01*
X10534218Y-17043211D01*
X10524694Y-17062259D01*
X10515170Y-17071782D01*
X10496122Y-17081306D01*
X10477075Y-17081306D01*
X10458027Y-17071782D01*
X10448503Y-17062259D01*
X10438980Y-17043211D01*
X10429456Y-17005116D01*
X10429456Y-16957497D01*
X10438980Y-16919401D01*
X10448503Y-16900354D01*
X10458027Y-16890830D01*
X10477075Y-16881306D01*
X10667551Y-16881306D02*
X10686599Y-16881306D01*
X10705646Y-16890830D01*
X10715170Y-16900354D01*
X10724694Y-16919401D01*
X10734218Y-16957497D01*
X10734218Y-17005116D01*
X10724694Y-17043211D01*
X10715170Y-17062259D01*
X10705646Y-17071782D01*
X10686599Y-17081306D01*
X10667551Y-17081306D01*
X10648503Y-17071782D01*
X10638980Y-17062259D01*
X10629456Y-17043211D01*
X10619932Y-17005116D01*
X10619932Y-16957497D01*
X10629456Y-16919401D01*
X10638980Y-16900354D01*
X10648503Y-16890830D01*
X10667551Y-16881306D01*
X10819932Y-17081306D02*
X10819932Y-16947973D01*
X10819932Y-16967020D02*
X10829456Y-16957497D01*
X10848503Y-16947973D01*
X10877075Y-16947973D01*
X10896122Y-16957497D01*
X10905646Y-16976544D01*
X10905646Y-17081306D01*
X10905646Y-16976544D02*
X10915170Y-16957497D01*
X10934218Y-16947973D01*
X10962789Y-16947973D01*
X10981837Y-16957497D01*
X10991360Y-16976544D01*
X10991360Y-17081306D01*
X11086599Y-17081306D02*
X11086599Y-16947973D01*
X11086599Y-16967020D02*
X11096122Y-16957497D01*
X11115170Y-16947973D01*
X11143741Y-16947973D01*
X11162789Y-16957497D01*
X11172313Y-16976544D01*
X11172313Y-17081306D01*
X11172313Y-16976544D02*
X11181837Y-16957497D01*
X11200884Y-16947973D01*
X11229456Y-16947973D01*
X11248503Y-16957497D01*
X11258027Y-16976544D01*
X11258027Y-17081306D01*
X11648503Y-16871782D02*
X11477075Y-17128925D01*
X11905646Y-16881306D02*
X11924694Y-16881306D01*
X11943741Y-16890830D01*
X11953265Y-16900354D01*
X11962789Y-16919401D01*
X11972313Y-16957497D01*
X11972313Y-17005116D01*
X11962789Y-17043211D01*
X11953265Y-17062259D01*
X11943741Y-17071782D01*
X11924694Y-17081306D01*
X11905646Y-17081306D01*
X11886598Y-17071782D01*
X11877075Y-17062259D01*
X11867551Y-17043211D01*
X11858027Y-17005116D01*
X11858027Y-16957497D01*
X11867551Y-16919401D01*
X11877075Y-16900354D01*
X11886598Y-16890830D01*
X11905646Y-16881306D01*
X12058027Y-17062259D02*
X12067551Y-17071782D01*
X12058027Y-17081306D01*
X12048503Y-17071782D01*
X12058027Y-17062259D01*
X12058027Y-17081306D01*
X12258027Y-17081306D02*
X12143741Y-17081306D01*
X12200884Y-17081306D02*
X12200884Y-16881306D01*
X12181837Y-16909878D01*
X12162789Y-16928925D01*
X12143741Y-16938449D01*
X12429456Y-16947973D02*
X12429456Y-17081306D01*
X12381837Y-16871782D02*
X12334218Y-17014640D01*
X12458027Y-17014640D01*
X12629456Y-16881306D02*
X12534218Y-16881306D01*
X12524694Y-16976544D01*
X12534218Y-16967020D01*
X12553265Y-16957497D01*
X12600884Y-16957497D01*
X12619932Y-16967020D01*
X12629456Y-16976544D01*
X12638979Y-16995592D01*
X12638979Y-17043211D01*
X12629456Y-17062259D01*
X12619932Y-17071782D01*
X12600884Y-17081306D01*
X12553265Y-17081306D01*
X12534218Y-17071782D01*
X12524694Y-17062259D01*
X12705646Y-16881306D02*
X12838979Y-16881306D01*
X12753265Y-17081306D01*
X12905646Y-16881306D02*
X12905646Y-16919401D01*
X12981837Y-16881306D02*
X12981837Y-16919401D01*
X13277075Y-17157497D02*
X13267551Y-17147973D01*
X13248503Y-17119401D01*
X13238979Y-17100354D01*
X13229456Y-17071782D01*
X13219932Y-17024163D01*
X13219932Y-16986068D01*
X13229456Y-16938449D01*
X13238979Y-16909878D01*
X13248503Y-16890830D01*
X13267551Y-16862259D01*
X13277075Y-16852735D01*
X13438979Y-16947973D02*
X13438979Y-17081306D01*
X13391360Y-16871782D02*
X13343741Y-17014640D01*
X13467551Y-17014640D01*
X13696122Y-17081306D02*
X13696122Y-16881306D01*
X13781837Y-17081306D02*
X13781837Y-16976544D01*
X13772313Y-16957497D01*
X13753265Y-16947973D01*
X13724694Y-16947973D01*
X13705646Y-16957497D01*
X13696122Y-16967020D01*
X13905646Y-17081306D02*
X13886598Y-17071782D01*
X13877075Y-17062259D01*
X13867551Y-17043211D01*
X13867551Y-16986068D01*
X13877075Y-16967020D01*
X13886598Y-16957497D01*
X13905646Y-16947973D01*
X13934218Y-16947973D01*
X13953265Y-16957497D01*
X13962789Y-16967020D01*
X13972313Y-16986068D01*
X13972313Y-17043211D01*
X13962789Y-17062259D01*
X13953265Y-17071782D01*
X13934218Y-17081306D01*
X13905646Y-17081306D01*
X14086598Y-17081306D02*
X14067551Y-17071782D01*
X14058027Y-17052735D01*
X14058027Y-16881306D01*
X14238979Y-17071782D02*
X14219932Y-17081306D01*
X14181837Y-17081306D01*
X14162789Y-17071782D01*
X14153265Y-17052735D01*
X14153265Y-16976544D01*
X14162789Y-16957497D01*
X14181837Y-16947973D01*
X14219932Y-16947973D01*
X14238979Y-16957497D01*
X14248503Y-16976544D01*
X14248503Y-16995592D01*
X14153265Y-17014640D01*
X14324694Y-17071782D02*
X14343741Y-17081306D01*
X14381837Y-17081306D01*
X14400884Y-17071782D01*
X14410408Y-17052735D01*
X14410408Y-17043211D01*
X14400884Y-17024163D01*
X14381837Y-17014640D01*
X14353265Y-17014640D01*
X14334218Y-17005116D01*
X14324694Y-16986068D01*
X14324694Y-16976544D01*
X14334218Y-16957497D01*
X14353265Y-16947973D01*
X14381837Y-16947973D01*
X14400884Y-16957497D01*
X14477075Y-17157497D02*
X14486598Y-17147973D01*
X14505646Y-17119401D01*
X14515170Y-17100354D01*
X14524694Y-17071782D01*
X14534218Y-17024163D01*
X14534218Y-16986068D01*
X14524694Y-16938449D01*
X14515170Y-16909878D01*
X14505646Y-16890830D01*
X14486598Y-16862259D01*
X14477075Y-16852735D01*
X9505170Y-17210830D02*
X9705170Y-17410830D01*
X9705170Y-17210830D02*
X9505170Y-17410830D01*
X9705170Y-17310830D02*
G75*
G03*
X9705170Y-17310830I-100000J0D01*
G01*
X10048503Y-17201306D02*
X10010408Y-17201306D01*
X9991360Y-17210830D01*
X9981837Y-17220354D01*
X9962789Y-17248925D01*
X9953265Y-17287020D01*
X9953265Y-17363211D01*
X9962789Y-17382259D01*
X9972313Y-17391782D01*
X9991360Y-17401306D01*
X10029456Y-17401306D01*
X10048503Y-17391782D01*
X10058027Y-17382259D01*
X10067551Y-17363211D01*
X10067551Y-17315592D01*
X10058027Y-17296544D01*
X10048503Y-17287020D01*
X10029456Y-17277497D01*
X9991360Y-17277497D01*
X9972313Y-17287020D01*
X9962789Y-17296544D01*
X9953265Y-17315592D01*
X10153265Y-17382259D02*
X10162789Y-17391782D01*
X10153265Y-17401306D01*
X10143741Y-17391782D01*
X10153265Y-17382259D01*
X10153265Y-17401306D01*
X10334218Y-17267973D02*
X10334218Y-17401306D01*
X10286599Y-17191782D02*
X10238980Y-17334640D01*
X10362789Y-17334640D01*
X10477075Y-17201306D02*
X10496122Y-17201306D01*
X10515170Y-17210830D01*
X10524694Y-17220354D01*
X10534218Y-17239401D01*
X10543741Y-17277497D01*
X10543741Y-17325116D01*
X10534218Y-17363211D01*
X10524694Y-17382259D01*
X10515170Y-17391782D01*
X10496122Y-17401306D01*
X10477075Y-17401306D01*
X10458027Y-17391782D01*
X10448503Y-17382259D01*
X10438980Y-17363211D01*
X10429456Y-17325116D01*
X10429456Y-17277497D01*
X10438980Y-17239401D01*
X10448503Y-17220354D01*
X10458027Y-17210830D01*
X10477075Y-17201306D01*
X10667551Y-17201306D02*
X10686599Y-17201306D01*
X10705646Y-17210830D01*
X10715170Y-17220354D01*
X10724694Y-17239401D01*
X10734218Y-17277497D01*
X10734218Y-17325116D01*
X10724694Y-17363211D01*
X10715170Y-17382259D01*
X10705646Y-17391782D01*
X10686599Y-17401306D01*
X10667551Y-17401306D01*
X10648503Y-17391782D01*
X10638980Y-17382259D01*
X10629456Y-17363211D01*
X10619932Y-17325116D01*
X10619932Y-17277497D01*
X10629456Y-17239401D01*
X10638980Y-17220354D01*
X10648503Y-17210830D01*
X10667551Y-17201306D01*
X10819932Y-17401306D02*
X10819932Y-17267973D01*
X10819932Y-17287020D02*
X10829456Y-17277497D01*
X10848503Y-17267973D01*
X10877075Y-17267973D01*
X10896122Y-17277497D01*
X10905646Y-17296544D01*
X10905646Y-17401306D01*
X10905646Y-17296544D02*
X10915170Y-17277497D01*
X10934218Y-17267973D01*
X10962789Y-17267973D01*
X10981837Y-17277497D01*
X10991360Y-17296544D01*
X10991360Y-17401306D01*
X11086599Y-17401306D02*
X11086599Y-17267973D01*
X11086599Y-17287020D02*
X11096122Y-17277497D01*
X11115170Y-17267973D01*
X11143741Y-17267973D01*
X11162789Y-17277497D01*
X11172313Y-17296544D01*
X11172313Y-17401306D01*
X11172313Y-17296544D02*
X11181837Y-17277497D01*
X11200884Y-17267973D01*
X11229456Y-17267973D01*
X11248503Y-17277497D01*
X11258027Y-17296544D01*
X11258027Y-17401306D01*
X11648503Y-17191782D02*
X11477075Y-17448925D01*
X11905646Y-17201306D02*
X11924694Y-17201306D01*
X11943741Y-17210830D01*
X11953265Y-17220354D01*
X11962789Y-17239401D01*
X11972313Y-17277497D01*
X11972313Y-17325116D01*
X11962789Y-17363211D01*
X11953265Y-17382259D01*
X11943741Y-17391782D01*
X11924694Y-17401306D01*
X11905646Y-17401306D01*
X11886598Y-17391782D01*
X11877075Y-17382259D01*
X11867551Y-17363211D01*
X11858027Y-17325116D01*
X11858027Y-17277497D01*
X11867551Y-17239401D01*
X11877075Y-17220354D01*
X11886598Y-17210830D01*
X11905646Y-17201306D01*
X12058027Y-17382259D02*
X12067551Y-17391782D01*
X12058027Y-17401306D01*
X12048503Y-17391782D01*
X12058027Y-17382259D01*
X12058027Y-17401306D01*
X12143741Y-17220354D02*
X12153265Y-17210830D01*
X12172313Y-17201306D01*
X12219932Y-17201306D01*
X12238979Y-17210830D01*
X12248503Y-17220354D01*
X12258027Y-17239401D01*
X12258027Y-17258449D01*
X12248503Y-17287020D01*
X12134218Y-17401306D01*
X12258027Y-17401306D01*
X12438979Y-17201306D02*
X12343741Y-17201306D01*
X12334218Y-17296544D01*
X12343741Y-17287020D01*
X12362789Y-17277497D01*
X12410408Y-17277497D01*
X12429456Y-17287020D01*
X12438979Y-17296544D01*
X12448503Y-17315592D01*
X12448503Y-17363211D01*
X12438979Y-17382259D01*
X12429456Y-17391782D01*
X12410408Y-17401306D01*
X12362789Y-17401306D01*
X12343741Y-17391782D01*
X12334218Y-17382259D01*
X12524694Y-17220354D02*
X12534218Y-17210830D01*
X12553265Y-17201306D01*
X12600884Y-17201306D01*
X12619932Y-17210830D01*
X12629456Y-17220354D01*
X12638979Y-17239401D01*
X12638979Y-17258449D01*
X12629456Y-17287020D01*
X12515170Y-17401306D01*
X12638979Y-17401306D01*
X12762789Y-17201306D02*
X12781837Y-17201306D01*
X12800884Y-17210830D01*
X12810408Y-17220354D01*
X12819932Y-17239401D01*
X12829456Y-17277497D01*
X12829456Y-17325116D01*
X12819932Y-17363211D01*
X12810408Y-17382259D01*
X12800884Y-17391782D01*
X12781837Y-17401306D01*
X12762789Y-17401306D01*
X12743741Y-17391782D01*
X12734218Y-17382259D01*
X12724694Y-17363211D01*
X12715170Y-17325116D01*
X12715170Y-17277497D01*
X12724694Y-17239401D01*
X12734218Y-17220354D01*
X12743741Y-17210830D01*
X12762789Y-17201306D01*
X12905646Y-17201306D02*
X12905646Y-17239401D01*
X12981837Y-17201306D02*
X12981837Y-17239401D01*
X13277075Y-17477497D02*
X13267551Y-17467973D01*
X13248503Y-17439401D01*
X13238979Y-17420354D01*
X13229456Y-17391782D01*
X13219932Y-17344163D01*
X13219932Y-17306068D01*
X13229456Y-17258449D01*
X13238979Y-17229878D01*
X13248503Y-17210830D01*
X13267551Y-17182259D01*
X13277075Y-17172735D01*
X13458027Y-17401306D02*
X13343741Y-17401306D01*
X13400884Y-17401306D02*
X13400884Y-17201306D01*
X13381837Y-17229878D01*
X13362789Y-17248925D01*
X13343741Y-17258449D01*
X13696122Y-17401306D02*
X13696122Y-17201306D01*
X13781837Y-17401306D02*
X13781837Y-17296544D01*
X13772313Y-17277497D01*
X13753265Y-17267973D01*
X13724694Y-17267973D01*
X13705646Y-17277497D01*
X13696122Y-17287020D01*
X13905646Y-17401306D02*
X13886598Y-17391782D01*
X13877075Y-17382259D01*
X13867551Y-17363211D01*
X13867551Y-17306068D01*
X13877075Y-17287020D01*
X13886598Y-17277497D01*
X13905646Y-17267973D01*
X13934218Y-17267973D01*
X13953265Y-17277497D01*
X13962789Y-17287020D01*
X13972313Y-17306068D01*
X13972313Y-17363211D01*
X13962789Y-17382259D01*
X13953265Y-17391782D01*
X13934218Y-17401306D01*
X13905646Y-17401306D01*
X14086598Y-17401306D02*
X14067551Y-17391782D01*
X14058027Y-17372735D01*
X14058027Y-17201306D01*
X14238979Y-17391782D02*
X14219932Y-17401306D01*
X14181837Y-17401306D01*
X14162789Y-17391782D01*
X14153265Y-17372735D01*
X14153265Y-17296544D01*
X14162789Y-17277497D01*
X14181837Y-17267973D01*
X14219932Y-17267973D01*
X14238979Y-17277497D01*
X14248503Y-17296544D01*
X14248503Y-17315592D01*
X14153265Y-17334640D01*
X14315170Y-17477497D02*
X14324694Y-17467973D01*
X14343741Y-17439401D01*
X14353265Y-17420354D01*
X14362789Y-17391782D01*
X14372313Y-17344163D01*
X14372313Y-17306068D01*
X14362789Y-17258449D01*
X14353265Y-17229878D01*
X14343741Y-17210830D01*
X14324694Y-17182259D01*
X14315170Y-17172735D01*
M02*
