%TF.GenerationSoftware,KiCad,Pcbnew,(6.0.4)*%
%TF.CreationDate,2022-11-02T15:12:15-07:00*%
%TF.ProjectId,PCB,5043422e-6b69-4636-9164-5f7063625858,rev?*%
%TF.SameCoordinates,Original*%
%TF.FileFunction,Paste,Top*%
%TF.FilePolarity,Positive*%
%FSLAX46Y46*%
G04 Gerber Fmt 4.6, Leading zero omitted, Abs format (unit mm)*
G04 Created by KiCad (PCBNEW (6.0.4)) date 2022-11-02 15:12:15*
%MOMM*%
%LPD*%
G01*
G04 APERTURE LIST*
G04 Aperture macros list*
%AMRoundRect*
0 Rectangle with rounded corners*
0 $1 Rounding radius*
0 $2 $3 $4 $5 $6 $7 $8 $9 X,Y pos of 4 corners*
0 Add a 4 corners polygon primitive as box body*
4,1,4,$2,$3,$4,$5,$6,$7,$8,$9,$2,$3,0*
0 Add four circle primitives for the rounded corners*
1,1,$1+$1,$2,$3*
1,1,$1+$1,$4,$5*
1,1,$1+$1,$6,$7*
1,1,$1+$1,$8,$9*
0 Add four rect primitives between the rounded corners*
20,1,$1+$1,$2,$3,$4,$5,0*
20,1,$1+$1,$4,$5,$6,$7,0*
20,1,$1+$1,$6,$7,$8,$9,0*
20,1,$1+$1,$8,$9,$2,$3,0*%
G04 Aperture macros list end*
%ADD10RoundRect,0.250000X-0.219312X0.526215X-0.564008X-0.083034X0.219312X-0.526215X0.564008X0.083034X0*%
%ADD11RoundRect,0.150000X-0.667663X-0.507297X0.803502X0.239813X0.667663X0.507297X-0.803502X-0.239813X0*%
%ADD12RoundRect,0.150000X-0.507297X0.667663X0.239813X-0.803502X0.507297X-0.667663X-0.239813X0.803502X0*%
%ADD13RoundRect,0.150000X-0.478222X-0.688788X0.690069X0.476371X0.478222X0.688788X-0.690069X-0.476371X0*%
%ADD14RoundRect,0.250000X0.569696X0.021139X0.119744X0.557370X-0.569696X-0.021139X-0.119744X-0.557370X0*%
%ADD15RoundRect,0.250000X0.450000X-0.350000X0.450000X0.350000X-0.450000X0.350000X-0.450000X-0.350000X0*%
%ADD16RoundRect,0.150000X-0.802855X0.241969X0.666299X-0.509088X0.802855X-0.241969X-0.666299X0.509088X0*%
%ADD17RoundRect,0.250000X0.181079X-0.553843X0.582585X-0.011239X-0.181079X0.553843X-0.582585X0.011239X0*%
%ADD18RoundRect,0.250000X0.303155X-0.482801X0.542569X0.174983X-0.303155X0.482801X-0.542569X-0.174983X0*%
%ADD19RoundRect,0.250000X-0.526215X-0.219312X0.083034X-0.564008X0.526215X0.219312X-0.083034X0.564008X0*%
%ADD20RoundRect,0.150000X0.802855X-0.241969X-0.666299X0.509088X-0.802855X0.241969X0.666299X-0.509088X0*%
%ADD21RoundRect,0.250000X0.131874X0.554625X-0.505098X0.264340X-0.131874X-0.554625X0.505098X-0.264340X0*%
%ADD22RoundRect,0.250000X-0.001070X0.582692X-0.550598X0.190718X0.001070X-0.582692X0.550598X-0.190718X0*%
%ADD23RoundRect,0.250000X-0.582692X-0.001070X-0.190718X-0.550598X0.582692X0.001070X0.190718X0.550598X0*%
%ADD24RoundRect,0.250000X-0.343363X0.470779X-0.557544X-0.169340X0.343363X-0.470779X0.557544X0.169340X0*%
%ADD25RoundRect,0.250000X-0.553843X-0.181079X-0.011239X-0.582585X0.553843X0.181079X0.011239X0.582585X0*%
%ADD26RoundRect,0.250000X0.582091X0.026486X0.166519X0.558393X-0.582091X-0.026486X-0.166519X-0.558393X0*%
%ADD27RoundRect,0.250000X0.350000X0.450000X-0.350000X0.450000X-0.350000X-0.450000X0.350000X-0.450000X0*%
%ADD28RoundRect,0.250000X-0.303155X0.482801X-0.542569X-0.174983X0.303155X-0.482801X0.542569X0.174983X0*%
%ADD29RoundRect,0.150000X0.667663X0.507297X-0.803502X-0.239813X-0.667663X-0.507297X0.803502X0.239813X0*%
%ADD30RoundRect,0.250000X-0.569696X-0.021139X-0.119744X-0.557370X0.569696X0.021139X0.119744X0.557370X0*%
%ADD31RoundRect,0.250000X0.528109X0.214711X-0.078109X0.564711X-0.528109X-0.214711X0.078109X-0.564711X0*%
%ADD32RoundRect,0.250000X-0.181079X0.553843X-0.582585X0.011239X0.181079X-0.553843X0.582585X-0.011239X0*%
%ADD33RoundRect,0.250000X0.526215X0.219312X-0.083034X0.564008X-0.526215X-0.219312X0.083034X-0.564008X0*%
%ADD34RoundRect,0.250000X-0.214711X0.528109X-0.564711X-0.078109X0.214711X-0.528109X0.564711X0.078109X0*%
%ADD35RoundRect,0.150000X-0.241969X-0.802855X0.509088X0.666299X0.241969X0.802855X-0.509088X-0.666299X0*%
%ADD36RoundRect,0.170000X-0.170000X-0.210000X0.170000X-0.210000X0.170000X0.210000X-0.170000X0.210000X0*%
%ADD37RoundRect,0.075000X-0.650000X-0.075000X0.650000X-0.075000X0.650000X0.075000X-0.650000X0.075000X0*%
%ADD38RoundRect,0.250000X0.470779X0.343363X-0.169340X0.557544X-0.470779X-0.343363X0.169340X-0.557544X0*%
%ADD39RoundRect,0.250000X0.343363X-0.470779X0.557544X0.169340X-0.343363X0.470779X-0.557544X-0.169340X0*%
%ADD40RoundRect,0.250000X-0.026486X0.582091X-0.558393X0.166519X0.026486X-0.582091X0.558393X-0.166519X0*%
%ADD41RoundRect,0.250000X-0.564711X0.078109X-0.214711X-0.528109X0.564711X-0.078109X0.214711X0.528109X0*%
%ADD42RoundRect,0.250000X-0.205065X0.545417X-0.582520X-0.014184X0.205065X-0.545417X0.582520X0.014184X0*%
%ADD43RoundRect,0.250000X-0.470779X-0.343363X0.169340X-0.557544X0.470779X0.343363X-0.169340X0.557544X0*%
%ADD44RoundRect,0.250000X-0.554625X0.131874X-0.264340X-0.505098X0.554625X-0.131874X0.264340X0.505098X0*%
%ADD45RoundRect,0.250000X-0.021139X0.569696X-0.557370X0.119744X0.021139X-0.569696X0.557370X-0.119744X0*%
%ADD46RoundRect,0.250000X-0.337500X-0.475000X0.337500X-0.475000X0.337500X0.475000X-0.337500X0.475000X0*%
%ADD47RoundRect,0.250000X-0.482801X-0.303155X0.174983X-0.542569X0.482801X0.303155X-0.174983X0.542569X0*%
%ADD48RoundRect,0.250000X-0.582091X-0.026486X-0.166519X-0.558393X0.582091X0.026486X0.166519X0.558393X0*%
%ADD49RoundRect,0.250000X0.045969X-0.568231X0.562063X-0.095318X-0.045969X0.568231X-0.562063X0.095318X0*%
%ADD50RoundRect,0.250000X0.557370X0.119744X0.021139X0.569696X-0.557370X-0.119744X-0.021139X-0.569696X0*%
%ADD51RoundRect,0.150000X0.150000X-0.725000X0.150000X0.725000X-0.150000X0.725000X-0.150000X-0.725000X0*%
%ADD52RoundRect,0.250000X0.219312X-0.526215X0.564008X0.083034X-0.219312X0.526215X-0.564008X-0.083034X0*%
%ADD53RoundRect,0.250000X0.475000X-0.337500X0.475000X0.337500X-0.475000X0.337500X-0.475000X-0.337500X0*%
%ADD54RoundRect,0.150000X0.507297X-0.667663X-0.239813X0.803502X-0.507297X0.667663X0.239813X-0.803502X0*%
%ADD55RoundRect,0.250000X0.542569X-0.174983X0.303155X0.482801X-0.542569X0.174983X-0.303155X-0.482801X0*%
%ADD56RoundRect,0.237500X0.287500X0.237500X-0.287500X0.237500X-0.287500X-0.237500X0.287500X-0.237500X0*%
%ADD57RoundRect,0.250000X-0.174983X-0.542569X0.482801X-0.303155X0.174983X0.542569X-0.482801X0.303155X0*%
%ADD58RoundRect,0.250000X0.021139X-0.569696X0.557370X-0.119744X-0.021139X0.569696X-0.557370X0.119744X0*%
%ADD59RoundRect,0.250000X-0.154687X-0.561786X0.479606X-0.330922X0.154687X0.561786X-0.479606X0.330922X0*%
%ADD60RoundRect,0.150000X-0.150000X0.725000X-0.150000X-0.725000X0.150000X-0.725000X0.150000X0.725000X0*%
%ADD61RoundRect,0.250000X-0.561786X0.154687X-0.330922X-0.479606X0.561786X-0.154687X0.330922X0.479606X0*%
%ADD62RoundRect,0.250000X-0.528109X-0.214711X0.078109X-0.564711X0.528109X0.214711X-0.078109X0.564711X0*%
%ADD63RoundRect,0.250000X0.001070X-0.582692X0.550598X-0.190718X-0.001070X0.582692X-0.550598X0.190718X0*%
%ADD64RoundRect,0.250000X0.174983X0.542569X-0.482801X0.303155X-0.174983X-0.542569X0.482801X-0.303155X0*%
%ADD65RoundRect,0.250000X0.078109X0.564711X-0.528109X0.214711X-0.078109X-0.564711X0.528109X-0.214711X0*%
%ADD66RoundRect,0.250000X-0.557370X-0.119744X-0.021139X-0.569696X0.557370X0.119744X0.021139X0.569696X0*%
%ADD67RoundRect,0.250000X0.553843X0.181079X0.011239X0.582585X-0.553843X-0.181079X-0.011239X-0.582585X0*%
%ADD68RoundRect,0.250000X-0.045969X0.568231X-0.562063X0.095318X0.045969X-0.568231X0.562063X-0.095318X0*%
%ADD69RoundRect,0.150000X0.478222X0.688788X-0.690069X-0.476371X-0.478222X-0.688788X0.690069X0.476371X0*%
%ADD70RoundRect,0.250000X0.214711X-0.528109X0.564711X0.078109X-0.214711X0.528109X-0.564711X-0.078109X0*%
%ADD71RoundRect,0.250000X0.545417X0.205065X-0.014184X0.582520X-0.545417X-0.205065X0.014184X-0.582520X0*%
%ADD72RoundRect,0.250000X0.561786X-0.154687X0.330922X0.479606X-0.561786X0.154687X-0.330922X-0.479606X0*%
%ADD73RoundRect,0.250000X0.482801X0.303155X-0.174983X0.542569X-0.482801X-0.303155X0.174983X-0.542569X0*%
%ADD74RoundRect,0.250000X-0.450000X0.350000X-0.450000X-0.350000X0.450000X-0.350000X0.450000X0.350000X0*%
%ADD75RoundRect,0.250000X-0.078109X-0.564711X0.528109X-0.214711X0.078109X0.564711X-0.528109X0.214711X0*%
%ADD76RoundRect,0.250000X-0.131874X-0.554625X0.505098X-0.264340X0.131874X0.554625X-0.505098X0.264340X0*%
%ADD77RoundRect,0.250000X-0.568231X-0.045969X-0.095318X-0.562063X0.568231X0.045969X0.095318X0.562063X0*%
%ADD78RoundRect,0.250000X0.205065X-0.545417X0.582520X0.014184X-0.205065X0.545417X-0.582520X-0.014184X0*%
%ADD79RoundRect,0.250000X-0.475000X0.337500X-0.475000X-0.337500X0.475000X-0.337500X0.475000X0.337500X0*%
%ADD80RoundRect,0.250000X0.568231X0.045969X0.095318X0.562063X-0.568231X-0.045969X-0.095318X-0.562063X0*%
%ADD81RoundRect,0.250000X0.554625X-0.131874X0.264340X0.505098X-0.554625X0.131874X-0.264340X-0.505098X0*%
%ADD82RoundRect,0.250000X0.582692X0.001070X0.190718X0.550598X-0.582692X-0.001070X-0.190718X-0.550598X0*%
%ADD83RoundRect,0.250000X-0.542569X0.174983X-0.303155X-0.482801X0.542569X-0.174983X0.303155X0.482801X0*%
%ADD84RoundRect,0.250000X0.026486X-0.582091X0.558393X-0.166519X-0.026486X0.582091X-0.558393X0.166519X0*%
%ADD85RoundRect,0.150000X0.241969X0.802855X-0.509088X-0.666299X-0.241969X-0.802855X0.509088X0.666299X0*%
%ADD86RoundRect,0.250000X0.564711X-0.078109X0.214711X0.528109X-0.564711X0.078109X-0.214711X-0.528109X0*%
%ADD87RoundRect,0.150000X0.688788X-0.478222X-0.476371X0.690069X-0.688788X0.478222X0.476371X-0.690069X0*%
%ADD88RoundRect,0.250000X-0.119744X0.557370X-0.569696X0.021139X0.119744X-0.557370X0.569696X-0.021139X0*%
%ADD89RoundRect,0.150000X-0.688788X0.478222X0.476371X-0.690069X0.688788X-0.478222X-0.476371X0.690069X0*%
%ADD90RoundRect,0.250000X0.154687X0.561786X-0.479606X0.330922X-0.154687X-0.561786X0.479606X-0.330922X0*%
%ADD91RoundRect,0.250000X-0.350000X-0.450000X0.350000X-0.450000X0.350000X0.450000X-0.350000X0.450000X0*%
%ADD92RoundRect,0.250000X0.119744X-0.557370X0.569696X-0.021139X-0.119744X0.557370X-0.569696X0.021139X0*%
%ADD93RoundRect,0.250000X-0.545417X-0.205065X0.014184X-0.582520X0.545417X0.205065X-0.014184X0.582520X0*%
G04 APERTURE END LIST*
D10*
X117162636Y-64614829D03*
X116177788Y-66355541D03*
D11*
X175332222Y-125657380D03*
X175907270Y-126789731D03*
X176482318Y-127922083D03*
X177057366Y-129054434D03*
X177632414Y-130186785D03*
X178207463Y-131319137D03*
X178782511Y-132451488D03*
X179357559Y-133583840D03*
X183771054Y-131342510D03*
X183196006Y-130210159D03*
X182620958Y-129077807D03*
X182045910Y-127945456D03*
X181470862Y-126813105D03*
X180895813Y-125680753D03*
X180320765Y-124548402D03*
X179745717Y-123416050D03*
D12*
X124342619Y-105332222D03*
X123210268Y-105907270D03*
X122077916Y-106482318D03*
X120945565Y-107057366D03*
X119813214Y-107632414D03*
X118680862Y-108207463D03*
X117548511Y-108782511D03*
X116416159Y-109357559D03*
X118657489Y-113771054D03*
X119789840Y-113196006D03*
X120922192Y-112620958D03*
X122054543Y-112045910D03*
X123186894Y-111470862D03*
X124319246Y-110895813D03*
X125451597Y-110320765D03*
X126583949Y-109745717D03*
D13*
X185600547Y-119174267D03*
X186497366Y-120073497D03*
X187394185Y-120972727D03*
X188291004Y-121871958D03*
X189187823Y-122771188D03*
X190084642Y-123670419D03*
X190981462Y-124569649D03*
X191878281Y-125468880D03*
X195383155Y-121973403D03*
X194486336Y-121074173D03*
X193589517Y-120174943D03*
X192692698Y-119275712D03*
X191795879Y-118376482D03*
X190899060Y-117477251D03*
X190002240Y-116578021D03*
X189105421Y-115678790D03*
D14*
X120171127Y-124725798D03*
X118885551Y-123193710D03*
D15*
X167000000Y-76000000D03*
X167000000Y-74000000D03*
D16*
X140164627Y-123362911D03*
X139586540Y-124493714D03*
X139008453Y-125624517D03*
X138430367Y-126755320D03*
X137852280Y-127886123D03*
X137274193Y-129016927D03*
X136696107Y-130147730D03*
X136118020Y-131278533D03*
X140525481Y-133531705D03*
X141103568Y-132400902D03*
X141681655Y-131270099D03*
X142259741Y-130139296D03*
X142837828Y-129008493D03*
X143415915Y-127877689D03*
X143994001Y-126746886D03*
X144572088Y-125616083D03*
D17*
X191439074Y-114554344D03*
X192673332Y-112886342D03*
D18*
X110012139Y-72870084D03*
X110696179Y-70990698D03*
D19*
X134614829Y-132837363D03*
X136355541Y-133822211D03*
D20*
X179835372Y-56637088D03*
X180413459Y-55506285D03*
X180991546Y-54375482D03*
X181569632Y-53244679D03*
X182147719Y-52113876D03*
X182725806Y-50983072D03*
X183303892Y-49852269D03*
X183881979Y-48721466D03*
X179474518Y-46468294D03*
X178896431Y-47599097D03*
X178318344Y-48729900D03*
X177740258Y-49860703D03*
X177162171Y-50991506D03*
X176584084Y-52122310D03*
X176005998Y-53253113D03*
X175427911Y-54383916D03*
D21*
X140264872Y-44283795D03*
X138444950Y-45113181D03*
D22*
X137687372Y-56932222D03*
X135998082Y-58137180D03*
D23*
X124450798Y-114082610D03*
X125655756Y-115771900D03*
D24*
X119621462Y-75395494D03*
X118963054Y-77363266D03*
D25*
X133632636Y-123889230D03*
X135300638Y-125123488D03*
D26*
X190866619Y-129507470D03*
X189589121Y-127872348D03*
D27*
X161000000Y-77000000D03*
X159000000Y-77000000D03*
D28*
X209987860Y-107129915D03*
X209303820Y-109009301D03*
D29*
X144667777Y-54342619D03*
X144092729Y-53210268D03*
X143517681Y-52077916D03*
X142942633Y-50945565D03*
X142367585Y-49813214D03*
X141792536Y-48680862D03*
X141217488Y-47548511D03*
X140642440Y-46416159D03*
X136228945Y-48657489D03*
X136803993Y-49789840D03*
X137379041Y-50922192D03*
X137954089Y-52054543D03*
X138529137Y-53186894D03*
X139104186Y-54319246D03*
X139679234Y-55451597D03*
X140254282Y-56583949D03*
D30*
X199828872Y-55274201D03*
X201114448Y-56806289D03*
D24*
X122511953Y-76362638D03*
X121853545Y-78330410D03*
D31*
X134450025Y-136253854D03*
X132717975Y-135253854D03*
D32*
X126110769Y-63632636D03*
X124876511Y-65300638D03*
D33*
X185385170Y-47162636D03*
X183644458Y-46177788D03*
D34*
X206253854Y-115549974D03*
X205253854Y-117282024D03*
D35*
X193362911Y-109835372D03*
X194493714Y-110413459D03*
X195624517Y-110991546D03*
X196755320Y-111569632D03*
X197886123Y-112147719D03*
X199016927Y-112725806D03*
X200147730Y-113303892D03*
X201278533Y-113881979D03*
X203531705Y-109474518D03*
X202400902Y-108896431D03*
X201270099Y-108318344D03*
X200139296Y-107740258D03*
X199008493Y-107162171D03*
X197877689Y-106584084D03*
X196746886Y-106005998D03*
X195616083Y-105427911D03*
D36*
X160420000Y-70530000D03*
X159580000Y-70530000D03*
X159580000Y-71470000D03*
X160420000Y-71470000D03*
D37*
X157850000Y-70000000D03*
X157850000Y-70500000D03*
X157850000Y-71000000D03*
X157850000Y-71500000D03*
X157850000Y-72000000D03*
X162150000Y-72000000D03*
X162150000Y-71500000D03*
X162150000Y-71000000D03*
X162150000Y-70500000D03*
X162150000Y-70000000D03*
D38*
X174604505Y-49621462D03*
X172636733Y-48963054D03*
D39*
X197488046Y-103637361D03*
X198146454Y-101669589D03*
D40*
X199507470Y-59133380D03*
X197872348Y-60410878D03*
D41*
X205253854Y-62717974D03*
X206253854Y-64450024D03*
D42*
X188035528Y-48435621D03*
X186875202Y-50155873D03*
D43*
X146362638Y-127488046D03*
X148330410Y-128146454D03*
D23*
X126932222Y-112312627D03*
X128137180Y-114001917D03*
D44*
X114283795Y-109735127D03*
X115113181Y-111555049D03*
D45*
X194725798Y-129828872D03*
X193193710Y-131114448D03*
D46*
X164962500Y-65037500D03*
X167037500Y-65037500D03*
D47*
X177129915Y-40012139D03*
X179009301Y-40696179D03*
D48*
X129133380Y-50492529D03*
X130410878Y-52127651D03*
D32*
X128560925Y-65445655D03*
X127326667Y-67113657D03*
D49*
X192896305Y-127380204D03*
X194370859Y-126029024D03*
D50*
X126806289Y-131114448D03*
X125274201Y-129828872D03*
D51*
X136505000Y-92575000D03*
X137775000Y-92575000D03*
X139045000Y-92575000D03*
X140315000Y-92575000D03*
X141585000Y-92575000D03*
X142855000Y-92575000D03*
X144125000Y-92575000D03*
X145395000Y-92575000D03*
X145395000Y-87425000D03*
X144125000Y-87425000D03*
X142855000Y-87425000D03*
X141585000Y-87425000D03*
X140315000Y-87425000D03*
X139045000Y-87425000D03*
X137775000Y-87425000D03*
X136505000Y-87425000D03*
D52*
X202837363Y-115385170D03*
X203822211Y-113644458D03*
D53*
X153000000Y-71037500D03*
X153000000Y-68962500D03*
D54*
X195657380Y-74667777D03*
X196789731Y-74092729D03*
X197922083Y-73517681D03*
X199054434Y-72942633D03*
X200186785Y-72367585D03*
X201319137Y-71792536D03*
X202451488Y-71217488D03*
X203583840Y-70642440D03*
X201342510Y-66228945D03*
X200210159Y-66803993D03*
X199077807Y-67379041D03*
X197945456Y-67954089D03*
X196813105Y-68529137D03*
X195680753Y-69104186D03*
X194548402Y-69679234D03*
X193416050Y-70254282D03*
D55*
X110696179Y-109009301D03*
X110012139Y-107129915D03*
D25*
X135445655Y-121439074D03*
X137113657Y-122673332D03*
D56*
X160875000Y-65000000D03*
X159125000Y-65000000D03*
D57*
X140990698Y-40696179D03*
X142870084Y-40012139D03*
D58*
X125274201Y-50171127D03*
X126806289Y-48885551D03*
D38*
X173637361Y-52511953D03*
X171669589Y-51853545D03*
D59*
X112887852Y-107147419D03*
X114837714Y-106437727D03*
D17*
X193889230Y-116367363D03*
X195123488Y-114699361D03*
D60*
X183495000Y-87425000D03*
X182225000Y-87425000D03*
X180955000Y-87425000D03*
X179685000Y-87425000D03*
X178415000Y-87425000D03*
X177145000Y-87425000D03*
X175875000Y-87425000D03*
X174605000Y-87425000D03*
X174605000Y-92575000D03*
X175875000Y-92575000D03*
X177145000Y-92575000D03*
X178415000Y-92575000D03*
X179685000Y-92575000D03*
X180955000Y-92575000D03*
X182225000Y-92575000D03*
X183495000Y-92575000D03*
D61*
X142852580Y-42887852D03*
X143562272Y-44837714D03*
D62*
X185549975Y-43746145D03*
X187282025Y-44746145D03*
D63*
X184082610Y-125549201D03*
X185771900Y-124344243D03*
D64*
X179009301Y-139303820D03*
X177129915Y-139987860D03*
D22*
X135917389Y-54450798D03*
X134228099Y-55655756D03*
D65*
X187282024Y-135253854D03*
X185549974Y-136253854D03*
D66*
X193193710Y-48885551D03*
X194725798Y-50171127D03*
D39*
X200378537Y-104604505D03*
X201036945Y-102636733D03*
D67*
X184554344Y-58560925D03*
X182886342Y-57326667D03*
D68*
X127103694Y-52619795D03*
X125629140Y-53970975D03*
D63*
X182312627Y-123067777D03*
X184001917Y-121862819D03*
D69*
X134399452Y-60825732D03*
X133502633Y-59926502D03*
X132605814Y-59027272D03*
X131708995Y-58128041D03*
X130812176Y-57228811D03*
X129915357Y-56329580D03*
X129018537Y-55430350D03*
X128121718Y-54531119D03*
X124616844Y-58026596D03*
X125513663Y-58925826D03*
X126410482Y-59825056D03*
X127307301Y-60724287D03*
X128204120Y-61623517D03*
X129100939Y-62522748D03*
X129997759Y-63421978D03*
X130894578Y-64321209D03*
D70*
X113746145Y-64450024D03*
X114746145Y-62717974D03*
D71*
X201564378Y-118035528D03*
X199844126Y-116875202D03*
D72*
X177147419Y-137112147D03*
X176437727Y-135162285D03*
D73*
X142870084Y-139987860D03*
X140990698Y-139303820D03*
D74*
X153000000Y-74000000D03*
X153000000Y-76000000D03*
D75*
X132717975Y-44746145D03*
X134450025Y-43746145D03*
D76*
X179735127Y-135716204D03*
X181555049Y-134886818D03*
D77*
X122619795Y-122896305D03*
X123970975Y-124370859D03*
D78*
X131964471Y-131564378D03*
X133124797Y-129844126D03*
D43*
X145395494Y-130378537D03*
X147363266Y-131036945D03*
D79*
X167000000Y-68962500D03*
X167000000Y-71037500D03*
D80*
X197380204Y-57103694D03*
X196029024Y-55629140D03*
D81*
X205716204Y-70264872D03*
X204886818Y-68444950D03*
D82*
X195549201Y-65917389D03*
X194344243Y-64228099D03*
D83*
X209303820Y-70990698D03*
X209987860Y-72870084D03*
D84*
X120492529Y-120866619D03*
X122127651Y-119589121D03*
D85*
X126637088Y-70164627D03*
X125506285Y-69586540D03*
X124375482Y-69008453D03*
X123244679Y-68430367D03*
X122113876Y-67852280D03*
X120983072Y-67274193D03*
X119852269Y-66696107D03*
X118721466Y-66118020D03*
X116468294Y-70525481D03*
X117599097Y-71103568D03*
X118729900Y-71681655D03*
X119860703Y-72259741D03*
X120991506Y-72837828D03*
X122122310Y-73415915D03*
X123253113Y-73994001D03*
X124383916Y-74572088D03*
D86*
X114746145Y-117282025D03*
X113746145Y-115549975D03*
D87*
X189174267Y-64399452D03*
X190073497Y-63502633D03*
X190972727Y-62605814D03*
X191871958Y-61708995D03*
X192771188Y-60812176D03*
X193670419Y-59915357D03*
X194569649Y-59018537D03*
X195468880Y-58121718D03*
X191973403Y-54616844D03*
X191074173Y-55513663D03*
X190174943Y-56410482D03*
X189275712Y-57307301D03*
X188376482Y-58204120D03*
X187477251Y-59100939D03*
X186578021Y-59997759D03*
X185678790Y-60894578D03*
D82*
X193067777Y-67687372D03*
X191862819Y-65998082D03*
D88*
X201114448Y-123193710D03*
X199828872Y-124725798D03*
D89*
X130825732Y-115600547D03*
X129926502Y-116497366D03*
X129027272Y-117394185D03*
X128128041Y-118291004D03*
X127228811Y-119187823D03*
X126329580Y-120084642D03*
X125430350Y-120981462D03*
X124531119Y-121878281D03*
X128026596Y-125383155D03*
X128925826Y-124486336D03*
X129825056Y-123589517D03*
X130724287Y-122692698D03*
X131623517Y-121795879D03*
X132522748Y-120899060D03*
X133421978Y-120002240D03*
X134321209Y-119105421D03*
D90*
X207112147Y-72852580D03*
X205162285Y-73562272D03*
D91*
X153000000Y-65000000D03*
X155000000Y-65000000D03*
D67*
X186367363Y-56110769D03*
X184699361Y-54876511D03*
D92*
X118885551Y-56806289D03*
X120171127Y-55274201D03*
D93*
X118435621Y-61964471D03*
X120155873Y-63124797D03*
M02*
