%TF.GenerationSoftware,KiCad,Pcbnew,(6.0.4)*%
%TF.CreationDate,2022-11-02T15:12:15-07:00*%
%TF.ProjectId,PCB,5043422e-6b69-4636-9164-5f7063625858,rev?*%
%TF.SameCoordinates,Original*%
%TF.FileFunction,Soldermask,Bot*%
%TF.FilePolarity,Negative*%
%FSLAX46Y46*%
G04 Gerber Fmt 4.6, Leading zero omitted, Abs format (unit mm)*
G04 Created by KiCad (PCBNEW (6.0.4)) date 2022-11-02 15:12:15*
%MOMM*%
%LPD*%
G01*
G04 APERTURE LIST*
G04 Aperture macros list*
%AMRoundRect*
0 Rectangle with rounded corners*
0 $1 Rounding radius*
0 $2 $3 $4 $5 $6 $7 $8 $9 X,Y pos of 4 corners*
0 Add a 4 corners polygon primitive as box body*
4,1,4,$2,$3,$4,$5,$6,$7,$8,$9,$2,$3,0*
0 Add four circle primitives for the rounded corners*
1,1,$1+$1,$2,$3*
1,1,$1+$1,$4,$5*
1,1,$1+$1,$6,$7*
1,1,$1+$1,$8,$9*
0 Add four rect primitives between the rounded corners*
20,1,$1+$1,$2,$3,$4,$5,0*
20,1,$1+$1,$4,$5,$6,$7,0*
20,1,$1+$1,$6,$7,$8,$9,0*
20,1,$1+$1,$8,$9,$2,$3,0*%
G04 Aperture macros list end*
%ADD10C,4.100000*%
%ADD11C,7.400000*%
%ADD12C,2.800000*%
%ADD13C,2.550000*%
%ADD14RoundRect,0.250000X-0.600000X-0.725000X0.600000X-0.725000X0.600000X0.725000X-0.600000X0.725000X0*%
%ADD15O,1.700000X1.950000*%
%ADD16C,12.800000*%
%ADD17C,6.800000*%
G04 APERTURE END LIST*
D10*
X121900000Y-90000000D03*
D11*
X121900000Y-90000000D03*
D12*
X104751476Y-64237190D03*
D13*
X112117946Y-67672231D03*
D12*
X203105229Y-46894770D03*
D13*
X197357865Y-52642134D03*
D12*
X125034780Y-139935508D03*
D13*
X129696809Y-133277441D03*
D12*
X110064491Y-55034780D03*
D13*
X116722558Y-59696809D03*
D14*
X153750000Y-104000000D03*
D15*
X156250000Y-104000000D03*
X158750000Y-104000000D03*
X161250000Y-104000000D03*
X163750000Y-104000000D03*
X166250000Y-104000000D03*
D12*
X104751476Y-115762809D03*
D13*
X112117946Y-112327768D03*
D12*
X185762809Y-34751476D03*
D13*
X182327768Y-42117946D03*
D12*
X144222391Y-148882838D03*
D13*
X146326072Y-141031793D03*
D12*
X215248523Y-115762809D03*
D13*
X207882053Y-112327768D03*
D12*
X194965219Y-139935508D03*
D13*
X190303190Y-133277441D03*
D12*
X144222391Y-31117161D03*
D13*
X146326072Y-38968206D03*
D10*
X160000000Y-128100000D03*
D11*
X160000000Y-128100000D03*
D12*
X203105229Y-133105229D03*
D13*
X197357865Y-127357865D03*
D12*
X175777608Y-148882838D03*
D13*
X173673927Y-141031793D03*
D12*
X185762809Y-145248523D03*
D13*
X182327768Y-137882053D03*
D12*
X175777608Y-31117161D03*
D13*
X173673927Y-38968206D03*
D12*
X218882838Y-105777608D03*
D13*
X211031793Y-103673927D03*
D12*
X101117161Y-105777608D03*
D13*
X108968206Y-103673927D03*
D12*
X101117161Y-74222391D03*
D13*
X108968206Y-76326072D03*
D12*
X215248523Y-64237190D03*
D13*
X207882053Y-67672231D03*
D12*
X116894770Y-46894770D03*
D13*
X122642134Y-52642134D03*
D10*
X198100000Y-90000000D03*
D11*
X198100000Y-90000000D03*
D12*
X134237190Y-34751476D03*
D13*
X137672231Y-42117946D03*
D12*
X134237190Y-145248523D03*
D13*
X137672231Y-137882053D03*
D12*
X209935508Y-55034780D03*
D13*
X203277441Y-59696809D03*
D12*
X116894770Y-133105229D03*
D13*
X122642134Y-127357865D03*
D12*
X194965219Y-40064491D03*
D13*
X190303190Y-46722558D03*
D10*
X160000000Y-51900000D03*
D11*
X160000000Y-51900000D03*
D12*
X218882838Y-74222391D03*
D13*
X211031793Y-76326072D03*
D16*
X160000000Y-90000000D03*
D17*
X160000000Y-90000000D03*
D12*
X110064491Y-124965219D03*
D13*
X116722558Y-120303190D03*
D12*
X209935508Y-124965219D03*
D13*
X203277441Y-120303190D03*
D12*
X125034780Y-40064491D03*
D13*
X129696809Y-46722558D03*
M02*
