M48
; DRILL file {KiCad 8.0.0} date 2024-02-27T15:33:35-0800
; FORMAT={-:-/ absolute / inch / decimal}
; #@! TF.CreationDate,2024-02-27T15:33:35-08:00
; #@! TF.GenerationSoftware,Kicad,Pcbnew,8.0.0
; #@! TF.FileFunction,Plated,1,4,PTH
FMAT,2
INCH
; #@! TA.AperFunction,Plated,PTH,ViaDrill
T1C0.0118
; #@! TA.AperFunction,Plated,PTH,ComponentDrill
T2C0.0374
; #@! TA.AperFunction,Plated,PTH,ComponentDrill
T3C0.0394
; #@! TA.AperFunction,Plated,PTH,ComponentDrill
T4C0.1260
; #@! TA.AperFunction,Plated,PTH,ComponentDrill
T5C0.1457
%
G90
G05
T1
X4.6Y-3.0
X4.6Y-3.9
X4.6Y-4.0
X4.7Y-2.8
X4.7Y-4.2
X4.7Y-4.3
X4.8Y-2.7
X4.8Y-2.9
X4.8Y-3.1
X4.8Y-3.2
X4.8Y-4.5
X4.9Y-2.6
X4.9Y-3.8
X4.9Y-4.1
X4.9Y-4.3
X4.9Y-4.6
X5.0Y-2.4
X5.0Y-2.6
X5.0Y-2.7
X5.0Y-3.0
X5.0Y-3.6
X5.0Y-4.0931
X5.0Y-4.3
X5.0Y-4.4
X5.1Y-2.4
X5.1Y-2.7
X5.1Y-4.7
X5.2Y-2.2
X5.2Y-2.4
X5.2Y-2.5
X5.2Y-4.0
X5.2Y-4.4
X5.2Y-4.6
X5.2Y-4.9
X5.3Y-2.5
X5.3Y-3.0
X5.3Y-3.1
X5.3Y-3.2
X5.3Y-4.5
X5.3Y-4.8
X5.3Y-5.0
X5.4Y-2.1
X5.4Y-4.2
X5.4Y-4.3
X5.4Y-4.7
X5.4Y-4.8
X5.4Y-5.1
X5.5Y-2.0
X5.5Y-2.1
X5.5Y-2.2
X5.5Y-2.7
X5.5Y-2.8
X5.5Y-4.2
X5.6Y-2.3
X5.6Y-3.1
X5.6Y-4.3
X5.6Y-4.8
X5.6Y-5.2
X5.7Y-2.0
X5.7Y-2.1
X5.7Y-2.7
X5.7Y-4.9
X5.7Y-5.0
X5.8Y-1.8
X5.8Y-3.2
X5.8Y-4.6
X5.8Y-5.2
X5.9Y-1.8
X5.9Y-2.6
X5.9Y-2.8
X5.9Y-3.0
X5.9Y-3.2
X5.9Y-4.5
X5.9Y-5.0
X5.9Y-5.1
X6.0Y-2.2
X6.0Y-2.6
X6.0Y-2.8
X6.0Y-3.1
X6.0Y-4.2
X6.1Y-2.1
X6.1Y-2.5
X6.1Y-2.8
X6.1Y-3.1
X6.1Y-3.2
X6.1Y-4.3
X6.1Y-4.4
X6.1Y-4.5
X6.1Y-4.6
X6.2Y-2.4
X6.2951Y-2.5951
X6.3Y-2.3
X6.3Y-2.5
X6.3Y-2.7
X6.3Y-2.8
X6.3Y-3.2
X6.3Y-4.5
X6.3Y-4.6
X6.3Y-4.8
X6.4Y-2.9
X6.4Y-3.0
X6.4Y-3.2
X6.4Y-4.2
X6.5Y-2.6
X6.5Y-2.9
X6.5Y-3.0
X6.5Y-3.2
X6.5Y-3.3
X6.5Y-4.6
X6.5Y-5.0
X6.6Y-2.7
X6.6Y-4.9
X6.6Y-5.2
X6.7Y-2.0
X6.7Y-2.1
X6.7Y-2.5
X6.7Y-2.9
X6.7Y-3.0
X6.7Y-4.2
X6.7Y-4.3
X6.8Y-2.6
X6.8Y-4.5
X6.8Y-5.3
X6.9Y-1.9
X6.9Y-2.1
X6.9Y-2.2
X6.9Y-5.0
X6.9Y-5.2
X7.0Y-1.9
X7.0Y-2.3
X7.0Y-2.7
X7.0Y-2.9
X7.0Y-4.8
X7.1Y-2.8
X7.1Y-2.9
X7.1Y-4.2
X7.1Y-4.4
X7.1Y-4.8
X7.1Y-4.9
X7.1Y-5.1
X7.2Y-2.0
X7.2Y-2.1
X7.2Y-2.3
X7.2Y-2.4
X7.2Y-3.4
X7.2Y-3.9
X7.2Y-5.0
X7.2976Y-4.5976
X7.3Y-2.3
X7.3Y-3.1
X7.3Y-3.9
X7.3Y-4.0
X7.4Y-2.2
X7.4Y-2.7
X7.4Y-4.6
X7.4Y-4.7
X7.4Y-4.9
X7.5Y-2.3
X7.5Y-2.4
X7.5Y-4.4
X7.5Y-4.5
X7.5Y-4.7
X7.6Y-2.7
X7.6Y-2.8
X7.6Y-3.0
X7.6Y-3.5
X7.6Y-4.1
X7.6Y-4.4
X7.6Y-4.5
X7.6Y-4.6
X7.7Y-2.5
X7.7Y-2.8
X7.7Y-3.0
X7.7Y-3.3
X7.7Y-4.1
X7.8Y-2.6
X7.8Y-3.9
X7.8Y-4.2
X7.8Y-4.4
X7.9Y-2.8
X7.9Y-2.9
X7.9Y-3.9
X7.9Y-4.0
X7.9Y-4.2
X8.0Y-3.1
X8.0Y-3.2
T2
X6.0094Y-4.0
X6.1079Y-4.0
X6.2063Y-4.0
X6.3047Y-4.0
X6.4031Y-4.0
X6.5016Y-4.0
X6.6Y-4.0
T3
X5.6451Y-3.5902
X5.6996Y-3.4784
X5.7541Y-3.5902
X5.8087Y-3.4784
X5.8632Y-3.5902
X5.9177Y-3.4784
X5.9722Y-3.5902
X6.0268Y-3.4784
X6.0813Y-3.5902
X6.1358Y-3.4784
X6.1904Y-3.5902
X6.2449Y-3.4784
X6.2994Y-3.5902
X6.3539Y-3.4784
X6.4085Y-3.5902
X6.463Y-3.4784
X6.5175Y-3.5902
X6.572Y-3.4784
X6.6266Y-3.5902
X6.6811Y-3.4784
X6.7356Y-3.5902
X6.7902Y-3.4784
X6.8447Y-3.5902
X6.8992Y-3.4784
X6.9537Y-3.5902
T4
X5.3722Y-3.5343
X7.2266Y-3.5343
T5
X4.5492Y-3.5433
X6.2992Y-1.7933
X6.2992Y-5.2933
X8.0492Y-3.5433
M30
