M48
; DRILL file {KiCad (6.0.4)} date Wed Nov  2 15:13:37 2022
; FORMAT={-:-/ absolute / metric / decimal}
; #@! TF.CreationDate,2022-11-02T15:13:37-07:00
; #@! TF.GenerationSoftware,Kicad,Pcbnew,(6.0.4)
; #@! TF.FileFunction,Plated,1,2,PTH
FMAT,2
METRIC
; #@! TA.AperFunction,Plated,PTH,ViaDrill
T1C0.400
; #@! TA.AperFunction,Plated,PTH,ViaDrill
T2C0.700
; #@! TA.AperFunction,Plated,PTH,ComponentDrill
T3C0.950
; #@! TA.AperFunction,Plated,PTH,ComponentDrill
T4C1.000
; #@! TA.AperFunction,Plated,PTH,ComponentDrill
T5C3.700
; #@! TA.AperFunction,Plated,PTH,ComponentDrill
T6C6.400
%
G90
G05
T1
X117.475Y-74.041
X121.412Y-115.443
X123.317Y-102.489
X124.714Y-61.722
X124.968Y-76.962
X127.254Y-75.362
X127.432Y-105.486
X128.778Y-69.85
X129.159Y-79.781
X129.54Y-109.982
X130.683Y-66.802
X131.699Y-113.538
X131.699Y-125.73
X131.953Y-100.965
X133.96Y-114.859
X135.382Y-52.07
X135.433Y-65.151
X136.525Y-60.96
X137.287Y-85.471
X137.287Y-118.491
X137.668Y-98.044
X139.0Y-132.0
X139.192Y-96.012
X140.462Y-121.539
X141.351Y-58.928
X142.824Y-82.042
X142.875Y-111.633
X143.256Y-133.985
X144.932Y-58.42
X145.923Y-55.753
X147.32Y-124.206
X150.47Y-98.933
X152.908Y-97.663
X152.984Y-67.234
X153.416Y-110.617
X155.702Y-112.903
X156.82Y-68.961
X160.0Y-71.0
X160.0Y-100.0
X164.414Y-98.933
X166.624Y-98.171
X172.593Y-54.864
X173.736Y-123.571
X174.625Y-96.901
X174.625Y-111.633
X175.895Y-122.098
X176.327Y-57.455
X176.53Y-46.482
X176.733Y-43.002
X177.033Y-110.744
X178.435Y-73.533
X179.603Y-118.339
X179.832Y-66.04
X180.137Y-112.903
X180.213Y-120.523
X180.467Y-58.674
X180.975Y-71.552
X180.975Y-95.758
X181.737Y-68.428
X182.245Y-99.822
X182.88Y-94.615
X183.261Y-60.198
X183.261Y-97.028
X183.312Y-104.47
X183.515Y-117.602
X183.769Y-44.399
X184.531Y-97.917
X185.293Y-128.27
X185.471Y-64.719
X185.496Y-115.138
X186.436Y-98.933
X188.468Y-112.649
X188.595Y-101.092
X189.23Y-66.548
X190.246Y-53.213
X191.008Y-69.088
X191.135Y-108.839
X192.151Y-73.533
X193.675Y-75.565
X194.818Y-102.489
X196.088Y-119.126
X198.755Y-64.897
X203.073Y-106.68
T2
X101.975Y-80.775
X107.95Y-82.804
X122.834Y-84.328
X123.088Y-96.52
X133.502Y-66.548
X133.655Y-73.508
X134.874Y-106.629
X135.128Y-116.992
X138.43Y-63.144
X139.852Y-78.181
X142.697Y-96.063
X143.459Y-114.96
X146.05Y-105.207
X146.761Y-67.92
X147.828Y-95.86
X148.133Y-85.242
X150.622Y-35.458
X150.65Y-147.6
X150.825Y-137.363
X150.927Y-44.298
X151.028Y-115.316
X151.384Y-54.712
X151.79Y-121.361
X153.873Y-83.566
X156.769Y-108.712
X157.378Y-117.856
X166.014Y-54.712
X166.522Y-116.789
X167.132Y-141.986
X167.64Y-95.199
X168.859Y-135.433
X169.062Y-35.255
X169.469Y-147.676
X172.0Y-82.0
X172.161Y-116.281
X172.517Y-106.07
X177.521Y-114.732
X179.07Y-102.921
X183.185Y-63.144
X183.744Y-71.018
X186.08Y-77.47
X186.08Y-108.153
X186.131Y-113.03
X186.487Y-93.929
X186.538Y-88.189
X187.096Y-66.599
X189.382Y-105.308
X194.005Y-82.296
X194.513Y-97.79
X204.013Y-80.366
X205.334Y-98.908
X217.322Y-80.67
X217.78Y-99.873
T3
X153.75Y-104.0
X156.25Y-104.0
X158.75Y-104.0
X161.25Y-104.0
X163.75Y-104.0
X166.25Y-104.0
T4
X108.968Y-76.326
X108.968Y-103.674
X112.118Y-67.672
X112.118Y-112.328
X116.723Y-59.697
X116.723Y-120.303
X122.642Y-52.642
X122.642Y-127.358
X129.697Y-46.723
X129.697Y-133.277
X137.672Y-42.118
X137.672Y-137.882
X146.326Y-38.968
X146.326Y-141.032
X173.674Y-38.968
X173.674Y-141.032
X182.328Y-42.118
X182.328Y-137.882
X190.303Y-46.723
X190.303Y-133.277
X197.358Y-52.642
X197.358Y-127.358
X203.277Y-59.697
X203.277Y-120.303
X207.882Y-67.672
X207.882Y-112.328
X211.032Y-76.326
X211.032Y-103.674
T5
X121.9Y-90.0
X160.0Y-51.9
X160.0Y-128.1
X198.1Y-90.0
T6
X160.0Y-90.0
T0
M30
