%TF.GenerationSoftware,KiCad,Pcbnew,8.0.0*%
%TF.CreationDate,2024-03-11T20:15:50-07:00*%
%TF.ProjectId,PCB,5043422e-6b69-4636-9164-5f7063625858,rev?*%
%TF.SameCoordinates,Original*%
%TF.FileFunction,Legend,Bot*%
%TF.FilePolarity,Positive*%
%FSLAX46Y46*%
G04 Gerber Fmt 4.6, Leading zero omitted, Abs format (unit mm)*
G04 Created by KiCad (PCBNEW 8.0.0) date 2024-03-11 20:15:50*
%MOMM*%
%LPD*%
G01*
G04 APERTURE LIST*
G04 Aperture macros list*
%AMRoundRect*
0 Rectangle with rounded corners*
0 $1 Rounding radius*
0 $2 $3 $4 $5 $6 $7 $8 $9 X,Y pos of 4 corners*
0 Add a 4 corners polygon primitive as box body*
4,1,4,$2,$3,$4,$5,$6,$7,$8,$9,$2,$3,0*
0 Add four circle primitives for the rounded corners*
1,1,$1+$1,$2,$3*
1,1,$1+$1,$4,$5*
1,1,$1+$1,$6,$7*
1,1,$1+$1,$8,$9*
0 Add four rect primitives between the rounded corners*
20,1,$1+$1,$2,$3,$4,$5,0*
20,1,$1+$1,$4,$5,$6,$7,0*
20,1,$1+$1,$6,$7,$8,$9,0*
20,1,$1+$1,$8,$9,$2,$3,0*%
G04 Aperture macros list end*
%ADD10C,0.150000*%
%ADD11C,0.120000*%
%ADD12C,4.100000*%
%ADD13C,7.400000*%
%ADD14RoundRect,0.250000X0.600000X0.725000X-0.600000X0.725000X-0.600000X-0.725000X0.600000X-0.725000X0*%
%ADD15O,1.700000X1.950000*%
G04 APERTURE END LIST*
D10*
X249253333Y-131794819D02*
X249253333Y-132509104D01*
X249253333Y-132509104D02*
X249300952Y-132651961D01*
X249300952Y-132651961D02*
X249396190Y-132747200D01*
X249396190Y-132747200D02*
X249539047Y-132794819D01*
X249539047Y-132794819D02*
X249634285Y-132794819D01*
X248253333Y-132794819D02*
X248824761Y-132794819D01*
X248539047Y-132794819D02*
X248539047Y-131794819D01*
X248539047Y-131794819D02*
X248634285Y-131937676D01*
X248634285Y-131937676D02*
X248729523Y-132032914D01*
X248729523Y-132032914D02*
X248824761Y-132080533D01*
D11*
X238860000Y-133430000D02*
X238860000Y-139400000D01*
X238860000Y-139400000D02*
X258980000Y-139400000D01*
X238870000Y-133440000D02*
X238870000Y-134190000D01*
X238870000Y-134190000D02*
X240670000Y-134190000D01*
X239620000Y-135690000D02*
X238870000Y-135690000D01*
X239620000Y-138640000D02*
X239620000Y-135690000D01*
X240670000Y-133440000D02*
X238870000Y-133440000D01*
X240670000Y-134190000D02*
X240670000Y-133440000D01*
X242170000Y-133440000D02*
X242170000Y-134190000D01*
X242170000Y-134190000D02*
X255670000Y-134190000D01*
X248920000Y-138640000D02*
X239620000Y-138640000D01*
X248920000Y-138640000D02*
X258220000Y-138640000D01*
X255670000Y-133440000D02*
X242170000Y-133440000D01*
X255670000Y-134190000D02*
X255670000Y-133440000D01*
X257170000Y-133440000D02*
X257170000Y-134190000D01*
X257170000Y-134190000D02*
X258970000Y-134190000D01*
X258220000Y-135690000D02*
X258970000Y-135690000D01*
X258220000Y-138640000D02*
X258220000Y-135690000D01*
X258970000Y-133440000D02*
X257170000Y-133440000D01*
X258970000Y-134190000D02*
X258970000Y-133440000D01*
X258980000Y-133430000D02*
X238860000Y-133430000D01*
X258980000Y-139400000D02*
X258980000Y-133430000D01*
X259270000Y-133140000D02*
X258020000Y-133140000D01*
X259270000Y-134390000D02*
X259270000Y-133140000D01*
%LPC*%
D12*
X275900000Y-152400000D03*
D13*
X275900000Y-152400000D03*
D12*
X215900000Y-92400000D03*
D13*
X215900000Y-92400000D03*
D12*
X215900000Y-152400000D03*
D13*
X215900000Y-152400000D03*
D12*
X275900000Y-92400000D03*
D13*
X275900000Y-92400000D03*
D14*
X256420000Y-135890000D03*
D15*
X253920000Y-135890000D03*
X251420000Y-135890000D03*
X248920000Y-135890000D03*
X246420000Y-135890000D03*
X243920000Y-135890000D03*
X241420000Y-135890000D03*
%LPD*%
M02*
