M48
; DRILL file {KiCad 8.0.0} date 2024-03-11T20:15:45-0700
; FORMAT={-:-/ absolute / inch / decimal}
; #@! TF.CreationDate,2024-03-11T20:15:45-07:00
; #@! TF.GenerationSoftware,Kicad,Pcbnew,8.0.0
; #@! TF.FileFunction,Plated,1,4,PTH
FMAT,2
INCH
; #@! TA.AperFunction,Plated,PTH,ViaDrill
T1C0.0118
; #@! TA.AperFunction,Plated,PTH,ViaDrill
T2C0.0157
; #@! TA.AperFunction,Plated,PTH,ComponentDrill
T3C0.0374
; #@! TA.AperFunction,Plated,PTH,ComponentDrill
T4C0.1457
%
G90
G05
T1
X8.4Y-5.0
X8.45Y-3.8
X8.5Y-4.15
X8.5Y-4.35
X8.5Y-4.45
X8.5Y-5.0
X8.5Y-5.55
X8.55Y-4.15
X8.55Y-4.8
X8.55Y-5.2
X8.6Y-3.95
X8.6Y-4.15
X8.6Y-4.35
X8.6Y-4.8
X8.6Y-5.15
X8.6Y-5.35
X8.6Y-5.6
X8.65Y-3.95
X8.65Y-4.6
X8.65Y-4.8
X8.65Y-5.0
X8.7Y-3.7
X8.7Y-4.8
X8.7Y-5.35
X8.75Y-6.0
X8.8Y-5.75
X8.8Y-5.9
X8.85Y-4.85
X8.85Y-5.25
X8.85Y-5.4
X8.9Y-3.9
X8.9Y-5.2
X8.95Y-3.7
X8.95Y-4.1
X8.95Y-4.4
X8.95Y-4.7
X8.95Y-5.05
X8.95Y-5.6
X8.95Y-5.65
X9.0Y-4.15
X9.0Y-4.35
X9.0Y-5.35
X9.0Y-5.4
X9.025Y-5.225
X9.025Y-5.825
X9.05Y-3.7
X9.05Y-4.6
X9.05Y-4.95
X9.05Y-5.9
X9.05Y-6.0
X9.1Y-3.55
X9.1Y-4.1
X9.1Y-5.1
X9.1Y-5.6
X9.15Y-4.25
X9.2Y-5.1
X9.2Y-5.2
X9.2Y-5.3
X9.2Y-5.45
X9.25Y-3.75
X9.25Y-4.4
X9.25Y-4.85
X9.25Y-5.25
X9.25Y-5.4
X9.25Y-5.85
X9.25Y-5.95
X9.3Y-3.5685
X9.3Y-3.6
X9.3Y-3.7
X9.3Y-4.05
X9.3Y-4.3
X9.3Y-5.55
X9.35Y-4.2
X9.35Y-4.25
X9.35Y-5.35
X9.35Y-5.55
X9.35Y-5.9
X9.375Y-5.2472
X9.4Y-4.4
X9.4Y-5.1
X9.4Y-5.3
X9.4358Y-5.5
X9.45Y-3.65
X9.45Y-3.75
X9.45Y-5.15
X9.45Y-5.25
X9.472Y-5.078
X9.4764Y-5.2236
X9.5Y-4.2
X9.5Y-4.4
X9.5Y-4.5
X9.5Y-4.6
X9.55Y-3.6
X9.55Y-3.95
X9.55Y-4.4
X9.55Y-5.15
X9.6Y-3.55
X9.6Y-5.55
X9.6Y-5.8
X9.6Y-5.85
X9.65Y-4.15
X9.6623Y-4.3736
X9.6859Y-4.3264
X9.6907Y-4.484
X9.7Y-4.1
X9.7Y-5.6
X9.7315Y-4.55
X9.75Y-5.1
X9.75Y-5.2
X9.7597Y-4.3264
X9.8Y-3.6
X9.8Y-3.75
X9.8Y-4.2315
X9.8Y-4.4
X9.8Y-4.55
X9.8008Y-5.8012
X9.825Y-5.975
X9.85Y-4.15
X9.85Y-5.15
X9.85Y-5.5
X9.85Y-5.9
X9.854Y-4.554
X9.8913Y-4.55
X9.9Y-4.05
X9.9Y-4.4
X9.9Y-5.1
X9.925Y-4.525
X9.95Y-3.7
X9.95Y-4.15
X9.95Y-5.2
X10.0Y-4.2
X10.0Y-4.35
X10.0Y-4.5
X10.0Y-4.55
X10.0416Y-4.1584
X10.05Y-4.05
X10.05Y-6.0
X10.1Y-3.45
X10.1Y-5.55
X10.1Y-5.9
X10.15Y-3.7
X10.151Y-3.55
X10.2Y-4.6
X10.2Y-4.75
X10.2Y-4.85
X10.2Y-5.3
X10.2Y-5.85
X10.2031Y-4.2384
X10.225Y-5.875
X10.25Y-4.05
X10.3Y-3.7
X10.3Y-4.1
X10.3Y-4.6
X10.3Y-4.75
X10.3Y-5.4
X10.3Y-5.6
X10.35Y-3.58
X10.35Y-3.95
X10.35Y-5.0
X10.375Y-5.825
X10.375Y-5.975
X10.4Y-4.2
X10.4Y-4.3
X10.4Y-4.4
X10.45Y-3.9
X10.45Y-4.55
X10.45Y-5.1
X10.4687Y-4.0
X10.5Y-3.7
X10.5Y-3.75
X10.5Y-4.2
X10.5Y-4.75
X10.5Y-4.85
X10.5Y-5.3
X10.5Y-5.45
X10.55Y-4.35
X10.55Y-5.1
X10.6Y-5.85
X10.6Y-6.0
X10.65Y-3.5
X10.65Y-5.55
X10.7Y-5.55
X10.725Y-4.825
X10.725Y-5.4
X10.75Y-4.4
X10.75Y-5.15
X10.775Y-5.35
X10.8Y-4.05
X10.8Y-4.25
X10.8Y-4.45
X10.8Y-4.6
X10.8Y-4.75
X10.8Y-4.8
X10.8Y-4.95
X10.8Y-5.0
X10.8Y-5.55
X10.8Y-5.7
X10.85Y-5.35
X10.875Y-4.275
X10.875Y-5.385
X10.8777Y-5.1723
X10.89Y-4.02
X10.9Y-5.15
X10.9Y-5.7
X10.917Y-4.617
X11.0Y-4.55
T2
X9.5Y-4.05
X9.6Y-5.9
X9.6Y-6.15
X9.7Y-4.575
X9.875Y-3.9
X10.2Y-4.4
T3
X9.5047Y-5.35
X9.6031Y-5.35
X9.7016Y-5.35
X9.8Y-5.35
X9.8984Y-5.35
X9.9969Y-5.35
X10.0953Y-5.35
T4
X8.5Y-3.6378
X8.5Y-6.0
X10.8622Y-3.6378
X10.8622Y-6.0
M30
