%TF.GenerationSoftware,KiCad,Pcbnew,8.0.1-rc1*%
%TF.CreationDate,2024-04-13T15:11:29-07:00*%
%TF.ProjectId,PCB,5043422e-6b69-4636-9164-5f7063625858,rev?*%
%TF.SameCoordinates,Original*%
%TF.FileFunction,Soldermask,Top*%
%TF.FilePolarity,Negative*%
%FSLAX46Y46*%
G04 Gerber Fmt 4.6, Leading zero omitted, Abs format (unit mm)*
G04 Created by KiCad (PCBNEW 8.0.1-rc1) date 2024-04-13 15:11:29*
%MOMM*%
%LPD*%
G01*
G04 APERTURE LIST*
G04 Aperture macros list*
%AMRoundRect*
0 Rectangle with rounded corners*
0 $1 Rounding radius*
0 $2 $3 $4 $5 $6 $7 $8 $9 X,Y pos of 4 corners*
0 Add a 4 corners polygon primitive as box body*
4,1,4,$2,$3,$4,$5,$6,$7,$8,$9,$2,$3,0*
0 Add four circle primitives for the rounded corners*
1,1,$1+$1,$2,$3*
1,1,$1+$1,$4,$5*
1,1,$1+$1,$6,$7*
1,1,$1+$1,$8,$9*
0 Add four rect primitives between the rounded corners*
20,1,$1+$1,$2,$3,$4,$5,0*
20,1,$1+$1,$4,$5,$6,$7,0*
20,1,$1+$1,$6,$7,$8,$9,0*
20,1,$1+$1,$8,$9,$2,$3,0*%
G04 Aperture macros list end*
%ADD10C,0.010000*%
%ADD11RoundRect,0.237500X0.287500X0.237500X-0.287500X0.237500X-0.287500X-0.237500X0.287500X-0.237500X0*%
%ADD12RoundRect,0.237500X-0.237500X0.250000X-0.237500X-0.250000X0.237500X-0.250000X0.237500X0.250000X0*%
%ADD13R,1.000000X1.000000*%
%ADD14RoundRect,0.150000X-0.725000X-0.150000X0.725000X-0.150000X0.725000X0.150000X-0.725000X0.150000X0*%
%ADD15RoundRect,0.237500X-0.250000X-0.237500X0.250000X-0.237500X0.250000X0.237500X-0.250000X0.237500X0*%
%ADD16RoundRect,0.150000X-0.150000X0.825000X-0.150000X-0.825000X0.150000X-0.825000X0.150000X0.825000X0*%
%ADD17RoundRect,0.237500X0.300000X0.237500X-0.300000X0.237500X-0.300000X-0.237500X0.300000X-0.237500X0*%
%ADD18RoundRect,0.237500X0.250000X0.237500X-0.250000X0.237500X-0.250000X-0.237500X0.250000X-0.237500X0*%
%ADD19RoundRect,0.150000X-0.825000X-0.150000X0.825000X-0.150000X0.825000X0.150000X-0.825000X0.150000X0*%
%ADD20RoundRect,0.237500X0.237500X-0.300000X0.237500X0.300000X-0.237500X0.300000X-0.237500X-0.300000X0*%
%ADD21RoundRect,0.237500X-0.237500X0.300000X-0.237500X-0.300000X0.237500X-0.300000X0.237500X0.300000X0*%
%ADD22C,4.100000*%
%ADD23C,7.400000*%
%ADD24RoundRect,0.150000X0.150000X-0.825000X0.150000X0.825000X-0.150000X0.825000X-0.150000X-0.825000X0*%
%ADD25RoundRect,0.237500X-0.300000X-0.237500X0.300000X-0.237500X0.300000X0.237500X-0.300000X0.237500X0*%
%ADD26RoundRect,0.150000X0.825000X0.150000X-0.825000X0.150000X-0.825000X-0.150000X0.825000X-0.150000X0*%
%ADD27RoundRect,0.237500X0.237500X-0.250000X0.237500X0.250000X-0.237500X0.250000X-0.237500X-0.250000X0*%
%ADD28RoundRect,0.075000X-0.650000X-0.075000X0.650000X-0.075000X0.650000X0.075000X-0.650000X0.075000X0*%
%ADD29R,1.680000X1.880000*%
%ADD30RoundRect,0.250000X-0.600000X-0.725000X0.600000X-0.725000X0.600000X0.725000X-0.600000X0.725000X0*%
%ADD31O,1.700000X1.950000*%
G04 APERTURE END LIST*
D10*
X237716200Y-124396200D02*
X236563800Y-124396200D01*
X236563800Y-119443800D01*
X237716200Y-119443800D01*
X237716200Y-124396200D01*
G36*
X237716200Y-124396200D02*
G01*
X236563800Y-124396200D01*
X236563800Y-119443800D01*
X237716200Y-119443800D01*
X237716200Y-124396200D01*
G37*
X239816200Y-120456200D02*
X238863800Y-120456200D01*
X238863800Y-118703800D01*
X239816200Y-118703800D01*
X239816200Y-120456200D01*
G36*
X239816200Y-120456200D02*
G01*
X238863800Y-120456200D01*
X238863800Y-118703800D01*
X239816200Y-118703800D01*
X239816200Y-120456200D01*
G37*
X239816200Y-127846200D02*
X238863800Y-127846200D01*
X238863800Y-126093800D01*
X239816200Y-126093800D01*
X239816200Y-127846200D01*
G36*
X239816200Y-127846200D02*
G01*
X238863800Y-127846200D01*
X238863800Y-126093800D01*
X239816200Y-126093800D01*
X239816200Y-127846200D01*
G37*
X241066200Y-120456200D02*
X240113800Y-120456200D01*
X240113800Y-118703800D01*
X241066200Y-118703800D01*
X241066200Y-120456200D01*
G36*
X241066200Y-120456200D02*
G01*
X240113800Y-120456200D01*
X240113800Y-118703800D01*
X241066200Y-118703800D01*
X241066200Y-120456200D01*
G37*
X241066200Y-127846200D02*
X240113800Y-127846200D01*
X240113800Y-126093800D01*
X241066200Y-126093800D01*
X241066200Y-127846200D01*
G36*
X241066200Y-127846200D02*
G01*
X240113800Y-127846200D01*
X240113800Y-126093800D01*
X241066200Y-126093800D01*
X241066200Y-127846200D01*
G37*
X242316200Y-120456200D02*
X241363800Y-120456200D01*
X241363800Y-118703800D01*
X242316200Y-118703800D01*
X242316200Y-120456200D01*
G36*
X242316200Y-120456200D02*
G01*
X241363800Y-120456200D01*
X241363800Y-118703800D01*
X242316200Y-118703800D01*
X242316200Y-120456200D01*
G37*
X242316200Y-127846200D02*
X241363800Y-127846200D01*
X241363800Y-126093800D01*
X242316200Y-126093800D01*
X242316200Y-127846200D01*
G36*
X242316200Y-127846200D02*
G01*
X241363800Y-127846200D01*
X241363800Y-126093800D01*
X242316200Y-126093800D01*
X242316200Y-127846200D01*
G37*
X243566200Y-120456200D02*
X242613800Y-120456200D01*
X242613800Y-118703800D01*
X243566200Y-118703800D01*
X243566200Y-120456200D01*
G36*
X243566200Y-120456200D02*
G01*
X242613800Y-120456200D01*
X242613800Y-118703800D01*
X243566200Y-118703800D01*
X243566200Y-120456200D01*
G37*
X243566200Y-127846200D02*
X242613800Y-127846200D01*
X242613800Y-126093800D01*
X243566200Y-126093800D01*
X243566200Y-127846200D01*
G36*
X243566200Y-127846200D02*
G01*
X242613800Y-127846200D01*
X242613800Y-126093800D01*
X243566200Y-126093800D01*
X243566200Y-127846200D01*
G37*
X244816200Y-120456200D02*
X243863800Y-120456200D01*
X243863800Y-118703800D01*
X244816200Y-118703800D01*
X244816200Y-120456200D01*
G36*
X244816200Y-120456200D02*
G01*
X243863800Y-120456200D01*
X243863800Y-118703800D01*
X244816200Y-118703800D01*
X244816200Y-120456200D01*
G37*
X244816200Y-127846200D02*
X243863800Y-127846200D01*
X243863800Y-126093800D01*
X244816200Y-126093800D01*
X244816200Y-127846200D01*
G36*
X244816200Y-127846200D02*
G01*
X243863800Y-127846200D01*
X243863800Y-126093800D01*
X244816200Y-126093800D01*
X244816200Y-127846200D01*
G37*
X246066200Y-120456200D02*
X245113800Y-120456200D01*
X245113800Y-118703800D01*
X246066200Y-118703800D01*
X246066200Y-120456200D01*
G36*
X246066200Y-120456200D02*
G01*
X245113800Y-120456200D01*
X245113800Y-118703800D01*
X246066200Y-118703800D01*
X246066200Y-120456200D01*
G37*
X246066200Y-127846200D02*
X245113800Y-127846200D01*
X245113800Y-126093800D01*
X246066200Y-126093800D01*
X246066200Y-127846200D01*
G36*
X246066200Y-127846200D02*
G01*
X245113800Y-127846200D01*
X245113800Y-126093800D01*
X246066200Y-126093800D01*
X246066200Y-127846200D01*
G37*
X247316200Y-120456200D02*
X246363800Y-120456200D01*
X246363800Y-118703800D01*
X247316200Y-118703800D01*
X247316200Y-120456200D01*
G36*
X247316200Y-120456200D02*
G01*
X246363800Y-120456200D01*
X246363800Y-118703800D01*
X247316200Y-118703800D01*
X247316200Y-120456200D01*
G37*
X247316200Y-127846200D02*
X246363800Y-127846200D01*
X246363800Y-126093800D01*
X247316200Y-126093800D01*
X247316200Y-127846200D01*
G36*
X247316200Y-127846200D02*
G01*
X246363800Y-127846200D01*
X246363800Y-126093800D01*
X247316200Y-126093800D01*
X247316200Y-127846200D01*
G37*
X248566200Y-120456200D02*
X247613800Y-120456200D01*
X247613800Y-118703800D01*
X248566200Y-118703800D01*
X248566200Y-120456200D01*
G36*
X248566200Y-120456200D02*
G01*
X247613800Y-120456200D01*
X247613800Y-118703800D01*
X248566200Y-118703800D01*
X248566200Y-120456200D01*
G37*
X248566200Y-127846200D02*
X247613800Y-127846200D01*
X247613800Y-126093800D01*
X248566200Y-126093800D01*
X248566200Y-127846200D01*
G36*
X248566200Y-127846200D02*
G01*
X247613800Y-127846200D01*
X247613800Y-126093800D01*
X248566200Y-126093800D01*
X248566200Y-127846200D01*
G37*
X249816200Y-120456200D02*
X248863800Y-120456200D01*
X248863800Y-118703800D01*
X249816200Y-118703800D01*
X249816200Y-120456200D01*
G36*
X249816200Y-120456200D02*
G01*
X248863800Y-120456200D01*
X248863800Y-118703800D01*
X249816200Y-118703800D01*
X249816200Y-120456200D01*
G37*
X249816200Y-127846200D02*
X248863800Y-127846200D01*
X248863800Y-126093800D01*
X249816200Y-126093800D01*
X249816200Y-127846200D01*
G36*
X249816200Y-127846200D02*
G01*
X248863800Y-127846200D01*
X248863800Y-126093800D01*
X249816200Y-126093800D01*
X249816200Y-127846200D01*
G37*
X251066200Y-120456200D02*
X250113800Y-120456200D01*
X250113800Y-118703800D01*
X251066200Y-118703800D01*
X251066200Y-120456200D01*
G36*
X251066200Y-120456200D02*
G01*
X250113800Y-120456200D01*
X250113800Y-118703800D01*
X251066200Y-118703800D01*
X251066200Y-120456200D01*
G37*
X251066200Y-127846200D02*
X250113800Y-127846200D01*
X250113800Y-126093800D01*
X251066200Y-126093800D01*
X251066200Y-127846200D01*
G36*
X251066200Y-127846200D02*
G01*
X250113800Y-127846200D01*
X250113800Y-126093800D01*
X251066200Y-126093800D01*
X251066200Y-127846200D01*
G37*
X252316200Y-120456200D02*
X251363800Y-120456200D01*
X251363800Y-118703800D01*
X252316200Y-118703800D01*
X252316200Y-120456200D01*
G36*
X252316200Y-120456200D02*
G01*
X251363800Y-120456200D01*
X251363800Y-118703800D01*
X252316200Y-118703800D01*
X252316200Y-120456200D01*
G37*
X252316200Y-127846200D02*
X251363800Y-127846200D01*
X251363800Y-126093800D01*
X252316200Y-126093800D01*
X252316200Y-127846200D01*
G36*
X252316200Y-127846200D02*
G01*
X251363800Y-127846200D01*
X251363800Y-126093800D01*
X252316200Y-126093800D01*
X252316200Y-127846200D01*
G37*
X253566200Y-120456200D02*
X252613800Y-120456200D01*
X252613800Y-118703800D01*
X253566200Y-118703800D01*
X253566200Y-120456200D01*
G36*
X253566200Y-120456200D02*
G01*
X252613800Y-120456200D01*
X252613800Y-118703800D01*
X253566200Y-118703800D01*
X253566200Y-120456200D01*
G37*
X253566200Y-127846200D02*
X252613800Y-127846200D01*
X252613800Y-126093800D01*
X253566200Y-126093800D01*
X253566200Y-127846200D01*
G36*
X253566200Y-127846200D02*
G01*
X252613800Y-127846200D01*
X252613800Y-126093800D01*
X253566200Y-126093800D01*
X253566200Y-127846200D01*
G37*
X254816200Y-120456200D02*
X253863800Y-120456200D01*
X253863800Y-118703800D01*
X254816200Y-118703800D01*
X254816200Y-120456200D01*
G36*
X254816200Y-120456200D02*
G01*
X253863800Y-120456200D01*
X253863800Y-118703800D01*
X254816200Y-118703800D01*
X254816200Y-120456200D01*
G37*
X254816200Y-127846200D02*
X253863800Y-127846200D01*
X253863800Y-126093800D01*
X254816200Y-126093800D01*
X254816200Y-127846200D01*
G36*
X254816200Y-127846200D02*
G01*
X253863800Y-127846200D01*
X253863800Y-126093800D01*
X254816200Y-126093800D01*
X254816200Y-127846200D01*
G37*
X257116200Y-124396200D02*
X255963800Y-124396200D01*
X255963800Y-119443800D01*
X257116200Y-119443800D01*
X257116200Y-124396200D01*
G36*
X257116200Y-124396200D02*
G01*
X255963800Y-124396200D01*
X255963800Y-119443800D01*
X257116200Y-119443800D01*
X257116200Y-124396200D01*
G37*
D11*
X236079000Y-110236000D03*
X234329000Y-110236000D03*
D12*
X267710000Y-127487500D03*
X267710000Y-129312500D03*
D13*
X221590000Y-100070000D03*
D14*
X260425000Y-117310000D03*
X260425000Y-118580000D03*
X260425000Y-119850000D03*
X260425000Y-121120000D03*
X260425000Y-122390000D03*
X260425000Y-123660000D03*
X260425000Y-124930000D03*
X260425000Y-126200000D03*
X265575000Y-126200000D03*
X265575000Y-124930000D03*
X265575000Y-123660000D03*
X265575000Y-122390000D03*
X265575000Y-121120000D03*
X265575000Y-119850000D03*
X265575000Y-118580000D03*
X265575000Y-117310000D03*
D15*
X232477500Y-143170000D03*
X234302500Y-143170000D03*
D16*
X278765000Y-105160000D03*
X277495000Y-105160000D03*
X276225000Y-105160000D03*
X274955000Y-105160000D03*
X273685000Y-105160000D03*
X272415000Y-105160000D03*
X271145000Y-105160000D03*
X269875000Y-105160000D03*
X269875000Y-110110000D03*
X271145000Y-110110000D03*
X272415000Y-110110000D03*
X273685000Y-110110000D03*
X274955000Y-110110000D03*
X276225000Y-110110000D03*
X277495000Y-110110000D03*
X278765000Y-110110000D03*
D17*
X258392500Y-154250000D03*
X256667500Y-154250000D03*
D18*
X236370500Y-108458000D03*
X234545500Y-108458000D03*
D19*
X232905000Y-88070000D03*
X232905000Y-89340000D03*
X232905000Y-90610000D03*
X232905000Y-91880000D03*
X232905000Y-93150000D03*
X232905000Y-94420000D03*
X232905000Y-95690000D03*
X232905000Y-96960000D03*
X237855000Y-96960000D03*
X237855000Y-95690000D03*
X237855000Y-94420000D03*
X237855000Y-93150000D03*
X237855000Y-91880000D03*
X237855000Y-90610000D03*
X237855000Y-89340000D03*
X237855000Y-88070000D03*
D12*
X224500000Y-138857500D03*
X224500000Y-140682500D03*
D13*
X226060000Y-90170000D03*
D20*
X216015000Y-130337500D03*
X216015000Y-128612500D03*
D13*
X245270000Y-142690000D03*
D14*
X226685000Y-117350000D03*
X226685000Y-118620000D03*
X226685000Y-119890000D03*
X226685000Y-121160000D03*
X226685000Y-122430000D03*
X226685000Y-123700000D03*
X226685000Y-124970000D03*
X226685000Y-126240000D03*
X231835000Y-126240000D03*
X231835000Y-124970000D03*
X231835000Y-123700000D03*
X231835000Y-122430000D03*
X231835000Y-121160000D03*
X231835000Y-119890000D03*
X231835000Y-118620000D03*
X231835000Y-117350000D03*
D12*
X224300000Y-124207500D03*
X224300000Y-126032500D03*
D20*
X213415000Y-99960000D03*
X213415000Y-98235000D03*
D21*
X230710000Y-95567500D03*
X230710000Y-97292500D03*
X278710000Y-127407500D03*
X278710000Y-129132500D03*
D15*
X253467500Y-143450000D03*
X255292500Y-143450000D03*
D22*
X275900000Y-152400000D03*
D23*
X275900000Y-152400000D03*
D12*
X224140000Y-108247500D03*
X224140000Y-110072500D03*
D24*
X213750000Y-138580000D03*
X215020000Y-138580000D03*
X216290000Y-138580000D03*
X217560000Y-138580000D03*
X218830000Y-138580000D03*
X220100000Y-138580000D03*
X221370000Y-138580000D03*
X222640000Y-138580000D03*
X222640000Y-133630000D03*
X221370000Y-133630000D03*
X220100000Y-133630000D03*
X218830000Y-133630000D03*
X217560000Y-133630000D03*
X216290000Y-133630000D03*
X215020000Y-133630000D03*
X213750000Y-133630000D03*
D25*
X267732500Y-90170000D03*
X269457500Y-90170000D03*
D13*
X224730000Y-132060000D03*
D12*
X247904000Y-107545500D03*
X247904000Y-109370500D03*
X221070000Y-142137500D03*
X221070000Y-143962500D03*
D15*
X256837500Y-146950000D03*
X258662500Y-146950000D03*
D20*
X215495000Y-99960000D03*
X215495000Y-98235000D03*
D25*
X221097500Y-140630000D03*
X222822500Y-140630000D03*
D19*
X259490000Y-88265000D03*
X259490000Y-89535000D03*
X259490000Y-90805000D03*
X259490000Y-92075000D03*
X259490000Y-93345000D03*
X259490000Y-94615000D03*
X259490000Y-95885000D03*
X259490000Y-97155000D03*
X264440000Y-97155000D03*
X264440000Y-95885000D03*
X264440000Y-94615000D03*
X264440000Y-93345000D03*
X264440000Y-92075000D03*
X264440000Y-90805000D03*
X264440000Y-89535000D03*
X264440000Y-88265000D03*
D13*
X247520000Y-112990000D03*
X220350000Y-96750000D03*
X237236000Y-99314000D03*
X281740000Y-146830000D03*
X235270000Y-131640000D03*
D20*
X215515000Y-115472500D03*
X215515000Y-113747500D03*
D12*
X266510000Y-99487500D03*
X266510000Y-101312500D03*
D25*
X220737500Y-110040000D03*
X222462500Y-110040000D03*
X240867500Y-90170000D03*
X242592500Y-90170000D03*
D20*
X255270000Y-146912500D03*
X255270000Y-145187500D03*
D15*
X270367500Y-146890000D03*
X272192500Y-146890000D03*
D17*
X224382500Y-151460000D03*
X222657500Y-151460000D03*
D12*
X258660000Y-143487500D03*
X258660000Y-145312500D03*
D20*
X213805000Y-130337500D03*
X213805000Y-128612500D03*
D12*
X267750000Y-131097500D03*
X267750000Y-132922500D03*
D15*
X257242500Y-101600000D03*
X259067500Y-101600000D03*
D17*
X258392500Y-151870000D03*
X256667500Y-151870000D03*
D20*
X237998000Y-110572500D03*
X237998000Y-108847500D03*
D13*
X266954000Y-108712000D03*
D16*
X278765000Y-133350000D03*
X277495000Y-133350000D03*
X276225000Y-133350000D03*
X274955000Y-133350000D03*
X273685000Y-133350000D03*
X272415000Y-133350000D03*
X271145000Y-133350000D03*
X269875000Y-133350000D03*
X269875000Y-138300000D03*
X271145000Y-138300000D03*
X272415000Y-138300000D03*
X273685000Y-138300000D03*
X274955000Y-138300000D03*
X276225000Y-138300000D03*
X277495000Y-138300000D03*
X278765000Y-138300000D03*
D13*
X230000000Y-141990000D03*
D15*
X253432500Y-99060000D03*
X255257500Y-99060000D03*
D26*
X266635000Y-154305000D03*
X266635000Y-153035000D03*
X266635000Y-151765000D03*
X266635000Y-150495000D03*
X266635000Y-149225000D03*
X266635000Y-147955000D03*
X266635000Y-146685000D03*
X266635000Y-145415000D03*
X261685000Y-145415000D03*
X261685000Y-146685000D03*
X261685000Y-147955000D03*
X261685000Y-149225000D03*
X261685000Y-150495000D03*
X261685000Y-151765000D03*
X261685000Y-153035000D03*
X261685000Y-154305000D03*
D17*
X244422500Y-154250000D03*
X242697500Y-154250000D03*
D15*
X243527500Y-99060000D03*
X245352500Y-99060000D03*
D13*
X250190000Y-143002000D03*
D22*
X215900000Y-92400000D03*
D23*
X215900000Y-92400000D03*
D26*
X252665000Y-154305000D03*
X252665000Y-153035000D03*
X252665000Y-151765000D03*
X252665000Y-150495000D03*
X252665000Y-149225000D03*
X252665000Y-147955000D03*
X252665000Y-146685000D03*
X252665000Y-145415000D03*
X247715000Y-145415000D03*
X247715000Y-146685000D03*
X247715000Y-147955000D03*
X247715000Y-149225000D03*
X247715000Y-150495000D03*
X247715000Y-151765000D03*
X247715000Y-153035000D03*
X247715000Y-154305000D03*
D21*
X276225000Y-127257500D03*
X276225000Y-128982500D03*
D20*
X212965000Y-115337500D03*
X212965000Y-113612500D03*
D13*
X218590000Y-114260000D03*
D15*
X243689500Y-100838000D03*
X245514500Y-100838000D03*
D24*
X212910000Y-123580000D03*
X214180000Y-123580000D03*
X215450000Y-123580000D03*
X216720000Y-123580000D03*
X217990000Y-123580000D03*
X219260000Y-123580000D03*
X220530000Y-123580000D03*
X221800000Y-123580000D03*
X221800000Y-118630000D03*
X220530000Y-118630000D03*
X219260000Y-118630000D03*
X217990000Y-118630000D03*
X216720000Y-118630000D03*
X215450000Y-118630000D03*
X214180000Y-118630000D03*
X212910000Y-118630000D03*
D12*
X255270000Y-95607500D03*
X255270000Y-97432500D03*
D22*
X215900000Y-152400000D03*
D23*
X215900000Y-152400000D03*
D13*
X219456000Y-100330000D03*
D25*
X253802500Y-90170000D03*
X255527500Y-90170000D03*
D21*
X249682000Y-107595500D03*
X249682000Y-109320500D03*
D12*
X237690000Y-143217500D03*
X237690000Y-145042500D03*
D25*
X240777500Y-87630000D03*
X242502500Y-87630000D03*
D13*
X240330000Y-156980000D03*
D27*
X270660000Y-145312500D03*
X270660000Y-143487500D03*
D15*
X222287500Y-111770000D03*
X224112500Y-111770000D03*
D13*
X243590000Y-146360000D03*
D17*
X244143700Y-106260800D03*
X242418700Y-106260800D03*
X244422500Y-151130000D03*
X242697500Y-151130000D03*
D22*
X275900000Y-92400000D03*
D23*
X275900000Y-92400000D03*
D12*
X265800000Y-131067500D03*
X265800000Y-132892500D03*
D15*
X268117500Y-99540000D03*
X269942500Y-99540000D03*
D28*
X239887500Y-108075000D03*
X239887500Y-108575000D03*
X239887500Y-109075000D03*
X239887500Y-109575000D03*
X239887500Y-110075000D03*
X244187500Y-110075000D03*
X244187500Y-109575000D03*
X244187500Y-109075000D03*
X244187500Y-108575000D03*
X244187500Y-108075000D03*
D29*
X242037500Y-109075000D03*
D17*
X224382500Y-153670000D03*
X222657500Y-153670000D03*
D13*
X264190000Y-141830000D03*
D18*
X269962500Y-115370000D03*
X268137500Y-115370000D03*
D21*
X278130000Y-113402500D03*
X278130000Y-115127500D03*
D20*
X268750000Y-146882500D03*
X268750000Y-145157500D03*
D21*
X243170000Y-95597500D03*
X243170000Y-97322500D03*
D20*
X234410000Y-146682500D03*
X234410000Y-144957500D03*
D17*
X271372500Y-102870000D03*
X269647500Y-102870000D03*
D18*
X271372500Y-128970000D03*
X269547500Y-128970000D03*
X229112500Y-95500000D03*
X227287500Y-95500000D03*
D27*
X271480000Y-101352500D03*
X271480000Y-99527500D03*
D13*
X267990000Y-95450000D03*
D15*
X235967500Y-146690000D03*
X237792500Y-146690000D03*
D19*
X245775000Y-88205000D03*
X245775000Y-89475000D03*
X245775000Y-90745000D03*
X245775000Y-92015000D03*
X245775000Y-93285000D03*
X245775000Y-94555000D03*
X245775000Y-95825000D03*
X245775000Y-97095000D03*
X250725000Y-97095000D03*
X250725000Y-95825000D03*
X250725000Y-94555000D03*
X250725000Y-93285000D03*
X250725000Y-92015000D03*
X250725000Y-90745000D03*
X250725000Y-89475000D03*
X250725000Y-88205000D03*
D18*
X269912500Y-101190000D03*
X268087500Y-101190000D03*
D25*
X253802500Y-88700000D03*
X255527500Y-88700000D03*
D12*
X272320000Y-143467500D03*
X272320000Y-145292500D03*
D15*
X267167500Y-143490000D03*
X268992500Y-143490000D03*
D27*
X235980000Y-145002500D03*
X235980000Y-143177500D03*
D21*
X257175000Y-95657500D03*
X257175000Y-97382500D03*
D13*
X266140000Y-135650000D03*
D24*
X213360000Y-107950000D03*
X214630000Y-107950000D03*
X215900000Y-107950000D03*
X217170000Y-107950000D03*
X218440000Y-107950000D03*
X219710000Y-107950000D03*
X220980000Y-107950000D03*
X222250000Y-107950000D03*
X222250000Y-103000000D03*
X220980000Y-103000000D03*
X219710000Y-103000000D03*
X218440000Y-103000000D03*
X217170000Y-103000000D03*
X215900000Y-103000000D03*
X214630000Y-103000000D03*
X213360000Y-103000000D03*
D21*
X276385000Y-113402500D03*
X276385000Y-115127500D03*
D13*
X281390000Y-111000000D03*
X261500000Y-142870000D03*
D18*
X224502500Y-143920000D03*
X222677500Y-143920000D03*
D25*
X220457500Y-126060000D03*
X222182500Y-126060000D03*
D15*
X222287500Y-127760000D03*
X224112500Y-127760000D03*
X222777500Y-142290000D03*
X224602500Y-142290000D03*
D17*
X271332500Y-130830000D03*
X269607500Y-130830000D03*
D18*
X224102500Y-113490000D03*
X222277500Y-113490000D03*
D12*
X229070000Y-97107500D03*
X229070000Y-98932500D03*
D17*
X271612500Y-117130000D03*
X269887500Y-117130000D03*
D27*
X271640000Y-115552500D03*
X271640000Y-113727500D03*
D18*
X241855000Y-99060000D03*
X240030000Y-99060000D03*
D12*
X220610000Y-111657500D03*
X220610000Y-113482500D03*
D21*
X278710000Y-141312500D03*
X278710000Y-143037500D03*
D25*
X267732500Y-88320000D03*
X269457500Y-88320000D03*
D12*
X241300000Y-95547500D03*
X241300000Y-97372500D03*
D18*
X223912500Y-129460000D03*
X222087500Y-129460000D03*
D13*
X250740000Y-99160000D03*
X261112000Y-101092000D03*
D15*
X268237500Y-113680000D03*
X270062500Y-113680000D03*
D12*
X220420000Y-127647500D03*
X220420000Y-129472500D03*
D27*
X227300000Y-98902500D03*
X227300000Y-97077500D03*
D21*
X276225000Y-141312500D03*
X276225000Y-143037500D03*
D27*
X268180000Y-118772500D03*
X268180000Y-116947500D03*
X256880000Y-145202500D03*
X256880000Y-143377500D03*
D18*
X232552500Y-98990000D03*
X230727500Y-98990000D03*
D16*
X278765000Y-119315000D03*
X277495000Y-119315000D03*
X276225000Y-119315000D03*
X274955000Y-119315000D03*
X273685000Y-119315000D03*
X272415000Y-119315000D03*
X271145000Y-119315000D03*
X269875000Y-119315000D03*
X269875000Y-124265000D03*
X271145000Y-124265000D03*
X272415000Y-124265000D03*
X273685000Y-124265000D03*
X274955000Y-124265000D03*
X276225000Y-124265000D03*
X277495000Y-124265000D03*
X278765000Y-124265000D03*
D15*
X257242500Y-99060000D03*
X259067500Y-99060000D03*
D26*
X232345000Y-154305000D03*
X232345000Y-153035000D03*
X232345000Y-151765000D03*
X232345000Y-150495000D03*
X232345000Y-149225000D03*
X232345000Y-147955000D03*
X232345000Y-146685000D03*
X232345000Y-145415000D03*
X227395000Y-145415000D03*
X227395000Y-146685000D03*
X227395000Y-147955000D03*
X227395000Y-149225000D03*
X227395000Y-150495000D03*
X227395000Y-151765000D03*
X227395000Y-153035000D03*
X227395000Y-154305000D03*
D30*
X241420000Y-137380000D03*
D31*
X243920000Y-137380000D03*
X246420000Y-137380000D03*
X248920000Y-137380000D03*
X251420000Y-137380000D03*
X253920000Y-137380000D03*
X256420000Y-137380000D03*
M02*
