%TF.GenerationSoftware,KiCad,Pcbnew,8.0.0*%
%TF.CreationDate,2024-02-27T15:34:21-08:00*%
%TF.ProjectId,PCB,5043422e-6b69-4636-9164-5f7063625858,rev?*%
%TF.SameCoordinates,Original*%
%TF.FileFunction,Legend,Bot*%
%TF.FilePolarity,Positive*%
%FSLAX46Y46*%
G04 Gerber Fmt 4.6, Leading zero omitted, Abs format (unit mm)*
G04 Created by KiCad (PCBNEW 8.0.0) date 2024-02-27 15:34:21*
%MOMM*%
%LPD*%
G01*
G04 APERTURE LIST*
G04 Aperture macros list*
%AMRoundRect*
0 Rectangle with rounded corners*
0 $1 Rounding radius*
0 $2 $3 $4 $5 $6 $7 $8 $9 X,Y pos of 4 corners*
0 Add a 4 corners polygon primitive as box body*
4,1,4,$2,$3,$4,$5,$6,$7,$8,$9,$2,$3,0*
0 Add four circle primitives for the rounded corners*
1,1,$1+$1,$2,$3*
1,1,$1+$1,$4,$5*
1,1,$1+$1,$6,$7*
1,1,$1+$1,$8,$9*
0 Add four rect primitives between the rounded corners*
20,1,$1+$1,$2,$3,$4,$5,0*
20,1,$1+$1,$4,$5,$6,$7,0*
20,1,$1+$1,$6,$7,$8,$9,0*
20,1,$1+$1,$8,$9,$2,$3,0*%
G04 Aperture macros list end*
%ADD10C,0.150000*%
%ADD11C,0.120000*%
%ADD12C,4.000000*%
%ADD13R,1.600000X1.600000*%
%ADD14C,1.600000*%
%ADD15C,4.100000*%
%ADD16C,7.400000*%
%ADD17RoundRect,0.250000X0.600000X0.725000X-0.600000X0.725000X-0.600000X-0.725000X0.600000X-0.725000X0*%
%ADD18O,1.700000X1.950000*%
G04 APERTURE END LIST*
D10*
X160338333Y-96535150D02*
X160338333Y-97249435D01*
X160338333Y-97249435D02*
X160385952Y-97392292D01*
X160385952Y-97392292D02*
X160481190Y-97487531D01*
X160481190Y-97487531D02*
X160624047Y-97535150D01*
X160624047Y-97535150D02*
X160719285Y-97535150D01*
X159957380Y-96535150D02*
X159338333Y-96535150D01*
X159338333Y-96535150D02*
X159671666Y-96916102D01*
X159671666Y-96916102D02*
X159528809Y-96916102D01*
X159528809Y-96916102D02*
X159433571Y-96963721D01*
X159433571Y-96963721D02*
X159385952Y-97011340D01*
X159385952Y-97011340D02*
X159338333Y-97106578D01*
X159338333Y-97106578D02*
X159338333Y-97344673D01*
X159338333Y-97344673D02*
X159385952Y-97439911D01*
X159385952Y-97439911D02*
X159433571Y-97487531D01*
X159433571Y-97487531D02*
X159528809Y-97535150D01*
X159528809Y-97535150D02*
X159814523Y-97535150D01*
X159814523Y-97535150D02*
X159909761Y-97487531D01*
X159909761Y-97487531D02*
X159957380Y-97439911D01*
D11*
X133395000Y-95020331D02*
X133395000Y-84520331D01*
X185555000Y-96080331D02*
X134455000Y-96080331D01*
X141967267Y-87132075D02*
X141138530Y-91832075D01*
X177236689Y-93780331D02*
X142773311Y-93780331D01*
X176407952Y-85760331D02*
X143602048Y-85760331D01*
X176875000Y-96974669D02*
X176375000Y-96974669D01*
X176375000Y-96974669D02*
X176625000Y-96541656D01*
X176625000Y-96541656D02*
X176875000Y-96974669D01*
X178042733Y-87132075D02*
X178871470Y-91832075D01*
X134455000Y-83460331D02*
X185555000Y-83460331D01*
X186615000Y-84520331D02*
X186615000Y-95020331D01*
X134455000Y-96080331D02*
G75*
G02*
X133395000Y-95020331I1J1060001D01*
G01*
X133395000Y-84520331D02*
G75*
G02*
X134455000Y-83460331I1060001J-1D01*
G01*
X142773311Y-93780331D02*
G75*
G02*
X141138530Y-91832075I-1J1659999D01*
G01*
X141967267Y-87132075D02*
G75*
G02*
X143602048Y-85760332I1634781J-288257D01*
G01*
X178871470Y-91832075D02*
G75*
G02*
X177236689Y-93780330I-1634780J-288256D01*
G01*
X176407952Y-85760331D02*
G75*
G02*
X178042733Y-87132075I1J-1659999D01*
G01*
X186615000Y-95020331D02*
G75*
G02*
X185555000Y-96080331I-1060000J0D01*
G01*
X185555000Y-83460331D02*
G75*
G02*
X186615000Y-84520331I0J-1060000D01*
G01*
%LPC*%
D12*
X136455000Y-89770331D03*
X183555000Y-89770331D03*
D13*
X176625000Y-91190331D03*
D14*
X173855000Y-91190331D03*
X171085000Y-91190331D03*
X168315000Y-91190331D03*
X165545000Y-91190331D03*
X162775000Y-91190331D03*
X160005000Y-91190331D03*
X157235000Y-91190331D03*
X154465000Y-91190331D03*
X151695000Y-91190331D03*
X148925000Y-91190331D03*
X146155000Y-91190331D03*
X143385000Y-91190331D03*
X175240000Y-88350331D03*
X172470000Y-88350331D03*
X169700000Y-88350331D03*
X166930000Y-88350331D03*
X164160000Y-88350331D03*
X161390000Y-88350331D03*
X158620000Y-88350331D03*
X155850000Y-88350331D03*
X153080000Y-88350331D03*
X150310000Y-88350331D03*
X147540000Y-88350331D03*
X144770000Y-88350331D03*
D15*
X160000000Y-134450000D03*
D16*
X160000000Y-134450000D03*
D15*
X160000000Y-45550000D03*
D16*
X160000000Y-45550000D03*
D17*
X167640000Y-101600000D03*
D18*
X165140000Y-101600000D03*
X162640000Y-101600000D03*
X160140000Y-101600000D03*
X157640000Y-101600000D03*
X155140000Y-101600000D03*
X152640000Y-101600000D03*
D15*
X115550000Y-90000000D03*
D16*
X115550000Y-90000000D03*
D15*
X204450000Y-90000000D03*
D16*
X204450000Y-90000000D03*
%LPD*%
M02*
