%TF.GenerationSoftware,KiCad,Pcbnew,(6.0.4)*%
%TF.CreationDate,2022-11-02T15:12:15-07:00*%
%TF.ProjectId,PCB,5043422e-6b69-4636-9164-5f7063625858,rev?*%
%TF.SameCoordinates,Original*%
%TF.FileFunction,Profile,NP*%
%FSLAX46Y46*%
G04 Gerber Fmt 4.6, Leading zero omitted, Abs format (unit mm)*
G04 Created by KiCad (PCBNEW (6.0.4)) date 2022-11-02 15:12:15*
%MOMM*%
%LPD*%
G01*
G04 APERTURE LIST*
%TA.AperFunction,Profile*%
%ADD10C,0.200000*%
%TD*%
G04 APERTURE END LIST*
D10*
X166350013Y-150308287D02*
G75*
G03*
X169260417Y-152821132I2539987J-13D01*
G01*
X109200000Y-83650000D02*
X99691713Y-83650000D01*
X222821145Y-99260419D02*
G75*
G03*
X220308287Y-96350000I-2512845J370419D01*
G01*
X153650000Y-29691713D02*
X153650000Y-39200000D01*
X150739583Y-27178868D02*
G75*
G03*
X97178868Y-80739583I9260417J-62821132D01*
G01*
X169260419Y-27178855D02*
G75*
G03*
X166350000Y-29691713I-370419J-2512845D01*
G01*
X97178868Y-99260417D02*
G75*
G03*
X150739583Y-152821132I62821132J9260417D01*
G01*
X220308287Y-83650000D02*
X210800000Y-83650000D01*
X153649987Y-29691713D02*
G75*
G03*
X150739583Y-27178868I-2539987J13D01*
G01*
X99691713Y-96350013D02*
G75*
G03*
X97178868Y-99260417I-13J-2539987D01*
G01*
X153650000Y-140800000D02*
X153650000Y-150308287D01*
X150739581Y-152821145D02*
G75*
G03*
X153650000Y-150308287I370419J2512845D01*
G01*
X166350000Y-39200000D02*
X166350000Y-29691713D01*
X97178855Y-80739581D02*
G75*
G03*
X99691713Y-83650000I2512845J-370419D01*
G01*
X166350000Y-150308287D02*
X166350000Y-140800000D01*
X222821132Y-80739583D02*
G75*
G03*
X169260417Y-27178868I-62821132J-9260417D01*
G01*
X99691713Y-96350000D02*
X109200000Y-96350000D01*
X220308287Y-83649987D02*
G75*
G03*
X222821132Y-80739583I13J2539987D01*
G01*
X169260417Y-152821132D02*
G75*
G03*
X222821132Y-99260417I-9260417J62821132D01*
G01*
X109200000Y-96350000D02*
G75*
G03*
X109200000Y-83650000I0J6350000D01*
G01*
X153650000Y-39200000D02*
G75*
G03*
X166350000Y-39200000I6350000J0D01*
G01*
X210800000Y-96350000D02*
X220308287Y-96350000D01*
X210800000Y-83650000D02*
G75*
G03*
X210800000Y-96350000I0J-6350000D01*
G01*
X166350000Y-140800000D02*
G75*
G03*
X153650000Y-140800000I-6350000J0D01*
G01*
M02*
