%TF.GenerationSoftware,KiCad,Pcbnew,8.0.0*%
%TF.CreationDate,2024-03-11T20:15:50-07:00*%
%TF.ProjectId,PCB,5043422e-6b69-4636-9164-5f7063625858,rev?*%
%TF.SameCoordinates,Original*%
%TF.FileFunction,Copper,L2,Inr*%
%TF.FilePolarity,Positive*%
%FSLAX46Y46*%
G04 Gerber Fmt 4.6, Leading zero omitted, Abs format (unit mm)*
G04 Created by KiCad (PCBNEW 8.0.0) date 2024-03-11 20:15:50*
%MOMM*%
%LPD*%
G01*
G04 APERTURE LIST*
G04 Aperture macros list*
%AMRoundRect*
0 Rectangle with rounded corners*
0 $1 Rounding radius*
0 $2 $3 $4 $5 $6 $7 $8 $9 X,Y pos of 4 corners*
0 Add a 4 corners polygon primitive as box body*
4,1,4,$2,$3,$4,$5,$6,$7,$8,$9,$2,$3,0*
0 Add four circle primitives for the rounded corners*
1,1,$1+$1,$2,$3*
1,1,$1+$1,$4,$5*
1,1,$1+$1,$6,$7*
1,1,$1+$1,$8,$9*
0 Add four rect primitives between the rounded corners*
20,1,$1+$1,$2,$3,$4,$5,0*
20,1,$1+$1,$4,$5,$6,$7,0*
20,1,$1+$1,$6,$7,$8,$9,0*
20,1,$1+$1,$8,$9,$2,$3,0*%
G04 Aperture macros list end*
%TA.AperFunction,ComponentPad*%
%ADD10C,4.100000*%
%TD*%
%TA.AperFunction,ComponentPad*%
%ADD11RoundRect,0.250000X0.600000X0.725000X-0.600000X0.725000X-0.600000X-0.725000X0.600000X-0.725000X0*%
%TD*%
%TA.AperFunction,ComponentPad*%
%ADD12O,1.700000X1.950000*%
%TD*%
%TA.AperFunction,ViaPad*%
%ADD13C,0.600000*%
%TD*%
%TA.AperFunction,ViaPad*%
%ADD14C,0.800000*%
%TD*%
%TA.AperFunction,Conductor*%
%ADD15C,0.200000*%
%TD*%
G04 APERTURE END LIST*
D10*
X275900000Y-152400000D03*
X215900000Y-92400000D03*
X215900000Y-152400000D03*
X275900000Y-92400000D03*
D11*
X256420000Y-135890000D03*
D12*
X253920000Y-135890000D03*
X251420000Y-135890000D03*
X248920000Y-135890000D03*
X246420000Y-135890000D03*
X243920000Y-135890000D03*
X241420000Y-135890000D03*
D13*
X227330000Y-104140000D03*
X240030000Y-133350000D03*
X223520000Y-146050000D03*
X276225000Y-136779000D03*
X217170000Y-121920000D03*
X261620000Y-137160000D03*
X234950000Y-111760000D03*
X227330000Y-119380000D03*
X262890000Y-90932000D03*
X241300000Y-111760000D03*
X249555000Y-151765000D03*
X279400000Y-115570000D03*
X276225000Y-108585000D03*
X246380000Y-104140000D03*
X248920000Y-115570000D03*
X238760000Y-111760000D03*
X266700000Y-134620000D03*
X276860000Y-144780000D03*
X242570000Y-91440000D03*
X274320000Y-102870000D03*
D14*
X243840000Y-156210000D03*
D13*
X237490000Y-140970000D03*
X229870000Y-125730000D03*
D14*
X250825000Y-99060000D03*
D13*
X270510000Y-88900000D03*
X213360000Y-127000000D03*
D14*
X241300000Y-102870000D03*
D13*
X262890000Y-127000000D03*
X242570000Y-100330000D03*
X262890000Y-100330000D03*
D14*
X243840000Y-149860000D03*
D13*
X224790000Y-137160000D03*
X270510000Y-140970000D03*
X219710000Y-127000000D03*
X229870000Y-93980000D03*
X229870000Y-152400000D03*
X269240000Y-148590000D03*
X261620000Y-142240000D03*
X248920000Y-91440000D03*
X218440000Y-142240000D03*
X276860000Y-130810000D03*
X215900000Y-105410000D03*
X256540000Y-140970000D03*
X259080000Y-120650000D03*
X226060000Y-99060000D03*
X264160000Y-106680000D03*
X246144091Y-113892500D03*
X265430000Y-115570000D03*
X254000000Y-114300000D03*
X246380000Y-142240000D03*
X263525000Y-151765000D03*
X217170000Y-132080000D03*
X256540000Y-149860000D03*
X255270000Y-102870000D03*
X234950000Y-133350000D03*
X274320000Y-116840000D03*
X232410000Y-107950000D03*
X265430000Y-129540000D03*
X229870000Y-116840000D03*
X247650000Y-132080000D03*
X231140000Y-104140000D03*
X222250000Y-152400000D03*
X226060000Y-132080000D03*
X214630000Y-96520000D03*
X260350000Y-102870000D03*
X218440000Y-110490000D03*
X247896765Y-109890000D03*
X274320000Y-125730000D03*
X234950000Y-123190000D03*
X265905000Y-101600000D03*
X236220000Y-140970000D03*
X267970000Y-110490000D03*
X227330000Y-111760000D03*
X237490000Y-135890000D03*
X273050000Y-130810000D03*
X227330000Y-142240000D03*
X236220000Y-102870000D03*
X251460000Y-111760000D03*
X215900000Y-113030000D03*
D14*
X259080000Y-111760000D03*
D13*
X227330000Y-128270000D03*
X234950000Y-148590000D03*
X256540000Y-87630000D03*
X257810000Y-93980000D03*
X267970000Y-129540000D03*
X236220000Y-90639997D03*
X217170000Y-105410000D03*
X234950000Y-95250000D03*
X219710000Y-121920000D03*
X261620000Y-93980000D03*
X275590000Y-135890000D03*
X237490000Y-107950000D03*
X261620000Y-104140000D03*
X274320000Y-127000000D03*
X274320000Y-120650000D03*
X236220000Y-109220000D03*
X240030000Y-95250000D03*
X218440000Y-100330000D03*
X274320000Y-144780000D03*
X237490000Y-149860000D03*
X223520000Y-149860000D03*
X252730000Y-93980000D03*
X219710000Y-116840000D03*
X259080000Y-148590000D03*
X233680000Y-129540000D03*
X218440000Y-130810000D03*
X237490000Y-106680000D03*
X243840000Y-148590000D03*
X227330000Y-93980000D03*
X266700000Y-93980000D03*
X250190000Y-149860000D03*
X220980000Y-93980000D03*
X274320000Y-140970000D03*
X229870000Y-149860000D03*
X240030000Y-92710000D03*
X274320000Y-113030000D03*
X274320000Y-107950000D03*
X218440000Y-135890000D03*
X215900000Y-140970000D03*
X257835000Y-90170000D03*
X276606000Y-102108000D03*
X255270000Y-152400000D03*
D14*
X246380000Y-116205000D03*
D13*
X234950000Y-151130000D03*
X277292501Y-117272501D03*
X231140000Y-90170000D03*
X276294313Y-131375687D03*
X243840000Y-90170000D03*
X215900000Y-110490000D03*
X269240000Y-152400000D03*
X247650000Y-129540000D03*
X215900000Y-127000000D03*
X248920000Y-107480000D03*
X248920000Y-111760000D03*
X246021744Y-109890000D03*
X254000000Y-106680000D03*
X233680000Y-132080000D03*
X240700000Y-132680000D03*
X259080000Y-123190000D03*
X250190000Y-139700000D03*
X239670000Y-139700000D03*
X255057867Y-105622133D03*
X231140000Y-129540000D03*
X251460000Y-129540000D03*
X254000000Y-115570000D03*
X272415000Y-122555000D03*
X220980000Y-135890000D03*
X229235000Y-147955000D03*
X272415000Y-137160000D03*
X248920000Y-95250000D03*
X266700000Y-95250000D03*
X248939565Y-147349438D03*
X220980000Y-121920000D03*
X263525000Y-147955000D03*
X219710000Y-100330000D03*
X273050000Y-111760000D03*
X236220000Y-93980000D03*
X252095000Y-114935000D03*
X259158529Y-107655000D03*
X265430000Y-99060000D03*
X266700000Y-106680000D03*
X259080000Y-116840000D03*
X242570000Y-111760000D03*
X241300000Y-106680000D03*
X247180003Y-115570000D03*
X245421744Y-111090000D03*
X245110000Y-105410000D03*
X241300000Y-116840000D03*
X228600000Y-110490000D03*
X228600000Y-137160000D03*
X227330000Y-143510000D03*
X240030000Y-130810000D03*
X228600000Y-135890000D03*
X240590000Y-128980000D03*
X271780000Y-140970000D03*
X266700000Y-138430000D03*
X273685000Y-135890000D03*
X266700000Y-123190000D03*
X264160000Y-111760000D03*
X266700000Y-120650000D03*
X274320000Y-121920000D03*
X264160000Y-109220000D03*
X236220000Y-91440000D03*
X254000000Y-110490000D03*
X229235000Y-132715000D03*
X224790000Y-123190000D03*
X218440000Y-105410000D03*
X218440000Y-121920000D03*
X224790000Y-133350000D03*
X233680000Y-134620000D03*
X231140000Y-142240000D03*
X259715000Y-149225000D03*
X238125000Y-133280000D03*
X243840000Y-140970000D03*
X243840000Y-147320000D03*
X238760000Y-134620000D03*
X250190000Y-130810000D03*
X234950000Y-137160000D03*
X261620000Y-116840000D03*
X238760000Y-129540000D03*
X261620000Y-120650000D03*
X250190000Y-105410000D03*
X250290736Y-115670736D03*
X251460000Y-102870000D03*
X251240000Y-115570000D03*
X252730000Y-105410000D03*
X228600000Y-105410000D03*
X241300000Y-114300000D03*
X242570000Y-130810000D03*
X233680000Y-138430000D03*
X252730000Y-132080000D03*
X259080000Y-134620000D03*
D15*
X231740000Y-130140000D02*
X231140000Y-129540000D01*
X251420000Y-135890000D02*
X251420000Y-129580000D01*
X251460000Y-129540000D02*
X250860000Y-130140000D01*
X250860000Y-130140000D02*
X231740000Y-130140000D01*
X251420000Y-129580000D02*
X251460000Y-129540000D01*
X252095000Y-114935000D02*
X259158529Y-107871471D01*
X259158529Y-107871471D02*
X259158529Y-107655000D01*
X232410000Y-137160000D02*
X238760000Y-130810000D01*
X228600000Y-137160000D02*
X232410000Y-137160000D01*
X238760000Y-130810000D02*
X240030000Y-130810000D01*
X238760000Y-135468529D02*
X239360000Y-134868529D01*
X239360000Y-134868529D02*
X239360000Y-134371471D01*
X243840000Y-140970000D02*
X241788529Y-140970000D01*
X241788529Y-140970000D02*
X238760000Y-137941471D01*
X238268529Y-133280000D02*
X238125000Y-133280000D01*
X239360000Y-134371471D02*
X238268529Y-133280000D01*
X238760000Y-137941471D02*
X238760000Y-135468529D01*
X249520000Y-106080000D02*
X250190000Y-105410000D01*
X250290736Y-112628134D02*
X249520000Y-111857398D01*
X250290736Y-115670736D02*
X250290736Y-112628134D01*
X249520000Y-111857398D02*
X249520000Y-106080000D01*
X241300000Y-132080000D02*
X242570000Y-130810000D01*
X238476471Y-132080000D02*
X241300000Y-132080000D01*
X233680000Y-138430000D02*
X233680000Y-136876471D01*
X233680000Y-136876471D02*
X238476471Y-132080000D01*
X252730000Y-132080000D02*
X256540000Y-132080000D01*
X256540000Y-132080000D02*
X259080000Y-134620000D01*
%TA.AperFunction,Conductor*%
G36*
X282922539Y-84140185D02*
G01*
X282968294Y-84192989D01*
X282979500Y-84244500D01*
X282979500Y-158395500D01*
X282959815Y-158462539D01*
X282907011Y-158508294D01*
X282855500Y-158519500D01*
X208704500Y-158519500D01*
X208637461Y-158499815D01*
X208591706Y-158447011D01*
X208580500Y-158395500D01*
X208580500Y-152400005D01*
X213344457Y-152400005D01*
X213364606Y-152720283D01*
X213364607Y-152720290D01*
X213370184Y-152749523D01*
X213423652Y-153029816D01*
X213424745Y-153035542D01*
X213523916Y-153340759D01*
X213523918Y-153340764D01*
X213660558Y-153631138D01*
X213660562Y-153631144D01*
X213832520Y-153902108D01*
X213832522Y-153902111D01*
X214037087Y-154149388D01*
X214271034Y-154369078D01*
X214271044Y-154369086D01*
X214530660Y-154557708D01*
X214530666Y-154557711D01*
X214530672Y-154557716D01*
X214811903Y-154712324D01*
X215110294Y-154830466D01*
X215110293Y-154830466D01*
X215421135Y-154910276D01*
X215421139Y-154910277D01*
X215487935Y-154918715D01*
X215739524Y-154950499D01*
X215739533Y-154950499D01*
X215739536Y-154950500D01*
X215739538Y-154950500D01*
X216060462Y-154950500D01*
X216060464Y-154950500D01*
X216060467Y-154950499D01*
X216060475Y-154950499D01*
X216250463Y-154926497D01*
X216378861Y-154910277D01*
X216689706Y-154830466D01*
X216988097Y-154712324D01*
X217269328Y-154557716D01*
X217528964Y-154369080D01*
X217762911Y-154149390D01*
X217967478Y-153902110D01*
X218139439Y-153631142D01*
X218276084Y-153340758D01*
X218375256Y-153035538D01*
X218435392Y-152720294D01*
X218435393Y-152720283D01*
X218455543Y-152400005D01*
X218455543Y-152400003D01*
X254464435Y-152400003D01*
X254484630Y-152579249D01*
X254484631Y-152579254D01*
X254544211Y-152749523D01*
X254640184Y-152902262D01*
X254767738Y-153029816D01*
X254920478Y-153125789D01*
X255090745Y-153185368D01*
X255090750Y-153185369D01*
X255269996Y-153205565D01*
X255270000Y-153205565D01*
X255270004Y-153205565D01*
X255449249Y-153185369D01*
X255449252Y-153185368D01*
X255449255Y-153185368D01*
X255619522Y-153125789D01*
X255772262Y-153029816D01*
X255899816Y-152902262D01*
X255995789Y-152749522D01*
X256055368Y-152579255D01*
X256055369Y-152579249D01*
X256075565Y-152400003D01*
X268434435Y-152400003D01*
X268454630Y-152579249D01*
X268454631Y-152579254D01*
X268514211Y-152749523D01*
X268610184Y-152902262D01*
X268737738Y-153029816D01*
X268890478Y-153125789D01*
X269060745Y-153185368D01*
X269060750Y-153185369D01*
X269239996Y-153205565D01*
X269240000Y-153205565D01*
X269240004Y-153205565D01*
X269419249Y-153185369D01*
X269419252Y-153185368D01*
X269419255Y-153185368D01*
X269589522Y-153125789D01*
X269742262Y-153029816D01*
X269869816Y-152902262D01*
X269965789Y-152749522D01*
X270025368Y-152579255D01*
X270025369Y-152579249D01*
X270045565Y-152400005D01*
X273344457Y-152400005D01*
X273364606Y-152720283D01*
X273364607Y-152720290D01*
X273370184Y-152749523D01*
X273423652Y-153029816D01*
X273424745Y-153035542D01*
X273523916Y-153340759D01*
X273523918Y-153340764D01*
X273660558Y-153631138D01*
X273660562Y-153631144D01*
X273832520Y-153902108D01*
X273832522Y-153902111D01*
X274037087Y-154149388D01*
X274271034Y-154369078D01*
X274271044Y-154369086D01*
X274530660Y-154557708D01*
X274530666Y-154557711D01*
X274530672Y-154557716D01*
X274811903Y-154712324D01*
X275110294Y-154830466D01*
X275110293Y-154830466D01*
X275421135Y-154910276D01*
X275421139Y-154910277D01*
X275487935Y-154918715D01*
X275739524Y-154950499D01*
X275739533Y-154950499D01*
X275739536Y-154950500D01*
X275739538Y-154950500D01*
X276060462Y-154950500D01*
X276060464Y-154950500D01*
X276060467Y-154950499D01*
X276060475Y-154950499D01*
X276250463Y-154926497D01*
X276378861Y-154910277D01*
X276689706Y-154830466D01*
X276988097Y-154712324D01*
X277269328Y-154557716D01*
X277528964Y-154369080D01*
X277762911Y-154149390D01*
X277967478Y-153902110D01*
X278139439Y-153631142D01*
X278276084Y-153340758D01*
X278375256Y-153035538D01*
X278435392Y-152720294D01*
X278435393Y-152720283D01*
X278455543Y-152400005D01*
X278455543Y-152399994D01*
X278435393Y-152079716D01*
X278435392Y-152079709D01*
X278435392Y-152079706D01*
X278375256Y-151764462D01*
X278276084Y-151459242D01*
X278276081Y-151459235D01*
X278139441Y-151168861D01*
X278139437Y-151168855D01*
X277967479Y-150897891D01*
X277967477Y-150897888D01*
X277762912Y-150650611D01*
X277528965Y-150430921D01*
X277528955Y-150430913D01*
X277269339Y-150242291D01*
X277269321Y-150242280D01*
X276988096Y-150087675D01*
X276988093Y-150087674D01*
X276689703Y-149969533D01*
X276689706Y-149969533D01*
X276378864Y-149889723D01*
X276378851Y-149889721D01*
X276060475Y-149849500D01*
X276060464Y-149849500D01*
X275739536Y-149849500D01*
X275739524Y-149849500D01*
X275421148Y-149889721D01*
X275421135Y-149889723D01*
X275110294Y-149969533D01*
X274811906Y-150087674D01*
X274811903Y-150087675D01*
X274530678Y-150242280D01*
X274530660Y-150242291D01*
X274271044Y-150430913D01*
X274271034Y-150430921D01*
X274037087Y-150650611D01*
X273832522Y-150897888D01*
X273832520Y-150897891D01*
X273660562Y-151168855D01*
X273660558Y-151168861D01*
X273523918Y-151459235D01*
X273523916Y-151459240D01*
X273424745Y-151764457D01*
X273424744Y-151764461D01*
X273424744Y-151764462D01*
X273418882Y-151795188D01*
X273364607Y-152079709D01*
X273364606Y-152079716D01*
X273344457Y-152399994D01*
X273344457Y-152400005D01*
X270045565Y-152400005D01*
X270045565Y-152400003D01*
X270045565Y-152399996D01*
X270025369Y-152220750D01*
X270025368Y-152220745D01*
X269965788Y-152050476D01*
X269880894Y-151915369D01*
X269869816Y-151897738D01*
X269742262Y-151770184D01*
X269589523Y-151674211D01*
X269419254Y-151614631D01*
X269419249Y-151614630D01*
X269240004Y-151594435D01*
X269239996Y-151594435D01*
X269060750Y-151614630D01*
X269060745Y-151614631D01*
X268890476Y-151674211D01*
X268737737Y-151770184D01*
X268610184Y-151897737D01*
X268514211Y-152050476D01*
X268454631Y-152220745D01*
X268454630Y-152220750D01*
X268434435Y-152399996D01*
X268434435Y-152400003D01*
X256075565Y-152400003D01*
X256075565Y-152399996D01*
X256055369Y-152220750D01*
X256055368Y-152220745D01*
X255995788Y-152050476D01*
X255910894Y-151915369D01*
X255899816Y-151897738D01*
X255772262Y-151770184D01*
X255619523Y-151674211D01*
X255449254Y-151614631D01*
X255449249Y-151614630D01*
X255270004Y-151594435D01*
X255269996Y-151594435D01*
X255090750Y-151614630D01*
X255090745Y-151614631D01*
X254920476Y-151674211D01*
X254767737Y-151770184D01*
X254640184Y-151897737D01*
X254544211Y-152050476D01*
X254484631Y-152220745D01*
X254484630Y-152220750D01*
X254464435Y-152399996D01*
X254464435Y-152400003D01*
X218455543Y-152400003D01*
X218455543Y-152399994D01*
X218435393Y-152079716D01*
X218435392Y-152079709D01*
X218435392Y-152079706D01*
X218375256Y-151764462D01*
X218276084Y-151459242D01*
X218276081Y-151459235D01*
X218139441Y-151168861D01*
X218139437Y-151168855D01*
X218114781Y-151130003D01*
X234144435Y-151130003D01*
X234164630Y-151309249D01*
X234164631Y-151309254D01*
X234224211Y-151479523D01*
X234296416Y-151594435D01*
X234320184Y-151632262D01*
X234447738Y-151759816D01*
X234600478Y-151855789D01*
X234770745Y-151915368D01*
X234770750Y-151915369D01*
X234949996Y-151935565D01*
X234950000Y-151935565D01*
X234950004Y-151935565D01*
X235129249Y-151915369D01*
X235129252Y-151915368D01*
X235129255Y-151915368D01*
X235299522Y-151855789D01*
X235452262Y-151759816D01*
X235579816Y-151632262D01*
X235675789Y-151479522D01*
X235735368Y-151309255D01*
X235735369Y-151309249D01*
X235755565Y-151130003D01*
X235755565Y-151129996D01*
X235735369Y-150950750D01*
X235735368Y-150950745D01*
X235675789Y-150780478D01*
X235579816Y-150627738D01*
X235452262Y-150500184D01*
X235299523Y-150404211D01*
X235129254Y-150344631D01*
X235129249Y-150344630D01*
X234950004Y-150324435D01*
X234949996Y-150324435D01*
X234770750Y-150344630D01*
X234770745Y-150344631D01*
X234600476Y-150404211D01*
X234447737Y-150500184D01*
X234320184Y-150627737D01*
X234224211Y-150780476D01*
X234164631Y-150950745D01*
X234164630Y-150950750D01*
X234144435Y-151129996D01*
X234144435Y-151130003D01*
X218114781Y-151130003D01*
X217967479Y-150897891D01*
X217967477Y-150897888D01*
X217762912Y-150650611D01*
X217528965Y-150430921D01*
X217528955Y-150430913D01*
X217269339Y-150242291D01*
X217269321Y-150242280D01*
X216988096Y-150087675D01*
X216988093Y-150087674D01*
X216689703Y-149969533D01*
X216689706Y-149969533D01*
X216378864Y-149889723D01*
X216378851Y-149889721D01*
X216143613Y-149860003D01*
X222714435Y-149860003D01*
X222734630Y-150039249D01*
X222734631Y-150039254D01*
X222794211Y-150209523D01*
X222814801Y-150242291D01*
X222890184Y-150362262D01*
X223017738Y-150489816D01*
X223170478Y-150585789D01*
X223340745Y-150645368D01*
X223340750Y-150645369D01*
X223519996Y-150665565D01*
X223520000Y-150665565D01*
X223520004Y-150665565D01*
X223699249Y-150645369D01*
X223699252Y-150645368D01*
X223699255Y-150645368D01*
X223869522Y-150585789D01*
X224022262Y-150489816D01*
X224149816Y-150362262D01*
X224245789Y-150209522D01*
X224305368Y-150039255D01*
X224322216Y-149889723D01*
X224325565Y-149860003D01*
X229064435Y-149860003D01*
X229084630Y-150039249D01*
X229084631Y-150039254D01*
X229144211Y-150209523D01*
X229164801Y-150242291D01*
X229240184Y-150362262D01*
X229367738Y-150489816D01*
X229520478Y-150585789D01*
X229690745Y-150645368D01*
X229690750Y-150645369D01*
X229869996Y-150665565D01*
X229870000Y-150665565D01*
X229870004Y-150665565D01*
X230049249Y-150645369D01*
X230049252Y-150645368D01*
X230049255Y-150645368D01*
X230219522Y-150585789D01*
X230372262Y-150489816D01*
X230499816Y-150362262D01*
X230595789Y-150209522D01*
X230655368Y-150039255D01*
X230672216Y-149889723D01*
X230675565Y-149860003D01*
X236684435Y-149860003D01*
X236704630Y-150039249D01*
X236704631Y-150039254D01*
X236764211Y-150209523D01*
X236784801Y-150242291D01*
X236860184Y-150362262D01*
X236987738Y-150489816D01*
X237140478Y-150585789D01*
X237310745Y-150645368D01*
X237310750Y-150645369D01*
X237489996Y-150665565D01*
X237490000Y-150665565D01*
X237490004Y-150665565D01*
X237669249Y-150645369D01*
X237669252Y-150645368D01*
X237669255Y-150645368D01*
X237839522Y-150585789D01*
X237992262Y-150489816D01*
X238119816Y-150362262D01*
X238215789Y-150209522D01*
X238275368Y-150039255D01*
X238292216Y-149889723D01*
X238295565Y-149860003D01*
X249384435Y-149860003D01*
X249404630Y-150039249D01*
X249404631Y-150039254D01*
X249464211Y-150209523D01*
X249484801Y-150242291D01*
X249560184Y-150362262D01*
X249687738Y-150489816D01*
X249840478Y-150585789D01*
X250010745Y-150645368D01*
X250010750Y-150645369D01*
X250189996Y-150665565D01*
X250190000Y-150665565D01*
X250190004Y-150665565D01*
X250369249Y-150645369D01*
X250369252Y-150645368D01*
X250369255Y-150645368D01*
X250539522Y-150585789D01*
X250692262Y-150489816D01*
X250819816Y-150362262D01*
X250915789Y-150209522D01*
X250975368Y-150039255D01*
X250992216Y-149889723D01*
X250995565Y-149860003D01*
X250995565Y-149859996D01*
X250975369Y-149680750D01*
X250975368Y-149680745D01*
X250938199Y-149574522D01*
X250915789Y-149510478D01*
X250819816Y-149357738D01*
X250692262Y-149230184D01*
X250539523Y-149134211D01*
X250369254Y-149074631D01*
X250369249Y-149074630D01*
X250190004Y-149054435D01*
X250189996Y-149054435D01*
X250010750Y-149074630D01*
X250010745Y-149074631D01*
X249840476Y-149134211D01*
X249687737Y-149230184D01*
X249560184Y-149357737D01*
X249464211Y-149510476D01*
X249404631Y-149680745D01*
X249404630Y-149680750D01*
X249384435Y-149859996D01*
X249384435Y-149860003D01*
X238295565Y-149860003D01*
X238295565Y-149859996D01*
X238275369Y-149680750D01*
X238275368Y-149680745D01*
X238238199Y-149574522D01*
X238215789Y-149510478D01*
X238119816Y-149357738D01*
X237992262Y-149230184D01*
X237839523Y-149134211D01*
X237669254Y-149074631D01*
X237669249Y-149074630D01*
X237490004Y-149054435D01*
X237489996Y-149054435D01*
X237310750Y-149074630D01*
X237310745Y-149074631D01*
X237140476Y-149134211D01*
X236987737Y-149230184D01*
X236860184Y-149357737D01*
X236764211Y-149510476D01*
X236704631Y-149680745D01*
X236704630Y-149680750D01*
X236684435Y-149859996D01*
X236684435Y-149860003D01*
X230675565Y-149860003D01*
X230675565Y-149859996D01*
X230655369Y-149680750D01*
X230655368Y-149680745D01*
X230618199Y-149574522D01*
X230595789Y-149510478D01*
X230499816Y-149357738D01*
X230372262Y-149230184D01*
X230219523Y-149134211D01*
X230049254Y-149074631D01*
X230049249Y-149074630D01*
X229870004Y-149054435D01*
X229869996Y-149054435D01*
X229690750Y-149074630D01*
X229690745Y-149074631D01*
X229520476Y-149134211D01*
X229367737Y-149230184D01*
X229240184Y-149357737D01*
X229144211Y-149510476D01*
X229084631Y-149680745D01*
X229084630Y-149680750D01*
X229064435Y-149859996D01*
X229064435Y-149860003D01*
X224325565Y-149860003D01*
X224325565Y-149859996D01*
X224305369Y-149680750D01*
X224305368Y-149680745D01*
X224268199Y-149574522D01*
X224245789Y-149510478D01*
X224149816Y-149357738D01*
X224022262Y-149230184D01*
X223869523Y-149134211D01*
X223699254Y-149074631D01*
X223699249Y-149074630D01*
X223520004Y-149054435D01*
X223519996Y-149054435D01*
X223340750Y-149074630D01*
X223340745Y-149074631D01*
X223170476Y-149134211D01*
X223017737Y-149230184D01*
X222890184Y-149357737D01*
X222794211Y-149510476D01*
X222734631Y-149680745D01*
X222734630Y-149680750D01*
X222714435Y-149859996D01*
X222714435Y-149860003D01*
X216143613Y-149860003D01*
X216060475Y-149849500D01*
X216060464Y-149849500D01*
X215739536Y-149849500D01*
X215739524Y-149849500D01*
X215421148Y-149889721D01*
X215421135Y-149889723D01*
X215110294Y-149969533D01*
X214811906Y-150087674D01*
X214811903Y-150087675D01*
X214530678Y-150242280D01*
X214530660Y-150242291D01*
X214271044Y-150430913D01*
X214271034Y-150430921D01*
X214037087Y-150650611D01*
X213832522Y-150897888D01*
X213832520Y-150897891D01*
X213660562Y-151168855D01*
X213660558Y-151168861D01*
X213523918Y-151459235D01*
X213523916Y-151459240D01*
X213424745Y-151764457D01*
X213424744Y-151764461D01*
X213424744Y-151764462D01*
X213418882Y-151795188D01*
X213364607Y-152079709D01*
X213364606Y-152079716D01*
X213344457Y-152399994D01*
X213344457Y-152400005D01*
X208580500Y-152400005D01*
X208580500Y-147955003D01*
X228429435Y-147955003D01*
X228449630Y-148134249D01*
X228449631Y-148134254D01*
X228509211Y-148304523D01*
X228576207Y-148411145D01*
X228605184Y-148457262D01*
X228732738Y-148584816D01*
X228885478Y-148680789D01*
X229055745Y-148740368D01*
X229055750Y-148740369D01*
X229234996Y-148760565D01*
X229235000Y-148760565D01*
X229235004Y-148760565D01*
X229414249Y-148740369D01*
X229414252Y-148740368D01*
X229414255Y-148740368D01*
X229584522Y-148680789D01*
X229729007Y-148590003D01*
X243034435Y-148590003D01*
X243054630Y-148769249D01*
X243054631Y-148769254D01*
X243114211Y-148939523D01*
X243186416Y-149054435D01*
X243210184Y-149092262D01*
X243337738Y-149219816D01*
X243490478Y-149315789D01*
X243660745Y-149375368D01*
X243660750Y-149375369D01*
X243839996Y-149395565D01*
X243840000Y-149395565D01*
X243840004Y-149395565D01*
X244019249Y-149375369D01*
X244019252Y-149375368D01*
X244019255Y-149375368D01*
X244189522Y-149315789D01*
X244342262Y-149219816D01*
X244469816Y-149092262D01*
X244565789Y-148939522D01*
X244625368Y-148769255D01*
X244630609Y-148722738D01*
X244645565Y-148590003D01*
X258274435Y-148590003D01*
X258294630Y-148769249D01*
X258294631Y-148769254D01*
X258354211Y-148939523D01*
X258426416Y-149054435D01*
X258450184Y-149092262D01*
X258577738Y-149219816D01*
X258594239Y-149230184D01*
X258730478Y-149315789D01*
X258865779Y-149363133D01*
X258922556Y-149403855D01*
X258941867Y-149439221D01*
X258989210Y-149574521D01*
X259085184Y-149727262D01*
X259212738Y-149854816D01*
X259365478Y-149950789D01*
X259535745Y-150010368D01*
X259535750Y-150010369D01*
X259714996Y-150030565D01*
X259715000Y-150030565D01*
X259715004Y-150030565D01*
X259894249Y-150010369D01*
X259894252Y-150010368D01*
X259894255Y-150010368D01*
X260064522Y-149950789D01*
X260217262Y-149854816D01*
X260344816Y-149727262D01*
X260440789Y-149574522D01*
X260500368Y-149404255D01*
X260501347Y-149395565D01*
X260520565Y-149225003D01*
X260520565Y-149224996D01*
X260500369Y-149045750D01*
X260500368Y-149045745D01*
X260440788Y-148875476D01*
X260401582Y-148813080D01*
X260344816Y-148722738D01*
X260217262Y-148595184D01*
X260064521Y-148499210D01*
X259929221Y-148451867D01*
X259872444Y-148411145D01*
X259853133Y-148375779D01*
X259805789Y-148240478D01*
X259739391Y-148134806D01*
X259709816Y-148087738D01*
X259582262Y-147960184D01*
X259574017Y-147955003D01*
X262719435Y-147955003D01*
X262739630Y-148134249D01*
X262739631Y-148134254D01*
X262799211Y-148304523D01*
X262866207Y-148411145D01*
X262895184Y-148457262D01*
X263022738Y-148584816D01*
X263175478Y-148680789D01*
X263345745Y-148740368D01*
X263345750Y-148740369D01*
X263524996Y-148760565D01*
X263525000Y-148760565D01*
X263525004Y-148760565D01*
X263704249Y-148740369D01*
X263704252Y-148740368D01*
X263704255Y-148740368D01*
X263874522Y-148680789D01*
X264027262Y-148584816D01*
X264154816Y-148457262D01*
X264250789Y-148304522D01*
X264310368Y-148134255D01*
X264315609Y-148087738D01*
X264330565Y-147955003D01*
X264330565Y-147954996D01*
X264310369Y-147775750D01*
X264310368Y-147775745D01*
X264250788Y-147605476D01*
X264202538Y-147528687D01*
X264154816Y-147452738D01*
X264027262Y-147325184D01*
X263874523Y-147229211D01*
X263704254Y-147169631D01*
X263704249Y-147169630D01*
X263525004Y-147149435D01*
X263524996Y-147149435D01*
X263345750Y-147169630D01*
X263345745Y-147169631D01*
X263175476Y-147229211D01*
X263022737Y-147325184D01*
X262895184Y-147452737D01*
X262799211Y-147605476D01*
X262739631Y-147775745D01*
X262739630Y-147775750D01*
X262719435Y-147954996D01*
X262719435Y-147955003D01*
X259574017Y-147955003D01*
X259429523Y-147864211D01*
X259259254Y-147804631D01*
X259259249Y-147804630D01*
X259080004Y-147784435D01*
X259079996Y-147784435D01*
X258900750Y-147804630D01*
X258900745Y-147804631D01*
X258730476Y-147864211D01*
X258577737Y-147960184D01*
X258450184Y-148087737D01*
X258354211Y-148240476D01*
X258294631Y-148410745D01*
X258294630Y-148410750D01*
X258274435Y-148589996D01*
X258274435Y-148590003D01*
X244645565Y-148590003D01*
X244645565Y-148589996D01*
X244625369Y-148410750D01*
X244625368Y-148410745D01*
X244565788Y-148240476D01*
X244499391Y-148134806D01*
X244469816Y-148087738D01*
X244424758Y-148042680D01*
X244391274Y-147981358D01*
X244396258Y-147911666D01*
X244424759Y-147867319D01*
X244440378Y-147851700D01*
X244469816Y-147822262D01*
X244565789Y-147669522D01*
X244625368Y-147499255D01*
X244630609Y-147452738D01*
X244642248Y-147349441D01*
X248134000Y-147349441D01*
X248154195Y-147528687D01*
X248154196Y-147528692D01*
X248213776Y-147698961D01*
X248280174Y-147804632D01*
X248309749Y-147851700D01*
X248437303Y-147979254D01*
X248590043Y-148075227D01*
X248758718Y-148134249D01*
X248760310Y-148134806D01*
X248760315Y-148134807D01*
X248939561Y-148155003D01*
X248939565Y-148155003D01*
X248939569Y-148155003D01*
X249118814Y-148134807D01*
X249118817Y-148134806D01*
X249118820Y-148134806D01*
X249289087Y-148075227D01*
X249441827Y-147979254D01*
X249569381Y-147851700D01*
X249665354Y-147698960D01*
X249724933Y-147528693D01*
X249745130Y-147349438D01*
X249742397Y-147325184D01*
X249724934Y-147170188D01*
X249724933Y-147170183D01*
X249665353Y-146999914D01*
X249569380Y-146847175D01*
X249441827Y-146719622D01*
X249289088Y-146623649D01*
X249118819Y-146564069D01*
X249118814Y-146564068D01*
X248939569Y-146543873D01*
X248939561Y-146543873D01*
X248760315Y-146564068D01*
X248760310Y-146564069D01*
X248590041Y-146623649D01*
X248437302Y-146719622D01*
X248309749Y-146847175D01*
X248213776Y-146999914D01*
X248154196Y-147170183D01*
X248154195Y-147170188D01*
X248134000Y-147349434D01*
X248134000Y-147349441D01*
X244642248Y-147349441D01*
X244645565Y-147320003D01*
X244645565Y-147319996D01*
X244625369Y-147140750D01*
X244625368Y-147140745D01*
X244565788Y-146970476D01*
X244488313Y-146847176D01*
X244469816Y-146817738D01*
X244342262Y-146690184D01*
X244189523Y-146594211D01*
X244019254Y-146534631D01*
X244019249Y-146534630D01*
X243840004Y-146514435D01*
X243839996Y-146514435D01*
X243660750Y-146534630D01*
X243660745Y-146534631D01*
X243490476Y-146594211D01*
X243337737Y-146690184D01*
X243210184Y-146817737D01*
X243114211Y-146970476D01*
X243054631Y-147140745D01*
X243054630Y-147140750D01*
X243034435Y-147319996D01*
X243034435Y-147320003D01*
X243054630Y-147499249D01*
X243054631Y-147499254D01*
X243114211Y-147669523D01*
X243210184Y-147822262D01*
X243210185Y-147822263D01*
X243255241Y-147867320D01*
X243288725Y-147928643D01*
X243283740Y-147998335D01*
X243255241Y-148042680D01*
X243210184Y-148087737D01*
X243114211Y-148240476D01*
X243054631Y-148410745D01*
X243054630Y-148410750D01*
X243034435Y-148589996D01*
X243034435Y-148590003D01*
X229729007Y-148590003D01*
X229737262Y-148584816D01*
X229864816Y-148457262D01*
X229960789Y-148304522D01*
X230020368Y-148134255D01*
X230025609Y-148087738D01*
X230040565Y-147955003D01*
X230040565Y-147954996D01*
X230020369Y-147775750D01*
X230020368Y-147775745D01*
X229960788Y-147605476D01*
X229912538Y-147528687D01*
X229864816Y-147452738D01*
X229737262Y-147325184D01*
X229584523Y-147229211D01*
X229414254Y-147169631D01*
X229414249Y-147169630D01*
X229235004Y-147149435D01*
X229234996Y-147149435D01*
X229055750Y-147169630D01*
X229055745Y-147169631D01*
X228885476Y-147229211D01*
X228732737Y-147325184D01*
X228605184Y-147452737D01*
X228509211Y-147605476D01*
X228449631Y-147775745D01*
X228449630Y-147775750D01*
X228429435Y-147954996D01*
X228429435Y-147955003D01*
X208580500Y-147955003D01*
X208580500Y-144780003D01*
X273514435Y-144780003D01*
X273534630Y-144959249D01*
X273534631Y-144959254D01*
X273594211Y-145129523D01*
X273690184Y-145282262D01*
X273817738Y-145409816D01*
X273970478Y-145505789D01*
X274140745Y-145565368D01*
X274140750Y-145565369D01*
X274319996Y-145585565D01*
X274320000Y-145585565D01*
X274320004Y-145585565D01*
X274499249Y-145565369D01*
X274499252Y-145565368D01*
X274499255Y-145565368D01*
X274669522Y-145505789D01*
X274822262Y-145409816D01*
X274949816Y-145282262D01*
X275045789Y-145129522D01*
X275105368Y-144959255D01*
X275125565Y-144780000D01*
X275105368Y-144600745D01*
X275045789Y-144430478D01*
X274949816Y-144277738D01*
X274822262Y-144150184D01*
X274669523Y-144054211D01*
X274499254Y-143994631D01*
X274499249Y-143994630D01*
X274320004Y-143974435D01*
X274319996Y-143974435D01*
X274140750Y-143994630D01*
X274140745Y-143994631D01*
X273970476Y-144054211D01*
X273817737Y-144150184D01*
X273690184Y-144277737D01*
X273594211Y-144430476D01*
X273534631Y-144600745D01*
X273534630Y-144600750D01*
X273514435Y-144779996D01*
X273514435Y-144780003D01*
X208580500Y-144780003D01*
X208580500Y-143510003D01*
X226524435Y-143510003D01*
X226544630Y-143689249D01*
X226544631Y-143689254D01*
X226604211Y-143859523D01*
X226676416Y-143974435D01*
X226700184Y-144012262D01*
X226827738Y-144139816D01*
X226980478Y-144235789D01*
X227150745Y-144295368D01*
X227150750Y-144295369D01*
X227329996Y-144315565D01*
X227330000Y-144315565D01*
X227330004Y-144315565D01*
X227509249Y-144295369D01*
X227509252Y-144295368D01*
X227509255Y-144295368D01*
X227679522Y-144235789D01*
X227832262Y-144139816D01*
X227959816Y-144012262D01*
X228055789Y-143859522D01*
X228115368Y-143689255D01*
X228135565Y-143510000D01*
X228115368Y-143330745D01*
X228055789Y-143160478D01*
X227959816Y-143007738D01*
X227832262Y-142880184D01*
X227679523Y-142784211D01*
X227509254Y-142724631D01*
X227509249Y-142724630D01*
X227330004Y-142704435D01*
X227329996Y-142704435D01*
X227150750Y-142724630D01*
X227150745Y-142724631D01*
X226980476Y-142784211D01*
X226827737Y-142880184D01*
X226700184Y-143007737D01*
X226604211Y-143160476D01*
X226544631Y-143330745D01*
X226544630Y-143330750D01*
X226524435Y-143509996D01*
X226524435Y-143510003D01*
X208580500Y-143510003D01*
X208580500Y-142240003D01*
X230334435Y-142240003D01*
X230354630Y-142419249D01*
X230354631Y-142419254D01*
X230414211Y-142589523D01*
X230486416Y-142704435D01*
X230510184Y-142742262D01*
X230637738Y-142869816D01*
X230790478Y-142965789D01*
X230960745Y-143025368D01*
X230960750Y-143025369D01*
X231139996Y-143045565D01*
X231140000Y-143045565D01*
X231140004Y-143045565D01*
X231319249Y-143025369D01*
X231319252Y-143025368D01*
X231319255Y-143025368D01*
X231489522Y-142965789D01*
X231642262Y-142869816D01*
X231769816Y-142742262D01*
X231865789Y-142589522D01*
X231925368Y-142419255D01*
X231945565Y-142240000D01*
X231925368Y-142060745D01*
X231865789Y-141890478D01*
X231769816Y-141737738D01*
X231642262Y-141610184D01*
X231489523Y-141514211D01*
X231319254Y-141454631D01*
X231319249Y-141454630D01*
X231140004Y-141434435D01*
X231139996Y-141434435D01*
X230960750Y-141454630D01*
X230960745Y-141454631D01*
X230790476Y-141514211D01*
X230637737Y-141610184D01*
X230510184Y-141737737D01*
X230414211Y-141890476D01*
X230354631Y-142060745D01*
X230354630Y-142060750D01*
X230334435Y-142239996D01*
X230334435Y-142240003D01*
X208580500Y-142240003D01*
X208580500Y-140970003D01*
X215094435Y-140970003D01*
X215114630Y-141149249D01*
X215114631Y-141149254D01*
X215174211Y-141319523D01*
X215259105Y-141454630D01*
X215270184Y-141472262D01*
X215397738Y-141599816D01*
X215550478Y-141695789D01*
X215720745Y-141755368D01*
X215720750Y-141755369D01*
X215899996Y-141775565D01*
X215900000Y-141775565D01*
X215900004Y-141775565D01*
X216079249Y-141755369D01*
X216079252Y-141755368D01*
X216079255Y-141755368D01*
X216249522Y-141695789D01*
X216402262Y-141599816D01*
X216529816Y-141472262D01*
X216625789Y-141319522D01*
X216685368Y-141149255D01*
X216705565Y-140970000D01*
X216685368Y-140790745D01*
X216625789Y-140620478D01*
X216529816Y-140467738D01*
X216402262Y-140340184D01*
X216391117Y-140333181D01*
X216249523Y-140244211D01*
X216079254Y-140184631D01*
X216079249Y-140184630D01*
X215900004Y-140164435D01*
X215899996Y-140164435D01*
X215720750Y-140184630D01*
X215720745Y-140184631D01*
X215550476Y-140244211D01*
X215397737Y-140340184D01*
X215270184Y-140467737D01*
X215174211Y-140620476D01*
X215114631Y-140790745D01*
X215114630Y-140790750D01*
X215094435Y-140969996D01*
X215094435Y-140970003D01*
X208580500Y-140970003D01*
X208580500Y-137160003D01*
X227794435Y-137160003D01*
X227814630Y-137339249D01*
X227814631Y-137339254D01*
X227874211Y-137509523D01*
X227959105Y-137644630D01*
X227970184Y-137662262D01*
X228097738Y-137789816D01*
X228114239Y-137800184D01*
X228245364Y-137882576D01*
X228250478Y-137885789D01*
X228420745Y-137945368D01*
X228420750Y-137945369D01*
X228599996Y-137965565D01*
X228600000Y-137965565D01*
X228600004Y-137965565D01*
X228779249Y-137945369D01*
X228779252Y-137945368D01*
X228779255Y-137945368D01*
X228949522Y-137885789D01*
X229102262Y-137789816D01*
X229102267Y-137789810D01*
X229105097Y-137787555D01*
X229107275Y-137786665D01*
X229108158Y-137786111D01*
X229108255Y-137786265D01*
X229169783Y-137761145D01*
X229182412Y-137760500D01*
X232323331Y-137760500D01*
X232323347Y-137760501D01*
X232330943Y-137760501D01*
X232489054Y-137760501D01*
X232489057Y-137760501D01*
X232641785Y-137719577D01*
X232691904Y-137690639D01*
X232778716Y-137640520D01*
X232867820Y-137551415D01*
X232929141Y-137517932D01*
X232998833Y-137522916D01*
X233054767Y-137564787D01*
X233079184Y-137630251D01*
X233079500Y-137639098D01*
X233079500Y-137847587D01*
X233059815Y-137914626D01*
X233052450Y-137924896D01*
X233050186Y-137927734D01*
X232954211Y-138080476D01*
X232894631Y-138250745D01*
X232894630Y-138250750D01*
X232874435Y-138429996D01*
X232874435Y-138430003D01*
X232894630Y-138609249D01*
X232894631Y-138609254D01*
X232954211Y-138779523D01*
X233026416Y-138894435D01*
X233050184Y-138932262D01*
X233177738Y-139059816D01*
X233330478Y-139155789D01*
X233467020Y-139203567D01*
X233500745Y-139215368D01*
X233500750Y-139215369D01*
X233679996Y-139235565D01*
X233680000Y-139235565D01*
X233680004Y-139235565D01*
X233859249Y-139215369D01*
X233859252Y-139215368D01*
X233859255Y-139215368D01*
X234029522Y-139155789D01*
X234182262Y-139059816D01*
X234309816Y-138932262D01*
X234405789Y-138779522D01*
X234465368Y-138609255D01*
X234485565Y-138430000D01*
X234485459Y-138429061D01*
X234465369Y-138250750D01*
X234465368Y-138250745D01*
X234405788Y-138080475D01*
X234365682Y-138016648D01*
X234346681Y-137949411D01*
X234367048Y-137882576D01*
X234420316Y-137837361D01*
X234489572Y-137828123D01*
X234536648Y-137845682D01*
X234600475Y-137885788D01*
X234770745Y-137945368D01*
X234770750Y-137945369D01*
X234949996Y-137965565D01*
X234950000Y-137965565D01*
X234950004Y-137965565D01*
X235129249Y-137945369D01*
X235129252Y-137945368D01*
X235129255Y-137945368D01*
X235299522Y-137885789D01*
X235452262Y-137789816D01*
X235579816Y-137662262D01*
X235675789Y-137509522D01*
X235735368Y-137339255D01*
X235743559Y-137266557D01*
X235755565Y-137160003D01*
X235755565Y-137159996D01*
X235735369Y-136980750D01*
X235735368Y-136980745D01*
X235705291Y-136894790D01*
X235675789Y-136810478D01*
X235648969Y-136767795D01*
X235590894Y-136675369D01*
X235579816Y-136657738D01*
X235452262Y-136530184D01*
X235441117Y-136523181D01*
X235299521Y-136434210D01*
X235242794Y-136414361D01*
X235186018Y-136373639D01*
X235160270Y-136308687D01*
X235173726Y-136240125D01*
X235196067Y-136209638D01*
X236290724Y-135114981D01*
X237474916Y-133930789D01*
X237536237Y-133897306D01*
X237605929Y-133902290D01*
X237628567Y-133913479D01*
X237775473Y-134005787D01*
X237775477Y-134005788D01*
X237775478Y-134005789D01*
X237945745Y-134065368D01*
X237952610Y-134066141D01*
X238017024Y-134093205D01*
X238056582Y-134150798D01*
X238058723Y-134220635D01*
X238043728Y-134255329D01*
X238034212Y-134270475D01*
X237974631Y-134440745D01*
X237974630Y-134440750D01*
X237954435Y-134619996D01*
X237954435Y-134620003D01*
X237974630Y-134799249D01*
X237974631Y-134799254D01*
X238034211Y-134969523D01*
X238130184Y-135122262D01*
X238159149Y-135151227D01*
X238192634Y-135212550D01*
X238191243Y-135271001D01*
X238159499Y-135389472D01*
X238159499Y-135557575D01*
X238159500Y-135557588D01*
X238159500Y-137854801D01*
X238159499Y-137854819D01*
X238159499Y-138020525D01*
X238159498Y-138020525D01*
X238200423Y-138173256D01*
X238229358Y-138223371D01*
X238229359Y-138223375D01*
X238229360Y-138223375D01*
X238279479Y-138310185D01*
X238279481Y-138310188D01*
X238398349Y-138429056D01*
X238398354Y-138429060D01*
X239019209Y-139049915D01*
X239052693Y-139111237D01*
X239047709Y-139180929D01*
X239036521Y-139203567D01*
X238944211Y-139350476D01*
X238884631Y-139520745D01*
X238884630Y-139520750D01*
X238864435Y-139699996D01*
X238864435Y-139700003D01*
X238884630Y-139879249D01*
X238884631Y-139879254D01*
X238944211Y-140049523D01*
X239016416Y-140164435D01*
X239040184Y-140202262D01*
X239167738Y-140329816D01*
X239320478Y-140425789D01*
X239490745Y-140485368D01*
X239490750Y-140485369D01*
X239669996Y-140505565D01*
X239670000Y-140505565D01*
X239670004Y-140505565D01*
X239849249Y-140485369D01*
X239849252Y-140485368D01*
X239849255Y-140485368D01*
X240019522Y-140425789D01*
X240166432Y-140333478D01*
X240233668Y-140314479D01*
X240300504Y-140334847D01*
X240320085Y-140350792D01*
X241419813Y-141450520D01*
X241556744Y-141529577D01*
X241709472Y-141570501D01*
X241709475Y-141570501D01*
X241875183Y-141570501D01*
X241875199Y-141570500D01*
X243257588Y-141570500D01*
X243324627Y-141590185D01*
X243334903Y-141597555D01*
X243337736Y-141599814D01*
X243337738Y-141599816D01*
X243490478Y-141695789D01*
X243660745Y-141755368D01*
X243660750Y-141755369D01*
X243839996Y-141775565D01*
X243840000Y-141775565D01*
X243840004Y-141775565D01*
X244019249Y-141755369D01*
X244019252Y-141755368D01*
X244019255Y-141755368D01*
X244189522Y-141695789D01*
X244342262Y-141599816D01*
X244469816Y-141472262D01*
X244565789Y-141319522D01*
X244625368Y-141149255D01*
X244645565Y-140970003D01*
X270974435Y-140970003D01*
X270994630Y-141149249D01*
X270994631Y-141149254D01*
X271054211Y-141319523D01*
X271139105Y-141454630D01*
X271150184Y-141472262D01*
X271277738Y-141599816D01*
X271430478Y-141695789D01*
X271600745Y-141755368D01*
X271600750Y-141755369D01*
X271779996Y-141775565D01*
X271780000Y-141775565D01*
X271780004Y-141775565D01*
X271959249Y-141755369D01*
X271959252Y-141755368D01*
X271959255Y-141755368D01*
X272129522Y-141695789D01*
X272282262Y-141599816D01*
X272409816Y-141472262D01*
X272505789Y-141319522D01*
X272565368Y-141149255D01*
X272585565Y-140970003D01*
X273514435Y-140970003D01*
X273534630Y-141149249D01*
X273534631Y-141149254D01*
X273594211Y-141319523D01*
X273679105Y-141454630D01*
X273690184Y-141472262D01*
X273817738Y-141599816D01*
X273970478Y-141695789D01*
X274140745Y-141755368D01*
X274140750Y-141755369D01*
X274319996Y-141775565D01*
X274320000Y-141775565D01*
X274320004Y-141775565D01*
X274499249Y-141755369D01*
X274499252Y-141755368D01*
X274499255Y-141755368D01*
X274669522Y-141695789D01*
X274822262Y-141599816D01*
X274949816Y-141472262D01*
X275045789Y-141319522D01*
X275105368Y-141149255D01*
X275125565Y-140970000D01*
X275105368Y-140790745D01*
X275045789Y-140620478D01*
X274949816Y-140467738D01*
X274822262Y-140340184D01*
X274811117Y-140333181D01*
X274669523Y-140244211D01*
X274499254Y-140184631D01*
X274499249Y-140184630D01*
X274320004Y-140164435D01*
X274319996Y-140164435D01*
X274140750Y-140184630D01*
X274140745Y-140184631D01*
X273970476Y-140244211D01*
X273817737Y-140340184D01*
X273690184Y-140467737D01*
X273594211Y-140620476D01*
X273534631Y-140790745D01*
X273534630Y-140790750D01*
X273514435Y-140969996D01*
X273514435Y-140970003D01*
X272585565Y-140970003D01*
X272585565Y-140970000D01*
X272565368Y-140790745D01*
X272505789Y-140620478D01*
X272409816Y-140467738D01*
X272282262Y-140340184D01*
X272271117Y-140333181D01*
X272129523Y-140244211D01*
X271959254Y-140184631D01*
X271959249Y-140184630D01*
X271780004Y-140164435D01*
X271779996Y-140164435D01*
X271600750Y-140184630D01*
X271600745Y-140184631D01*
X271430476Y-140244211D01*
X271277737Y-140340184D01*
X271150184Y-140467737D01*
X271054211Y-140620476D01*
X270994631Y-140790745D01*
X270994630Y-140790750D01*
X270974435Y-140969996D01*
X270974435Y-140970003D01*
X244645565Y-140970003D01*
X244645565Y-140970000D01*
X244625368Y-140790745D01*
X244565789Y-140620478D01*
X244469816Y-140467738D01*
X244342262Y-140340184D01*
X244331117Y-140333181D01*
X244189523Y-140244211D01*
X244019254Y-140184631D01*
X244019249Y-140184630D01*
X243840004Y-140164435D01*
X243839996Y-140164435D01*
X243660750Y-140184630D01*
X243660745Y-140184631D01*
X243490476Y-140244211D01*
X243337736Y-140340185D01*
X243334903Y-140342445D01*
X243332724Y-140343334D01*
X243331842Y-140343889D01*
X243331744Y-140343734D01*
X243270217Y-140368855D01*
X243257588Y-140369500D01*
X242088627Y-140369500D01*
X242021588Y-140349815D01*
X242000946Y-140333181D01*
X241367768Y-139700003D01*
X249384435Y-139700003D01*
X249404630Y-139879249D01*
X249404631Y-139879254D01*
X249464211Y-140049523D01*
X249536416Y-140164435D01*
X249560184Y-140202262D01*
X249687738Y-140329816D01*
X249840478Y-140425789D01*
X250010745Y-140485368D01*
X250010750Y-140485369D01*
X250189996Y-140505565D01*
X250190000Y-140505565D01*
X250190004Y-140505565D01*
X250369249Y-140485369D01*
X250369252Y-140485368D01*
X250369255Y-140485368D01*
X250539522Y-140425789D01*
X250692262Y-140329816D01*
X250819816Y-140202262D01*
X250915789Y-140049522D01*
X250975368Y-139879255D01*
X250995565Y-139700000D01*
X250975368Y-139520745D01*
X250915789Y-139350478D01*
X250819816Y-139197738D01*
X250692262Y-139070184D01*
X250539523Y-138974211D01*
X250369254Y-138914631D01*
X250369249Y-138914630D01*
X250190004Y-138894435D01*
X250189996Y-138894435D01*
X250010750Y-138914630D01*
X250010745Y-138914631D01*
X249840476Y-138974211D01*
X249687737Y-139070184D01*
X249560184Y-139197737D01*
X249464211Y-139350476D01*
X249404631Y-139520745D01*
X249404630Y-139520750D01*
X249384435Y-139699996D01*
X249384435Y-139700003D01*
X241367768Y-139700003D01*
X240097768Y-138430003D01*
X265894435Y-138430003D01*
X265914630Y-138609249D01*
X265914631Y-138609254D01*
X265974211Y-138779523D01*
X266046416Y-138894435D01*
X266070184Y-138932262D01*
X266197738Y-139059816D01*
X266350478Y-139155789D01*
X266487020Y-139203567D01*
X266520745Y-139215368D01*
X266520750Y-139215369D01*
X266699996Y-139235565D01*
X266700000Y-139235565D01*
X266700004Y-139235565D01*
X266879249Y-139215369D01*
X266879252Y-139215368D01*
X266879255Y-139215368D01*
X267049522Y-139155789D01*
X267202262Y-139059816D01*
X267329816Y-138932262D01*
X267425789Y-138779522D01*
X267485368Y-138609255D01*
X267505565Y-138430000D01*
X267505459Y-138429061D01*
X267485369Y-138250750D01*
X267485368Y-138250745D01*
X267425788Y-138080476D01*
X267340894Y-137945369D01*
X267329816Y-137927738D01*
X267202262Y-137800184D01*
X267049523Y-137704211D01*
X266879254Y-137644631D01*
X266879249Y-137644630D01*
X266700004Y-137624435D01*
X266699996Y-137624435D01*
X266520750Y-137644630D01*
X266520745Y-137644631D01*
X266350476Y-137704211D01*
X266197737Y-137800184D01*
X266070184Y-137927737D01*
X265974211Y-138080476D01*
X265914631Y-138250745D01*
X265914630Y-138250750D01*
X265894435Y-138429996D01*
X265894435Y-138430003D01*
X240097768Y-138430003D01*
X239396819Y-137729054D01*
X239363334Y-137667731D01*
X239360500Y-137641373D01*
X239360500Y-135768625D01*
X239380185Y-135701586D01*
X239396815Y-135680948D01*
X239718506Y-135359256D01*
X239718511Y-135359253D01*
X239728714Y-135349049D01*
X239728716Y-135349049D01*
X239840520Y-135237245D01*
X239906905Y-135122262D01*
X239919577Y-135100314D01*
X239960500Y-134947586D01*
X239960500Y-134789472D01*
X239960500Y-134292414D01*
X239949479Y-134251284D01*
X239919577Y-134139686D01*
X239876669Y-134065368D01*
X239876669Y-134065366D01*
X239840524Y-134002761D01*
X239840521Y-134002757D01*
X239840520Y-134002755D01*
X239728716Y-133890951D01*
X239728715Y-133890950D01*
X239724385Y-133886620D01*
X239724374Y-133886610D01*
X238915233Y-133077469D01*
X238885872Y-133030742D01*
X238885445Y-133029523D01*
X238850789Y-132930478D01*
X238828025Y-132894249D01*
X238813085Y-132870472D01*
X238794085Y-132803235D01*
X238814453Y-132736400D01*
X238867721Y-132691186D01*
X238918079Y-132680500D01*
X239783678Y-132680500D01*
X239850717Y-132700185D01*
X239896472Y-132752989D01*
X239906898Y-132790617D01*
X239914630Y-132859249D01*
X239974210Y-133029521D01*
X240070184Y-133182262D01*
X240197738Y-133309816D01*
X240350478Y-133405789D01*
X240520745Y-133465368D01*
X240520750Y-133465369D01*
X240699996Y-133485565D01*
X240700000Y-133485565D01*
X240700004Y-133485565D01*
X240879249Y-133465369D01*
X240879252Y-133465368D01*
X240879255Y-133465368D01*
X241049522Y-133405789D01*
X241202262Y-133309816D01*
X241329816Y-133182262D01*
X241425789Y-133029522D01*
X241485368Y-132859255D01*
X241501603Y-132715158D01*
X241528669Y-132650745D01*
X241562818Y-132621658D01*
X241581904Y-132610639D01*
X241668716Y-132560520D01*
X241780520Y-132448716D01*
X241780520Y-132448714D01*
X241790728Y-132438507D01*
X241790730Y-132438504D01*
X242588535Y-131640698D01*
X242649856Y-131607215D01*
X242662311Y-131605163D01*
X242749255Y-131595368D01*
X242919522Y-131535789D01*
X243072262Y-131439816D01*
X243199816Y-131312262D01*
X243295789Y-131159522D01*
X243355368Y-130989255D01*
X243355369Y-130989249D01*
X243370989Y-130850617D01*
X243398055Y-130786203D01*
X243455650Y-130746648D01*
X243494209Y-130740500D01*
X249265791Y-130740500D01*
X249332830Y-130760185D01*
X249378585Y-130812989D01*
X249389011Y-130850617D01*
X249404630Y-130989249D01*
X249404631Y-130989254D01*
X249464211Y-131159523D01*
X249487403Y-131196432D01*
X249560184Y-131312262D01*
X249687738Y-131439816D01*
X249750459Y-131479226D01*
X249835251Y-131532505D01*
X249840478Y-131535789D01*
X249978909Y-131584228D01*
X250010745Y-131595368D01*
X250010750Y-131595369D01*
X250189996Y-131615565D01*
X250190000Y-131615565D01*
X250190004Y-131615565D01*
X250369249Y-131595369D01*
X250369252Y-131595368D01*
X250369255Y-131595368D01*
X250539522Y-131535789D01*
X250544749Y-131532505D01*
X250629527Y-131479235D01*
X250696764Y-131460234D01*
X250763599Y-131480601D01*
X250808814Y-131533869D01*
X250819500Y-131584228D01*
X250819500Y-134479281D01*
X250799815Y-134546320D01*
X250751795Y-134589765D01*
X250712185Y-134609947D01*
X250712184Y-134609948D01*
X250540213Y-134734890D01*
X250389894Y-134885209D01*
X250389890Y-134885214D01*
X250270318Y-135049793D01*
X250214989Y-135092459D01*
X250145375Y-135098438D01*
X250083580Y-135065833D01*
X250069682Y-135049793D01*
X249950109Y-134885214D01*
X249950105Y-134885209D01*
X249799786Y-134734890D01*
X249627820Y-134609951D01*
X249438414Y-134513444D01*
X249438413Y-134513443D01*
X249438412Y-134513443D01*
X249236243Y-134447754D01*
X249236241Y-134447753D01*
X249236240Y-134447753D01*
X249074957Y-134422208D01*
X249026287Y-134414500D01*
X248813713Y-134414500D01*
X248765042Y-134422208D01*
X248603760Y-134447753D01*
X248401585Y-134513444D01*
X248212179Y-134609951D01*
X248040213Y-134734890D01*
X247889894Y-134885209D01*
X247889890Y-134885214D01*
X247770318Y-135049793D01*
X247714989Y-135092459D01*
X247645375Y-135098438D01*
X247583580Y-135065833D01*
X247569682Y-135049793D01*
X247450109Y-134885214D01*
X247450105Y-134885209D01*
X247299786Y-134734890D01*
X247127820Y-134609951D01*
X246938414Y-134513444D01*
X246938413Y-134513443D01*
X246938412Y-134513443D01*
X246736243Y-134447754D01*
X246736241Y-134447753D01*
X246736240Y-134447753D01*
X246574957Y-134422208D01*
X246526287Y-134414500D01*
X246313713Y-134414500D01*
X246265042Y-134422208D01*
X246103760Y-134447753D01*
X245901585Y-134513444D01*
X245712179Y-134609951D01*
X245540213Y-134734890D01*
X245389894Y-134885209D01*
X245389890Y-134885214D01*
X245270008Y-135050218D01*
X245214678Y-135092884D01*
X245145065Y-135098863D01*
X245083270Y-135066257D01*
X245069372Y-135050218D01*
X244949727Y-134885540D01*
X244949723Y-134885535D01*
X244799464Y-134735276D01*
X244799459Y-134735272D01*
X244627557Y-134610379D01*
X244438215Y-134513903D01*
X244236124Y-134448241D01*
X244170000Y-134437768D01*
X244170000Y-135485854D01*
X244103343Y-135447370D01*
X243982535Y-135415000D01*
X243857465Y-135415000D01*
X243736657Y-135447370D01*
X243670000Y-135485854D01*
X243670000Y-134437768D01*
X243669999Y-134437768D01*
X243603875Y-134448241D01*
X243401784Y-134513903D01*
X243212442Y-134610379D01*
X243040540Y-134735272D01*
X243040535Y-134735276D01*
X242890276Y-134885535D01*
X242890272Y-134885540D01*
X242770627Y-135050218D01*
X242715297Y-135092884D01*
X242645684Y-135098863D01*
X242583889Y-135066257D01*
X242569991Y-135050218D01*
X242450109Y-134885214D01*
X242450105Y-134885209D01*
X242299786Y-134734890D01*
X242127820Y-134609951D01*
X241938414Y-134513444D01*
X241938413Y-134513443D01*
X241938412Y-134513443D01*
X241736243Y-134447754D01*
X241736241Y-134447753D01*
X241736240Y-134447753D01*
X241574957Y-134422208D01*
X241526287Y-134414500D01*
X241313713Y-134414500D01*
X241265042Y-134422208D01*
X241103760Y-134447753D01*
X240901585Y-134513444D01*
X240712179Y-134609951D01*
X240540213Y-134734890D01*
X240389890Y-134885213D01*
X240264951Y-135057179D01*
X240168444Y-135246585D01*
X240168443Y-135246587D01*
X240168443Y-135246588D01*
X240167394Y-135249816D01*
X240102753Y-135448760D01*
X240069500Y-135658713D01*
X240069500Y-136121286D01*
X240083493Y-136209638D01*
X240102754Y-136331243D01*
X240167394Y-136530184D01*
X240168444Y-136533414D01*
X240264951Y-136722820D01*
X240389890Y-136894786D01*
X240540213Y-137045109D01*
X240712179Y-137170048D01*
X240712181Y-137170049D01*
X240712184Y-137170051D01*
X240901588Y-137266557D01*
X241103757Y-137332246D01*
X241313713Y-137365500D01*
X241313714Y-137365500D01*
X241526286Y-137365500D01*
X241526287Y-137365500D01*
X241736243Y-137332246D01*
X241938412Y-137266557D01*
X242127816Y-137170051D01*
X242149789Y-137154086D01*
X242299786Y-137045109D01*
X242299788Y-137045106D01*
X242299792Y-137045104D01*
X242450104Y-136894792D01*
X242569991Y-136729779D01*
X242625320Y-136687115D01*
X242694933Y-136681136D01*
X242756729Y-136713741D01*
X242770627Y-136729781D01*
X242890272Y-136894459D01*
X242890276Y-136894464D01*
X243040535Y-137044723D01*
X243040540Y-137044727D01*
X243212442Y-137169620D01*
X243401782Y-137266095D01*
X243603871Y-137331757D01*
X243670000Y-137342231D01*
X243670000Y-136294145D01*
X243736657Y-136332630D01*
X243857465Y-136365000D01*
X243982535Y-136365000D01*
X244103343Y-136332630D01*
X244170000Y-136294145D01*
X244170000Y-137342230D01*
X244236126Y-137331757D01*
X244236129Y-137331757D01*
X244438217Y-137266095D01*
X244627557Y-137169620D01*
X244799459Y-137044727D01*
X244799464Y-137044723D01*
X244949721Y-136894466D01*
X245069371Y-136729781D01*
X245124701Y-136687115D01*
X245194314Y-136681136D01*
X245256110Y-136713741D01*
X245270008Y-136729781D01*
X245389890Y-136894785D01*
X245389894Y-136894790D01*
X245540213Y-137045109D01*
X245712179Y-137170048D01*
X245712181Y-137170049D01*
X245712184Y-137170051D01*
X245901588Y-137266557D01*
X246103757Y-137332246D01*
X246313713Y-137365500D01*
X246313714Y-137365500D01*
X246526286Y-137365500D01*
X246526287Y-137365500D01*
X246736243Y-137332246D01*
X246938412Y-137266557D01*
X247127816Y-137170051D01*
X247149789Y-137154086D01*
X247299786Y-137045109D01*
X247299788Y-137045106D01*
X247299792Y-137045104D01*
X247450104Y-136894792D01*
X247569683Y-136730204D01*
X247625011Y-136687540D01*
X247694624Y-136681561D01*
X247756420Y-136714166D01*
X247770313Y-136730199D01*
X247828639Y-136810478D01*
X247889896Y-136894792D01*
X248040213Y-137045109D01*
X248212179Y-137170048D01*
X248212181Y-137170049D01*
X248212184Y-137170051D01*
X248401588Y-137266557D01*
X248603757Y-137332246D01*
X248813713Y-137365500D01*
X248813714Y-137365500D01*
X249026286Y-137365500D01*
X249026287Y-137365500D01*
X249236243Y-137332246D01*
X249438412Y-137266557D01*
X249627816Y-137170051D01*
X249649789Y-137154086D01*
X249799786Y-137045109D01*
X249799788Y-137045106D01*
X249799792Y-137045104D01*
X249950104Y-136894792D01*
X250069683Y-136730204D01*
X250125011Y-136687540D01*
X250194624Y-136681561D01*
X250256420Y-136714166D01*
X250270313Y-136730199D01*
X250328639Y-136810478D01*
X250389896Y-136894792D01*
X250540213Y-137045109D01*
X250712179Y-137170048D01*
X250712181Y-137170049D01*
X250712184Y-137170051D01*
X250901588Y-137266557D01*
X251103757Y-137332246D01*
X251313713Y-137365500D01*
X251313714Y-137365500D01*
X251526286Y-137365500D01*
X251526287Y-137365500D01*
X251736243Y-137332246D01*
X251938412Y-137266557D01*
X252127816Y-137170051D01*
X252149789Y-137154086D01*
X252299786Y-137045109D01*
X252299788Y-137045106D01*
X252299792Y-137045104D01*
X252450104Y-136894792D01*
X252569683Y-136730204D01*
X252625011Y-136687540D01*
X252694624Y-136681561D01*
X252756420Y-136714166D01*
X252770313Y-136730199D01*
X252828639Y-136810478D01*
X252889896Y-136894792D01*
X253040213Y-137045109D01*
X253212179Y-137170048D01*
X253212181Y-137170049D01*
X253212184Y-137170051D01*
X253401588Y-137266557D01*
X253603757Y-137332246D01*
X253813713Y-137365500D01*
X253813714Y-137365500D01*
X254026286Y-137365500D01*
X254026287Y-137365500D01*
X254236243Y-137332246D01*
X254438412Y-137266557D01*
X254627816Y-137170051D01*
X254799792Y-137045104D01*
X254938604Y-136906291D01*
X254999923Y-136872809D01*
X255069615Y-136877793D01*
X255125549Y-136919664D01*
X255131821Y-136928878D01*
X255135185Y-136934333D01*
X255135186Y-136934334D01*
X255227288Y-137083656D01*
X255351344Y-137207712D01*
X255500666Y-137299814D01*
X255667203Y-137354999D01*
X255769991Y-137365500D01*
X257070008Y-137365499D01*
X257172797Y-137354999D01*
X257339334Y-137299814D01*
X257488656Y-137207712D01*
X257536365Y-137160003D01*
X271609435Y-137160003D01*
X271629630Y-137339249D01*
X271629631Y-137339254D01*
X271689211Y-137509523D01*
X271774105Y-137644630D01*
X271785184Y-137662262D01*
X271912738Y-137789816D01*
X271929239Y-137800184D01*
X272060364Y-137882576D01*
X272065478Y-137885789D01*
X272235745Y-137945368D01*
X272235750Y-137945369D01*
X272414996Y-137965565D01*
X272415000Y-137965565D01*
X272415004Y-137965565D01*
X272594249Y-137945369D01*
X272594252Y-137945368D01*
X272594255Y-137945368D01*
X272764522Y-137885789D01*
X272917262Y-137789816D01*
X273044816Y-137662262D01*
X273140789Y-137509522D01*
X273200368Y-137339255D01*
X273208559Y-137266557D01*
X273220565Y-137160003D01*
X273220565Y-137159996D01*
X273200369Y-136980750D01*
X273200368Y-136980745D01*
X273140788Y-136810475D01*
X273100682Y-136746648D01*
X273081681Y-136679411D01*
X273102048Y-136612576D01*
X273155316Y-136567361D01*
X273224572Y-136558123D01*
X273271648Y-136575682D01*
X273335475Y-136615788D01*
X273505745Y-136675368D01*
X273505750Y-136675369D01*
X273684996Y-136695565D01*
X273685000Y-136695565D01*
X273685004Y-136695565D01*
X273864249Y-136675369D01*
X273864252Y-136675368D01*
X273864255Y-136675368D01*
X274034522Y-136615789D01*
X274187262Y-136519816D01*
X274314816Y-136392262D01*
X274410789Y-136239522D01*
X274470368Y-136069255D01*
X274490565Y-135890003D01*
X274784435Y-135890003D01*
X274804630Y-136069249D01*
X274804631Y-136069254D01*
X274864211Y-136239523D01*
X274936416Y-136354435D01*
X274960184Y-136392262D01*
X275087738Y-136519816D01*
X275176648Y-136575682D01*
X275235364Y-136612576D01*
X275240478Y-136615789D01*
X275381141Y-136665009D01*
X275410745Y-136675368D01*
X275410750Y-136675369D01*
X275589996Y-136695565D01*
X275590000Y-136695565D01*
X275590004Y-136695565D01*
X275769249Y-136675369D01*
X275769252Y-136675368D01*
X275769255Y-136675368D01*
X275939522Y-136615789D01*
X276092262Y-136519816D01*
X276219816Y-136392262D01*
X276315789Y-136239522D01*
X276375368Y-136069255D01*
X276395565Y-135890000D01*
X276388519Y-135827465D01*
X276375369Y-135710750D01*
X276375368Y-135710745D01*
X276315788Y-135540476D01*
X276230894Y-135405369D01*
X276219816Y-135387738D01*
X276092262Y-135260184D01*
X276075763Y-135249817D01*
X275939523Y-135164211D01*
X275769254Y-135104631D01*
X275769249Y-135104630D01*
X275590004Y-135084435D01*
X275589996Y-135084435D01*
X275410750Y-135104630D01*
X275410745Y-135104631D01*
X275240476Y-135164211D01*
X275087737Y-135260184D01*
X274960184Y-135387737D01*
X274864211Y-135540476D01*
X274804631Y-135710745D01*
X274804630Y-135710750D01*
X274784435Y-135889996D01*
X274784435Y-135890003D01*
X274490565Y-135890003D01*
X274490565Y-135890000D01*
X274483519Y-135827465D01*
X274470369Y-135710750D01*
X274470368Y-135710745D01*
X274410788Y-135540476D01*
X274325894Y-135405369D01*
X274314816Y-135387738D01*
X274187262Y-135260184D01*
X274170763Y-135249817D01*
X274034523Y-135164211D01*
X273864254Y-135104631D01*
X273864249Y-135104630D01*
X273685004Y-135084435D01*
X273684996Y-135084435D01*
X273505750Y-135104630D01*
X273505745Y-135104631D01*
X273335476Y-135164211D01*
X273182737Y-135260184D01*
X273055184Y-135387737D01*
X272959211Y-135540476D01*
X272899631Y-135710745D01*
X272899630Y-135710750D01*
X272879435Y-135889996D01*
X272879435Y-135890003D01*
X272899630Y-136069249D01*
X272899631Y-136069254D01*
X272959211Y-136239523D01*
X272999318Y-136303352D01*
X273018318Y-136370588D01*
X272997950Y-136437424D01*
X272944683Y-136482638D01*
X272875426Y-136491876D01*
X272828352Y-136474318D01*
X272764523Y-136434211D01*
X272594254Y-136374631D01*
X272594249Y-136374630D01*
X272415004Y-136354435D01*
X272414996Y-136354435D01*
X272235750Y-136374630D01*
X272235745Y-136374631D01*
X272065476Y-136434211D01*
X271912737Y-136530184D01*
X271785184Y-136657737D01*
X271689211Y-136810476D01*
X271629631Y-136980745D01*
X271629630Y-136980750D01*
X271609435Y-137159996D01*
X271609435Y-137160003D01*
X257536365Y-137160003D01*
X257612712Y-137083656D01*
X257704814Y-136934334D01*
X257759999Y-136767797D01*
X257770500Y-136665009D01*
X257770499Y-135114992D01*
X257768851Y-135098863D01*
X257759999Y-135012203D01*
X257759998Y-135012200D01*
X257745856Y-134969522D01*
X257704814Y-134845666D01*
X257612712Y-134696344D01*
X257488656Y-134572288D01*
X257339334Y-134480186D01*
X257172797Y-134425001D01*
X257172795Y-134425000D01*
X257070010Y-134414500D01*
X255769998Y-134414500D01*
X255769981Y-134414501D01*
X255667203Y-134425000D01*
X255667200Y-134425001D01*
X255500668Y-134480185D01*
X255500663Y-134480187D01*
X255351342Y-134572289D01*
X255227289Y-134696342D01*
X255131821Y-134851121D01*
X255079873Y-134897845D01*
X255010910Y-134909068D01*
X254946828Y-134881224D01*
X254938601Y-134873705D01*
X254799786Y-134734890D01*
X254627820Y-134609951D01*
X254438414Y-134513444D01*
X254438413Y-134513443D01*
X254438412Y-134513443D01*
X254236243Y-134447754D01*
X254236241Y-134447753D01*
X254236240Y-134447753D01*
X254074957Y-134422208D01*
X254026287Y-134414500D01*
X253813713Y-134414500D01*
X253765042Y-134422208D01*
X253603760Y-134447753D01*
X253401585Y-134513444D01*
X253212179Y-134609951D01*
X253040213Y-134734890D01*
X252889894Y-134885209D01*
X252889890Y-134885214D01*
X252770318Y-135049793D01*
X252714989Y-135092459D01*
X252645375Y-135098438D01*
X252583580Y-135065833D01*
X252569682Y-135049793D01*
X252450109Y-134885214D01*
X252450105Y-134885209D01*
X252299786Y-134734890D01*
X252127815Y-134609948D01*
X252127814Y-134609947D01*
X252088205Y-134589765D01*
X252037409Y-134541791D01*
X252020500Y-134479281D01*
X252020500Y-132801940D01*
X252040185Y-132734901D01*
X252092989Y-132689146D01*
X252162147Y-132679202D01*
X252221596Y-132706351D01*
X252222295Y-132705475D01*
X252227736Y-132709814D01*
X252227738Y-132709816D01*
X252380478Y-132805789D01*
X252533258Y-132859249D01*
X252550745Y-132865368D01*
X252550750Y-132865369D01*
X252729996Y-132885565D01*
X252730000Y-132885565D01*
X252730004Y-132885565D01*
X252909249Y-132865369D01*
X252909252Y-132865368D01*
X252909255Y-132865368D01*
X253079522Y-132805789D01*
X253232262Y-132709816D01*
X253232267Y-132709810D01*
X253235097Y-132707555D01*
X253237275Y-132706665D01*
X253238158Y-132706111D01*
X253238255Y-132706265D01*
X253299783Y-132681145D01*
X253312412Y-132680500D01*
X256239903Y-132680500D01*
X256306942Y-132700185D01*
X256327584Y-132716819D01*
X258249298Y-134638533D01*
X258282783Y-134699856D01*
X258284837Y-134712330D01*
X258294630Y-134799249D01*
X258354210Y-134969521D01*
X258435214Y-135098438D01*
X258450184Y-135122262D01*
X258577738Y-135249816D01*
X258577740Y-135249817D01*
X258709438Y-135332569D01*
X258730478Y-135345789D01*
X258855317Y-135389472D01*
X258900745Y-135405368D01*
X258900750Y-135405369D01*
X259079996Y-135425565D01*
X259080000Y-135425565D01*
X259080004Y-135425565D01*
X259259249Y-135405369D01*
X259259252Y-135405368D01*
X259259255Y-135405368D01*
X259429522Y-135345789D01*
X259582262Y-135249816D01*
X259709816Y-135122262D01*
X259805789Y-134969522D01*
X259865368Y-134799255D01*
X259865369Y-134799249D01*
X259885565Y-134620003D01*
X259885565Y-134619996D01*
X259865369Y-134440750D01*
X259865368Y-134440745D01*
X259813465Y-134292415D01*
X259805789Y-134270478D01*
X259709816Y-134117738D01*
X259582262Y-133990184D01*
X259429521Y-133894210D01*
X259259249Y-133834630D01*
X259172330Y-133824837D01*
X259107916Y-133797770D01*
X259098533Y-133789298D01*
X257027590Y-131718355D01*
X257027588Y-131718352D01*
X256908717Y-131599481D01*
X256908709Y-131599475D01*
X256792712Y-131532505D01*
X256792712Y-131532504D01*
X256792707Y-131532503D01*
X256785406Y-131528287D01*
X256771786Y-131520423D01*
X256733603Y-131510192D01*
X256619057Y-131479499D01*
X256460943Y-131479499D01*
X256453347Y-131479499D01*
X256453331Y-131479500D01*
X253312412Y-131479500D01*
X253245373Y-131459815D01*
X253235097Y-131452445D01*
X253232263Y-131450185D01*
X253232262Y-131450184D01*
X253113706Y-131375690D01*
X275488748Y-131375690D01*
X275508943Y-131554936D01*
X275508944Y-131554941D01*
X275568524Y-131725210D01*
X275664497Y-131877949D01*
X275792051Y-132005503D01*
X275944791Y-132101476D01*
X276115058Y-132161055D01*
X276115063Y-132161056D01*
X276294309Y-132181252D01*
X276294313Y-132181252D01*
X276294317Y-132181252D01*
X276473562Y-132161056D01*
X276473565Y-132161055D01*
X276473568Y-132161055D01*
X276643835Y-132101476D01*
X276796575Y-132005503D01*
X276924129Y-131877949D01*
X277020102Y-131725209D01*
X277079681Y-131554942D01*
X277081839Y-131535788D01*
X277099878Y-131375690D01*
X277099878Y-131375683D01*
X277079682Y-131196437D01*
X277079681Y-131196432D01*
X277020101Y-131026163D01*
X276924128Y-130873424D01*
X276796575Y-130745871D01*
X276643836Y-130649898D01*
X276473567Y-130590318D01*
X276473562Y-130590317D01*
X276294317Y-130570122D01*
X276294309Y-130570122D01*
X276115063Y-130590317D01*
X276115058Y-130590318D01*
X275944789Y-130649898D01*
X275792050Y-130745871D01*
X275664497Y-130873424D01*
X275568524Y-131026163D01*
X275508944Y-131196432D01*
X275508943Y-131196437D01*
X275488748Y-131375683D01*
X275488748Y-131375690D01*
X253113706Y-131375690D01*
X253113701Y-131375687D01*
X253079523Y-131354211D01*
X252909254Y-131294631D01*
X252909249Y-131294630D01*
X252730004Y-131274435D01*
X252729996Y-131274435D01*
X252550750Y-131294630D01*
X252550745Y-131294631D01*
X252380476Y-131354211D01*
X252227737Y-131450184D01*
X252222295Y-131454525D01*
X252220413Y-131452166D01*
X252170858Y-131479226D01*
X252101166Y-131474242D01*
X252045233Y-131432370D01*
X252020816Y-131366906D01*
X252020500Y-131358060D01*
X252020500Y-130162940D01*
X252040185Y-130095901D01*
X252056819Y-130075259D01*
X252089816Y-130042262D01*
X252185789Y-129889522D01*
X252245368Y-129719255D01*
X252265565Y-129540000D01*
X252260359Y-129493797D01*
X252245369Y-129360750D01*
X252245368Y-129360745D01*
X252185788Y-129190476D01*
X252089815Y-129037737D01*
X251962262Y-128910184D01*
X251809523Y-128814211D01*
X251639254Y-128754631D01*
X251639249Y-128754630D01*
X251460004Y-128734435D01*
X251459996Y-128734435D01*
X251280750Y-128754630D01*
X251280745Y-128754631D01*
X251110476Y-128814211D01*
X250957737Y-128910184D01*
X250830184Y-129037737D01*
X250734210Y-129190478D01*
X250674630Y-129360750D01*
X250666898Y-129429383D01*
X250639832Y-129493797D01*
X250582237Y-129533352D01*
X250543678Y-129539500D01*
X248566322Y-129539500D01*
X248499283Y-129519815D01*
X248453528Y-129467011D01*
X248443102Y-129429383D01*
X248435369Y-129360750D01*
X248435368Y-129360748D01*
X248435368Y-129360745D01*
X248375789Y-129190478D01*
X248279816Y-129037738D01*
X248152262Y-128910184D01*
X247999523Y-128814211D01*
X247829254Y-128754631D01*
X247829249Y-128754630D01*
X247650004Y-128734435D01*
X247649996Y-128734435D01*
X247470750Y-128754630D01*
X247470745Y-128754631D01*
X247300476Y-128814211D01*
X247147737Y-128910184D01*
X247020184Y-129037737D01*
X246924210Y-129190478D01*
X246864630Y-129360750D01*
X246856898Y-129429383D01*
X246829832Y-129493797D01*
X246772237Y-129533352D01*
X246733678Y-129539500D01*
X241408213Y-129539500D01*
X241341174Y-129519815D01*
X241295419Y-129467011D01*
X241285475Y-129397853D01*
X241303219Y-129349529D01*
X241315787Y-129329525D01*
X241315786Y-129329525D01*
X241315789Y-129329522D01*
X241375368Y-129159255D01*
X241395565Y-128980000D01*
X241376885Y-128814211D01*
X241375369Y-128800750D01*
X241375368Y-128800745D01*
X241315788Y-128630476D01*
X241219815Y-128477737D01*
X241092262Y-128350184D01*
X240939523Y-128254211D01*
X240769254Y-128194631D01*
X240769249Y-128194630D01*
X240590004Y-128174435D01*
X240589996Y-128174435D01*
X240410750Y-128194630D01*
X240410745Y-128194631D01*
X240240476Y-128254211D01*
X240087737Y-128350184D01*
X239960184Y-128477737D01*
X239864211Y-128630476D01*
X239804631Y-128800745D01*
X239804630Y-128800750D01*
X239784435Y-128979996D01*
X239784435Y-128980003D01*
X239804630Y-129159249D01*
X239804631Y-129159254D01*
X239864212Y-129329525D01*
X239876781Y-129349529D01*
X239895781Y-129416766D01*
X239875413Y-129483601D01*
X239822144Y-129528814D01*
X239771787Y-129539500D01*
X239676322Y-129539500D01*
X239609283Y-129519815D01*
X239563528Y-129467011D01*
X239553102Y-129429383D01*
X239545369Y-129360750D01*
X239545368Y-129360748D01*
X239545368Y-129360745D01*
X239485789Y-129190478D01*
X239389816Y-129037738D01*
X239262262Y-128910184D01*
X239109523Y-128814211D01*
X238939254Y-128754631D01*
X238939249Y-128754630D01*
X238760004Y-128734435D01*
X238759996Y-128734435D01*
X238580750Y-128754630D01*
X238580745Y-128754631D01*
X238410476Y-128814211D01*
X238257737Y-128910184D01*
X238130184Y-129037737D01*
X238034210Y-129190478D01*
X237974630Y-129360750D01*
X237966898Y-129429383D01*
X237939832Y-129493797D01*
X237882237Y-129533352D01*
X237843678Y-129539500D01*
X234596322Y-129539500D01*
X234529283Y-129519815D01*
X234483528Y-129467011D01*
X234473102Y-129429383D01*
X234465369Y-129360750D01*
X234465368Y-129360748D01*
X234465368Y-129360745D01*
X234405789Y-129190478D01*
X234309816Y-129037738D01*
X234182262Y-128910184D01*
X234029523Y-128814211D01*
X233859254Y-128754631D01*
X233859249Y-128754630D01*
X233680004Y-128734435D01*
X233679996Y-128734435D01*
X233500750Y-128754630D01*
X233500745Y-128754631D01*
X233330476Y-128814211D01*
X233177737Y-128910184D01*
X233050184Y-129037737D01*
X232954210Y-129190478D01*
X232894630Y-129360750D01*
X232886898Y-129429383D01*
X232859832Y-129493797D01*
X232802237Y-129533352D01*
X232763678Y-129539500D01*
X232056321Y-129539500D01*
X231989282Y-129519815D01*
X231943527Y-129467011D01*
X231933101Y-129429383D01*
X231925368Y-129360745D01*
X231865789Y-129190478D01*
X231769816Y-129037738D01*
X231642262Y-128910184D01*
X231489523Y-128814211D01*
X231319254Y-128754631D01*
X231319249Y-128754630D01*
X231140004Y-128734435D01*
X231139996Y-128734435D01*
X230960750Y-128754630D01*
X230960745Y-128754631D01*
X230790476Y-128814211D01*
X230637737Y-128910184D01*
X230510184Y-129037737D01*
X230414211Y-129190476D01*
X230354631Y-129360745D01*
X230354630Y-129360750D01*
X230334435Y-129539996D01*
X230334435Y-129540003D01*
X230354630Y-129719249D01*
X230354631Y-129719254D01*
X230414211Y-129889523D01*
X230486416Y-130004435D01*
X230510184Y-130042262D01*
X230637738Y-130169816D01*
X230790478Y-130265789D01*
X230960745Y-130325368D01*
X231047669Y-130335161D01*
X231112080Y-130362226D01*
X231121465Y-130370700D01*
X231255139Y-130504374D01*
X231255149Y-130504385D01*
X231259479Y-130508715D01*
X231259480Y-130508716D01*
X231371284Y-130620520D01*
X231371286Y-130620521D01*
X231422169Y-130649898D01*
X231422168Y-130649898D01*
X231422171Y-130649899D01*
X231508209Y-130699574D01*
X231508210Y-130699574D01*
X231508215Y-130699577D01*
X231660943Y-130740500D01*
X237680903Y-130740500D01*
X237747942Y-130760185D01*
X237793697Y-130812989D01*
X237803641Y-130882147D01*
X237774616Y-130945703D01*
X237768584Y-130952181D01*
X234532908Y-134187855D01*
X234471585Y-134221340D01*
X234401893Y-134216356D01*
X234345960Y-134174484D01*
X234340234Y-134166147D01*
X234309817Y-134117739D01*
X234182262Y-133990184D01*
X234029523Y-133894211D01*
X233859254Y-133834631D01*
X233859249Y-133834630D01*
X233680004Y-133814435D01*
X233679996Y-133814435D01*
X233500750Y-133834630D01*
X233500745Y-133834631D01*
X233330476Y-133894211D01*
X233177737Y-133990184D01*
X233050184Y-134117737D01*
X232954211Y-134270476D01*
X232894631Y-134440745D01*
X232894630Y-134440750D01*
X232874435Y-134619996D01*
X232874435Y-134620003D01*
X232894630Y-134799249D01*
X232894631Y-134799254D01*
X232954211Y-134969523D01*
X233050184Y-135122262D01*
X233177739Y-135249817D01*
X233226147Y-135280234D01*
X233272437Y-135332569D01*
X233283085Y-135401622D01*
X233254710Y-135465470D01*
X233247855Y-135472908D01*
X232197584Y-136523181D01*
X232136261Y-136556666D01*
X232109903Y-136559500D01*
X229349095Y-136559500D01*
X229282056Y-136539815D01*
X229236301Y-136487011D01*
X229226357Y-136417853D01*
X229244101Y-136369528D01*
X229285682Y-136303352D01*
X229325789Y-136239522D01*
X229385368Y-136069255D01*
X229405565Y-135890000D01*
X229398519Y-135827465D01*
X229385369Y-135710750D01*
X229385368Y-135710745D01*
X229325788Y-135540476D01*
X229240894Y-135405369D01*
X229229816Y-135387738D01*
X229102262Y-135260184D01*
X229085763Y-135249817D01*
X228949523Y-135164211D01*
X228779254Y-135104631D01*
X228779249Y-135104630D01*
X228600004Y-135084435D01*
X228599996Y-135084435D01*
X228420750Y-135104630D01*
X228420745Y-135104631D01*
X228250476Y-135164211D01*
X228097737Y-135260184D01*
X227970184Y-135387737D01*
X227874211Y-135540476D01*
X227814631Y-135710745D01*
X227814630Y-135710750D01*
X227794435Y-135889996D01*
X227794435Y-135890003D01*
X227814630Y-136069249D01*
X227814631Y-136069254D01*
X227874211Y-136239523D01*
X227970184Y-136392262D01*
X227970185Y-136392263D01*
X228015241Y-136437320D01*
X228048725Y-136498643D01*
X228043740Y-136568335D01*
X228015241Y-136612680D01*
X227970184Y-136657737D01*
X227874211Y-136810476D01*
X227814631Y-136980745D01*
X227814630Y-136980750D01*
X227794435Y-137159996D01*
X227794435Y-137160003D01*
X208580500Y-137160003D01*
X208580500Y-135890003D01*
X217634435Y-135890003D01*
X217654630Y-136069249D01*
X217654631Y-136069254D01*
X217714211Y-136239523D01*
X217786416Y-136354435D01*
X217810184Y-136392262D01*
X217937738Y-136519816D01*
X218026648Y-136575682D01*
X218085364Y-136612576D01*
X218090478Y-136615789D01*
X218231141Y-136665009D01*
X218260745Y-136675368D01*
X218260750Y-136675369D01*
X218439996Y-136695565D01*
X218440000Y-136695565D01*
X218440004Y-136695565D01*
X218619249Y-136675369D01*
X218619252Y-136675368D01*
X218619255Y-136675368D01*
X218789522Y-136615789D01*
X218942262Y-136519816D01*
X219069816Y-136392262D01*
X219165789Y-136239522D01*
X219225368Y-136069255D01*
X219245565Y-135890003D01*
X220174435Y-135890003D01*
X220194630Y-136069249D01*
X220194631Y-136069254D01*
X220254211Y-136239523D01*
X220326416Y-136354435D01*
X220350184Y-136392262D01*
X220477738Y-136519816D01*
X220566648Y-136575682D01*
X220625364Y-136612576D01*
X220630478Y-136615789D01*
X220771141Y-136665009D01*
X220800745Y-136675368D01*
X220800750Y-136675369D01*
X220979996Y-136695565D01*
X220980000Y-136695565D01*
X220980004Y-136695565D01*
X221159249Y-136675369D01*
X221159252Y-136675368D01*
X221159255Y-136675368D01*
X221329522Y-136615789D01*
X221482262Y-136519816D01*
X221609816Y-136392262D01*
X221705789Y-136239522D01*
X221765368Y-136069255D01*
X221785565Y-135890000D01*
X221778519Y-135827465D01*
X221765369Y-135710750D01*
X221765368Y-135710745D01*
X221705788Y-135540476D01*
X221620894Y-135405369D01*
X221609816Y-135387738D01*
X221482262Y-135260184D01*
X221465763Y-135249817D01*
X221329523Y-135164211D01*
X221159254Y-135104631D01*
X221159249Y-135104630D01*
X220980004Y-135084435D01*
X220979996Y-135084435D01*
X220800750Y-135104630D01*
X220800745Y-135104631D01*
X220630476Y-135164211D01*
X220477737Y-135260184D01*
X220350184Y-135387737D01*
X220254211Y-135540476D01*
X220194631Y-135710745D01*
X220194630Y-135710750D01*
X220174435Y-135889996D01*
X220174435Y-135890003D01*
X219245565Y-135890003D01*
X219245565Y-135890000D01*
X219238519Y-135827465D01*
X219225369Y-135710750D01*
X219225368Y-135710745D01*
X219165788Y-135540476D01*
X219080894Y-135405369D01*
X219069816Y-135387738D01*
X218942262Y-135260184D01*
X218925763Y-135249817D01*
X218789523Y-135164211D01*
X218619254Y-135104631D01*
X218619249Y-135104630D01*
X218440004Y-135084435D01*
X218439996Y-135084435D01*
X218260750Y-135104630D01*
X218260745Y-135104631D01*
X218090476Y-135164211D01*
X217937737Y-135260184D01*
X217810184Y-135387737D01*
X217714211Y-135540476D01*
X217654631Y-135710745D01*
X217654630Y-135710750D01*
X217634435Y-135889996D01*
X217634435Y-135890003D01*
X208580500Y-135890003D01*
X208580500Y-133350003D01*
X223984435Y-133350003D01*
X224004630Y-133529249D01*
X224004631Y-133529254D01*
X224064211Y-133699523D01*
X224120621Y-133789298D01*
X224160184Y-133852262D01*
X224287738Y-133979816D01*
X224440478Y-134075789D01*
X224560364Y-134117739D01*
X224610745Y-134135368D01*
X224610750Y-134135369D01*
X224789996Y-134155565D01*
X224790000Y-134155565D01*
X224790004Y-134155565D01*
X224969249Y-134135369D01*
X224969252Y-134135368D01*
X224969255Y-134135368D01*
X225139522Y-134075789D01*
X225292262Y-133979816D01*
X225419816Y-133852262D01*
X225515789Y-133699522D01*
X225575368Y-133529255D01*
X225582566Y-133465369D01*
X225595565Y-133350003D01*
X225595565Y-133349996D01*
X225575369Y-133170750D01*
X225575368Y-133170745D01*
X225525952Y-133029522D01*
X225515789Y-133000478D01*
X225419816Y-132847738D01*
X225292262Y-132720184D01*
X225284266Y-132715160D01*
X225284016Y-132715003D01*
X228429435Y-132715003D01*
X228449630Y-132894249D01*
X228449631Y-132894254D01*
X228509211Y-133064523D01*
X228583192Y-133182262D01*
X228605184Y-133217262D01*
X228732738Y-133344816D01*
X228885478Y-133440789D01*
X229055745Y-133500368D01*
X229055750Y-133500369D01*
X229234996Y-133520565D01*
X229235000Y-133520565D01*
X229235004Y-133520565D01*
X229414249Y-133500369D01*
X229414252Y-133500368D01*
X229414255Y-133500368D01*
X229584522Y-133440789D01*
X229737262Y-133344816D01*
X229864816Y-133217262D01*
X229960789Y-133064522D01*
X230020368Y-132894255D01*
X230024312Y-132859254D01*
X230040565Y-132715003D01*
X230040565Y-132714996D01*
X230020369Y-132535750D01*
X230020368Y-132535745D01*
X229960788Y-132365476D01*
X229921582Y-132303080D01*
X229864816Y-132212738D01*
X229737262Y-132085184D01*
X229729017Y-132080003D01*
X232874435Y-132080003D01*
X232894630Y-132259249D01*
X232894631Y-132259254D01*
X232954211Y-132429523D01*
X233039105Y-132564630D01*
X233050184Y-132582262D01*
X233177738Y-132709816D01*
X233330478Y-132805789D01*
X233483258Y-132859249D01*
X233500745Y-132865368D01*
X233500750Y-132865369D01*
X233679996Y-132885565D01*
X233680000Y-132885565D01*
X233680004Y-132885565D01*
X233859249Y-132865369D01*
X233859252Y-132865368D01*
X233859255Y-132865368D01*
X234029522Y-132805789D01*
X234182262Y-132709816D01*
X234309816Y-132582262D01*
X234405789Y-132429522D01*
X234465368Y-132259255D01*
X234470609Y-132212738D01*
X234485565Y-132080003D01*
X234485565Y-132079996D01*
X234465369Y-131900750D01*
X234465368Y-131900745D01*
X234405788Y-131730476D01*
X234333584Y-131615565D01*
X234309816Y-131577738D01*
X234182262Y-131450184D01*
X234171117Y-131443181D01*
X234029523Y-131354211D01*
X233859254Y-131294631D01*
X233859249Y-131294630D01*
X233680004Y-131274435D01*
X233679996Y-131274435D01*
X233500750Y-131294630D01*
X233500745Y-131294631D01*
X233330476Y-131354211D01*
X233177737Y-131450184D01*
X233050184Y-131577737D01*
X232954211Y-131730476D01*
X232894631Y-131900745D01*
X232894630Y-131900750D01*
X232874435Y-132079996D01*
X232874435Y-132080003D01*
X229729017Y-132080003D01*
X229584523Y-131989211D01*
X229414254Y-131929631D01*
X229414249Y-131929630D01*
X229235004Y-131909435D01*
X229234996Y-131909435D01*
X229055750Y-131929630D01*
X229055745Y-131929631D01*
X228885476Y-131989211D01*
X228732737Y-132085184D01*
X228605184Y-132212737D01*
X228509211Y-132365476D01*
X228449631Y-132535745D01*
X228449630Y-132535750D01*
X228429435Y-132714996D01*
X228429435Y-132715003D01*
X225284016Y-132715003D01*
X225139523Y-132624211D01*
X224969254Y-132564631D01*
X224969249Y-132564630D01*
X224790004Y-132544435D01*
X224789996Y-132544435D01*
X224610750Y-132564630D01*
X224610745Y-132564631D01*
X224440476Y-132624211D01*
X224287737Y-132720184D01*
X224160184Y-132847737D01*
X224064211Y-133000476D01*
X224004631Y-133170745D01*
X224004630Y-133170750D01*
X223984435Y-133349996D01*
X223984435Y-133350003D01*
X208580500Y-133350003D01*
X208580500Y-130810003D01*
X217634435Y-130810003D01*
X217654630Y-130989249D01*
X217654631Y-130989254D01*
X217714211Y-131159523D01*
X217737403Y-131196432D01*
X217810184Y-131312262D01*
X217937738Y-131439816D01*
X218000459Y-131479226D01*
X218085251Y-131532505D01*
X218090478Y-131535789D01*
X218228909Y-131584228D01*
X218260745Y-131595368D01*
X218260750Y-131595369D01*
X218439996Y-131615565D01*
X218440000Y-131615565D01*
X218440004Y-131615565D01*
X218619249Y-131595369D01*
X218619252Y-131595368D01*
X218619255Y-131595368D01*
X218789522Y-131535789D01*
X218942262Y-131439816D01*
X219069816Y-131312262D01*
X219165789Y-131159522D01*
X219225368Y-130989255D01*
X219225369Y-130989249D01*
X219245565Y-130810003D01*
X219245565Y-130809996D01*
X219225369Y-130630750D01*
X219225368Y-130630745D01*
X219165788Y-130460476D01*
X219104053Y-130362226D01*
X219069816Y-130307738D01*
X218942262Y-130180184D01*
X218789523Y-130084211D01*
X218619254Y-130024631D01*
X218619249Y-130024630D01*
X218440004Y-130004435D01*
X218439996Y-130004435D01*
X218260750Y-130024630D01*
X218260745Y-130024631D01*
X218090476Y-130084211D01*
X217937737Y-130180184D01*
X217810184Y-130307737D01*
X217714211Y-130460476D01*
X217654631Y-130630745D01*
X217654630Y-130630750D01*
X217634435Y-130809996D01*
X217634435Y-130810003D01*
X208580500Y-130810003D01*
X208580500Y-127000003D01*
X215094435Y-127000003D01*
X215114630Y-127179249D01*
X215114631Y-127179254D01*
X215174211Y-127349523D01*
X215270184Y-127502262D01*
X215397738Y-127629816D01*
X215550478Y-127725789D01*
X215720745Y-127785368D01*
X215720750Y-127785369D01*
X215899996Y-127805565D01*
X215900000Y-127805565D01*
X215900004Y-127805565D01*
X216079249Y-127785369D01*
X216079252Y-127785368D01*
X216079255Y-127785368D01*
X216249522Y-127725789D01*
X216402262Y-127629816D01*
X216529816Y-127502262D01*
X216625789Y-127349522D01*
X216685368Y-127179255D01*
X216705565Y-127000003D01*
X273514435Y-127000003D01*
X273534630Y-127179249D01*
X273534631Y-127179254D01*
X273594211Y-127349523D01*
X273690184Y-127502262D01*
X273817738Y-127629816D01*
X273970478Y-127725789D01*
X274140745Y-127785368D01*
X274140750Y-127785369D01*
X274319996Y-127805565D01*
X274320000Y-127805565D01*
X274320004Y-127805565D01*
X274499249Y-127785369D01*
X274499252Y-127785368D01*
X274499255Y-127785368D01*
X274669522Y-127725789D01*
X274822262Y-127629816D01*
X274949816Y-127502262D01*
X275045789Y-127349522D01*
X275105368Y-127179255D01*
X275125565Y-127000000D01*
X275105368Y-126820745D01*
X275045789Y-126650478D01*
X274949816Y-126497738D01*
X274822262Y-126370184D01*
X274669523Y-126274211D01*
X274499254Y-126214631D01*
X274499249Y-126214630D01*
X274320004Y-126194435D01*
X274319996Y-126194435D01*
X274140750Y-126214630D01*
X274140745Y-126214631D01*
X273970476Y-126274211D01*
X273817737Y-126370184D01*
X273690184Y-126497737D01*
X273594211Y-126650476D01*
X273534631Y-126820745D01*
X273534630Y-126820750D01*
X273514435Y-126999996D01*
X273514435Y-127000003D01*
X216705565Y-127000003D01*
X216705565Y-127000000D01*
X216685368Y-126820745D01*
X216625789Y-126650478D01*
X216529816Y-126497738D01*
X216402262Y-126370184D01*
X216249523Y-126274211D01*
X216079254Y-126214631D01*
X216079249Y-126214630D01*
X215900004Y-126194435D01*
X215899996Y-126194435D01*
X215720750Y-126214630D01*
X215720745Y-126214631D01*
X215550476Y-126274211D01*
X215397737Y-126370184D01*
X215270184Y-126497737D01*
X215174211Y-126650476D01*
X215114631Y-126820745D01*
X215114630Y-126820750D01*
X215094435Y-126999996D01*
X215094435Y-127000003D01*
X208580500Y-127000003D01*
X208580500Y-123190003D01*
X223984435Y-123190003D01*
X224004630Y-123369249D01*
X224004631Y-123369254D01*
X224064211Y-123539523D01*
X224160184Y-123692262D01*
X224287738Y-123819816D01*
X224440478Y-123915789D01*
X224610745Y-123975368D01*
X224610750Y-123975369D01*
X224789996Y-123995565D01*
X224790000Y-123995565D01*
X224790004Y-123995565D01*
X224969249Y-123975369D01*
X224969252Y-123975368D01*
X224969255Y-123975368D01*
X225139522Y-123915789D01*
X225292262Y-123819816D01*
X225419816Y-123692262D01*
X225515789Y-123539522D01*
X225575368Y-123369255D01*
X225595565Y-123190003D01*
X258274435Y-123190003D01*
X258294630Y-123369249D01*
X258294631Y-123369254D01*
X258354211Y-123539523D01*
X258450184Y-123692262D01*
X258577738Y-123819816D01*
X258730478Y-123915789D01*
X258900745Y-123975368D01*
X258900750Y-123975369D01*
X259079996Y-123995565D01*
X259080000Y-123995565D01*
X259080004Y-123995565D01*
X259259249Y-123975369D01*
X259259252Y-123975368D01*
X259259255Y-123975368D01*
X259429522Y-123915789D01*
X259582262Y-123819816D01*
X259709816Y-123692262D01*
X259805789Y-123539522D01*
X259865368Y-123369255D01*
X259885565Y-123190003D01*
X265894435Y-123190003D01*
X265914630Y-123369249D01*
X265914631Y-123369254D01*
X265974211Y-123539523D01*
X266070184Y-123692262D01*
X266197738Y-123819816D01*
X266350478Y-123915789D01*
X266520745Y-123975368D01*
X266520750Y-123975369D01*
X266699996Y-123995565D01*
X266700000Y-123995565D01*
X266700004Y-123995565D01*
X266879249Y-123975369D01*
X266879252Y-123975368D01*
X266879255Y-123975368D01*
X267049522Y-123915789D01*
X267202262Y-123819816D01*
X267329816Y-123692262D01*
X267425789Y-123539522D01*
X267485368Y-123369255D01*
X267505565Y-123190000D01*
X267490609Y-123057262D01*
X267485369Y-123010750D01*
X267485368Y-123010745D01*
X267425788Y-122840476D01*
X267386582Y-122778080D01*
X267329816Y-122687738D01*
X267202262Y-122560184D01*
X267194017Y-122555003D01*
X271609435Y-122555003D01*
X271629630Y-122734249D01*
X271629631Y-122734254D01*
X271689211Y-122904523D01*
X271785184Y-123057262D01*
X271912738Y-123184816D01*
X272065478Y-123280789D01*
X272235745Y-123340368D01*
X272235750Y-123340369D01*
X272414996Y-123360565D01*
X272415000Y-123360565D01*
X272415004Y-123360565D01*
X272594249Y-123340369D01*
X272594252Y-123340368D01*
X272594255Y-123340368D01*
X272764522Y-123280789D01*
X272917262Y-123184816D01*
X273044816Y-123057262D01*
X273140789Y-122904522D01*
X273200368Y-122734255D01*
X273205609Y-122687738D01*
X273220565Y-122555003D01*
X273220565Y-122554996D01*
X273200369Y-122375750D01*
X273200368Y-122375745D01*
X273140788Y-122205476D01*
X273101582Y-122143080D01*
X273044816Y-122052738D01*
X272917262Y-121925184D01*
X272909017Y-121920003D01*
X273514435Y-121920003D01*
X273534630Y-122099249D01*
X273534631Y-122099254D01*
X273594211Y-122269523D01*
X273666416Y-122384435D01*
X273690184Y-122422262D01*
X273817738Y-122549816D01*
X273970478Y-122645789D01*
X274140745Y-122705368D01*
X274140750Y-122705369D01*
X274319996Y-122725565D01*
X274320000Y-122725565D01*
X274320004Y-122725565D01*
X274499249Y-122705369D01*
X274499252Y-122705368D01*
X274499255Y-122705368D01*
X274669522Y-122645789D01*
X274822262Y-122549816D01*
X274949816Y-122422262D01*
X275045789Y-122269522D01*
X275105368Y-122099255D01*
X275110609Y-122052738D01*
X275125565Y-121920003D01*
X275125565Y-121919996D01*
X275105369Y-121740750D01*
X275105368Y-121740745D01*
X275045788Y-121570476D01*
X274960894Y-121435369D01*
X274949816Y-121417738D01*
X274904758Y-121372680D01*
X274871274Y-121311358D01*
X274876258Y-121241666D01*
X274904759Y-121197319D01*
X274907867Y-121194211D01*
X274949816Y-121152262D01*
X275045789Y-120999522D01*
X275105368Y-120829255D01*
X275125565Y-120650000D01*
X275105368Y-120470745D01*
X275045789Y-120300478D01*
X274949816Y-120147738D01*
X274822262Y-120020184D01*
X274669523Y-119924211D01*
X274499254Y-119864631D01*
X274499249Y-119864630D01*
X274320004Y-119844435D01*
X274319996Y-119844435D01*
X274140750Y-119864630D01*
X274140745Y-119864631D01*
X273970476Y-119924211D01*
X273817737Y-120020184D01*
X273690184Y-120147737D01*
X273594211Y-120300476D01*
X273534631Y-120470745D01*
X273534630Y-120470750D01*
X273514435Y-120649996D01*
X273514435Y-120650003D01*
X273534630Y-120829249D01*
X273534631Y-120829254D01*
X273594211Y-120999523D01*
X273690184Y-121152262D01*
X273690185Y-121152263D01*
X273735241Y-121197320D01*
X273768725Y-121258643D01*
X273763740Y-121328335D01*
X273735241Y-121372680D01*
X273690184Y-121417737D01*
X273594211Y-121570476D01*
X273534631Y-121740745D01*
X273534630Y-121740750D01*
X273514435Y-121919996D01*
X273514435Y-121920003D01*
X272909017Y-121920003D01*
X272764523Y-121829211D01*
X272594254Y-121769631D01*
X272594249Y-121769630D01*
X272415004Y-121749435D01*
X272414996Y-121749435D01*
X272235750Y-121769630D01*
X272235745Y-121769631D01*
X272065476Y-121829211D01*
X271912737Y-121925184D01*
X271785184Y-122052737D01*
X271689211Y-122205476D01*
X271629631Y-122375745D01*
X271629630Y-122375750D01*
X271609435Y-122554996D01*
X271609435Y-122555003D01*
X267194017Y-122555003D01*
X267049523Y-122464211D01*
X266879254Y-122404631D01*
X266879249Y-122404630D01*
X266700004Y-122384435D01*
X266699996Y-122384435D01*
X266520750Y-122404630D01*
X266520745Y-122404631D01*
X266350476Y-122464211D01*
X266197737Y-122560184D01*
X266070184Y-122687737D01*
X265974211Y-122840476D01*
X265914631Y-123010745D01*
X265914630Y-123010750D01*
X265894435Y-123189996D01*
X265894435Y-123190003D01*
X259885565Y-123190003D01*
X259885565Y-123190000D01*
X259870609Y-123057262D01*
X259865369Y-123010750D01*
X259865368Y-123010745D01*
X259805788Y-122840476D01*
X259766582Y-122778080D01*
X259709816Y-122687738D01*
X259582262Y-122560184D01*
X259429523Y-122464211D01*
X259259254Y-122404631D01*
X259259249Y-122404630D01*
X259080004Y-122384435D01*
X259079996Y-122384435D01*
X258900750Y-122404630D01*
X258900745Y-122404631D01*
X258730476Y-122464211D01*
X258577737Y-122560184D01*
X258450184Y-122687737D01*
X258354211Y-122840476D01*
X258294631Y-123010745D01*
X258294630Y-123010750D01*
X258274435Y-123189996D01*
X258274435Y-123190003D01*
X225595565Y-123190003D01*
X225595565Y-123190000D01*
X225580609Y-123057262D01*
X225575369Y-123010750D01*
X225575368Y-123010745D01*
X225515788Y-122840476D01*
X225476582Y-122778080D01*
X225419816Y-122687738D01*
X225292262Y-122560184D01*
X225139523Y-122464211D01*
X224969254Y-122404631D01*
X224969249Y-122404630D01*
X224790004Y-122384435D01*
X224789996Y-122384435D01*
X224610750Y-122404630D01*
X224610745Y-122404631D01*
X224440476Y-122464211D01*
X224287737Y-122560184D01*
X224160184Y-122687737D01*
X224064211Y-122840476D01*
X224004631Y-123010745D01*
X224004630Y-123010750D01*
X223984435Y-123189996D01*
X223984435Y-123190003D01*
X208580500Y-123190003D01*
X208580500Y-121920003D01*
X217634435Y-121920003D01*
X217654630Y-122099249D01*
X217654631Y-122099254D01*
X217714211Y-122269523D01*
X217786416Y-122384435D01*
X217810184Y-122422262D01*
X217937738Y-122549816D01*
X218090478Y-122645789D01*
X218260745Y-122705368D01*
X218260750Y-122705369D01*
X218439996Y-122725565D01*
X218440000Y-122725565D01*
X218440004Y-122725565D01*
X218619249Y-122705369D01*
X218619252Y-122705368D01*
X218619255Y-122705368D01*
X218789522Y-122645789D01*
X218942262Y-122549816D01*
X218987319Y-122504759D01*
X219048642Y-122471274D01*
X219118334Y-122476258D01*
X219162681Y-122504759D01*
X219207738Y-122549816D01*
X219360478Y-122645789D01*
X219530745Y-122705368D01*
X219530750Y-122705369D01*
X219709996Y-122725565D01*
X219710000Y-122725565D01*
X219710004Y-122725565D01*
X219889249Y-122705369D01*
X219889252Y-122705368D01*
X219889255Y-122705368D01*
X220059522Y-122645789D01*
X220212262Y-122549816D01*
X220257319Y-122504759D01*
X220318642Y-122471274D01*
X220388334Y-122476258D01*
X220432681Y-122504759D01*
X220477738Y-122549816D01*
X220630478Y-122645789D01*
X220800745Y-122705368D01*
X220800750Y-122705369D01*
X220979996Y-122725565D01*
X220980000Y-122725565D01*
X220980004Y-122725565D01*
X221159249Y-122705369D01*
X221159252Y-122705368D01*
X221159255Y-122705368D01*
X221329522Y-122645789D01*
X221482262Y-122549816D01*
X221609816Y-122422262D01*
X221705789Y-122269522D01*
X221765368Y-122099255D01*
X221770609Y-122052738D01*
X221785565Y-121920003D01*
X221785565Y-121919996D01*
X221765369Y-121740750D01*
X221765368Y-121740745D01*
X221705788Y-121570476D01*
X221620894Y-121435369D01*
X221609816Y-121417738D01*
X221482262Y-121290184D01*
X221474012Y-121285000D01*
X221329523Y-121194211D01*
X221159254Y-121134631D01*
X221159249Y-121134630D01*
X220980004Y-121114435D01*
X220979996Y-121114435D01*
X220800750Y-121134630D01*
X220800745Y-121134631D01*
X220630476Y-121194211D01*
X220477737Y-121290184D01*
X220432680Y-121335241D01*
X220371357Y-121368725D01*
X220301665Y-121363740D01*
X220257320Y-121335241D01*
X220212263Y-121290185D01*
X220212262Y-121290184D01*
X220059523Y-121194211D01*
X219889254Y-121134631D01*
X219889249Y-121134630D01*
X219710004Y-121114435D01*
X219709996Y-121114435D01*
X219530750Y-121134630D01*
X219530745Y-121134631D01*
X219360476Y-121194211D01*
X219207737Y-121290184D01*
X219162680Y-121335241D01*
X219101357Y-121368725D01*
X219031665Y-121363740D01*
X218987320Y-121335241D01*
X218942263Y-121290185D01*
X218942262Y-121290184D01*
X218789523Y-121194211D01*
X218619254Y-121134631D01*
X218619249Y-121134630D01*
X218440004Y-121114435D01*
X218439996Y-121114435D01*
X218260750Y-121134630D01*
X218260745Y-121134631D01*
X218090476Y-121194211D01*
X217937737Y-121290184D01*
X217810184Y-121417737D01*
X217714211Y-121570476D01*
X217654631Y-121740745D01*
X217654630Y-121740750D01*
X217634435Y-121919996D01*
X217634435Y-121920003D01*
X208580500Y-121920003D01*
X208580500Y-120650003D01*
X260814435Y-120650003D01*
X260834630Y-120829249D01*
X260834631Y-120829254D01*
X260894211Y-120999523D01*
X260966416Y-121114435D01*
X260990184Y-121152262D01*
X261117738Y-121279816D01*
X261205946Y-121335241D01*
X261265531Y-121372681D01*
X261270478Y-121375789D01*
X261413939Y-121425988D01*
X261440745Y-121435368D01*
X261440750Y-121435369D01*
X261619996Y-121455565D01*
X261620000Y-121455565D01*
X261620004Y-121455565D01*
X261799249Y-121435369D01*
X261799252Y-121435368D01*
X261799255Y-121435368D01*
X261969522Y-121375789D01*
X262122262Y-121279816D01*
X262249816Y-121152262D01*
X262345789Y-120999522D01*
X262405368Y-120829255D01*
X262425565Y-120650003D01*
X265894435Y-120650003D01*
X265914630Y-120829249D01*
X265914631Y-120829254D01*
X265974211Y-120999523D01*
X266046416Y-121114435D01*
X266070184Y-121152262D01*
X266197738Y-121279816D01*
X266285946Y-121335241D01*
X266345531Y-121372681D01*
X266350478Y-121375789D01*
X266493939Y-121425988D01*
X266520745Y-121435368D01*
X266520750Y-121435369D01*
X266699996Y-121455565D01*
X266700000Y-121455565D01*
X266700004Y-121455565D01*
X266879249Y-121435369D01*
X266879252Y-121435368D01*
X266879255Y-121435368D01*
X267049522Y-121375789D01*
X267202262Y-121279816D01*
X267329816Y-121152262D01*
X267425789Y-120999522D01*
X267485368Y-120829255D01*
X267505565Y-120650000D01*
X267485368Y-120470745D01*
X267425789Y-120300478D01*
X267329816Y-120147738D01*
X267202262Y-120020184D01*
X267049523Y-119924211D01*
X266879254Y-119864631D01*
X266879249Y-119864630D01*
X266700004Y-119844435D01*
X266699996Y-119844435D01*
X266520750Y-119864630D01*
X266520745Y-119864631D01*
X266350476Y-119924211D01*
X266197737Y-120020184D01*
X266070184Y-120147737D01*
X265974211Y-120300476D01*
X265914631Y-120470745D01*
X265914630Y-120470750D01*
X265894435Y-120649996D01*
X265894435Y-120650003D01*
X262425565Y-120650003D01*
X262425565Y-120650000D01*
X262405368Y-120470745D01*
X262345789Y-120300478D01*
X262249816Y-120147738D01*
X262122262Y-120020184D01*
X261969523Y-119924211D01*
X261799254Y-119864631D01*
X261799249Y-119864630D01*
X261620004Y-119844435D01*
X261619996Y-119844435D01*
X261440750Y-119864630D01*
X261440745Y-119864631D01*
X261270476Y-119924211D01*
X261117737Y-120020184D01*
X260990184Y-120147737D01*
X260894211Y-120300476D01*
X260834631Y-120470745D01*
X260834630Y-120470750D01*
X260814435Y-120649996D01*
X260814435Y-120650003D01*
X208580500Y-120650003D01*
X208580500Y-116840003D01*
X218904435Y-116840003D01*
X218924630Y-117019249D01*
X218924631Y-117019254D01*
X218984211Y-117189523D01*
X219036350Y-117272501D01*
X219080184Y-117342262D01*
X219207738Y-117469816D01*
X219360478Y-117565789D01*
X219521186Y-117622023D01*
X219530745Y-117625368D01*
X219530750Y-117625369D01*
X219709996Y-117645565D01*
X219710000Y-117645565D01*
X219710004Y-117645565D01*
X219889249Y-117625369D01*
X219889252Y-117625368D01*
X219889255Y-117625368D01*
X220059522Y-117565789D01*
X220212262Y-117469816D01*
X220339816Y-117342262D01*
X220435789Y-117189522D01*
X220495368Y-117019255D01*
X220498760Y-116989151D01*
X220515565Y-116840003D01*
X240494435Y-116840003D01*
X240514630Y-117019249D01*
X240514631Y-117019254D01*
X240574211Y-117189523D01*
X240626350Y-117272501D01*
X240670184Y-117342262D01*
X240797738Y-117469816D01*
X240950478Y-117565789D01*
X241111186Y-117622023D01*
X241120745Y-117625368D01*
X241120750Y-117625369D01*
X241299996Y-117645565D01*
X241300000Y-117645565D01*
X241300004Y-117645565D01*
X241479249Y-117625369D01*
X241479252Y-117625368D01*
X241479255Y-117625368D01*
X241649522Y-117565789D01*
X241802262Y-117469816D01*
X241929816Y-117342262D01*
X242025789Y-117189522D01*
X242085368Y-117019255D01*
X242088760Y-116989151D01*
X242105565Y-116840003D01*
X242105565Y-116839996D01*
X242085369Y-116660750D01*
X242085368Y-116660745D01*
X242054764Y-116573284D01*
X242025789Y-116490478D01*
X241929816Y-116337738D01*
X241802262Y-116210184D01*
X241794012Y-116205000D01*
X245474540Y-116205000D01*
X245494326Y-116393256D01*
X245494327Y-116393259D01*
X245552818Y-116573277D01*
X245552821Y-116573284D01*
X245647467Y-116737216D01*
X245740017Y-116840003D01*
X245774129Y-116877888D01*
X245927265Y-116989148D01*
X245927270Y-116989151D01*
X246100192Y-117066142D01*
X246100197Y-117066144D01*
X246285354Y-117105500D01*
X246285355Y-117105500D01*
X246474644Y-117105500D01*
X246474646Y-117105500D01*
X246659803Y-117066144D01*
X246832730Y-116989151D01*
X246985871Y-116877888D01*
X247019983Y-116840003D01*
X258274435Y-116840003D01*
X258294630Y-117019249D01*
X258294631Y-117019254D01*
X258354211Y-117189523D01*
X258406350Y-117272501D01*
X258450184Y-117342262D01*
X258577738Y-117469816D01*
X258730478Y-117565789D01*
X258891186Y-117622023D01*
X258900745Y-117625368D01*
X258900750Y-117625369D01*
X259079996Y-117645565D01*
X259080000Y-117645565D01*
X259080004Y-117645565D01*
X259259249Y-117625369D01*
X259259252Y-117625368D01*
X259259255Y-117625368D01*
X259429522Y-117565789D01*
X259582262Y-117469816D01*
X259709816Y-117342262D01*
X259805789Y-117189522D01*
X259865368Y-117019255D01*
X259868760Y-116989151D01*
X259885565Y-116840003D01*
X260814435Y-116840003D01*
X260834630Y-117019249D01*
X260834631Y-117019254D01*
X260894211Y-117189523D01*
X260946350Y-117272501D01*
X260990184Y-117342262D01*
X261117738Y-117469816D01*
X261270478Y-117565789D01*
X261431186Y-117622023D01*
X261440745Y-117625368D01*
X261440750Y-117625369D01*
X261619996Y-117645565D01*
X261620000Y-117645565D01*
X261620004Y-117645565D01*
X261799249Y-117625369D01*
X261799252Y-117625368D01*
X261799255Y-117625368D01*
X261969522Y-117565789D01*
X262122262Y-117469816D01*
X262249816Y-117342262D01*
X262293648Y-117272504D01*
X276486936Y-117272504D01*
X276507131Y-117451750D01*
X276507132Y-117451755D01*
X276566712Y-117622024D01*
X276568814Y-117625369D01*
X276662685Y-117774763D01*
X276790239Y-117902317D01*
X276942979Y-117998290D01*
X277113246Y-118057869D01*
X277113251Y-118057870D01*
X277292497Y-118078066D01*
X277292501Y-118078066D01*
X277292505Y-118078066D01*
X277471750Y-118057870D01*
X277471753Y-118057869D01*
X277471756Y-118057869D01*
X277642023Y-117998290D01*
X277794763Y-117902317D01*
X277922317Y-117774763D01*
X278018290Y-117622023D01*
X278077869Y-117451756D01*
X278098066Y-117272501D01*
X278077869Y-117093246D01*
X278018290Y-116922979D01*
X277922317Y-116770239D01*
X277794763Y-116642685D01*
X277642024Y-116546712D01*
X277471755Y-116487132D01*
X277471750Y-116487131D01*
X277292505Y-116466936D01*
X277292497Y-116466936D01*
X277113251Y-116487131D01*
X277113246Y-116487132D01*
X276942977Y-116546712D01*
X276790238Y-116642685D01*
X276662685Y-116770238D01*
X276566712Y-116922977D01*
X276507132Y-117093246D01*
X276507131Y-117093251D01*
X276486936Y-117272497D01*
X276486936Y-117272504D01*
X262293648Y-117272504D01*
X262345789Y-117189522D01*
X262405368Y-117019255D01*
X262408760Y-116989151D01*
X262425565Y-116840003D01*
X262425565Y-116839996D01*
X262405369Y-116660750D01*
X262405368Y-116660745D01*
X262374764Y-116573284D01*
X262345789Y-116490478D01*
X262249816Y-116337738D01*
X262122262Y-116210184D01*
X262114012Y-116205000D01*
X261969523Y-116114211D01*
X261799254Y-116054631D01*
X261799249Y-116054630D01*
X261620004Y-116034435D01*
X261619996Y-116034435D01*
X261440750Y-116054630D01*
X261440745Y-116054631D01*
X261270476Y-116114211D01*
X261117737Y-116210184D01*
X260990184Y-116337737D01*
X260894211Y-116490476D01*
X260834631Y-116660745D01*
X260834630Y-116660750D01*
X260814435Y-116839996D01*
X260814435Y-116840003D01*
X259885565Y-116840003D01*
X259885565Y-116839996D01*
X259865369Y-116660750D01*
X259865368Y-116660745D01*
X259834764Y-116573284D01*
X259805789Y-116490478D01*
X259709816Y-116337738D01*
X259582262Y-116210184D01*
X259574012Y-116205000D01*
X259429523Y-116114211D01*
X259259254Y-116054631D01*
X259259249Y-116054630D01*
X259080004Y-116034435D01*
X259079996Y-116034435D01*
X258900750Y-116054630D01*
X258900745Y-116054631D01*
X258730476Y-116114211D01*
X258577737Y-116210184D01*
X258450184Y-116337737D01*
X258354211Y-116490476D01*
X258294631Y-116660745D01*
X258294630Y-116660750D01*
X258274435Y-116839996D01*
X258274435Y-116840003D01*
X247019983Y-116840003D01*
X247112533Y-116737216D01*
X247207179Y-116573284D01*
X247250215Y-116440831D01*
X247289651Y-116383158D01*
X247354007Y-116355959D01*
X247359258Y-116355368D01*
X247529525Y-116295789D01*
X247682265Y-116199816D01*
X247809819Y-116072262D01*
X247905792Y-115919522D01*
X247965371Y-115749255D01*
X247974218Y-115670736D01*
X247985568Y-115570003D01*
X247985568Y-115569996D01*
X247965372Y-115390750D01*
X247965371Y-115390745D01*
X247941040Y-115321212D01*
X247905792Y-115220478D01*
X247905789Y-115220474D01*
X247854695Y-115139158D01*
X247809819Y-115067738D01*
X247682265Y-114940184D01*
X247529526Y-114844211D01*
X247359257Y-114784631D01*
X247359252Y-114784630D01*
X247180007Y-114764435D01*
X247179999Y-114764435D01*
X247000753Y-114784630D01*
X247000748Y-114784631D01*
X246830479Y-114844211D01*
X246677740Y-114940184D01*
X246550187Y-115067737D01*
X246454215Y-115220474D01*
X246454214Y-115220478D01*
X246453870Y-115221458D01*
X246453478Y-115222005D01*
X246451196Y-115226746D01*
X246450365Y-115226345D01*
X246413149Y-115278232D01*
X246348196Y-115303978D01*
X246336831Y-115304500D01*
X246285354Y-115304500D01*
X246252897Y-115311398D01*
X246100197Y-115343855D01*
X246100192Y-115343857D01*
X245927270Y-115420848D01*
X245927265Y-115420851D01*
X245774129Y-115532111D01*
X245647466Y-115672785D01*
X245552821Y-115836715D01*
X245552818Y-115836722D01*
X245525915Y-115919523D01*
X245494326Y-116016744D01*
X245474540Y-116205000D01*
X241794012Y-116205000D01*
X241649523Y-116114211D01*
X241479254Y-116054631D01*
X241479249Y-116054630D01*
X241300004Y-116034435D01*
X241299996Y-116034435D01*
X241120750Y-116054630D01*
X241120745Y-116054631D01*
X240950476Y-116114211D01*
X240797737Y-116210184D01*
X240670184Y-116337737D01*
X240574211Y-116490476D01*
X240514631Y-116660745D01*
X240514630Y-116660750D01*
X240494435Y-116839996D01*
X240494435Y-116840003D01*
X220515565Y-116840003D01*
X220515565Y-116839996D01*
X220495369Y-116660750D01*
X220495368Y-116660745D01*
X220464764Y-116573284D01*
X220435789Y-116490478D01*
X220339816Y-116337738D01*
X220212262Y-116210184D01*
X220204012Y-116205000D01*
X220059523Y-116114211D01*
X219889254Y-116054631D01*
X219889249Y-116054630D01*
X219710004Y-116034435D01*
X219709996Y-116034435D01*
X219530750Y-116054630D01*
X219530745Y-116054631D01*
X219360476Y-116114211D01*
X219207737Y-116210184D01*
X219080184Y-116337737D01*
X218984211Y-116490476D01*
X218924631Y-116660745D01*
X218924630Y-116660750D01*
X218904435Y-116839996D01*
X218904435Y-116840003D01*
X208580500Y-116840003D01*
X208580500Y-114300003D01*
X240494435Y-114300003D01*
X240514630Y-114479249D01*
X240514631Y-114479254D01*
X240574211Y-114649523D01*
X240670184Y-114802262D01*
X240797738Y-114929816D01*
X240950478Y-115025789D01*
X241120745Y-115085368D01*
X241120750Y-115085369D01*
X241299996Y-115105565D01*
X241300000Y-115105565D01*
X241300004Y-115105565D01*
X241479249Y-115085369D01*
X241479252Y-115085368D01*
X241479255Y-115085368D01*
X241649522Y-115025789D01*
X241802262Y-114929816D01*
X241929816Y-114802262D01*
X242025789Y-114649522D01*
X242085368Y-114479255D01*
X242090609Y-114432738D01*
X242105565Y-114300003D01*
X242105565Y-114299996D01*
X242085369Y-114120750D01*
X242085368Y-114120745D01*
X242025788Y-113950476D01*
X241940894Y-113815369D01*
X241929816Y-113797738D01*
X241802262Y-113670184D01*
X241649523Y-113574211D01*
X241479254Y-113514631D01*
X241479249Y-113514630D01*
X241300004Y-113494435D01*
X241299996Y-113494435D01*
X241120750Y-113514630D01*
X241120745Y-113514631D01*
X240950476Y-113574211D01*
X240797737Y-113670184D01*
X240670184Y-113797737D01*
X240574211Y-113950476D01*
X240514631Y-114120745D01*
X240514630Y-114120750D01*
X240494435Y-114299996D01*
X240494435Y-114300003D01*
X208580500Y-114300003D01*
X208580500Y-111760003D01*
X241764435Y-111760003D01*
X241784630Y-111939249D01*
X241784631Y-111939254D01*
X241844211Y-112109523D01*
X241884317Y-112173351D01*
X241940184Y-112262262D01*
X242067738Y-112389816D01*
X242084239Y-112400184D01*
X242202277Y-112474353D01*
X242220478Y-112485789D01*
X242355974Y-112533201D01*
X242390745Y-112545368D01*
X242390750Y-112545369D01*
X242569996Y-112565565D01*
X242570000Y-112565565D01*
X242570004Y-112565565D01*
X242749249Y-112545369D01*
X242749252Y-112545368D01*
X242749255Y-112545368D01*
X242919522Y-112485789D01*
X243072262Y-112389816D01*
X243199816Y-112262262D01*
X243295789Y-112109522D01*
X243355368Y-111939255D01*
X243362566Y-111875369D01*
X243375565Y-111760003D01*
X243375565Y-111759996D01*
X243355369Y-111580750D01*
X243355368Y-111580745D01*
X243295788Y-111410476D01*
X243210894Y-111275369D01*
X243199816Y-111257738D01*
X243072262Y-111130184D01*
X243008315Y-111090003D01*
X244616179Y-111090003D01*
X244636374Y-111269249D01*
X244636375Y-111269254D01*
X244695955Y-111439523D01*
X244786522Y-111583659D01*
X244791928Y-111592262D01*
X244919482Y-111719816D01*
X245072222Y-111815789D01*
X245242489Y-111875368D01*
X245242494Y-111875369D01*
X245421740Y-111895565D01*
X245421744Y-111895565D01*
X245421748Y-111895565D01*
X245600993Y-111875369D01*
X245600996Y-111875368D01*
X245600999Y-111875368D01*
X245771266Y-111815789D01*
X245860049Y-111760003D01*
X248114435Y-111760003D01*
X248134630Y-111939249D01*
X248134631Y-111939254D01*
X248194211Y-112109523D01*
X248234317Y-112173351D01*
X248290184Y-112262262D01*
X248417738Y-112389816D01*
X248434239Y-112400184D01*
X248552277Y-112474353D01*
X248570478Y-112485789D01*
X248705974Y-112533201D01*
X248740745Y-112545368D01*
X248740750Y-112545369D01*
X248919996Y-112565565D01*
X248920000Y-112565565D01*
X248920004Y-112565565D01*
X249099249Y-112545369D01*
X249099252Y-112545368D01*
X249099255Y-112545368D01*
X249099256Y-112545367D01*
X249099259Y-112545367D01*
X249153693Y-112526319D01*
X249217932Y-112503840D01*
X249287710Y-112500278D01*
X249346568Y-112533201D01*
X249653917Y-112840550D01*
X249687402Y-112901873D01*
X249690236Y-112928231D01*
X249690236Y-115088323D01*
X249670551Y-115155362D01*
X249663186Y-115165632D01*
X249660922Y-115168470D01*
X249564947Y-115321212D01*
X249505367Y-115491481D01*
X249505366Y-115491486D01*
X249485171Y-115670732D01*
X249485171Y-115670739D01*
X249505366Y-115849985D01*
X249505367Y-115849990D01*
X249564947Y-116020259D01*
X249660920Y-116172998D01*
X249788474Y-116300552D01*
X249876654Y-116355959D01*
X249919940Y-116383158D01*
X249941214Y-116396525D01*
X250067842Y-116440834D01*
X250111481Y-116456104D01*
X250111486Y-116456105D01*
X250290732Y-116476301D01*
X250290736Y-116476301D01*
X250290740Y-116476301D01*
X250469985Y-116456105D01*
X250469988Y-116456104D01*
X250469991Y-116456104D01*
X250640258Y-116396525D01*
X250782173Y-116307353D01*
X250849408Y-116288354D01*
X250889099Y-116295307D01*
X251060737Y-116355366D01*
X251060743Y-116355367D01*
X251060745Y-116355368D01*
X251060746Y-116355368D01*
X251060750Y-116355369D01*
X251239996Y-116375565D01*
X251240000Y-116375565D01*
X251240004Y-116375565D01*
X251419249Y-116355369D01*
X251419252Y-116355368D01*
X251419255Y-116355368D01*
X251589522Y-116295789D01*
X251742262Y-116199816D01*
X251869816Y-116072262D01*
X251965789Y-115919522D01*
X251999942Y-115821916D01*
X252040662Y-115765142D01*
X252103098Y-115739652D01*
X252192906Y-115729533D01*
X252274249Y-115720369D01*
X252274252Y-115720368D01*
X252274255Y-115720368D01*
X252444522Y-115660789D01*
X252589007Y-115570003D01*
X253194435Y-115570003D01*
X253214630Y-115749249D01*
X253214631Y-115749254D01*
X253274211Y-115919523D01*
X253337508Y-116020259D01*
X253370184Y-116072262D01*
X253497738Y-116199816D01*
X253514239Y-116210184D01*
X253649710Y-116295307D01*
X253650478Y-116295789D01*
X253820739Y-116355366D01*
X253820745Y-116355368D01*
X253820750Y-116355369D01*
X253999996Y-116375565D01*
X254000000Y-116375565D01*
X254000004Y-116375565D01*
X254179249Y-116355369D01*
X254179252Y-116355368D01*
X254179255Y-116355368D01*
X254349522Y-116295789D01*
X254502262Y-116199816D01*
X254629816Y-116072262D01*
X254725789Y-115919522D01*
X254785368Y-115749255D01*
X254794215Y-115670736D01*
X254805565Y-115570003D01*
X254805565Y-115569996D01*
X254785369Y-115390750D01*
X254785368Y-115390745D01*
X254761037Y-115321212D01*
X254725789Y-115220478D01*
X254725786Y-115220474D01*
X254674692Y-115139158D01*
X254629816Y-115067738D01*
X254502262Y-114940184D01*
X254349523Y-114844211D01*
X254179254Y-114784631D01*
X254179249Y-114784630D01*
X254000004Y-114764435D01*
X253999996Y-114764435D01*
X253820750Y-114784630D01*
X253820745Y-114784631D01*
X253650476Y-114844211D01*
X253497737Y-114940184D01*
X253370184Y-115067737D01*
X253274211Y-115220476D01*
X253214631Y-115390745D01*
X253214630Y-115390750D01*
X253194435Y-115569996D01*
X253194435Y-115570003D01*
X252589007Y-115570003D01*
X252597262Y-115564816D01*
X252724816Y-115437262D01*
X252820789Y-115284522D01*
X252880368Y-115114255D01*
X252890161Y-115027329D01*
X252917226Y-114962918D01*
X252925690Y-114953543D01*
X256119231Y-111760003D01*
X263354435Y-111760003D01*
X263374630Y-111939249D01*
X263374631Y-111939254D01*
X263434211Y-112109523D01*
X263474317Y-112173351D01*
X263530184Y-112262262D01*
X263657738Y-112389816D01*
X263674239Y-112400184D01*
X263792277Y-112474353D01*
X263810478Y-112485789D01*
X263945974Y-112533201D01*
X263980745Y-112545368D01*
X263980750Y-112545369D01*
X264159996Y-112565565D01*
X264160000Y-112565565D01*
X264160004Y-112565565D01*
X264339249Y-112545369D01*
X264339252Y-112545368D01*
X264339255Y-112545368D01*
X264509522Y-112485789D01*
X264662262Y-112389816D01*
X264789816Y-112262262D01*
X264885789Y-112109522D01*
X264945368Y-111939255D01*
X264952566Y-111875369D01*
X264965565Y-111760003D01*
X272244435Y-111760003D01*
X272264630Y-111939249D01*
X272264631Y-111939254D01*
X272324211Y-112109523D01*
X272364317Y-112173351D01*
X272420184Y-112262262D01*
X272547738Y-112389816D01*
X272564239Y-112400184D01*
X272682277Y-112474353D01*
X272700478Y-112485789D01*
X272835974Y-112533201D01*
X272870745Y-112545368D01*
X272870750Y-112545369D01*
X273049996Y-112565565D01*
X273050000Y-112565565D01*
X273050004Y-112565565D01*
X273229249Y-112545369D01*
X273229252Y-112545368D01*
X273229255Y-112545368D01*
X273399522Y-112485789D01*
X273463352Y-112445681D01*
X273530587Y-112426681D01*
X273597423Y-112447048D01*
X273642637Y-112500315D01*
X273651876Y-112569571D01*
X273634318Y-112616647D01*
X273594211Y-112680476D01*
X273534631Y-112850745D01*
X273534630Y-112850750D01*
X273514435Y-113029996D01*
X273514435Y-113030003D01*
X273534630Y-113209249D01*
X273534631Y-113209254D01*
X273594211Y-113379523D01*
X273666416Y-113494435D01*
X273690184Y-113532262D01*
X273817738Y-113659816D01*
X273970478Y-113755789D01*
X274140745Y-113815368D01*
X274140750Y-113815369D01*
X274319996Y-113835565D01*
X274320000Y-113835565D01*
X274320004Y-113835565D01*
X274499249Y-113815369D01*
X274499252Y-113815368D01*
X274499255Y-113815368D01*
X274669522Y-113755789D01*
X274822262Y-113659816D01*
X274949816Y-113532262D01*
X275045789Y-113379522D01*
X275105368Y-113209255D01*
X275125565Y-113030000D01*
X275114098Y-112928231D01*
X275105369Y-112850750D01*
X275105368Y-112850745D01*
X275045788Y-112680476D01*
X274960894Y-112545369D01*
X274949816Y-112527738D01*
X274822262Y-112400184D01*
X274816157Y-112396348D01*
X274669523Y-112304211D01*
X274499254Y-112244631D01*
X274499249Y-112244630D01*
X274320004Y-112224435D01*
X274319996Y-112224435D01*
X274140750Y-112244630D01*
X274140745Y-112244631D01*
X273970476Y-112304211D01*
X273906647Y-112344318D01*
X273839410Y-112363318D01*
X273772575Y-112342950D01*
X273727361Y-112289682D01*
X273718124Y-112220426D01*
X273735681Y-112173353D01*
X273775789Y-112109522D01*
X273835368Y-111939255D01*
X273842566Y-111875369D01*
X273855565Y-111760003D01*
X273855565Y-111759996D01*
X273835369Y-111580750D01*
X273835368Y-111580745D01*
X273775788Y-111410476D01*
X273690894Y-111275369D01*
X273679816Y-111257738D01*
X273552262Y-111130184D01*
X273399523Y-111034211D01*
X273229254Y-110974631D01*
X273229249Y-110974630D01*
X273050004Y-110954435D01*
X273049996Y-110954435D01*
X272870750Y-110974630D01*
X272870745Y-110974631D01*
X272700476Y-111034211D01*
X272547737Y-111130184D01*
X272420184Y-111257737D01*
X272324211Y-111410476D01*
X272264631Y-111580745D01*
X272264630Y-111580750D01*
X272244435Y-111759996D01*
X272244435Y-111760003D01*
X264965565Y-111760003D01*
X264965565Y-111759996D01*
X264945369Y-111580750D01*
X264945368Y-111580745D01*
X264885788Y-111410476D01*
X264800894Y-111275369D01*
X264789816Y-111257738D01*
X264662262Y-111130184D01*
X264509523Y-111034211D01*
X264339254Y-110974631D01*
X264339249Y-110974630D01*
X264160004Y-110954435D01*
X264159996Y-110954435D01*
X263980750Y-110974630D01*
X263980745Y-110974631D01*
X263810476Y-111034211D01*
X263657737Y-111130184D01*
X263530184Y-111257737D01*
X263434211Y-111410476D01*
X263374631Y-111580745D01*
X263374630Y-111580750D01*
X263354435Y-111759996D01*
X263354435Y-111760003D01*
X256119231Y-111760003D01*
X258659231Y-109220003D01*
X263354435Y-109220003D01*
X263374630Y-109399249D01*
X263374631Y-109399254D01*
X263434211Y-109569523D01*
X263530184Y-109722262D01*
X263657738Y-109849816D01*
X263810478Y-109945789D01*
X263980745Y-110005368D01*
X263980750Y-110005369D01*
X264159996Y-110025565D01*
X264160000Y-110025565D01*
X264160004Y-110025565D01*
X264339249Y-110005369D01*
X264339252Y-110005368D01*
X264339255Y-110005368D01*
X264509522Y-109945789D01*
X264662262Y-109849816D01*
X264789816Y-109722262D01*
X264885789Y-109569522D01*
X264945368Y-109399255D01*
X264946666Y-109387737D01*
X264965565Y-109220003D01*
X264965565Y-109219996D01*
X264945369Y-109040750D01*
X264945368Y-109040745D01*
X264885788Y-108870476D01*
X264800894Y-108735369D01*
X264789816Y-108717738D01*
X264662262Y-108590184D01*
X264509523Y-108494211D01*
X264339254Y-108434631D01*
X264339249Y-108434630D01*
X264160004Y-108414435D01*
X264159996Y-108414435D01*
X263980750Y-108434630D01*
X263980745Y-108434631D01*
X263810476Y-108494211D01*
X263657737Y-108590184D01*
X263530184Y-108717737D01*
X263434211Y-108870476D01*
X263374631Y-109040745D01*
X263374630Y-109040750D01*
X263354435Y-109219996D01*
X263354435Y-109220003D01*
X258659231Y-109220003D01*
X259474628Y-108404606D01*
X259502407Y-108384897D01*
X259502154Y-108384494D01*
X259508049Y-108380789D01*
X259508051Y-108380789D01*
X259660791Y-108284816D01*
X259788345Y-108157262D01*
X259884318Y-108004522D01*
X259903395Y-107950003D01*
X273514435Y-107950003D01*
X273534630Y-108129249D01*
X273534631Y-108129254D01*
X273594211Y-108299523D01*
X273666416Y-108414435D01*
X273690184Y-108452262D01*
X273817738Y-108579816D01*
X273834239Y-108590184D01*
X273965364Y-108672576D01*
X273970478Y-108675789D01*
X274140745Y-108735368D01*
X274140750Y-108735369D01*
X274319996Y-108755565D01*
X274320000Y-108755565D01*
X274320004Y-108755565D01*
X274499249Y-108735369D01*
X274499252Y-108735368D01*
X274499255Y-108735368D01*
X274669522Y-108675789D01*
X274822262Y-108579816D01*
X274949816Y-108452262D01*
X275045789Y-108299522D01*
X275105368Y-108129255D01*
X275105369Y-108129249D01*
X275125565Y-107950003D01*
X275125565Y-107949996D01*
X275105369Y-107770750D01*
X275105368Y-107770745D01*
X275066356Y-107659255D01*
X275045789Y-107600478D01*
X274949816Y-107447738D01*
X274822262Y-107320184D01*
X274814012Y-107315000D01*
X274669523Y-107224211D01*
X274499254Y-107164631D01*
X274499249Y-107164630D01*
X274320004Y-107144435D01*
X274319996Y-107144435D01*
X274140750Y-107164630D01*
X274140745Y-107164631D01*
X273970476Y-107224211D01*
X273817737Y-107320184D01*
X273690184Y-107447737D01*
X273594211Y-107600476D01*
X273534631Y-107770745D01*
X273534630Y-107770750D01*
X273514435Y-107949996D01*
X273514435Y-107950003D01*
X259903395Y-107950003D01*
X259943897Y-107834255D01*
X259944430Y-107829523D01*
X259964094Y-107655003D01*
X259964094Y-107654996D01*
X259943898Y-107475750D01*
X259943897Y-107475745D01*
X259885836Y-107309816D01*
X259884318Y-107305478D01*
X259863072Y-107271666D01*
X259835207Y-107227319D01*
X259788345Y-107152738D01*
X259660791Y-107025184D01*
X259508052Y-106929211D01*
X259337783Y-106869631D01*
X259337778Y-106869630D01*
X259158533Y-106849435D01*
X259158525Y-106849435D01*
X258979279Y-106869630D01*
X258979274Y-106869631D01*
X258809005Y-106929211D01*
X258656266Y-107025184D01*
X258528713Y-107152737D01*
X258432740Y-107305476D01*
X258373160Y-107475745D01*
X258373159Y-107475750D01*
X258352964Y-107654997D01*
X258352964Y-107655001D01*
X258363776Y-107750960D01*
X258351722Y-107819782D01*
X258328237Y-107852525D01*
X252076465Y-114104298D01*
X252015142Y-114137783D01*
X252002668Y-114139837D01*
X251915750Y-114149630D01*
X251745478Y-114209210D01*
X251592737Y-114305184D01*
X251465184Y-114432737D01*
X251369210Y-114585478D01*
X251335058Y-114683081D01*
X251294336Y-114739858D01*
X251231900Y-114765347D01*
X251060745Y-114784631D01*
X251060741Y-114784632D01*
X251056183Y-114786227D01*
X250986404Y-114789784D01*
X250925779Y-114755051D01*
X250893556Y-114693056D01*
X250891236Y-114669183D01*
X250891236Y-112549079D01*
X250891236Y-112549077D01*
X250885519Y-112527738D01*
X250850313Y-112396349D01*
X250821375Y-112346229D01*
X250771256Y-112259418D01*
X250659452Y-112147614D01*
X250659451Y-112147613D01*
X250655121Y-112143283D01*
X250655110Y-112143273D01*
X250156819Y-111644982D01*
X250123334Y-111583659D01*
X250120500Y-111557301D01*
X250120500Y-110490003D01*
X253194435Y-110490003D01*
X253214630Y-110669249D01*
X253214631Y-110669254D01*
X253274211Y-110839523D01*
X253346416Y-110954435D01*
X253370184Y-110992262D01*
X253497738Y-111119816D01*
X253650478Y-111215789D01*
X253803258Y-111269249D01*
X253820745Y-111275368D01*
X253820750Y-111275369D01*
X253999996Y-111295565D01*
X254000000Y-111295565D01*
X254000004Y-111295565D01*
X254179249Y-111275369D01*
X254179252Y-111275368D01*
X254179255Y-111275368D01*
X254349522Y-111215789D01*
X254502262Y-111119816D01*
X254629816Y-110992262D01*
X254725789Y-110839522D01*
X254785368Y-110669255D01*
X254805565Y-110490000D01*
X254791392Y-110364211D01*
X254785369Y-110310750D01*
X254785368Y-110310745D01*
X254725788Y-110140476D01*
X254640894Y-110005369D01*
X254629816Y-109987738D01*
X254502262Y-109860184D01*
X254349523Y-109764211D01*
X254179254Y-109704631D01*
X254179249Y-109704630D01*
X254000004Y-109684435D01*
X253999996Y-109684435D01*
X253820750Y-109704630D01*
X253820745Y-109704631D01*
X253650476Y-109764211D01*
X253497737Y-109860184D01*
X253370184Y-109987737D01*
X253274211Y-110140476D01*
X253214631Y-110310745D01*
X253214630Y-110310750D01*
X253194435Y-110489996D01*
X253194435Y-110490003D01*
X250120500Y-110490003D01*
X250120500Y-106380097D01*
X250140185Y-106313058D01*
X250156818Y-106292417D01*
X250208533Y-106240701D01*
X250269856Y-106207215D01*
X250282311Y-106205163D01*
X250369255Y-106195368D01*
X250539522Y-106135789D01*
X250692262Y-106039816D01*
X250819816Y-105912262D01*
X250915789Y-105759522D01*
X250975368Y-105589255D01*
X250995565Y-105410003D01*
X251924435Y-105410003D01*
X251944630Y-105589249D01*
X251944631Y-105589254D01*
X252004211Y-105759523D01*
X252073897Y-105870426D01*
X252100184Y-105912262D01*
X252227738Y-106039816D01*
X252244239Y-106050184D01*
X252362344Y-106124395D01*
X252380478Y-106135789D01*
X252550742Y-106195367D01*
X252550745Y-106195368D01*
X252550750Y-106195369D01*
X252729996Y-106215565D01*
X252730000Y-106215565D01*
X252730004Y-106215565D01*
X252909249Y-106195369D01*
X252909252Y-106195368D01*
X252909255Y-106195368D01*
X253079522Y-106135789D01*
X253143352Y-106095681D01*
X253210587Y-106076681D01*
X253277423Y-106097048D01*
X253322637Y-106150315D01*
X253331876Y-106219571D01*
X253314318Y-106266647D01*
X253274211Y-106330476D01*
X253214631Y-106500745D01*
X253214630Y-106500750D01*
X253194435Y-106679996D01*
X253194435Y-106680003D01*
X253214630Y-106859249D01*
X253214631Y-106859254D01*
X253274211Y-107029523D01*
X253337646Y-107130478D01*
X253370184Y-107182262D01*
X253497738Y-107309816D01*
X253588080Y-107366582D01*
X253645531Y-107402681D01*
X253650478Y-107405789D01*
X253820745Y-107465368D01*
X253820750Y-107465369D01*
X253999996Y-107485565D01*
X254000000Y-107485565D01*
X254000004Y-107485565D01*
X254179249Y-107465369D01*
X254179252Y-107465368D01*
X254179255Y-107465368D01*
X254349522Y-107405789D01*
X254502262Y-107309816D01*
X254629816Y-107182262D01*
X254725789Y-107029522D01*
X254785368Y-106859255D01*
X254786390Y-106850184D01*
X254805565Y-106680003D01*
X265894435Y-106680003D01*
X265914630Y-106859249D01*
X265914631Y-106859254D01*
X265974211Y-107029523D01*
X266037646Y-107130478D01*
X266070184Y-107182262D01*
X266197738Y-107309816D01*
X266288080Y-107366582D01*
X266345531Y-107402681D01*
X266350478Y-107405789D01*
X266520745Y-107465368D01*
X266520750Y-107465369D01*
X266699996Y-107485565D01*
X266700000Y-107485565D01*
X266700004Y-107485565D01*
X266879249Y-107465369D01*
X266879252Y-107465368D01*
X266879255Y-107465368D01*
X267049522Y-107405789D01*
X267202262Y-107309816D01*
X267329816Y-107182262D01*
X267425789Y-107029522D01*
X267485368Y-106859255D01*
X267486390Y-106850184D01*
X267505565Y-106680003D01*
X267505565Y-106679996D01*
X267485369Y-106500750D01*
X267485368Y-106500745D01*
X267454689Y-106413070D01*
X267425789Y-106330478D01*
X267329816Y-106177738D01*
X267202262Y-106050184D01*
X267049523Y-105954211D01*
X266879254Y-105894631D01*
X266879249Y-105894630D01*
X266700004Y-105874435D01*
X266699996Y-105874435D01*
X266520750Y-105894630D01*
X266520745Y-105894631D01*
X266350476Y-105954211D01*
X266197737Y-106050184D01*
X266070184Y-106177737D01*
X265974211Y-106330476D01*
X265914631Y-106500745D01*
X265914630Y-106500750D01*
X265894435Y-106679996D01*
X265894435Y-106680003D01*
X254805565Y-106680003D01*
X254805565Y-106679997D01*
X254797282Y-106606488D01*
X254790937Y-106550173D01*
X254802991Y-106481352D01*
X254850340Y-106429973D01*
X254917950Y-106412348D01*
X254928034Y-106413069D01*
X254997457Y-106420891D01*
X255057865Y-106427698D01*
X255057867Y-106427698D01*
X255057871Y-106427698D01*
X255237116Y-106407502D01*
X255237119Y-106407501D01*
X255237122Y-106407501D01*
X255407389Y-106347922D01*
X255560129Y-106251949D01*
X255687683Y-106124395D01*
X255783656Y-105971655D01*
X255843235Y-105801388D01*
X255847952Y-105759522D01*
X255863432Y-105622136D01*
X255863432Y-105622129D01*
X255843236Y-105442883D01*
X255843235Y-105442878D01*
X255783656Y-105272611D01*
X255687683Y-105119871D01*
X255560129Y-104992317D01*
X255485724Y-104945565D01*
X255407390Y-104896344D01*
X255237121Y-104836764D01*
X255237116Y-104836763D01*
X255057871Y-104816568D01*
X255057863Y-104816568D01*
X254878617Y-104836763D01*
X254878612Y-104836764D01*
X254708343Y-104896344D01*
X254555604Y-104992317D01*
X254428051Y-105119870D01*
X254332078Y-105272609D01*
X254272498Y-105442878D01*
X254272497Y-105442883D01*
X254252302Y-105622129D01*
X254252302Y-105622136D01*
X254266929Y-105751959D01*
X254254874Y-105820781D01*
X254207525Y-105872160D01*
X254139915Y-105889784D01*
X254129826Y-105889062D01*
X254000004Y-105874435D01*
X253999996Y-105874435D01*
X253820750Y-105894630D01*
X253820745Y-105894631D01*
X253650476Y-105954211D01*
X253586647Y-105994318D01*
X253519410Y-106013318D01*
X253452575Y-105992950D01*
X253407361Y-105939682D01*
X253398124Y-105870426D01*
X253415681Y-105823353D01*
X253455789Y-105759522D01*
X253515368Y-105589255D01*
X253535565Y-105410000D01*
X253532419Y-105382082D01*
X253515369Y-105230750D01*
X253515368Y-105230745D01*
X253455789Y-105060478D01*
X253359816Y-104907738D01*
X253232262Y-104780184D01*
X253079523Y-104684211D01*
X252909254Y-104624631D01*
X252909249Y-104624630D01*
X252730004Y-104604435D01*
X252729996Y-104604435D01*
X252550750Y-104624630D01*
X252550745Y-104624631D01*
X252380476Y-104684211D01*
X252227737Y-104780184D01*
X252100184Y-104907737D01*
X252004211Y-105060476D01*
X251944631Y-105230745D01*
X251944630Y-105230750D01*
X251924435Y-105409996D01*
X251924435Y-105410003D01*
X250995565Y-105410003D01*
X250995565Y-105410000D01*
X250992419Y-105382082D01*
X250975369Y-105230750D01*
X250975368Y-105230745D01*
X250915789Y-105060478D01*
X250819816Y-104907738D01*
X250692262Y-104780184D01*
X250539523Y-104684211D01*
X250369254Y-104624631D01*
X250369249Y-104624630D01*
X250190004Y-104604435D01*
X250189996Y-104604435D01*
X250010750Y-104624630D01*
X250010745Y-104624631D01*
X249840476Y-104684211D01*
X249687737Y-104780184D01*
X249560184Y-104907737D01*
X249464210Y-105060478D01*
X249404630Y-105230750D01*
X249394837Y-105317668D01*
X249367770Y-105382082D01*
X249359298Y-105391465D01*
X249151286Y-105599478D01*
X249039481Y-105711282D01*
X249039479Y-105711284D01*
X249012019Y-105758847D01*
X249000413Y-105778951D01*
X248987459Y-105801388D01*
X248960423Y-105848214D01*
X248960423Y-105848215D01*
X248919499Y-106000943D01*
X248919499Y-106000945D01*
X248919499Y-106169046D01*
X248919500Y-106169059D01*
X248919500Y-106563677D01*
X248899815Y-106630716D01*
X248847011Y-106676471D01*
X248809384Y-106686897D01*
X248740750Y-106694630D01*
X248570478Y-106754210D01*
X248417737Y-106850184D01*
X248290184Y-106977737D01*
X248194211Y-107130476D01*
X248134631Y-107300745D01*
X248134630Y-107300750D01*
X248114435Y-107479996D01*
X248114435Y-107480003D01*
X248134630Y-107659249D01*
X248134631Y-107659254D01*
X248194211Y-107829523D01*
X248269910Y-107949996D01*
X248290184Y-107982262D01*
X248417738Y-108109816D01*
X248570478Y-108205789D01*
X248740745Y-108265368D01*
X248809384Y-108273101D01*
X248873796Y-108300166D01*
X248913352Y-108357760D01*
X248919500Y-108396321D01*
X248919500Y-110843677D01*
X248899815Y-110910716D01*
X248847011Y-110956471D01*
X248809384Y-110966897D01*
X248740750Y-110974630D01*
X248570478Y-111034210D01*
X248417737Y-111130184D01*
X248290184Y-111257737D01*
X248194211Y-111410476D01*
X248134631Y-111580745D01*
X248134630Y-111580750D01*
X248114435Y-111759996D01*
X248114435Y-111760003D01*
X245860049Y-111760003D01*
X245924006Y-111719816D01*
X246051560Y-111592262D01*
X246147533Y-111439522D01*
X246207112Y-111269255D01*
X246213136Y-111215789D01*
X246227309Y-111090003D01*
X246227309Y-111089996D01*
X246207113Y-110910750D01*
X246207110Y-110910737D01*
X246174023Y-110816180D01*
X246170461Y-110746401D01*
X246205189Y-110685774D01*
X246250108Y-110658183D01*
X246371266Y-110615789D01*
X246524006Y-110519816D01*
X246651560Y-110392262D01*
X246747533Y-110239522D01*
X246807112Y-110069255D01*
X246814310Y-110005369D01*
X246827309Y-109890003D01*
X246827309Y-109889996D01*
X246807113Y-109710750D01*
X246807112Y-109710745D01*
X246747532Y-109540476D01*
X246708326Y-109478080D01*
X246651560Y-109387738D01*
X246524006Y-109260184D01*
X246371267Y-109164211D01*
X246200998Y-109104631D01*
X246200993Y-109104630D01*
X246021748Y-109084435D01*
X246021740Y-109084435D01*
X245842494Y-109104630D01*
X245842489Y-109104631D01*
X245672220Y-109164211D01*
X245519481Y-109260184D01*
X245391928Y-109387737D01*
X245295955Y-109540476D01*
X245236375Y-109710745D01*
X245236374Y-109710750D01*
X245216179Y-109889996D01*
X245216179Y-109890003D01*
X245236374Y-110069249D01*
X245236376Y-110069257D01*
X245269465Y-110163821D01*
X245273026Y-110233600D01*
X245238297Y-110294227D01*
X245193377Y-110321817D01*
X245072222Y-110364210D01*
X244919481Y-110460184D01*
X244791928Y-110587737D01*
X244695955Y-110740476D01*
X244636375Y-110910745D01*
X244636374Y-110910750D01*
X244616179Y-111089996D01*
X244616179Y-111090003D01*
X243008315Y-111090003D01*
X242919523Y-111034211D01*
X242749254Y-110974631D01*
X242749249Y-110974630D01*
X242570004Y-110954435D01*
X242569996Y-110954435D01*
X242390750Y-110974630D01*
X242390745Y-110974631D01*
X242220476Y-111034211D01*
X242067737Y-111130184D01*
X241940184Y-111257737D01*
X241844211Y-111410476D01*
X241784631Y-111580745D01*
X241784630Y-111580750D01*
X241764435Y-111759996D01*
X241764435Y-111760003D01*
X208580500Y-111760003D01*
X208580500Y-110490003D01*
X215094435Y-110490003D01*
X215114630Y-110669249D01*
X215114631Y-110669254D01*
X215174211Y-110839523D01*
X215246416Y-110954435D01*
X215270184Y-110992262D01*
X215397738Y-111119816D01*
X215550478Y-111215789D01*
X215703258Y-111269249D01*
X215720745Y-111275368D01*
X215720750Y-111275369D01*
X215899996Y-111295565D01*
X215900000Y-111295565D01*
X215900004Y-111295565D01*
X216079249Y-111275369D01*
X216079252Y-111275368D01*
X216079255Y-111275368D01*
X216249522Y-111215789D01*
X216402262Y-111119816D01*
X216529816Y-110992262D01*
X216625789Y-110839522D01*
X216685368Y-110669255D01*
X216705565Y-110490003D01*
X227794435Y-110490003D01*
X227814630Y-110669249D01*
X227814631Y-110669254D01*
X227874211Y-110839523D01*
X227946416Y-110954435D01*
X227970184Y-110992262D01*
X228097738Y-111119816D01*
X228250478Y-111215789D01*
X228403258Y-111269249D01*
X228420745Y-111275368D01*
X228420750Y-111275369D01*
X228599996Y-111295565D01*
X228600000Y-111295565D01*
X228600004Y-111295565D01*
X228779249Y-111275369D01*
X228779252Y-111275368D01*
X228779255Y-111275368D01*
X228949522Y-111215789D01*
X229102262Y-111119816D01*
X229229816Y-110992262D01*
X229325789Y-110839522D01*
X229385368Y-110669255D01*
X229405565Y-110490000D01*
X229391392Y-110364211D01*
X229385369Y-110310750D01*
X229385368Y-110310745D01*
X229325788Y-110140476D01*
X229240894Y-110005369D01*
X229229816Y-109987738D01*
X229102262Y-109860184D01*
X228949523Y-109764211D01*
X228779254Y-109704631D01*
X228779249Y-109704630D01*
X228600004Y-109684435D01*
X228599996Y-109684435D01*
X228420750Y-109704630D01*
X228420745Y-109704631D01*
X228250476Y-109764211D01*
X228097737Y-109860184D01*
X227970184Y-109987737D01*
X227874211Y-110140476D01*
X227814631Y-110310745D01*
X227814630Y-110310750D01*
X227794435Y-110489996D01*
X227794435Y-110490003D01*
X216705565Y-110490003D01*
X216705565Y-110490000D01*
X216691392Y-110364211D01*
X216685369Y-110310750D01*
X216685368Y-110310745D01*
X216625788Y-110140476D01*
X216540894Y-110005369D01*
X216529816Y-109987738D01*
X216402262Y-109860184D01*
X216249523Y-109764211D01*
X216079254Y-109704631D01*
X216079249Y-109704630D01*
X215900004Y-109684435D01*
X215899996Y-109684435D01*
X215720750Y-109704630D01*
X215720745Y-109704631D01*
X215550476Y-109764211D01*
X215397737Y-109860184D01*
X215270184Y-109987737D01*
X215174211Y-110140476D01*
X215114631Y-110310745D01*
X215114630Y-110310750D01*
X215094435Y-110489996D01*
X215094435Y-110490003D01*
X208580500Y-110490003D01*
X208580500Y-109220003D01*
X235414435Y-109220003D01*
X235434630Y-109399249D01*
X235434631Y-109399254D01*
X235494211Y-109569523D01*
X235590184Y-109722262D01*
X235717738Y-109849816D01*
X235870478Y-109945789D01*
X236040745Y-110005368D01*
X236040750Y-110005369D01*
X236219996Y-110025565D01*
X236220000Y-110025565D01*
X236220004Y-110025565D01*
X236399249Y-110005369D01*
X236399252Y-110005368D01*
X236399255Y-110005368D01*
X236569522Y-109945789D01*
X236722262Y-109849816D01*
X236849816Y-109722262D01*
X236945789Y-109569522D01*
X237005368Y-109399255D01*
X237006666Y-109387737D01*
X237025565Y-109220003D01*
X237025565Y-109219996D01*
X237005369Y-109040750D01*
X237005368Y-109040745D01*
X236945788Y-108870475D01*
X236905682Y-108806648D01*
X236886681Y-108739411D01*
X236907048Y-108672576D01*
X236960316Y-108627361D01*
X237029572Y-108618123D01*
X237076648Y-108635682D01*
X237140475Y-108675788D01*
X237310745Y-108735368D01*
X237310750Y-108735369D01*
X237489996Y-108755565D01*
X237490000Y-108755565D01*
X237490004Y-108755565D01*
X237669249Y-108735369D01*
X237669252Y-108735368D01*
X237669255Y-108735368D01*
X237839522Y-108675789D01*
X237992262Y-108579816D01*
X238119816Y-108452262D01*
X238215789Y-108299522D01*
X238275368Y-108129255D01*
X238275369Y-108129249D01*
X238295565Y-107950003D01*
X238295565Y-107949996D01*
X238275369Y-107770750D01*
X238275368Y-107770745D01*
X238236356Y-107659255D01*
X238215789Y-107600478D01*
X238119816Y-107447738D01*
X238074758Y-107402680D01*
X238041274Y-107341358D01*
X238046258Y-107271666D01*
X238074759Y-107227319D01*
X238077867Y-107224211D01*
X238119816Y-107182262D01*
X238215789Y-107029522D01*
X238275368Y-106859255D01*
X238276390Y-106850184D01*
X238295565Y-106680003D01*
X240494435Y-106680003D01*
X240514630Y-106859249D01*
X240514631Y-106859254D01*
X240574211Y-107029523D01*
X240637646Y-107130478D01*
X240670184Y-107182262D01*
X240797738Y-107309816D01*
X240888080Y-107366582D01*
X240945531Y-107402681D01*
X240950478Y-107405789D01*
X241120745Y-107465368D01*
X241120750Y-107465369D01*
X241299996Y-107485565D01*
X241300000Y-107485565D01*
X241300004Y-107485565D01*
X241479249Y-107465369D01*
X241479252Y-107465368D01*
X241479255Y-107465368D01*
X241649522Y-107405789D01*
X241802262Y-107309816D01*
X241929816Y-107182262D01*
X242025789Y-107029522D01*
X242085368Y-106859255D01*
X242086390Y-106850184D01*
X242105565Y-106680003D01*
X242105565Y-106679996D01*
X242085369Y-106500750D01*
X242085368Y-106500745D01*
X242054689Y-106413070D01*
X242025789Y-106330478D01*
X241929816Y-106177738D01*
X241802262Y-106050184D01*
X241649523Y-105954211D01*
X241479254Y-105894631D01*
X241479249Y-105894630D01*
X241300004Y-105874435D01*
X241299996Y-105874435D01*
X241120750Y-105894630D01*
X241120745Y-105894631D01*
X240950476Y-105954211D01*
X240797737Y-106050184D01*
X240670184Y-106177737D01*
X240574211Y-106330476D01*
X240514631Y-106500745D01*
X240514630Y-106500750D01*
X240494435Y-106679996D01*
X240494435Y-106680003D01*
X238295565Y-106680003D01*
X238295565Y-106679996D01*
X238275369Y-106500750D01*
X238275368Y-106500745D01*
X238244689Y-106413070D01*
X238215789Y-106330478D01*
X238119816Y-106177738D01*
X237992262Y-106050184D01*
X237839523Y-105954211D01*
X237669254Y-105894631D01*
X237669249Y-105894630D01*
X237490004Y-105874435D01*
X237489996Y-105874435D01*
X237310750Y-105894630D01*
X237310745Y-105894631D01*
X237140476Y-105954211D01*
X236987737Y-106050184D01*
X236860184Y-106177737D01*
X236764211Y-106330476D01*
X236704631Y-106500745D01*
X236704630Y-106500750D01*
X236684435Y-106679996D01*
X236684435Y-106680003D01*
X236704630Y-106859249D01*
X236704631Y-106859254D01*
X236764211Y-107029523D01*
X236860184Y-107182262D01*
X236860185Y-107182263D01*
X236905241Y-107227320D01*
X236938725Y-107288643D01*
X236933740Y-107358335D01*
X236905241Y-107402680D01*
X236860184Y-107447737D01*
X236764211Y-107600476D01*
X236704631Y-107770745D01*
X236704630Y-107770750D01*
X236684435Y-107949996D01*
X236684435Y-107950003D01*
X236704630Y-108129249D01*
X236704631Y-108129254D01*
X236764211Y-108299523D01*
X236804318Y-108363352D01*
X236823318Y-108430588D01*
X236802950Y-108497424D01*
X236749683Y-108542638D01*
X236680426Y-108551876D01*
X236633352Y-108534318D01*
X236569523Y-108494211D01*
X236399254Y-108434631D01*
X236399249Y-108434630D01*
X236220004Y-108414435D01*
X236219996Y-108414435D01*
X236040750Y-108434630D01*
X236040745Y-108434631D01*
X235870476Y-108494211D01*
X235717737Y-108590184D01*
X235590184Y-108717737D01*
X235494211Y-108870476D01*
X235434631Y-109040745D01*
X235434630Y-109040750D01*
X235414435Y-109219996D01*
X235414435Y-109220003D01*
X208580500Y-109220003D01*
X208580500Y-105410003D01*
X216364435Y-105410003D01*
X216384630Y-105589249D01*
X216384631Y-105589254D01*
X216444211Y-105759523D01*
X216513897Y-105870426D01*
X216540184Y-105912262D01*
X216667738Y-106039816D01*
X216684239Y-106050184D01*
X216802344Y-106124395D01*
X216820478Y-106135789D01*
X216990742Y-106195367D01*
X216990745Y-106195368D01*
X216990750Y-106195369D01*
X217169996Y-106215565D01*
X217170000Y-106215565D01*
X217170004Y-106215565D01*
X217349249Y-106195369D01*
X217349252Y-106195368D01*
X217349255Y-106195368D01*
X217519522Y-106135789D01*
X217672262Y-106039816D01*
X217717319Y-105994759D01*
X217778642Y-105961274D01*
X217848334Y-105966258D01*
X217892681Y-105994759D01*
X217937738Y-106039816D01*
X217954239Y-106050184D01*
X218072344Y-106124395D01*
X218090478Y-106135789D01*
X218260742Y-106195367D01*
X218260745Y-106195368D01*
X218260750Y-106195369D01*
X218439996Y-106215565D01*
X218440000Y-106215565D01*
X218440004Y-106215565D01*
X218619249Y-106195369D01*
X218619252Y-106195368D01*
X218619255Y-106195368D01*
X218789522Y-106135789D01*
X218942262Y-106039816D01*
X219069816Y-105912262D01*
X219165789Y-105759522D01*
X219225368Y-105589255D01*
X219245565Y-105410003D01*
X227794435Y-105410003D01*
X227814630Y-105589249D01*
X227814631Y-105589254D01*
X227874211Y-105759523D01*
X227943897Y-105870426D01*
X227970184Y-105912262D01*
X228097738Y-106039816D01*
X228114239Y-106050184D01*
X228232344Y-106124395D01*
X228250478Y-106135789D01*
X228420742Y-106195367D01*
X228420745Y-106195368D01*
X228420750Y-106195369D01*
X228599996Y-106215565D01*
X228600000Y-106215565D01*
X228600004Y-106215565D01*
X228779249Y-106195369D01*
X228779252Y-106195368D01*
X228779255Y-106195368D01*
X228949522Y-106135789D01*
X229102262Y-106039816D01*
X229229816Y-105912262D01*
X229325789Y-105759522D01*
X229385368Y-105589255D01*
X229405565Y-105410003D01*
X244304435Y-105410003D01*
X244324630Y-105589249D01*
X244324631Y-105589254D01*
X244384211Y-105759523D01*
X244453897Y-105870426D01*
X244480184Y-105912262D01*
X244607738Y-106039816D01*
X244624239Y-106050184D01*
X244742344Y-106124395D01*
X244760478Y-106135789D01*
X244930742Y-106195367D01*
X244930745Y-106195368D01*
X244930750Y-106195369D01*
X245109996Y-106215565D01*
X245110000Y-106215565D01*
X245110004Y-106215565D01*
X245289249Y-106195369D01*
X245289252Y-106195368D01*
X245289255Y-106195368D01*
X245459522Y-106135789D01*
X245612262Y-106039816D01*
X245739816Y-105912262D01*
X245835789Y-105759522D01*
X245895368Y-105589255D01*
X245915565Y-105410000D01*
X245912419Y-105382082D01*
X245895369Y-105230750D01*
X245895368Y-105230745D01*
X245835789Y-105060478D01*
X245739816Y-104907738D01*
X245612262Y-104780184D01*
X245459523Y-104684211D01*
X245289254Y-104624631D01*
X245289249Y-104624630D01*
X245110004Y-104604435D01*
X245109996Y-104604435D01*
X244930750Y-104624630D01*
X244930745Y-104624631D01*
X244760476Y-104684211D01*
X244607737Y-104780184D01*
X244480184Y-104907737D01*
X244384211Y-105060476D01*
X244324631Y-105230745D01*
X244324630Y-105230750D01*
X244304435Y-105409996D01*
X244304435Y-105410003D01*
X229405565Y-105410003D01*
X229405565Y-105410000D01*
X229402419Y-105382082D01*
X229385369Y-105230750D01*
X229385368Y-105230745D01*
X229325789Y-105060478D01*
X229229816Y-104907738D01*
X229102262Y-104780184D01*
X228949523Y-104684211D01*
X228779254Y-104624631D01*
X228779249Y-104624630D01*
X228600004Y-104604435D01*
X228599996Y-104604435D01*
X228420750Y-104624630D01*
X228420745Y-104624631D01*
X228250476Y-104684211D01*
X228097737Y-104780184D01*
X227970184Y-104907737D01*
X227874211Y-105060476D01*
X227814631Y-105230745D01*
X227814630Y-105230750D01*
X227794435Y-105409996D01*
X227794435Y-105410003D01*
X219245565Y-105410003D01*
X219245565Y-105410000D01*
X219242419Y-105382082D01*
X219225369Y-105230750D01*
X219225368Y-105230745D01*
X219165789Y-105060478D01*
X219069816Y-104907738D01*
X218942262Y-104780184D01*
X218789523Y-104684211D01*
X218619254Y-104624631D01*
X218619249Y-104624630D01*
X218440004Y-104604435D01*
X218439996Y-104604435D01*
X218260750Y-104624630D01*
X218260745Y-104624631D01*
X218090476Y-104684211D01*
X217937737Y-104780184D01*
X217892680Y-104825241D01*
X217831357Y-104858725D01*
X217761665Y-104853740D01*
X217717320Y-104825241D01*
X217672263Y-104780185D01*
X217672262Y-104780184D01*
X217519523Y-104684211D01*
X217349254Y-104624631D01*
X217349249Y-104624630D01*
X217170004Y-104604435D01*
X217169996Y-104604435D01*
X216990750Y-104624630D01*
X216990745Y-104624631D01*
X216820476Y-104684211D01*
X216667737Y-104780184D01*
X216540184Y-104907737D01*
X216444211Y-105060476D01*
X216384631Y-105230745D01*
X216384630Y-105230750D01*
X216364435Y-105409996D01*
X216364435Y-105410003D01*
X208580500Y-105410003D01*
X208580500Y-104140003D01*
X260814435Y-104140003D01*
X260834630Y-104319249D01*
X260834631Y-104319254D01*
X260894211Y-104489523D01*
X260966416Y-104604435D01*
X260990184Y-104642262D01*
X261117738Y-104769816D01*
X261192143Y-104816568D01*
X261259235Y-104858725D01*
X261270478Y-104865789D01*
X261413939Y-104915988D01*
X261440745Y-104925368D01*
X261440750Y-104925369D01*
X261619996Y-104945565D01*
X261620000Y-104945565D01*
X261620004Y-104945565D01*
X261799249Y-104925369D01*
X261799252Y-104925368D01*
X261799255Y-104925368D01*
X261969522Y-104865789D01*
X262122262Y-104769816D01*
X262249816Y-104642262D01*
X262345789Y-104489522D01*
X262405368Y-104319255D01*
X262425565Y-104140000D01*
X262405368Y-103960745D01*
X262345789Y-103790478D01*
X262249816Y-103637738D01*
X262122262Y-103510184D01*
X261969523Y-103414211D01*
X261799254Y-103354631D01*
X261799249Y-103354630D01*
X261620004Y-103334435D01*
X261619996Y-103334435D01*
X261440750Y-103354630D01*
X261440745Y-103354631D01*
X261270476Y-103414211D01*
X261117737Y-103510184D01*
X260990184Y-103637737D01*
X260894211Y-103790476D01*
X260834631Y-103960745D01*
X260834630Y-103960750D01*
X260814435Y-104139996D01*
X260814435Y-104140003D01*
X208580500Y-104140003D01*
X208580500Y-102870003D01*
X250654435Y-102870003D01*
X250674630Y-103049249D01*
X250674631Y-103049254D01*
X250734211Y-103219523D01*
X250806416Y-103334435D01*
X250830184Y-103372262D01*
X250957738Y-103499816D01*
X251110478Y-103595789D01*
X251280745Y-103655368D01*
X251280750Y-103655369D01*
X251459996Y-103675565D01*
X251460000Y-103675565D01*
X251460004Y-103675565D01*
X251639249Y-103655369D01*
X251639252Y-103655368D01*
X251639255Y-103655368D01*
X251809522Y-103595789D01*
X251962262Y-103499816D01*
X252089816Y-103372262D01*
X252185789Y-103219522D01*
X252245368Y-103049255D01*
X252245369Y-103049249D01*
X252265565Y-102870003D01*
X252265565Y-102869996D01*
X252245369Y-102690750D01*
X252245368Y-102690745D01*
X252185788Y-102520476D01*
X252089815Y-102367737D01*
X251962262Y-102240184D01*
X251809523Y-102144211D01*
X251706047Y-102108003D01*
X275800435Y-102108003D01*
X275820630Y-102287249D01*
X275820631Y-102287254D01*
X275880211Y-102457523D01*
X275919769Y-102520478D01*
X275976184Y-102610262D01*
X276103738Y-102737816D01*
X276256478Y-102833789D01*
X276359952Y-102869996D01*
X276426745Y-102893368D01*
X276426750Y-102893369D01*
X276605996Y-102913565D01*
X276606000Y-102913565D01*
X276606004Y-102913565D01*
X276785249Y-102893369D01*
X276785252Y-102893368D01*
X276785255Y-102893368D01*
X276955522Y-102833789D01*
X277108262Y-102737816D01*
X277235816Y-102610262D01*
X277331789Y-102457522D01*
X277391368Y-102287255D01*
X277411565Y-102108000D01*
X277408932Y-102084632D01*
X277391369Y-101928750D01*
X277391368Y-101928745D01*
X277331788Y-101758476D01*
X277235815Y-101605737D01*
X277108262Y-101478184D01*
X276955523Y-101382211D01*
X276785254Y-101322631D01*
X276785249Y-101322630D01*
X276606004Y-101302435D01*
X276605996Y-101302435D01*
X276426750Y-101322630D01*
X276426745Y-101322631D01*
X276256476Y-101382211D01*
X276103737Y-101478184D01*
X275976184Y-101605737D01*
X275880211Y-101758476D01*
X275820631Y-101928745D01*
X275820630Y-101928750D01*
X275800435Y-102107996D01*
X275800435Y-102108003D01*
X251706047Y-102108003D01*
X251639254Y-102084631D01*
X251639249Y-102084630D01*
X251460004Y-102064435D01*
X251459996Y-102064435D01*
X251280750Y-102084630D01*
X251280745Y-102084631D01*
X251110476Y-102144211D01*
X250957737Y-102240184D01*
X250830184Y-102367737D01*
X250734211Y-102520476D01*
X250674631Y-102690745D01*
X250674630Y-102690750D01*
X250654435Y-102869996D01*
X250654435Y-102870003D01*
X208580500Y-102870003D01*
X208580500Y-100330003D01*
X217634435Y-100330003D01*
X217654630Y-100509249D01*
X217654631Y-100509254D01*
X217714211Y-100679523D01*
X217805000Y-100824011D01*
X217810184Y-100832262D01*
X217937738Y-100959816D01*
X218090478Y-101055789D01*
X218260745Y-101115368D01*
X218260750Y-101115369D01*
X218439996Y-101135565D01*
X218440000Y-101135565D01*
X218440004Y-101135565D01*
X218619249Y-101115369D01*
X218619252Y-101115368D01*
X218619255Y-101115368D01*
X218789522Y-101055789D01*
X218942262Y-100959816D01*
X218987319Y-100914759D01*
X219048642Y-100881274D01*
X219118334Y-100886258D01*
X219162681Y-100914759D01*
X219207738Y-100959816D01*
X219360478Y-101055789D01*
X219530745Y-101115368D01*
X219530750Y-101115369D01*
X219709996Y-101135565D01*
X219710000Y-101135565D01*
X219710004Y-101135565D01*
X219889249Y-101115369D01*
X219889252Y-101115368D01*
X219889255Y-101115368D01*
X220059522Y-101055789D01*
X220212262Y-100959816D01*
X220339816Y-100832262D01*
X220435789Y-100679522D01*
X220495368Y-100509255D01*
X220515565Y-100330000D01*
X220495368Y-100150745D01*
X220435789Y-99980478D01*
X220339816Y-99827738D01*
X220212262Y-99700184D01*
X220059523Y-99604211D01*
X219889254Y-99544631D01*
X219889249Y-99544630D01*
X219710004Y-99524435D01*
X219709996Y-99524435D01*
X219530750Y-99544630D01*
X219530745Y-99544631D01*
X219360476Y-99604211D01*
X219207737Y-99700184D01*
X219162680Y-99745241D01*
X219101357Y-99778725D01*
X219031665Y-99773740D01*
X218987320Y-99745241D01*
X218942263Y-99700185D01*
X218942262Y-99700184D01*
X218789523Y-99604211D01*
X218619254Y-99544631D01*
X218619249Y-99544630D01*
X218440004Y-99524435D01*
X218439996Y-99524435D01*
X218260750Y-99544630D01*
X218260745Y-99544631D01*
X218090476Y-99604211D01*
X217937737Y-99700184D01*
X217810184Y-99827737D01*
X217714211Y-99980476D01*
X217654631Y-100150745D01*
X217654630Y-100150750D01*
X217634435Y-100329996D01*
X217634435Y-100330003D01*
X208580500Y-100330003D01*
X208580500Y-99060003D01*
X264624435Y-99060003D01*
X264644630Y-99239249D01*
X264644631Y-99239254D01*
X264704211Y-99409523D01*
X264776416Y-99524435D01*
X264800184Y-99562262D01*
X264927738Y-99689816D01*
X265015946Y-99745241D01*
X265069235Y-99778725D01*
X265080478Y-99785789D01*
X265223939Y-99835988D01*
X265250745Y-99845368D01*
X265250750Y-99845369D01*
X265429996Y-99865565D01*
X265430000Y-99865565D01*
X265430004Y-99865565D01*
X265609249Y-99845369D01*
X265609252Y-99845368D01*
X265609255Y-99845368D01*
X265779522Y-99785789D01*
X265932262Y-99689816D01*
X266059816Y-99562262D01*
X266155789Y-99409522D01*
X266215368Y-99239255D01*
X266235565Y-99060000D01*
X266215368Y-98880745D01*
X266155789Y-98710478D01*
X266059816Y-98557738D01*
X265932262Y-98430184D01*
X265779523Y-98334211D01*
X265609254Y-98274631D01*
X265609249Y-98274630D01*
X265430004Y-98254435D01*
X265429996Y-98254435D01*
X265250750Y-98274630D01*
X265250745Y-98274631D01*
X265080476Y-98334211D01*
X264927737Y-98430184D01*
X264800184Y-98557737D01*
X264704211Y-98710476D01*
X264644631Y-98880745D01*
X264644630Y-98880750D01*
X264624435Y-99059996D01*
X264624435Y-99060003D01*
X208580500Y-99060003D01*
X208580500Y-95250003D01*
X234144435Y-95250003D01*
X234164630Y-95429249D01*
X234164631Y-95429254D01*
X234224211Y-95599523D01*
X234320184Y-95752262D01*
X234447738Y-95879816D01*
X234600478Y-95975789D01*
X234770745Y-96035368D01*
X234770750Y-96035369D01*
X234949996Y-96055565D01*
X234950000Y-96055565D01*
X234950004Y-96055565D01*
X235129249Y-96035369D01*
X235129252Y-96035368D01*
X235129255Y-96035368D01*
X235299522Y-95975789D01*
X235452262Y-95879816D01*
X235579816Y-95752262D01*
X235675789Y-95599522D01*
X235735368Y-95429255D01*
X235755565Y-95250003D01*
X239224435Y-95250003D01*
X239244630Y-95429249D01*
X239244631Y-95429254D01*
X239304211Y-95599523D01*
X239400184Y-95752262D01*
X239527738Y-95879816D01*
X239680478Y-95975789D01*
X239850745Y-96035368D01*
X239850750Y-96035369D01*
X240029996Y-96055565D01*
X240030000Y-96055565D01*
X240030004Y-96055565D01*
X240209249Y-96035369D01*
X240209252Y-96035368D01*
X240209255Y-96035368D01*
X240379522Y-95975789D01*
X240532262Y-95879816D01*
X240659816Y-95752262D01*
X240755789Y-95599522D01*
X240815368Y-95429255D01*
X240835565Y-95250003D01*
X248114435Y-95250003D01*
X248134630Y-95429249D01*
X248134631Y-95429254D01*
X248194211Y-95599523D01*
X248290184Y-95752262D01*
X248417738Y-95879816D01*
X248570478Y-95975789D01*
X248740745Y-96035368D01*
X248740750Y-96035369D01*
X248919996Y-96055565D01*
X248920000Y-96055565D01*
X248920004Y-96055565D01*
X249099249Y-96035369D01*
X249099252Y-96035368D01*
X249099255Y-96035368D01*
X249269522Y-95975789D01*
X249422262Y-95879816D01*
X249549816Y-95752262D01*
X249645789Y-95599522D01*
X249705368Y-95429255D01*
X249725565Y-95250003D01*
X265894435Y-95250003D01*
X265914630Y-95429249D01*
X265914631Y-95429254D01*
X265974211Y-95599523D01*
X266070184Y-95752262D01*
X266197738Y-95879816D01*
X266350478Y-95975789D01*
X266520745Y-96035368D01*
X266520750Y-96035369D01*
X266699996Y-96055565D01*
X266700000Y-96055565D01*
X266700004Y-96055565D01*
X266879249Y-96035369D01*
X266879252Y-96035368D01*
X266879255Y-96035368D01*
X267049522Y-95975789D01*
X267202262Y-95879816D01*
X267329816Y-95752262D01*
X267425789Y-95599522D01*
X267485368Y-95429255D01*
X267505565Y-95250000D01*
X267485368Y-95070745D01*
X267425789Y-94900478D01*
X267329816Y-94747738D01*
X267284758Y-94702680D01*
X267251274Y-94641358D01*
X267256258Y-94571666D01*
X267284759Y-94527319D01*
X267287867Y-94524211D01*
X267329816Y-94482262D01*
X267425789Y-94329522D01*
X267485368Y-94159255D01*
X267505565Y-93980000D01*
X267496789Y-93902111D01*
X267485369Y-93800750D01*
X267485368Y-93800745D01*
X267425788Y-93630476D01*
X267340894Y-93495369D01*
X267329816Y-93477738D01*
X267202262Y-93350184D01*
X267187261Y-93340758D01*
X267049523Y-93254211D01*
X266879254Y-93194631D01*
X266879249Y-93194630D01*
X266700004Y-93174435D01*
X266699996Y-93174435D01*
X266520750Y-93194630D01*
X266520745Y-93194631D01*
X266350476Y-93254211D01*
X266197737Y-93350184D01*
X266070184Y-93477737D01*
X265974211Y-93630476D01*
X265914631Y-93800745D01*
X265914630Y-93800750D01*
X265894435Y-93979996D01*
X265894435Y-93980003D01*
X265914630Y-94159249D01*
X265914631Y-94159254D01*
X265974211Y-94329523D01*
X266070184Y-94482262D01*
X266070185Y-94482263D01*
X266115241Y-94527320D01*
X266148725Y-94588643D01*
X266143740Y-94658335D01*
X266115241Y-94702680D01*
X266070184Y-94747737D01*
X265974211Y-94900476D01*
X265914631Y-95070745D01*
X265914630Y-95070750D01*
X265894435Y-95249996D01*
X265894435Y-95250003D01*
X249725565Y-95250003D01*
X249725565Y-95250000D01*
X249705368Y-95070745D01*
X249645789Y-94900478D01*
X249549816Y-94747738D01*
X249422262Y-94620184D01*
X249414012Y-94615000D01*
X249269523Y-94524211D01*
X249099254Y-94464631D01*
X249099249Y-94464630D01*
X248920004Y-94444435D01*
X248919996Y-94444435D01*
X248740750Y-94464630D01*
X248740745Y-94464631D01*
X248570476Y-94524211D01*
X248417737Y-94620184D01*
X248290184Y-94747737D01*
X248194211Y-94900476D01*
X248134631Y-95070745D01*
X248134630Y-95070750D01*
X248114435Y-95249996D01*
X248114435Y-95250003D01*
X240835565Y-95250003D01*
X240835565Y-95250000D01*
X240815368Y-95070745D01*
X240755789Y-94900478D01*
X240659816Y-94747738D01*
X240532262Y-94620184D01*
X240524012Y-94615000D01*
X240379523Y-94524211D01*
X240209254Y-94464631D01*
X240209249Y-94464630D01*
X240030004Y-94444435D01*
X240029996Y-94444435D01*
X239850750Y-94464630D01*
X239850745Y-94464631D01*
X239680476Y-94524211D01*
X239527737Y-94620184D01*
X239400184Y-94747737D01*
X239304211Y-94900476D01*
X239244631Y-95070745D01*
X239244630Y-95070750D01*
X239224435Y-95249996D01*
X239224435Y-95250003D01*
X235755565Y-95250003D01*
X235755565Y-95250000D01*
X235735368Y-95070745D01*
X235679218Y-94910277D01*
X235675788Y-94900475D01*
X235635682Y-94836648D01*
X235616681Y-94769411D01*
X235637048Y-94702576D01*
X235690316Y-94657361D01*
X235759572Y-94648123D01*
X235806648Y-94665682D01*
X235870475Y-94705788D01*
X236040745Y-94765368D01*
X236040750Y-94765369D01*
X236219996Y-94785565D01*
X236220000Y-94785565D01*
X236220004Y-94785565D01*
X236399249Y-94765369D01*
X236399252Y-94765368D01*
X236399255Y-94765368D01*
X236569522Y-94705789D01*
X236722262Y-94609816D01*
X236849816Y-94482262D01*
X236945789Y-94329522D01*
X237005368Y-94159255D01*
X237025565Y-93980003D01*
X251924435Y-93980003D01*
X251944630Y-94159249D01*
X251944631Y-94159254D01*
X252004211Y-94329523D01*
X252044318Y-94393352D01*
X252100184Y-94482262D01*
X252227738Y-94609816D01*
X252316648Y-94665682D01*
X252375531Y-94702681D01*
X252380478Y-94705789D01*
X252550745Y-94765368D01*
X252550750Y-94765369D01*
X252729996Y-94785565D01*
X252730000Y-94785565D01*
X252730004Y-94785565D01*
X252909249Y-94765369D01*
X252909252Y-94765368D01*
X252909255Y-94765368D01*
X253079522Y-94705789D01*
X253232262Y-94609816D01*
X253359816Y-94482262D01*
X253455789Y-94329522D01*
X253515368Y-94159255D01*
X253535565Y-93980003D01*
X260814435Y-93980003D01*
X260834630Y-94159249D01*
X260834631Y-94159254D01*
X260894211Y-94329523D01*
X260934318Y-94393352D01*
X260990184Y-94482262D01*
X261117738Y-94609816D01*
X261206648Y-94665682D01*
X261265531Y-94702681D01*
X261270478Y-94705789D01*
X261440745Y-94765368D01*
X261440750Y-94765369D01*
X261619996Y-94785565D01*
X261620000Y-94785565D01*
X261620004Y-94785565D01*
X261799249Y-94765369D01*
X261799252Y-94765368D01*
X261799255Y-94765368D01*
X261969522Y-94705789D01*
X262122262Y-94609816D01*
X262249816Y-94482262D01*
X262345789Y-94329522D01*
X262405368Y-94159255D01*
X262425565Y-93980000D01*
X262416789Y-93902111D01*
X262405369Y-93800750D01*
X262405368Y-93800745D01*
X262345788Y-93630476D01*
X262260894Y-93495369D01*
X262249816Y-93477738D01*
X262122262Y-93350184D01*
X262107261Y-93340758D01*
X261969523Y-93254211D01*
X261799254Y-93194631D01*
X261799249Y-93194630D01*
X261620004Y-93174435D01*
X261619996Y-93174435D01*
X261440750Y-93194630D01*
X261440745Y-93194631D01*
X261270476Y-93254211D01*
X261117737Y-93350184D01*
X260990184Y-93477737D01*
X260894211Y-93630476D01*
X260834631Y-93800745D01*
X260834630Y-93800750D01*
X260814435Y-93979996D01*
X260814435Y-93980003D01*
X253535565Y-93980003D01*
X253535565Y-93980000D01*
X253526789Y-93902111D01*
X253515369Y-93800750D01*
X253515368Y-93800745D01*
X253455788Y-93630476D01*
X253370894Y-93495369D01*
X253359816Y-93477738D01*
X253232262Y-93350184D01*
X253217261Y-93340758D01*
X253079523Y-93254211D01*
X252909254Y-93194631D01*
X252909249Y-93194630D01*
X252730004Y-93174435D01*
X252729996Y-93174435D01*
X252550750Y-93194630D01*
X252550745Y-93194631D01*
X252380476Y-93254211D01*
X252227737Y-93350184D01*
X252100184Y-93477737D01*
X252004211Y-93630476D01*
X251944631Y-93800745D01*
X251944630Y-93800750D01*
X251924435Y-93979996D01*
X251924435Y-93980003D01*
X237025565Y-93980003D01*
X237025565Y-93980000D01*
X237016789Y-93902111D01*
X237005369Y-93800750D01*
X237005368Y-93800745D01*
X236945788Y-93630476D01*
X236860894Y-93495369D01*
X236849816Y-93477738D01*
X236722262Y-93350184D01*
X236707261Y-93340758D01*
X236569523Y-93254211D01*
X236399254Y-93194631D01*
X236399249Y-93194630D01*
X236220004Y-93174435D01*
X236219996Y-93174435D01*
X236040750Y-93194630D01*
X236040745Y-93194631D01*
X235870476Y-93254211D01*
X235717737Y-93350184D01*
X235590184Y-93477737D01*
X235494211Y-93630476D01*
X235434631Y-93800745D01*
X235434630Y-93800750D01*
X235414435Y-93979996D01*
X235414435Y-93980003D01*
X235434630Y-94159249D01*
X235434631Y-94159254D01*
X235494211Y-94329523D01*
X235534318Y-94393352D01*
X235553318Y-94460588D01*
X235532950Y-94527424D01*
X235479683Y-94572638D01*
X235410426Y-94581876D01*
X235363352Y-94564318D01*
X235299523Y-94524211D01*
X235129254Y-94464631D01*
X235129249Y-94464630D01*
X234950004Y-94444435D01*
X234949996Y-94444435D01*
X234770750Y-94464630D01*
X234770745Y-94464631D01*
X234600476Y-94524211D01*
X234447737Y-94620184D01*
X234320184Y-94747737D01*
X234224211Y-94900476D01*
X234164631Y-95070745D01*
X234164630Y-95070750D01*
X234144435Y-95249996D01*
X234144435Y-95250003D01*
X208580500Y-95250003D01*
X208580500Y-92400005D01*
X213344457Y-92400005D01*
X213364606Y-92720283D01*
X213364607Y-92720290D01*
X213424745Y-93035542D01*
X213523916Y-93340759D01*
X213523918Y-93340764D01*
X213660558Y-93631138D01*
X213660562Y-93631144D01*
X213832520Y-93902108D01*
X213832522Y-93902111D01*
X214037087Y-94149388D01*
X214271034Y-94369078D01*
X214271044Y-94369086D01*
X214530660Y-94557708D01*
X214530666Y-94557711D01*
X214530672Y-94557716D01*
X214811903Y-94712324D01*
X215110294Y-94830466D01*
X215110293Y-94830466D01*
X215382966Y-94900476D01*
X215421139Y-94910277D01*
X215487935Y-94918715D01*
X215739524Y-94950499D01*
X215739533Y-94950499D01*
X215739536Y-94950500D01*
X215739538Y-94950500D01*
X216060462Y-94950500D01*
X216060464Y-94950500D01*
X216060467Y-94950499D01*
X216060475Y-94950499D01*
X216250463Y-94926497D01*
X216378861Y-94910277D01*
X216689706Y-94830466D01*
X216988097Y-94712324D01*
X217269328Y-94557716D01*
X217528964Y-94369080D01*
X217762911Y-94149390D01*
X217903040Y-93980003D01*
X220174435Y-93980003D01*
X220194630Y-94159249D01*
X220194631Y-94159254D01*
X220254211Y-94329523D01*
X220294318Y-94393352D01*
X220350184Y-94482262D01*
X220477738Y-94609816D01*
X220566648Y-94665682D01*
X220625531Y-94702681D01*
X220630478Y-94705789D01*
X220800745Y-94765368D01*
X220800750Y-94765369D01*
X220979996Y-94785565D01*
X220980000Y-94785565D01*
X220980004Y-94785565D01*
X221159249Y-94765369D01*
X221159252Y-94765368D01*
X221159255Y-94765368D01*
X221329522Y-94705789D01*
X221482262Y-94609816D01*
X221609816Y-94482262D01*
X221705789Y-94329522D01*
X221765368Y-94159255D01*
X221785565Y-93980003D01*
X226524435Y-93980003D01*
X226544630Y-94159249D01*
X226544631Y-94159254D01*
X226604211Y-94329523D01*
X226644318Y-94393352D01*
X226700184Y-94482262D01*
X226827738Y-94609816D01*
X226916648Y-94665682D01*
X226975531Y-94702681D01*
X226980478Y-94705789D01*
X227150745Y-94765368D01*
X227150750Y-94765369D01*
X227329996Y-94785565D01*
X227330000Y-94785565D01*
X227330004Y-94785565D01*
X227509249Y-94765369D01*
X227509252Y-94765368D01*
X227509255Y-94765368D01*
X227679522Y-94705789D01*
X227832262Y-94609816D01*
X227959816Y-94482262D01*
X228055789Y-94329522D01*
X228115368Y-94159255D01*
X228135565Y-93980000D01*
X228126789Y-93902111D01*
X228115369Y-93800750D01*
X228115368Y-93800745D01*
X228055788Y-93630476D01*
X227970894Y-93495369D01*
X227959816Y-93477738D01*
X227832262Y-93350184D01*
X227817261Y-93340758D01*
X227679523Y-93254211D01*
X227509254Y-93194631D01*
X227509249Y-93194630D01*
X227330004Y-93174435D01*
X227329996Y-93174435D01*
X227150750Y-93194630D01*
X227150745Y-93194631D01*
X226980476Y-93254211D01*
X226827737Y-93350184D01*
X226700184Y-93477737D01*
X226604211Y-93630476D01*
X226544631Y-93800745D01*
X226544630Y-93800750D01*
X226524435Y-93979996D01*
X226524435Y-93980003D01*
X221785565Y-93980003D01*
X221785565Y-93980000D01*
X221776789Y-93902111D01*
X221765369Y-93800750D01*
X221765368Y-93800745D01*
X221705788Y-93630476D01*
X221620894Y-93495369D01*
X221609816Y-93477738D01*
X221482262Y-93350184D01*
X221467261Y-93340758D01*
X221329523Y-93254211D01*
X221159254Y-93194631D01*
X221159249Y-93194630D01*
X220980004Y-93174435D01*
X220979996Y-93174435D01*
X220800750Y-93194630D01*
X220800745Y-93194631D01*
X220630476Y-93254211D01*
X220477737Y-93350184D01*
X220350184Y-93477737D01*
X220254211Y-93630476D01*
X220194631Y-93800745D01*
X220194630Y-93800750D01*
X220174435Y-93979996D01*
X220174435Y-93980003D01*
X217903040Y-93980003D01*
X217967478Y-93902110D01*
X218139439Y-93631142D01*
X218139752Y-93630478D01*
X218276081Y-93340764D01*
X218276084Y-93340758D01*
X218375256Y-93035538D01*
X218435392Y-92720294D01*
X218435393Y-92720283D01*
X218436040Y-92710003D01*
X239224435Y-92710003D01*
X239244630Y-92889249D01*
X239244631Y-92889254D01*
X239304211Y-93059523D01*
X239376416Y-93174435D01*
X239400184Y-93212262D01*
X239527738Y-93339816D01*
X239680478Y-93435789D01*
X239850745Y-93495368D01*
X239850750Y-93495369D01*
X240029996Y-93515565D01*
X240030000Y-93515565D01*
X240030004Y-93515565D01*
X240209249Y-93495369D01*
X240209252Y-93495368D01*
X240209255Y-93495368D01*
X240379522Y-93435789D01*
X240532262Y-93339816D01*
X240659816Y-93212262D01*
X240755789Y-93059522D01*
X240815368Y-92889255D01*
X240834406Y-92720290D01*
X240835565Y-92710003D01*
X240835565Y-92709996D01*
X240815369Y-92530750D01*
X240815368Y-92530745D01*
X240769620Y-92400005D01*
X273344457Y-92400005D01*
X273364606Y-92720283D01*
X273364607Y-92720290D01*
X273424745Y-93035542D01*
X273523916Y-93340759D01*
X273523918Y-93340764D01*
X273660558Y-93631138D01*
X273660562Y-93631144D01*
X273832520Y-93902108D01*
X273832522Y-93902111D01*
X274037087Y-94149388D01*
X274271034Y-94369078D01*
X274271044Y-94369086D01*
X274530660Y-94557708D01*
X274530666Y-94557711D01*
X274530672Y-94557716D01*
X274811903Y-94712324D01*
X275110294Y-94830466D01*
X275110293Y-94830466D01*
X275382966Y-94900476D01*
X275421139Y-94910277D01*
X275487935Y-94918715D01*
X275739524Y-94950499D01*
X275739533Y-94950499D01*
X275739536Y-94950500D01*
X275739538Y-94950500D01*
X276060462Y-94950500D01*
X276060464Y-94950500D01*
X276060467Y-94950499D01*
X276060475Y-94950499D01*
X276250463Y-94926497D01*
X276378861Y-94910277D01*
X276689706Y-94830466D01*
X276988097Y-94712324D01*
X277269328Y-94557716D01*
X277528964Y-94369080D01*
X277762911Y-94149390D01*
X277967478Y-93902110D01*
X278139439Y-93631142D01*
X278139752Y-93630478D01*
X278276081Y-93340764D01*
X278276084Y-93340758D01*
X278375256Y-93035538D01*
X278435392Y-92720294D01*
X278435393Y-92720283D01*
X278455543Y-92400005D01*
X278455543Y-92399994D01*
X278435393Y-92079716D01*
X278435392Y-92079709D01*
X278435392Y-92079706D01*
X278375256Y-91764462D01*
X278276084Y-91459242D01*
X278267031Y-91440003D01*
X278139441Y-91168861D01*
X278139437Y-91168855D01*
X277967479Y-90897891D01*
X277967477Y-90897888D01*
X277762912Y-90650611D01*
X277528965Y-90430921D01*
X277528955Y-90430913D01*
X277269339Y-90242291D01*
X277269321Y-90242280D01*
X276988096Y-90087675D01*
X276988093Y-90087674D01*
X276743291Y-89990750D01*
X276689706Y-89969534D01*
X276689704Y-89969533D01*
X276689706Y-89969533D01*
X276378864Y-89889723D01*
X276378851Y-89889721D01*
X276060475Y-89849500D01*
X276060464Y-89849500D01*
X275739536Y-89849500D01*
X275739524Y-89849500D01*
X275421148Y-89889721D01*
X275421135Y-89889723D01*
X275110294Y-89969533D01*
X274811906Y-90087674D01*
X274811903Y-90087675D01*
X274530678Y-90242280D01*
X274530660Y-90242291D01*
X274271044Y-90430913D01*
X274271034Y-90430921D01*
X274037087Y-90650611D01*
X273832522Y-90897888D01*
X273832520Y-90897891D01*
X273660562Y-91168855D01*
X273660558Y-91168861D01*
X273523918Y-91459235D01*
X273523916Y-91459240D01*
X273424745Y-91764457D01*
X273364607Y-92079709D01*
X273364606Y-92079716D01*
X273344457Y-92399994D01*
X273344457Y-92400005D01*
X240769620Y-92400005D01*
X240755788Y-92360476D01*
X240670894Y-92225369D01*
X240659816Y-92207738D01*
X240532262Y-92080184D01*
X240531501Y-92079706D01*
X240379523Y-91984211D01*
X240209254Y-91924631D01*
X240209249Y-91924630D01*
X240030004Y-91904435D01*
X240029996Y-91904435D01*
X239850750Y-91924630D01*
X239850745Y-91924631D01*
X239680476Y-91984211D01*
X239527737Y-92080184D01*
X239400184Y-92207737D01*
X239304211Y-92360476D01*
X239244631Y-92530745D01*
X239244630Y-92530750D01*
X239224435Y-92709996D01*
X239224435Y-92710003D01*
X218436040Y-92710003D01*
X218455543Y-92400005D01*
X218455543Y-92399994D01*
X218435393Y-92079716D01*
X218435392Y-92079709D01*
X218435392Y-92079706D01*
X218375256Y-91764462D01*
X218276084Y-91459242D01*
X218267031Y-91440003D01*
X235414435Y-91440003D01*
X235434630Y-91619249D01*
X235434631Y-91619254D01*
X235494211Y-91789523D01*
X235566416Y-91904435D01*
X235590184Y-91942262D01*
X235717738Y-92069816D01*
X235870478Y-92165789D01*
X236040745Y-92225368D01*
X236040750Y-92225369D01*
X236219996Y-92245565D01*
X236220000Y-92245565D01*
X236220004Y-92245565D01*
X236399249Y-92225369D01*
X236399252Y-92225368D01*
X236399255Y-92225368D01*
X236569522Y-92165789D01*
X236722262Y-92069816D01*
X236849816Y-91942262D01*
X236945789Y-91789522D01*
X237005368Y-91619255D01*
X237023397Y-91459242D01*
X237025565Y-91440003D01*
X237025565Y-91439996D01*
X237005369Y-91260750D01*
X237005368Y-91260745D01*
X236945788Y-91090476D01*
X236860894Y-90955369D01*
X236849816Y-90937738D01*
X236722262Y-90810184D01*
X236569523Y-90714211D01*
X236399254Y-90654631D01*
X236399249Y-90654630D01*
X236220004Y-90634435D01*
X236219996Y-90634435D01*
X236040750Y-90654630D01*
X236040745Y-90654631D01*
X235870476Y-90714211D01*
X235717737Y-90810184D01*
X235590184Y-90937737D01*
X235494211Y-91090476D01*
X235434631Y-91260745D01*
X235434630Y-91260750D01*
X235414435Y-91439996D01*
X235414435Y-91440003D01*
X218267031Y-91440003D01*
X218139441Y-91168861D01*
X218139437Y-91168855D01*
X217967479Y-90897891D01*
X217967477Y-90897888D01*
X217762912Y-90650611D01*
X217528965Y-90430921D01*
X217528955Y-90430913D01*
X217269339Y-90242291D01*
X217269321Y-90242280D01*
X217137850Y-90170003D01*
X230334435Y-90170003D01*
X230354630Y-90349249D01*
X230354631Y-90349254D01*
X230414211Y-90519523D01*
X230486416Y-90634435D01*
X230510184Y-90672262D01*
X230637738Y-90799816D01*
X230790478Y-90895789D01*
X230960745Y-90955368D01*
X230960750Y-90955369D01*
X231139996Y-90975565D01*
X231140000Y-90975565D01*
X231140004Y-90975565D01*
X231319249Y-90955369D01*
X231319252Y-90955368D01*
X231319255Y-90955368D01*
X231489522Y-90895789D01*
X231642262Y-90799816D01*
X231769816Y-90672262D01*
X231865789Y-90519522D01*
X231925368Y-90349255D01*
X231945565Y-90170003D01*
X243034435Y-90170003D01*
X243054630Y-90349249D01*
X243054631Y-90349254D01*
X243114211Y-90519523D01*
X243186416Y-90634435D01*
X243210184Y-90672262D01*
X243337738Y-90799816D01*
X243490478Y-90895789D01*
X243660745Y-90955368D01*
X243660750Y-90955369D01*
X243839996Y-90975565D01*
X243840000Y-90975565D01*
X243840004Y-90975565D01*
X244019249Y-90955369D01*
X244019252Y-90955368D01*
X244019255Y-90955368D01*
X244189522Y-90895789D01*
X244342262Y-90799816D01*
X244469816Y-90672262D01*
X244565789Y-90519522D01*
X244625368Y-90349255D01*
X244645565Y-90170003D01*
X257029435Y-90170003D01*
X257049630Y-90349249D01*
X257049631Y-90349254D01*
X257109211Y-90519523D01*
X257181416Y-90634435D01*
X257205184Y-90672262D01*
X257332738Y-90799816D01*
X257485478Y-90895789D01*
X257655745Y-90955368D01*
X257655750Y-90955369D01*
X257834996Y-90975565D01*
X257835000Y-90975565D01*
X257835004Y-90975565D01*
X258014249Y-90955369D01*
X258014252Y-90955368D01*
X258014255Y-90955368D01*
X258184522Y-90895789D01*
X258337262Y-90799816D01*
X258464816Y-90672262D01*
X258560789Y-90519522D01*
X258620368Y-90349255D01*
X258640565Y-90170000D01*
X258631289Y-90087676D01*
X258620369Y-89990750D01*
X258620368Y-89990745D01*
X258560788Y-89820476D01*
X258464815Y-89667737D01*
X258337262Y-89540184D01*
X258184523Y-89444211D01*
X258014254Y-89384631D01*
X258014249Y-89384630D01*
X257835004Y-89364435D01*
X257834996Y-89364435D01*
X257655750Y-89384630D01*
X257655745Y-89384631D01*
X257485476Y-89444211D01*
X257332737Y-89540184D01*
X257205184Y-89667737D01*
X257109211Y-89820476D01*
X257049631Y-89990745D01*
X257049630Y-89990750D01*
X257029435Y-90169996D01*
X257029435Y-90170003D01*
X244645565Y-90170003D01*
X244645565Y-90170000D01*
X244636289Y-90087676D01*
X244625369Y-89990750D01*
X244625368Y-89990745D01*
X244565788Y-89820476D01*
X244469815Y-89667737D01*
X244342262Y-89540184D01*
X244189523Y-89444211D01*
X244019254Y-89384631D01*
X244019249Y-89384630D01*
X243840004Y-89364435D01*
X243839996Y-89364435D01*
X243660750Y-89384630D01*
X243660745Y-89384631D01*
X243490476Y-89444211D01*
X243337737Y-89540184D01*
X243210184Y-89667737D01*
X243114211Y-89820476D01*
X243054631Y-89990745D01*
X243054630Y-89990750D01*
X243034435Y-90169996D01*
X243034435Y-90170003D01*
X231945565Y-90170003D01*
X231945565Y-90170000D01*
X231936289Y-90087676D01*
X231925369Y-89990750D01*
X231925368Y-89990745D01*
X231865788Y-89820476D01*
X231769815Y-89667737D01*
X231642262Y-89540184D01*
X231489523Y-89444211D01*
X231319254Y-89384631D01*
X231319249Y-89384630D01*
X231140004Y-89364435D01*
X231139996Y-89364435D01*
X230960750Y-89384630D01*
X230960745Y-89384631D01*
X230790476Y-89444211D01*
X230637737Y-89540184D01*
X230510184Y-89667737D01*
X230414211Y-89820476D01*
X230354631Y-89990745D01*
X230354630Y-89990750D01*
X230334435Y-90169996D01*
X230334435Y-90170003D01*
X217137850Y-90170003D01*
X216988096Y-90087675D01*
X216988093Y-90087674D01*
X216743291Y-89990750D01*
X216689706Y-89969534D01*
X216689704Y-89969533D01*
X216689706Y-89969533D01*
X216378864Y-89889723D01*
X216378851Y-89889721D01*
X216060475Y-89849500D01*
X216060464Y-89849500D01*
X215739536Y-89849500D01*
X215739524Y-89849500D01*
X215421148Y-89889721D01*
X215421135Y-89889723D01*
X215110294Y-89969533D01*
X214811906Y-90087674D01*
X214811903Y-90087675D01*
X214530678Y-90242280D01*
X214530660Y-90242291D01*
X214271044Y-90430913D01*
X214271034Y-90430921D01*
X214037087Y-90650611D01*
X213832522Y-90897888D01*
X213832520Y-90897891D01*
X213660562Y-91168855D01*
X213660558Y-91168861D01*
X213523918Y-91459235D01*
X213523916Y-91459240D01*
X213424745Y-91764457D01*
X213364607Y-92079709D01*
X213364606Y-92079716D01*
X213344457Y-92399994D01*
X213344457Y-92400005D01*
X208580500Y-92400005D01*
X208580500Y-84244500D01*
X208600185Y-84177461D01*
X208652989Y-84131706D01*
X208704500Y-84120500D01*
X282855500Y-84120500D01*
X282922539Y-84140185D01*
G37*
%TD.AperFunction*%
M02*
