%TF.GenerationSoftware,KiCad,Pcbnew,(6.0.4)*%
%TF.CreationDate,2022-11-02T15:12:15-07:00*%
%TF.ProjectId,PCB,5043422e-6b69-4636-9164-5f7063625858,rev?*%
%TF.SameCoordinates,Original*%
%TF.FileFunction,Legend,Top*%
%TF.FilePolarity,Positive*%
%FSLAX46Y46*%
G04 Gerber Fmt 4.6, Leading zero omitted, Abs format (unit mm)*
G04 Created by KiCad (PCBNEW (6.0.4)) date 2022-11-02 15:12:15*
%MOMM*%
%LPD*%
G01*
G04 APERTURE LIST*
G04 Aperture macros list*
%AMRoundRect*
0 Rectangle with rounded corners*
0 $1 Rounding radius*
0 $2 $3 $4 $5 $6 $7 $8 $9 X,Y pos of 4 corners*
0 Add a 4 corners polygon primitive as box body*
4,1,4,$2,$3,$4,$5,$6,$7,$8,$9,$2,$3,0*
0 Add four circle primitives for the rounded corners*
1,1,$1+$1,$2,$3*
1,1,$1+$1,$4,$5*
1,1,$1+$1,$6,$7*
1,1,$1+$1,$8,$9*
0 Add four rect primitives between the rounded corners*
20,1,$1+$1,$2,$3,$4,$5,0*
20,1,$1+$1,$4,$5,$6,$7,0*
20,1,$1+$1,$6,$7,$8,$9,0*
20,1,$1+$1,$8,$9,$2,$3,0*%
G04 Aperture macros list end*
%ADD10C,0.150000*%
%ADD11C,0.120000*%
%ADD12C,4.100000*%
%ADD13C,7.400000*%
%ADD14RoundRect,0.250000X-0.219312X0.526215X-0.564008X-0.083034X0.219312X-0.526215X0.564008X0.083034X0*%
%ADD15RoundRect,0.150000X-0.667663X-0.507297X0.803502X0.239813X0.667663X0.507297X-0.803502X-0.239813X0*%
%ADD16RoundRect,0.150000X-0.507297X0.667663X0.239813X-0.803502X0.507297X-0.667663X-0.239813X0.803502X0*%
%ADD17C,2.800000*%
%ADD18C,2.550000*%
%ADD19RoundRect,0.150000X-0.478222X-0.688788X0.690069X0.476371X0.478222X0.688788X-0.690069X-0.476371X0*%
%ADD20RoundRect,0.250000X0.569696X0.021139X0.119744X0.557370X-0.569696X-0.021139X-0.119744X-0.557370X0*%
%ADD21RoundRect,0.250000X0.450000X-0.350000X0.450000X0.350000X-0.450000X0.350000X-0.450000X-0.350000X0*%
%ADD22RoundRect,0.250000X-0.600000X-0.725000X0.600000X-0.725000X0.600000X0.725000X-0.600000X0.725000X0*%
%ADD23O,1.700000X1.950000*%
%ADD24RoundRect,0.150000X-0.802855X0.241969X0.666299X-0.509088X0.802855X-0.241969X-0.666299X0.509088X0*%
%ADD25RoundRect,0.250000X0.181079X-0.553843X0.582585X-0.011239X-0.181079X0.553843X-0.582585X0.011239X0*%
%ADD26RoundRect,0.250000X0.303155X-0.482801X0.542569X0.174983X-0.303155X0.482801X-0.542569X-0.174983X0*%
%ADD27RoundRect,0.250000X-0.526215X-0.219312X0.083034X-0.564008X0.526215X0.219312X-0.083034X0.564008X0*%
%ADD28RoundRect,0.150000X0.802855X-0.241969X-0.666299X0.509088X-0.802855X0.241969X0.666299X-0.509088X0*%
%ADD29RoundRect,0.250000X0.131874X0.554625X-0.505098X0.264340X-0.131874X-0.554625X0.505098X-0.264340X0*%
%ADD30RoundRect,0.250000X-0.001070X0.582692X-0.550598X0.190718X0.001070X-0.582692X0.550598X-0.190718X0*%
%ADD31RoundRect,0.250000X-0.582692X-0.001070X-0.190718X-0.550598X0.582692X0.001070X0.190718X0.550598X0*%
%ADD32RoundRect,0.250000X-0.343363X0.470779X-0.557544X-0.169340X0.343363X-0.470779X0.557544X0.169340X0*%
%ADD33RoundRect,0.250000X-0.553843X-0.181079X-0.011239X-0.582585X0.553843X0.181079X0.011239X0.582585X0*%
%ADD34RoundRect,0.250000X0.582091X0.026486X0.166519X0.558393X-0.582091X-0.026486X-0.166519X-0.558393X0*%
%ADD35RoundRect,0.250000X0.350000X0.450000X-0.350000X0.450000X-0.350000X-0.450000X0.350000X-0.450000X0*%
%ADD36RoundRect,0.250000X-0.303155X0.482801X-0.542569X-0.174983X0.303155X-0.482801X0.542569X0.174983X0*%
%ADD37RoundRect,0.150000X0.667663X0.507297X-0.803502X-0.239813X-0.667663X-0.507297X0.803502X0.239813X0*%
%ADD38RoundRect,0.250000X-0.569696X-0.021139X-0.119744X-0.557370X0.569696X0.021139X0.119744X0.557370X0*%
%ADD39RoundRect,0.250000X0.528109X0.214711X-0.078109X0.564711X-0.528109X-0.214711X0.078109X-0.564711X0*%
%ADD40RoundRect,0.250000X-0.181079X0.553843X-0.582585X0.011239X0.181079X-0.553843X0.582585X-0.011239X0*%
%ADD41RoundRect,0.250000X0.526215X0.219312X-0.083034X0.564008X-0.526215X-0.219312X0.083034X-0.564008X0*%
%ADD42RoundRect,0.250000X-0.214711X0.528109X-0.564711X-0.078109X0.214711X-0.528109X0.564711X0.078109X0*%
%ADD43RoundRect,0.150000X-0.241969X-0.802855X0.509088X0.666299X0.241969X0.802855X-0.509088X-0.666299X0*%
%ADD44RoundRect,0.075000X-0.650000X-0.075000X0.650000X-0.075000X0.650000X0.075000X-0.650000X0.075000X0*%
%ADD45R,1.680000X1.880000*%
%ADD46RoundRect,0.250000X0.470779X0.343363X-0.169340X0.557544X-0.470779X-0.343363X0.169340X-0.557544X0*%
%ADD47RoundRect,0.250000X0.343363X-0.470779X0.557544X0.169340X-0.343363X0.470779X-0.557544X-0.169340X0*%
%ADD48RoundRect,0.250000X-0.026486X0.582091X-0.558393X0.166519X0.026486X-0.582091X0.558393X-0.166519X0*%
%ADD49RoundRect,0.250000X-0.564711X0.078109X-0.214711X-0.528109X0.564711X-0.078109X0.214711X0.528109X0*%
%ADD50RoundRect,0.250000X-0.205065X0.545417X-0.582520X-0.014184X0.205065X-0.545417X0.582520X0.014184X0*%
%ADD51RoundRect,0.250000X-0.470779X-0.343363X0.169340X-0.557544X0.470779X0.343363X-0.169340X0.557544X0*%
%ADD52RoundRect,0.250000X-0.554625X0.131874X-0.264340X-0.505098X0.554625X-0.131874X0.264340X0.505098X0*%
%ADD53RoundRect,0.250000X-0.021139X0.569696X-0.557370X0.119744X0.021139X-0.569696X0.557370X-0.119744X0*%
%ADD54RoundRect,0.250000X-0.337500X-0.475000X0.337500X-0.475000X0.337500X0.475000X-0.337500X0.475000X0*%
%ADD55RoundRect,0.250000X-0.482801X-0.303155X0.174983X-0.542569X0.482801X0.303155X-0.174983X0.542569X0*%
%ADD56RoundRect,0.250000X-0.582091X-0.026486X-0.166519X-0.558393X0.582091X0.026486X0.166519X0.558393X0*%
%ADD57RoundRect,0.250000X0.045969X-0.568231X0.562063X-0.095318X-0.045969X0.568231X-0.562063X0.095318X0*%
%ADD58RoundRect,0.250000X0.557370X0.119744X0.021139X0.569696X-0.557370X-0.119744X-0.021139X-0.569696X0*%
%ADD59RoundRect,0.150000X0.150000X-0.725000X0.150000X0.725000X-0.150000X0.725000X-0.150000X-0.725000X0*%
%ADD60RoundRect,0.250000X0.219312X-0.526215X0.564008X0.083034X-0.219312X0.526215X-0.564008X-0.083034X0*%
%ADD61RoundRect,0.250000X0.475000X-0.337500X0.475000X0.337500X-0.475000X0.337500X-0.475000X-0.337500X0*%
%ADD62RoundRect,0.150000X0.507297X-0.667663X-0.239813X0.803502X-0.507297X0.667663X0.239813X-0.803502X0*%
%ADD63RoundRect,0.250000X0.542569X-0.174983X0.303155X0.482801X-0.542569X0.174983X-0.303155X-0.482801X0*%
%ADD64RoundRect,0.237500X0.287500X0.237500X-0.287500X0.237500X-0.287500X-0.237500X0.287500X-0.237500X0*%
%ADD65RoundRect,0.250000X-0.174983X-0.542569X0.482801X-0.303155X0.174983X0.542569X-0.482801X0.303155X0*%
%ADD66RoundRect,0.250000X0.021139X-0.569696X0.557370X-0.119744X-0.021139X0.569696X-0.557370X0.119744X0*%
%ADD67RoundRect,0.250000X-0.154687X-0.561786X0.479606X-0.330922X0.154687X0.561786X-0.479606X0.330922X0*%
%ADD68RoundRect,0.150000X-0.150000X0.725000X-0.150000X-0.725000X0.150000X-0.725000X0.150000X0.725000X0*%
%ADD69RoundRect,0.250000X-0.561786X0.154687X-0.330922X-0.479606X0.561786X-0.154687X0.330922X0.479606X0*%
%ADD70RoundRect,0.250000X-0.528109X-0.214711X0.078109X-0.564711X0.528109X0.214711X-0.078109X0.564711X0*%
%ADD71RoundRect,0.250000X0.001070X-0.582692X0.550598X-0.190718X-0.001070X0.582692X-0.550598X0.190718X0*%
%ADD72RoundRect,0.250000X0.174983X0.542569X-0.482801X0.303155X-0.174983X-0.542569X0.482801X-0.303155X0*%
%ADD73RoundRect,0.250000X0.078109X0.564711X-0.528109X0.214711X-0.078109X-0.564711X0.528109X-0.214711X0*%
%ADD74RoundRect,0.250000X-0.557370X-0.119744X-0.021139X-0.569696X0.557370X0.119744X0.021139X0.569696X0*%
%ADD75RoundRect,0.250000X0.553843X0.181079X0.011239X0.582585X-0.553843X-0.181079X-0.011239X-0.582585X0*%
%ADD76RoundRect,0.250000X-0.045969X0.568231X-0.562063X0.095318X0.045969X-0.568231X0.562063X-0.095318X0*%
%ADD77RoundRect,0.150000X0.478222X0.688788X-0.690069X-0.476371X-0.478222X-0.688788X0.690069X0.476371X0*%
%ADD78RoundRect,0.250000X0.214711X-0.528109X0.564711X0.078109X-0.214711X0.528109X-0.564711X-0.078109X0*%
%ADD79RoundRect,0.250000X0.545417X0.205065X-0.014184X0.582520X-0.545417X-0.205065X0.014184X-0.582520X0*%
%ADD80RoundRect,0.250000X0.561786X-0.154687X0.330922X0.479606X-0.561786X0.154687X-0.330922X-0.479606X0*%
%ADD81RoundRect,0.250000X0.482801X0.303155X-0.174983X0.542569X-0.482801X-0.303155X0.174983X-0.542569X0*%
%ADD82RoundRect,0.250000X-0.450000X0.350000X-0.450000X-0.350000X0.450000X-0.350000X0.450000X0.350000X0*%
%ADD83RoundRect,0.250000X-0.078109X-0.564711X0.528109X-0.214711X0.078109X0.564711X-0.528109X0.214711X0*%
%ADD84RoundRect,0.250000X-0.131874X-0.554625X0.505098X-0.264340X0.131874X0.554625X-0.505098X0.264340X0*%
%ADD85RoundRect,0.250000X-0.568231X-0.045969X-0.095318X-0.562063X0.568231X0.045969X0.095318X0.562063X0*%
%ADD86RoundRect,0.250000X0.205065X-0.545417X0.582520X0.014184X-0.205065X0.545417X-0.582520X-0.014184X0*%
%ADD87RoundRect,0.250000X-0.475000X0.337500X-0.475000X-0.337500X0.475000X-0.337500X0.475000X0.337500X0*%
%ADD88RoundRect,0.250000X0.568231X0.045969X0.095318X0.562063X-0.568231X-0.045969X-0.095318X-0.562063X0*%
%ADD89RoundRect,0.250000X0.554625X-0.131874X0.264340X0.505098X-0.554625X0.131874X-0.264340X-0.505098X0*%
%ADD90RoundRect,0.250000X0.582692X0.001070X0.190718X0.550598X-0.582692X-0.001070X-0.190718X-0.550598X0*%
%ADD91RoundRect,0.250000X-0.542569X0.174983X-0.303155X-0.482801X0.542569X-0.174983X0.303155X0.482801X0*%
%ADD92RoundRect,0.250000X0.026486X-0.582091X0.558393X-0.166519X-0.026486X0.582091X-0.558393X0.166519X0*%
%ADD93RoundRect,0.150000X0.241969X0.802855X-0.509088X-0.666299X-0.241969X-0.802855X0.509088X0.666299X0*%
%ADD94RoundRect,0.250000X0.564711X-0.078109X0.214711X0.528109X-0.564711X0.078109X-0.214711X-0.528109X0*%
%ADD95RoundRect,0.150000X0.688788X-0.478222X-0.476371X0.690069X-0.688788X0.478222X0.476371X-0.690069X0*%
%ADD96RoundRect,0.250000X-0.119744X0.557370X-0.569696X0.021139X0.119744X-0.557370X0.569696X-0.021139X0*%
%ADD97RoundRect,0.150000X-0.688788X0.478222X0.476371X-0.690069X0.688788X-0.478222X-0.476371X0.690069X0*%
%ADD98RoundRect,0.250000X0.154687X0.561786X-0.479606X0.330922X-0.154687X-0.561786X0.479606X-0.330922X0*%
%ADD99C,12.800000*%
%ADD100C,6.800000*%
%ADD101RoundRect,0.250000X-0.350000X-0.450000X0.350000X-0.450000X0.350000X0.450000X-0.350000X0.450000X0*%
%ADD102RoundRect,0.250000X0.119744X-0.557370X0.569696X-0.021139X-0.119744X0.557370X-0.569696X0.021139X0*%
%ADD103RoundRect,0.250000X-0.545417X-0.205065X0.014184X-0.582520X0.545417X0.205065X-0.014184X0.582520X0*%
G04 APERTURE END LIST*
D10*
X115266174Y-69362278D02*
X114687578Y-69417909D01*
X114984789Y-69859624D02*
X114114433Y-69367200D01*
X114302023Y-69035636D01*
X114390366Y-68976194D01*
X114455260Y-68958197D01*
X114561600Y-68963649D01*
X114685937Y-69033996D01*
X114745379Y-69122339D01*
X114763376Y-69187233D01*
X114757924Y-69293573D01*
X114570334Y-69625137D01*
X115735149Y-68533368D02*
X115453764Y-69030714D01*
X115594456Y-68782041D02*
X114724101Y-68289617D01*
X114801540Y-68442854D01*
X114837533Y-68572643D01*
X114832081Y-68678983D01*
X115519187Y-67754637D02*
X115430844Y-67814079D01*
X115365950Y-67832076D01*
X115259610Y-67826624D01*
X115218165Y-67803175D01*
X115158723Y-67714832D01*
X115140726Y-67649938D01*
X115146178Y-67543598D01*
X115239973Y-67377816D01*
X115328316Y-67318374D01*
X115393210Y-67300377D01*
X115499550Y-67305829D01*
X115540995Y-67329278D01*
X115600438Y-67417621D01*
X115618434Y-67482515D01*
X115612982Y-67588855D01*
X115519187Y-67754637D01*
X115513735Y-67860976D01*
X115531732Y-67925871D01*
X115591175Y-68014214D01*
X115756957Y-68108009D01*
X115863296Y-68113461D01*
X115928191Y-68095464D01*
X116016534Y-68036022D01*
X116110329Y-67870240D01*
X116115780Y-67763900D01*
X116097784Y-67699006D01*
X116038341Y-67610663D01*
X115872559Y-67516868D01*
X115766220Y-67511416D01*
X115701325Y-67529412D01*
X115612982Y-67588855D01*
X178232017Y-123167078D02*
X177865469Y-122445294D01*
X177779888Y-122381940D01*
X177715869Y-122361044D01*
X177609391Y-122361709D01*
X177439560Y-122447956D01*
X177376206Y-122533537D01*
X177355309Y-122597556D01*
X177355975Y-122704034D01*
X177722522Y-123425817D01*
X176378113Y-122986996D02*
X176887608Y-122728257D01*
X176632860Y-122857626D02*
X177085654Y-123749242D01*
X177105885Y-123578745D01*
X177147678Y-123450706D01*
X177211032Y-123365125D01*
X176278955Y-124158912D02*
X176194039Y-124202035D01*
X176087562Y-124202701D01*
X176023542Y-124181805D01*
X175937961Y-124118450D01*
X175809257Y-123970181D01*
X175701449Y-123757891D01*
X175657660Y-123566498D01*
X175656995Y-123460021D01*
X175677891Y-123396001D01*
X175741245Y-123310420D01*
X175826161Y-123267297D01*
X175932638Y-123266632D01*
X175996658Y-123287528D01*
X176082239Y-123350882D01*
X176210943Y-123499152D01*
X176318751Y-123711441D01*
X176362540Y-123902834D01*
X176363205Y-124009312D01*
X176342309Y-124073331D01*
X176278955Y-124158912D01*
X126617304Y-107807438D02*
X127339088Y-107440891D01*
X127402442Y-107355309D01*
X127423338Y-107291290D01*
X127422673Y-107184813D01*
X127336426Y-107014981D01*
X127250845Y-106951627D01*
X127186826Y-106930731D01*
X127080348Y-106931396D01*
X126358564Y-107297944D01*
X126186072Y-106958281D02*
X125884209Y-106363870D01*
X126969879Y-106293197D01*
X109778526Y-67185573D02*
X109260636Y-66944077D01*
X109942199Y-66158517D02*
X109519581Y-67064825D01*
X109381151Y-65896896D02*
X108958533Y-66803204D01*
X108613273Y-66642206D01*
X108547083Y-66558799D01*
X108524050Y-66495517D01*
X108521142Y-66389078D01*
X108581516Y-66259605D01*
X108664923Y-66193415D01*
X108728205Y-66170382D01*
X108834645Y-66167474D01*
X109179905Y-66328471D01*
X108000111Y-65252906D02*
X108518001Y-65494402D01*
X108259056Y-65373654D02*
X107836438Y-66279962D01*
X107983127Y-66190739D01*
X108109691Y-66144673D01*
X108216131Y-66141765D01*
X107275390Y-66018341D02*
X106714342Y-65756720D01*
X107177442Y-65552333D01*
X107047970Y-65491959D01*
X106981780Y-65408552D01*
X106958747Y-65345270D01*
X106955839Y-65238830D01*
X107056462Y-65023043D01*
X107139869Y-64956852D01*
X107203151Y-64933820D01*
X107309591Y-64930911D01*
X107568536Y-65051659D01*
X107634726Y-65135066D01*
X107657759Y-65198349D01*
X187588871Y-115909763D02*
X187017220Y-115336575D01*
X186916250Y-115302768D01*
X186848906Y-115302677D01*
X186747846Y-115336213D01*
X186612978Y-115470719D01*
X186579171Y-115571689D01*
X186579081Y-115639033D01*
X186612617Y-115740093D01*
X187184267Y-116313281D01*
X185770055Y-116311382D02*
X186174658Y-115907864D01*
X185972357Y-116109623D02*
X186678513Y-116817679D01*
X186645068Y-116649275D01*
X186645249Y-116514588D01*
X186679056Y-116413618D01*
X185095717Y-116983913D02*
X185500320Y-116580394D01*
X185298018Y-116782153D02*
X186004175Y-117490209D01*
X185970729Y-117321805D01*
X185970910Y-117187118D01*
X186004717Y-117086148D01*
X119024130Y-125222026D02*
X118873609Y-125783463D01*
X119391437Y-125659765D02*
X118625393Y-126302553D01*
X118380521Y-126010727D01*
X118355782Y-125907161D01*
X118361651Y-125840074D01*
X118403999Y-125742378D01*
X118513434Y-125650551D01*
X118616999Y-125625811D01*
X118684087Y-125631681D01*
X118781783Y-125674028D01*
X119026654Y-125965855D01*
X118086171Y-125511769D02*
X118019083Y-125505900D01*
X117921387Y-125463552D01*
X117768343Y-125281160D01*
X117743603Y-125177595D01*
X117749472Y-125110508D01*
X117791820Y-125012812D01*
X117864777Y-124951594D01*
X118004821Y-124896245D01*
X118809867Y-124966678D01*
X118411951Y-124492460D01*
X117473992Y-124782203D02*
X117406905Y-124776334D01*
X117309209Y-124733986D01*
X117156164Y-124551594D01*
X117131424Y-124448029D01*
X117137294Y-124380942D01*
X117179641Y-124283245D01*
X117252598Y-124222028D01*
X117392642Y-124166679D01*
X118197689Y-124237111D01*
X117799773Y-123762893D01*
X198952020Y-50273528D02*
X199356081Y-49869467D01*
X199861157Y-50778604D02*
X199154050Y-50071497D01*
X200298890Y-50340871D02*
X199591783Y-49633764D01*
X199861157Y-49364390D01*
X199962172Y-49330719D01*
X200029516Y-49330719D01*
X200130531Y-49364390D01*
X200231547Y-49465406D01*
X200265218Y-49566421D01*
X200265218Y-49633764D01*
X200231547Y-49734780D01*
X199962172Y-50004154D01*
X200837638Y-48859314D02*
X201309043Y-49330719D01*
X200399905Y-48758299D02*
X200736623Y-49431734D01*
X201174356Y-48994001D01*
X125920280Y-137716137D02*
X126248038Y-137248051D01*
X126903311Y-138055670D02*
X126084159Y-137482094D01*
X127258382Y-137548576D02*
X126439230Y-136975000D01*
X126657735Y-136662942D01*
X126751369Y-136612241D01*
X126817689Y-136600547D01*
X126923017Y-136616166D01*
X127040039Y-136698105D01*
X127090740Y-136791739D01*
X127102434Y-136858059D01*
X127086815Y-136963387D01*
X126868310Y-137275445D01*
X128132403Y-136300345D02*
X127804645Y-136768431D01*
X127968524Y-136534388D02*
X127149372Y-135960812D01*
X127211768Y-136120766D01*
X127235156Y-136253406D01*
X127219537Y-136358734D01*
X128405535Y-135910272D02*
X128514787Y-135754243D01*
X128530407Y-135648916D01*
X128518712Y-135582595D01*
X128456317Y-135422641D01*
X128327601Y-135274381D01*
X128015543Y-135055876D01*
X127910216Y-135040257D01*
X127843895Y-135051951D01*
X127750262Y-135102652D01*
X127641009Y-135258681D01*
X127625390Y-135364009D01*
X127637084Y-135430329D01*
X127687785Y-135523963D01*
X127882822Y-135660529D01*
X127988149Y-135676148D01*
X128054470Y-135664454D01*
X128148103Y-135613752D01*
X128257356Y-135457723D01*
X128272975Y-135352396D01*
X128261281Y-135286075D01*
X128210580Y-135192442D01*
X168203619Y-74287142D02*
X168679809Y-73953809D01*
X168203619Y-73715714D02*
X169203619Y-73715714D01*
X169203619Y-74096666D01*
X169156000Y-74191904D01*
X169108380Y-74239523D01*
X169013142Y-74287142D01*
X168870285Y-74287142D01*
X168775047Y-74239523D01*
X168727428Y-74191904D01*
X168679809Y-74096666D01*
X168679809Y-73715714D01*
X169203619Y-74620476D02*
X169203619Y-75239523D01*
X168822666Y-74906190D01*
X168822666Y-75049047D01*
X168775047Y-75144285D01*
X168727428Y-75191904D01*
X168632190Y-75239523D01*
X168394095Y-75239523D01*
X168298857Y-75191904D01*
X168251238Y-75144285D01*
X168203619Y-75049047D01*
X168203619Y-74763333D01*
X168251238Y-74668095D01*
X168298857Y-74620476D01*
X168203619Y-75715714D02*
X168203619Y-75906190D01*
X168251238Y-76001428D01*
X168298857Y-76049047D01*
X168441714Y-76144285D01*
X168632190Y-76191904D01*
X169013142Y-76191904D01*
X169108380Y-76144285D01*
X169156000Y-76096666D01*
X169203619Y-76001428D01*
X169203619Y-75810952D01*
X169156000Y-75715714D01*
X169108380Y-75668095D01*
X169013142Y-75620476D01*
X168775047Y-75620476D01*
X168679809Y-75668095D01*
X168632190Y-75715714D01*
X168584571Y-75810952D01*
X168584571Y-76001428D01*
X168632190Y-76096666D01*
X168679809Y-76144285D01*
X168775047Y-76191904D01*
X114503186Y-58811307D02*
X114035100Y-58483549D01*
X114842719Y-57828276D02*
X114269143Y-58647428D01*
X114335625Y-57473205D02*
X113762049Y-58292357D01*
X113449991Y-58073852D01*
X113399290Y-57980218D01*
X113387596Y-57913898D01*
X113403215Y-57808570D01*
X113485154Y-57691548D01*
X113578788Y-57640847D01*
X113645108Y-57629153D01*
X113750436Y-57644772D01*
X114062494Y-57863277D01*
X113087394Y-56599184D02*
X113555480Y-56926942D01*
X113321437Y-56763063D02*
X112747861Y-57582215D01*
X112907815Y-57519819D01*
X113040455Y-57496431D01*
X113145783Y-57512050D01*
X112256386Y-57121816D02*
X112190065Y-57133510D01*
X112084737Y-57117891D01*
X111889701Y-56981325D01*
X111839000Y-56887692D01*
X111827306Y-56821371D01*
X111842925Y-56716044D01*
X111897551Y-56638029D01*
X112018498Y-56548321D01*
X112814343Y-56407992D01*
X112307249Y-56052921D01*
X159666666Y-100652380D02*
X159666666Y-101366666D01*
X159619047Y-101509523D01*
X159523809Y-101604761D01*
X159380952Y-101652380D01*
X159285714Y-101652380D01*
X160666666Y-101652380D02*
X160095238Y-101652380D01*
X160380952Y-101652380D02*
X160380952Y-100652380D01*
X160285714Y-100795238D01*
X160190476Y-100890476D01*
X160095238Y-100938095D01*
X143459781Y-124028376D02*
X143828265Y-123307579D01*
X143829216Y-123201104D01*
X143808492Y-123137029D01*
X143745368Y-123051278D01*
X143575769Y-122964576D01*
X143469293Y-122963624D01*
X143405218Y-122984349D01*
X143319467Y-123047473D01*
X142950983Y-123768270D01*
X142939771Y-122639442D02*
X142770172Y-122552740D01*
X142663697Y-122551789D01*
X142599622Y-122572513D01*
X142449795Y-122656362D01*
X142320693Y-122804285D01*
X142147289Y-123143484D01*
X142146338Y-123249959D01*
X142167062Y-123314035D01*
X142230186Y-123399785D01*
X142399785Y-123486488D01*
X142506261Y-123487439D01*
X142570336Y-123466715D01*
X142656087Y-123403590D01*
X142764465Y-123191591D01*
X142765416Y-123085116D01*
X142744692Y-123021041D01*
X142681567Y-122935290D01*
X142511968Y-122848588D01*
X142405493Y-122847637D01*
X142341418Y-122868361D01*
X142255667Y-122931485D01*
X106628027Y-114283527D02*
X107145918Y-114042031D01*
X107309591Y-115069087D02*
X106886973Y-114162779D01*
X107870638Y-114807466D02*
X107448020Y-113901158D01*
X107793280Y-113740161D01*
X107899720Y-113743069D01*
X107963002Y-113766102D01*
X108046409Y-113832292D01*
X108106783Y-113961764D01*
X108103875Y-114068204D01*
X108080842Y-114131486D01*
X108014652Y-114214893D01*
X107669392Y-114375891D01*
X109251679Y-114163476D02*
X108733789Y-114404972D01*
X108992734Y-114284224D02*
X108570116Y-113377916D01*
X108544175Y-113547638D01*
X108498109Y-113674203D01*
X108431919Y-113757609D01*
X109605896Y-112894924D02*
X109433266Y-112975423D01*
X109367075Y-113058830D01*
X109344043Y-113122112D01*
X109318102Y-113291834D01*
X109355443Y-113484588D01*
X109516440Y-113829849D01*
X109599847Y-113896039D01*
X109663129Y-113919072D01*
X109769569Y-113921980D01*
X109942199Y-113841481D01*
X110008389Y-113758074D01*
X110031422Y-113694792D01*
X110034330Y-113588352D01*
X109933707Y-113372565D01*
X109850300Y-113306374D01*
X109787018Y-113283342D01*
X109680578Y-113280433D01*
X109507948Y-113360932D01*
X109441758Y-113444339D01*
X109418725Y-113507621D01*
X109415817Y-113614061D01*
X190801017Y-111991840D02*
X190791063Y-111925236D01*
X190837759Y-111782074D01*
X190894408Y-111705516D01*
X191017662Y-111619005D01*
X191150870Y-111599097D01*
X191255752Y-111617468D01*
X191437193Y-111692488D01*
X191552029Y-111777463D01*
X191676820Y-111929041D01*
X191725053Y-112023970D01*
X191744961Y-112157178D01*
X191698265Y-112300339D01*
X191641615Y-112376897D01*
X191518362Y-112463409D01*
X191451758Y-112473363D01*
X191225159Y-112779594D02*
X191235113Y-112846198D01*
X191216742Y-112951081D01*
X191075118Y-113142475D01*
X190980189Y-113190708D01*
X190913585Y-113200662D01*
X190808702Y-113182291D01*
X190732145Y-113125641D01*
X190645633Y-113002388D01*
X190526185Y-112203142D01*
X190157961Y-112700768D01*
X189591463Y-113466346D02*
X189931362Y-113006999D01*
X189761413Y-113236672D02*
X190565269Y-113831495D01*
X190507083Y-113669963D01*
X190487175Y-113536755D01*
X190505545Y-113431872D01*
X183015672Y-39346951D02*
X183257168Y-38829061D01*
X184042728Y-39510624D02*
X183136420Y-39088006D01*
X184304349Y-38949576D02*
X183398041Y-38526958D01*
X183559038Y-38181698D01*
X183642445Y-38115508D01*
X183705727Y-38092475D01*
X183812167Y-38089567D01*
X183941640Y-38149941D01*
X184007830Y-38233348D01*
X184030863Y-38296630D01*
X184033771Y-38403069D01*
X183872774Y-38748330D01*
X184001781Y-37232233D02*
X183921283Y-37404863D01*
X183924191Y-37511302D01*
X183947224Y-37574585D01*
X184036447Y-37721274D01*
X184188952Y-37844930D01*
X184534212Y-38005927D01*
X184640652Y-38003019D01*
X184703934Y-37979986D01*
X184787341Y-37913796D01*
X184867840Y-37741166D01*
X184864932Y-37634726D01*
X184841899Y-37571444D01*
X184775708Y-37488037D01*
X184559921Y-37387414D01*
X184453481Y-37390322D01*
X184390199Y-37413355D01*
X184306792Y-37479545D01*
X184226293Y-37652175D01*
X184229202Y-37758615D01*
X184252234Y-37821897D01*
X184318425Y-37905304D01*
X109008894Y-72124869D02*
X108447415Y-72275233D01*
X108813454Y-72661836D02*
X107873762Y-72319816D01*
X108004055Y-71961838D01*
X108081376Y-71888630D01*
X108142410Y-71860169D01*
X108248191Y-71847996D01*
X108382433Y-71896856D01*
X108455641Y-71974176D01*
X108484101Y-72035210D01*
X108496275Y-72140991D01*
X108365982Y-72498969D01*
X109334628Y-71229924D02*
X109139188Y-71766891D01*
X109236908Y-71498407D02*
X108297215Y-71156387D01*
X108398884Y-71294742D01*
X108455805Y-71416810D01*
X108467979Y-71522591D01*
X108508942Y-70574673D02*
X108736955Y-69948211D01*
X109530068Y-70692956D01*
X144295420Y-146494451D02*
X144443317Y-145942494D01*
X145335294Y-146477292D02*
X144369368Y-146218473D01*
X145495515Y-145879337D02*
X144529590Y-145620518D01*
X144628187Y-145252547D01*
X144698833Y-145172878D01*
X144757154Y-145139207D01*
X144861472Y-145117860D01*
X144999461Y-145154834D01*
X145079130Y-145225480D01*
X145112801Y-145283801D01*
X145134148Y-145388119D01*
X145035551Y-145756090D01*
X144868077Y-144725239D02*
X144834405Y-144666917D01*
X144813058Y-144562600D01*
X144874682Y-144332617D01*
X144945328Y-144252949D01*
X145003649Y-144219277D01*
X145107966Y-144197930D01*
X145199959Y-144222580D01*
X145325624Y-144305550D01*
X145729685Y-145005405D01*
X145889906Y-144407451D01*
X146136401Y-143487521D02*
X145988504Y-144039479D01*
X146062452Y-143763500D02*
X145096527Y-143504681D01*
X145209867Y-143633648D01*
X145277210Y-143750290D01*
X145298557Y-143854608D01*
X139339277Y-134923825D02*
X139394908Y-135502421D01*
X139836623Y-135205210D02*
X139344199Y-136075566D01*
X139012635Y-135887976D01*
X138953193Y-135799633D01*
X138935196Y-135734739D01*
X138940648Y-135628399D01*
X139010995Y-135504062D01*
X139099338Y-135444620D01*
X139164232Y-135426623D01*
X139270572Y-135432075D01*
X139602136Y-135619665D01*
X138562187Y-135523700D02*
X138497293Y-135541697D01*
X138390953Y-135536245D01*
X138183725Y-135419001D01*
X138124283Y-135330658D01*
X138106286Y-135265764D01*
X138111738Y-135159424D01*
X138158636Y-135076533D01*
X138270427Y-134975645D01*
X139049158Y-134759684D01*
X138510367Y-134454850D01*
X137727825Y-135161065D02*
X137147587Y-134832782D01*
X138013021Y-134173465D01*
X176540217Y-55971622D02*
X176171733Y-56692419D01*
X176170782Y-56798894D01*
X176191506Y-56862969D01*
X176254630Y-56948720D01*
X176424229Y-57035422D01*
X176530705Y-57036374D01*
X176594780Y-57015649D01*
X176680531Y-56952525D01*
X177049015Y-56231728D01*
X177388213Y-56405133D02*
X177939411Y-56686915D01*
X177469208Y-56874385D01*
X177596408Y-56939411D01*
X177659532Y-57025162D01*
X177680256Y-57089237D01*
X177679305Y-57195713D01*
X177570927Y-57407712D01*
X177485176Y-57470836D01*
X177421101Y-57491560D01*
X177314626Y-57490609D01*
X177060227Y-57360556D01*
X176997103Y-57274805D01*
X176976378Y-57210729D01*
X135873624Y-46906237D02*
X135372830Y-46611153D01*
X135353646Y-47143205D02*
X134938953Y-46233243D01*
X135285605Y-46075265D01*
X135392015Y-46079102D01*
X135455094Y-46102686D01*
X135537920Y-46169602D01*
X135597162Y-46299596D01*
X135593325Y-46406007D01*
X135569740Y-46469085D01*
X135502825Y-46551911D01*
X135156173Y-46709890D01*
X136740254Y-46511291D02*
X136220276Y-46748259D01*
X136480265Y-46629775D02*
X136065571Y-45719814D01*
X136038150Y-45889303D01*
X135990982Y-46015460D01*
X135924066Y-46098286D01*
X136711707Y-45530015D02*
X136735291Y-45466936D01*
X136802207Y-45384110D01*
X137018864Y-45285373D01*
X137125274Y-45289210D01*
X137188353Y-45312794D01*
X137271179Y-45379710D01*
X137310674Y-45466373D01*
X137326584Y-45616115D01*
X137043574Y-46373060D01*
X137606883Y-46116345D01*
X137890015Y-59289954D02*
X137878901Y-59356374D01*
X137790251Y-59478099D01*
X137712716Y-59533404D01*
X137568761Y-59577594D01*
X137435922Y-59555364D01*
X137341849Y-59505482D01*
X137192472Y-59378065D01*
X137109514Y-59261763D01*
X137037671Y-59079040D01*
X137021134Y-58973853D01*
X137043363Y-58841013D01*
X137132013Y-58719288D01*
X137209548Y-58663983D01*
X137353503Y-58619793D01*
X137419923Y-58630908D01*
X137635989Y-58359806D02*
X138178733Y-57972670D01*
X138410529Y-59035658D01*
X127085055Y-114267640D02*
X127151475Y-114278754D01*
X127273200Y-114367404D01*
X127328505Y-114444939D01*
X127372695Y-114588894D01*
X127350465Y-114721734D01*
X127300583Y-114815806D01*
X127173166Y-114965183D01*
X127056864Y-115048141D01*
X126874142Y-115119984D01*
X126768954Y-115136521D01*
X126636114Y-115114292D01*
X126514390Y-115025642D01*
X126459084Y-114948107D01*
X126414894Y-114804152D01*
X126426009Y-114737732D01*
X126154907Y-114521666D02*
X125795424Y-114017689D01*
X126299131Y-114067841D01*
X126216173Y-113951539D01*
X126199636Y-113846351D01*
X126210751Y-113779932D01*
X126260633Y-113685859D01*
X126454470Y-113547596D01*
X126559657Y-113531059D01*
X126626077Y-113542174D01*
X126720150Y-113592056D01*
X126886065Y-113824660D01*
X126902602Y-113929848D01*
X126891487Y-113996268D01*
X125569050Y-113126308D02*
X126111794Y-112739173D01*
X125397174Y-113541366D02*
X126116947Y-113320415D01*
X125757465Y-112816439D01*
X121020147Y-77635411D02*
X121050195Y-77695679D01*
X121050025Y-77846264D01*
X121019805Y-77936580D01*
X120929318Y-78056945D01*
X120808781Y-78117042D01*
X120703355Y-78131981D01*
X120507612Y-78116701D01*
X120372138Y-78071371D01*
X120206614Y-77965774D01*
X120131407Y-77890396D01*
X120071310Y-77769860D01*
X120071481Y-77619276D01*
X120101701Y-77528959D01*
X120192188Y-77408594D01*
X120252456Y-77378546D01*
X120267908Y-77032218D02*
X120464335Y-76445161D01*
X120719833Y-76882147D01*
X120765162Y-76746672D01*
X120840540Y-76671465D01*
X120900808Y-76641416D01*
X121006234Y-76626478D01*
X121232025Y-76702026D01*
X121307232Y-76777404D01*
X121337281Y-76837672D01*
X121352219Y-76943098D01*
X121261561Y-77214048D01*
X121186183Y-77289255D01*
X121125915Y-77319303D01*
X120570103Y-76129053D02*
X120766530Y-75541995D01*
X121022028Y-75978981D01*
X121067357Y-75843506D01*
X121142735Y-75768300D01*
X121203003Y-75738251D01*
X121308429Y-75723312D01*
X121534220Y-75798861D01*
X121609427Y-75874239D01*
X121639476Y-75934507D01*
X121654414Y-76039933D01*
X121563756Y-76310883D01*
X121488378Y-76386089D01*
X121428110Y-76416138D01*
X136195140Y-123251173D02*
X136261744Y-123241219D01*
X136404906Y-123287915D01*
X136481464Y-123344564D01*
X136567975Y-123467818D01*
X136587883Y-123601026D01*
X136569512Y-123705908D01*
X136494492Y-123887349D01*
X136409517Y-124002185D01*
X136257939Y-124126976D01*
X136163010Y-124175209D01*
X136029802Y-124195117D01*
X135886641Y-124148421D01*
X135810083Y-124091771D01*
X135723571Y-123968518D01*
X135713617Y-123901914D01*
X135389015Y-123780198D02*
X134891389Y-123411974D01*
X135385941Y-123304017D01*
X135271104Y-123219042D01*
X135222871Y-123124114D01*
X135212917Y-123057510D01*
X135231288Y-122952627D01*
X135372913Y-122761233D01*
X135467841Y-122713000D01*
X135534445Y-122703046D01*
X135639328Y-122721417D01*
X135869001Y-122891366D01*
X135917234Y-122986295D01*
X135927188Y-123052899D01*
X134164090Y-122873801D02*
X134546879Y-123157050D01*
X134868407Y-122802586D01*
X134801803Y-122812540D01*
X134696921Y-122794169D01*
X134505526Y-122652545D01*
X134457293Y-122557616D01*
X134447339Y-122491012D01*
X134465710Y-122386129D01*
X134607335Y-122194735D01*
X134702263Y-122146502D01*
X134768867Y-122136548D01*
X134873750Y-122154919D01*
X135065144Y-122296543D01*
X135113377Y-122391472D01*
X135123331Y-122458076D01*
X189581226Y-130010919D02*
X189648068Y-130019126D01*
X189773544Y-130102382D01*
X189832178Y-130177430D01*
X189882606Y-130319320D01*
X189866191Y-130453003D01*
X189820460Y-130549162D01*
X189699680Y-130703955D01*
X189587107Y-130791907D01*
X189407692Y-130871652D01*
X189303326Y-130892762D01*
X189169643Y-130876347D01*
X189044167Y-130793092D01*
X188985533Y-130718043D01*
X188935106Y-130576153D01*
X188943313Y-130509311D01*
X188708775Y-130209117D02*
X188641934Y-130200910D01*
X188545775Y-130155178D01*
X188399189Y-129967557D01*
X188378079Y-129863191D01*
X188386286Y-129796349D01*
X188432017Y-129700191D01*
X188507066Y-129641556D01*
X188648956Y-129591129D01*
X189451054Y-129689614D01*
X189069931Y-129201798D01*
X188122431Y-129458630D02*
X188055589Y-129450423D01*
X187959431Y-129404692D01*
X187812845Y-129217070D01*
X187791734Y-129112704D01*
X187799942Y-129045863D01*
X187845673Y-128949704D01*
X187920722Y-128891070D01*
X188062612Y-128840642D01*
X188864710Y-128939128D01*
X188483586Y-128451311D01*
X160612057Y-78287619D02*
X160945390Y-78763809D01*
X161183485Y-78287619D02*
X161183485Y-79287619D01*
X160802533Y-79287619D01*
X160707295Y-79240000D01*
X160659676Y-79192380D01*
X160612057Y-79097142D01*
X160612057Y-78954285D01*
X160659676Y-78859047D01*
X160707295Y-78811428D01*
X160802533Y-78763809D01*
X161183485Y-78763809D01*
X160278723Y-79287619D02*
X159659676Y-79287619D01*
X159993009Y-78906666D01*
X159850152Y-78906666D01*
X159754914Y-78859047D01*
X159707295Y-78811428D01*
X159659676Y-78716190D01*
X159659676Y-78478095D01*
X159707295Y-78382857D01*
X159754914Y-78335238D01*
X159850152Y-78287619D01*
X160135866Y-78287619D01*
X160231104Y-78335238D01*
X160278723Y-78382857D01*
X159326342Y-79287619D02*
X158659676Y-79287619D01*
X159088247Y-78287619D01*
X210991104Y-107875129D02*
X211552583Y-107724765D01*
X211186544Y-107338162D02*
X212126236Y-107680182D01*
X211995943Y-108038160D01*
X211918622Y-108111368D01*
X211857588Y-108139829D01*
X211751807Y-108152002D01*
X211617565Y-108103142D01*
X211544357Y-108025822D01*
X211515897Y-107964788D01*
X211503723Y-107859007D01*
X211634016Y-107501029D01*
X211816789Y-108530380D02*
X211605063Y-109112094D01*
X211361091Y-108668570D01*
X211312231Y-108802812D01*
X211234911Y-108876020D01*
X211173877Y-108904480D01*
X211068095Y-108916654D01*
X210844359Y-108835221D01*
X210771151Y-108757900D01*
X210742691Y-108696866D01*
X210730517Y-108591085D01*
X210828237Y-108322602D01*
X210905557Y-108249394D01*
X210966591Y-108220933D01*
X211295616Y-109962293D02*
X211458483Y-109514820D01*
X211027297Y-109307206D01*
X211055757Y-109368240D01*
X211067931Y-109474021D01*
X210986498Y-109697757D01*
X210909177Y-109770965D01*
X210848143Y-109799426D01*
X210742362Y-109811600D01*
X210518626Y-109730166D01*
X210445418Y-109652846D01*
X210416957Y-109591812D01*
X210404783Y-109486031D01*
X210486217Y-109262294D01*
X210563537Y-109189086D01*
X210624571Y-109160626D01*
X142192560Y-56617304D02*
X142559107Y-57339088D01*
X142644689Y-57402442D01*
X142708708Y-57423338D01*
X142815185Y-57422673D01*
X142985017Y-57336426D01*
X143048371Y-57250845D01*
X143069267Y-57186826D01*
X143068602Y-57080348D01*
X142702054Y-56358564D01*
X143659685Y-56246099D02*
X143961548Y-56840509D01*
X143274903Y-56014244D02*
X143386038Y-56758920D01*
X143937990Y-56478619D01*
X201281957Y-55142755D02*
X201432478Y-54581318D01*
X200914650Y-54705016D02*
X201680695Y-54062228D01*
X201925566Y-54354054D01*
X201950306Y-54457620D01*
X201944436Y-54524707D01*
X201902089Y-54622403D01*
X201792654Y-54714230D01*
X201689088Y-54738970D01*
X201622001Y-54733100D01*
X201524305Y-54690753D01*
X201279433Y-54398926D01*
X202343614Y-55370840D02*
X201832918Y-55799365D01*
X202482396Y-54943577D02*
X201782177Y-55220319D01*
X202180093Y-55694537D01*
X123910638Y-78602555D02*
X123940686Y-78662823D01*
X123940516Y-78813408D01*
X123910296Y-78903724D01*
X123819809Y-79024089D01*
X123699272Y-79084186D01*
X123593846Y-79099125D01*
X123398103Y-79083845D01*
X123262629Y-79038515D01*
X123097105Y-78932918D01*
X123021898Y-78857540D01*
X122961801Y-78737004D01*
X122961972Y-78586420D01*
X122992192Y-78496103D01*
X123082679Y-78375738D01*
X123142947Y-78345690D01*
X124303149Y-77729609D02*
X124121832Y-78271509D01*
X124212491Y-78000559D02*
X123264167Y-77683254D01*
X123369423Y-77818900D01*
X123429520Y-77939436D01*
X123444458Y-78044862D01*
X124605344Y-76826444D02*
X124424027Y-77368343D01*
X124514686Y-77097394D02*
X123566362Y-76780089D01*
X123671618Y-76915735D01*
X123731715Y-77036271D01*
X123746653Y-77141697D01*
X133541921Y-137112451D02*
X133592500Y-137691510D01*
X134036792Y-137398165D02*
X133536792Y-138264190D01*
X133206878Y-138073714D01*
X133148209Y-137984856D01*
X133130779Y-137919807D01*
X133137159Y-137813519D01*
X133208587Y-137689801D01*
X133297446Y-137631132D01*
X133362494Y-137613702D01*
X133468783Y-137620082D01*
X133798697Y-137810558D01*
X132759625Y-137705521D02*
X132694576Y-137722951D01*
X132588288Y-137716571D01*
X132382092Y-137597524D01*
X132323423Y-137508665D01*
X132305993Y-137443617D01*
X132312373Y-137337328D01*
X132359992Y-137254850D01*
X132472660Y-137154941D01*
X133253245Y-136945784D01*
X132717134Y-136636260D01*
X131433588Y-137049905D02*
X131845981Y-137288000D01*
X132125315Y-136899416D01*
X132060266Y-136916846D01*
X131953978Y-136910466D01*
X131747782Y-136791419D01*
X131689113Y-136702560D01*
X131671683Y-136637512D01*
X131678063Y-136531223D01*
X131797110Y-136325027D01*
X131885969Y-136266358D01*
X131951017Y-136248928D01*
X132057306Y-136255308D01*
X132263502Y-136374355D01*
X132322171Y-136463214D01*
X132339601Y-136528263D01*
X126748825Y-66195140D02*
X126758779Y-66261744D01*
X126712083Y-66404906D01*
X126655434Y-66481464D01*
X126532180Y-66567975D01*
X126398972Y-66587883D01*
X126294090Y-66569512D01*
X126112649Y-66494492D01*
X125997813Y-66409517D01*
X125873022Y-66257939D01*
X125824789Y-66163010D01*
X125804881Y-66029802D01*
X125851577Y-65886641D01*
X125908227Y-65810083D01*
X126031480Y-65723571D01*
X126098084Y-65713617D01*
X126219800Y-65389015D02*
X126588024Y-64891389D01*
X126695981Y-65385941D01*
X126780956Y-65271104D01*
X126875884Y-65222871D01*
X126942488Y-65212917D01*
X127047371Y-65231288D01*
X127238765Y-65372913D01*
X127286998Y-65467841D01*
X127296952Y-65534445D01*
X127278581Y-65639328D01*
X127108632Y-65869001D01*
X127013703Y-65917234D01*
X126947099Y-65927188D01*
X126891181Y-64641808D02*
X126881227Y-64575204D01*
X126899598Y-64470321D01*
X127041222Y-64278927D01*
X127136151Y-64230694D01*
X127202755Y-64220740D01*
X127307637Y-64239111D01*
X127384195Y-64295761D01*
X127470707Y-64419014D01*
X127590155Y-65218260D01*
X127958379Y-64720634D01*
X212909103Y-115276150D02*
X212391213Y-115034654D01*
X213072776Y-114249094D02*
X212650158Y-115155402D01*
X212511728Y-113987473D02*
X212089110Y-114893781D01*
X211743850Y-114732783D01*
X211677660Y-114649376D01*
X211654627Y-114586094D01*
X211651719Y-114479655D01*
X211712093Y-114350182D01*
X211795500Y-114283992D01*
X211858782Y-114260959D01*
X211965222Y-114258051D01*
X212310482Y-114419048D01*
X211266209Y-114404972D02*
X211202927Y-114428005D01*
X211096487Y-114430913D01*
X210880700Y-114330290D01*
X210814509Y-114246883D01*
X210791477Y-114183601D01*
X210788568Y-114077161D01*
X210828818Y-113990846D01*
X210932349Y-113881498D01*
X211691736Y-113605104D01*
X211130688Y-113343483D01*
X210405967Y-114108918D02*
X209801762Y-113827173D01*
X210612798Y-113101987D01*
X181496177Y-45650661D02*
X181440546Y-45072065D01*
X180998831Y-45369276D02*
X181491255Y-44498921D01*
X181822819Y-44686511D01*
X181882261Y-44774854D01*
X181900258Y-44839748D01*
X181894806Y-44946088D01*
X181824460Y-45070424D01*
X181736117Y-45129866D01*
X181671222Y-45147863D01*
X181564883Y-45142411D01*
X181233318Y-44954821D01*
X181910632Y-45885149D02*
X182076414Y-45978944D01*
X182182754Y-45984396D01*
X182247648Y-45966399D01*
X182400886Y-45888960D01*
X182536126Y-45746626D01*
X182723716Y-45415062D01*
X182729168Y-45308723D01*
X182711171Y-45243828D01*
X182651729Y-45155485D01*
X182485947Y-45061690D01*
X182379607Y-45056238D01*
X182314713Y-45074235D01*
X182226370Y-45133678D01*
X182109126Y-45340905D01*
X182103674Y-45447245D01*
X182121671Y-45512139D01*
X182181113Y-45600482D01*
X182346895Y-45694277D01*
X182453235Y-45699729D01*
X182518129Y-45681732D01*
X182606472Y-45622290D01*
X193182552Y-138344340D02*
X192854794Y-137876253D01*
X193837825Y-137536720D02*
X193018673Y-138110297D01*
X193482754Y-137029626D02*
X192663602Y-137603203D01*
X192445096Y-137291145D01*
X192429477Y-137185817D01*
X192441171Y-137119497D01*
X192491873Y-137025863D01*
X192608894Y-136943924D01*
X192714222Y-136928304D01*
X192780542Y-136939999D01*
X192874176Y-136990700D01*
X193092681Y-137302758D01*
X192195353Y-136768431D02*
X192129032Y-136756737D01*
X192035399Y-136706036D01*
X191898833Y-136511000D01*
X191883214Y-136405672D01*
X191894908Y-136339352D01*
X191945609Y-136245718D01*
X192023624Y-136191092D01*
X192167959Y-136148160D01*
X192963804Y-136288489D01*
X192608732Y-135781394D01*
X191570994Y-135461648D02*
X192117095Y-135079264D01*
X191395502Y-135875190D02*
X192117176Y-135660529D01*
X191762105Y-135153435D01*
X207112451Y-116458077D02*
X207691510Y-116407498D01*
X207398165Y-115963206D02*
X208264190Y-116463206D01*
X208073714Y-116793120D01*
X207984856Y-116851789D01*
X207919807Y-116869219D01*
X207813519Y-116862839D01*
X207689801Y-116791411D01*
X207631132Y-116702552D01*
X207613702Y-116637504D01*
X207620082Y-116531215D01*
X207810558Y-116201301D01*
X207811809Y-117246753D02*
X207502286Y-117782864D01*
X207339038Y-117303712D01*
X207267609Y-117427430D01*
X207178751Y-117486099D01*
X207113702Y-117503529D01*
X207007414Y-117497149D01*
X206801217Y-117378102D01*
X206742548Y-117289243D01*
X206725119Y-117224194D01*
X206731498Y-117117906D01*
X206874355Y-116870470D01*
X206963214Y-116811801D01*
X207028263Y-116794372D01*
X206785039Y-118358504D02*
X206207689Y-118025171D01*
X207234001Y-118342784D02*
X206734459Y-117779445D01*
X206424935Y-118315556D01*
X194245131Y-106116219D02*
X193524335Y-105747735D01*
X193417859Y-105746783D01*
X193353784Y-105767508D01*
X193268033Y-105830632D01*
X193181331Y-106000231D01*
X193180380Y-106106706D01*
X193201104Y-106170782D01*
X193264228Y-106256533D01*
X193985025Y-106625017D01*
X192639442Y-107060227D02*
X192899549Y-106551429D01*
X192769496Y-106805828D02*
X193659892Y-107261014D01*
X193576044Y-107111188D01*
X193534595Y-106983037D01*
X193535546Y-106876562D01*
X193271635Y-107811260D02*
X193292359Y-107875336D01*
X193291408Y-107981811D01*
X193183030Y-108193810D01*
X193097279Y-108256934D01*
X193033204Y-108277658D01*
X192926729Y-108276707D01*
X192841929Y-108233356D01*
X192736405Y-108125930D01*
X192487714Y-107357025D01*
X192205932Y-107908223D01*
X158761904Y-68002380D02*
X158761904Y-68811904D01*
X158809523Y-68907142D01*
X158857142Y-68954761D01*
X158952380Y-69002380D01*
X159142857Y-69002380D01*
X159238095Y-68954761D01*
X159285714Y-68907142D01*
X159333333Y-68811904D01*
X159333333Y-68002380D01*
X160333333Y-69002380D02*
X159761904Y-69002380D01*
X160047619Y-69002380D02*
X160047619Y-68002380D01*
X159952380Y-68145238D01*
X159857142Y-68240476D01*
X159761904Y-68288095D01*
X161238095Y-68002380D02*
X160761904Y-68002380D01*
X160714285Y-68478571D01*
X160761904Y-68430952D01*
X160857142Y-68383333D01*
X161095238Y-68383333D01*
X161190476Y-68430952D01*
X161238095Y-68478571D01*
X161285714Y-68573809D01*
X161285714Y-68811904D01*
X161238095Y-68907142D01*
X161190476Y-68954761D01*
X161095238Y-69002380D01*
X160857142Y-69002380D01*
X160761904Y-68954761D01*
X160714285Y-68907142D01*
X172364587Y-51020147D02*
X172304319Y-51050195D01*
X172153734Y-51050025D01*
X172063418Y-51019805D01*
X171943053Y-50929318D01*
X171882956Y-50808781D01*
X171868017Y-50703355D01*
X171883297Y-50507612D01*
X171928627Y-50372138D01*
X172034224Y-50206614D01*
X172109602Y-50131407D01*
X172230138Y-50071310D01*
X172380722Y-50071481D01*
X172471039Y-50101701D01*
X172591404Y-50192188D01*
X172621452Y-50252456D01*
X172967780Y-50267908D02*
X173554837Y-50464335D01*
X173117851Y-50719833D01*
X173253326Y-50765162D01*
X173328533Y-50840540D01*
X173358582Y-50900808D01*
X173373520Y-51006234D01*
X173297972Y-51232025D01*
X173222594Y-51307232D01*
X173162326Y-51337281D01*
X173056900Y-51352219D01*
X172785950Y-51261561D01*
X172710743Y-51186183D01*
X172680695Y-51125915D01*
X174141895Y-50660761D02*
X174232211Y-50690981D01*
X174307418Y-50766359D01*
X174337467Y-50826627D01*
X174352405Y-50932053D01*
X174337125Y-51127796D01*
X174261576Y-51353587D01*
X174155979Y-51519110D01*
X174080601Y-51594317D01*
X174020333Y-51624366D01*
X173914907Y-51639305D01*
X173824590Y-51609085D01*
X173749383Y-51533707D01*
X173719335Y-51473439D01*
X173704396Y-51368013D01*
X173719677Y-51172270D01*
X173795226Y-50946479D01*
X173900823Y-50780956D01*
X173976201Y-50705749D01*
X174036469Y-50675700D01*
X174141895Y-50660761D01*
X196089360Y-101397443D02*
X196059312Y-101337175D01*
X196059482Y-101186590D01*
X196089702Y-101096274D01*
X196180189Y-100975909D01*
X196300726Y-100915812D01*
X196406152Y-100900873D01*
X196601895Y-100916153D01*
X196737369Y-100961483D01*
X196902893Y-101067080D01*
X196978100Y-101142458D01*
X197038197Y-101262994D01*
X197038026Y-101413578D01*
X197007806Y-101503895D01*
X196917319Y-101624260D01*
X196857051Y-101654308D01*
X196736173Y-102015575D02*
X196766221Y-102075843D01*
X196781160Y-102181269D01*
X196705611Y-102407060D01*
X196630233Y-102482267D01*
X196569965Y-102512316D01*
X196464539Y-102527254D01*
X196374223Y-102497035D01*
X196253858Y-102406547D01*
X195893275Y-101683331D01*
X195696849Y-102270389D01*
X196539404Y-102903801D02*
X196342977Y-103490859D01*
X196087479Y-103053873D01*
X196042150Y-103189348D01*
X195966772Y-103264554D01*
X195906504Y-103294603D01*
X195801078Y-103309542D01*
X195575287Y-103233993D01*
X195500080Y-103158615D01*
X195470031Y-103098347D01*
X195455093Y-102992921D01*
X195545751Y-102721971D01*
X195621129Y-102646765D01*
X195681397Y-102616716D01*
X199635676Y-60711944D02*
X199643883Y-60645102D01*
X199727138Y-60519626D01*
X199802187Y-60460992D01*
X199944077Y-60410565D01*
X200077760Y-60426979D01*
X200173919Y-60472710D01*
X200328712Y-60593490D01*
X200416664Y-60706063D01*
X200496408Y-60885478D01*
X200517518Y-60989844D01*
X200501104Y-61123527D01*
X200417849Y-61249003D01*
X200342800Y-61307637D01*
X200200910Y-61358064D01*
X200134068Y-61349857D01*
X199312044Y-61689946D02*
X198901603Y-61164605D01*
X199734204Y-61843554D02*
X199482067Y-61134103D01*
X198994251Y-61515227D01*
X145071877Y-36403324D02*
X144923981Y-35851367D01*
X145963855Y-35868526D02*
X144997929Y-36127345D01*
X145803633Y-35270572D02*
X144837707Y-35529391D01*
X144739110Y-35161420D01*
X144760457Y-35057102D01*
X144794129Y-34998781D01*
X144873797Y-34928135D01*
X145011786Y-34891161D01*
X145116104Y-34912508D01*
X145174425Y-34946179D01*
X145245071Y-35025848D01*
X145343669Y-35393819D01*
X144955883Y-34314554D02*
X144934535Y-34418871D01*
X144900864Y-34477192D01*
X144821196Y-34547838D01*
X144775199Y-34560163D01*
X144670881Y-34538816D01*
X144612560Y-34505144D01*
X144541914Y-34425476D01*
X144492615Y-34241490D01*
X144513962Y-34137172D01*
X144547634Y-34078851D01*
X144627302Y-34008205D01*
X144673299Y-33995881D01*
X144777617Y-34017228D01*
X144835938Y-34050899D01*
X144906584Y-34130568D01*
X144955883Y-34314554D01*
X145026528Y-34394222D01*
X145084850Y-34427894D01*
X145189167Y-34449241D01*
X145373153Y-34399942D01*
X145452821Y-34329296D01*
X145486493Y-34270975D01*
X145507840Y-34166657D01*
X145458541Y-33982671D01*
X145387895Y-33903003D01*
X145329574Y-33869331D01*
X145225257Y-33847984D01*
X145041271Y-33897283D01*
X144961602Y-33967929D01*
X144927931Y-34026250D01*
X144906584Y-34130568D01*
X206707689Y-62840851D02*
X206953415Y-62314081D01*
X206421974Y-62345980D02*
X207288000Y-61845980D01*
X207478476Y-62175894D01*
X207484856Y-62282182D01*
X207467426Y-62347231D01*
X207408757Y-62436090D01*
X207285039Y-62507518D01*
X207178751Y-62513898D01*
X207113702Y-62496468D01*
X207024844Y-62437799D01*
X206834368Y-62107885D01*
X207681712Y-62718385D02*
X207746761Y-62735815D01*
X207835619Y-62794484D01*
X207954667Y-63000680D01*
X207961046Y-63106968D01*
X207943617Y-63172017D01*
X207884947Y-63260876D01*
X207802469Y-63308495D01*
X207654941Y-63338684D01*
X206874355Y-63129527D01*
X207183879Y-63665638D01*
X188645261Y-49897306D02*
X188632412Y-49831200D01*
X188672818Y-49686137D01*
X188726075Y-49607181D01*
X188845438Y-49515376D01*
X188977650Y-49489676D01*
X189083234Y-49503455D01*
X189267774Y-49570490D01*
X189386208Y-49650374D01*
X189517492Y-49796365D01*
X189569820Y-49889100D01*
X189595519Y-50021312D01*
X189555112Y-50166374D01*
X189501856Y-50245330D01*
X189382493Y-50337136D01*
X189316387Y-50349986D01*
X188916035Y-51113846D02*
X189022548Y-50955934D01*
X189036326Y-50850350D01*
X189023477Y-50784244D01*
X188958299Y-50625403D01*
X188827015Y-50479412D01*
X188511192Y-50266386D01*
X188405607Y-50252608D01*
X188339501Y-50265457D01*
X188246767Y-50317785D01*
X188140254Y-50475697D01*
X188126475Y-50581281D01*
X188139325Y-50647387D01*
X188191653Y-50740122D01*
X188389043Y-50873263D01*
X188494627Y-50887042D01*
X188560733Y-50874192D01*
X188653468Y-50821864D01*
X188759980Y-50663952D01*
X188773759Y-50558368D01*
X188760909Y-50492262D01*
X188708581Y-50399527D01*
X148602555Y-126089360D02*
X148662823Y-126059312D01*
X148813408Y-126059482D01*
X148903724Y-126089702D01*
X149024089Y-126180189D01*
X149084186Y-126300726D01*
X149099125Y-126406152D01*
X149083845Y-126601895D01*
X149038515Y-126737369D01*
X148932918Y-126902893D01*
X148857540Y-126978100D01*
X148737004Y-127038197D01*
X148586420Y-127038026D01*
X148496103Y-127007806D01*
X148375738Y-126917319D01*
X148345690Y-126857051D01*
X147729609Y-125696849D02*
X148271509Y-125878166D01*
X148000559Y-125787507D02*
X147683254Y-126735831D01*
X147818900Y-126630575D01*
X147939436Y-126570478D01*
X148044862Y-126555540D01*
X147096197Y-126539404D02*
X146463981Y-126327868D01*
X147187710Y-125515532D01*
X129566479Y-112497657D02*
X129632899Y-112508771D01*
X129754624Y-112597421D01*
X129809929Y-112674956D01*
X129854119Y-112818911D01*
X129831889Y-112951751D01*
X129782007Y-113045823D01*
X129654590Y-113195200D01*
X129538288Y-113278158D01*
X129355566Y-113350001D01*
X129250378Y-113366538D01*
X129117538Y-113344309D01*
X128995814Y-113255659D01*
X128940508Y-113178124D01*
X128896318Y-113034169D01*
X128907433Y-112967749D01*
X129090963Y-111667003D02*
X129422794Y-112132212D01*
X129256879Y-111899608D02*
X128442763Y-112480311D01*
X128614370Y-112474888D01*
X128747210Y-112497118D01*
X128841283Y-112547000D01*
X128083280Y-111976335D02*
X127723798Y-111472358D01*
X128227504Y-111522510D01*
X128144547Y-111406208D01*
X128128009Y-111301020D01*
X128139124Y-111234600D01*
X128189006Y-111140528D01*
X128382843Y-111002265D01*
X128488031Y-110985728D01*
X128554451Y-110996843D01*
X128648523Y-111046725D01*
X128814438Y-111279329D01*
X128830976Y-111384517D01*
X128819861Y-111450937D01*
X116878161Y-113935375D02*
X116583077Y-114436169D01*
X117115129Y-114455353D02*
X116205167Y-114870046D01*
X116047189Y-114523394D01*
X116051026Y-114416984D01*
X116074610Y-114353905D01*
X116141526Y-114271079D01*
X116271520Y-114211837D01*
X116377931Y-114215674D01*
X116441009Y-114239259D01*
X116523835Y-114306174D01*
X116681814Y-114652826D01*
X115896884Y-113963922D02*
X115833806Y-113940338D01*
X115750980Y-113873422D01*
X115652243Y-113656765D01*
X115656080Y-113550354D01*
X115679664Y-113487276D01*
X115746580Y-113404450D01*
X115833243Y-113364955D01*
X115982985Y-113349045D01*
X116739930Y-113632055D01*
X116483215Y-113068745D01*
X116088269Y-112202116D02*
X116325237Y-112722094D01*
X116206753Y-112462105D02*
X115296792Y-112876798D01*
X115466281Y-112904219D01*
X115592438Y-112951387D01*
X115675264Y-113018303D01*
X195222026Y-130975868D02*
X195783463Y-131126389D01*
X195659765Y-130608561D02*
X196302553Y-131374605D01*
X196010727Y-131619477D01*
X195907161Y-131644216D01*
X195840074Y-131638347D01*
X195742378Y-131595999D01*
X195650551Y-131486564D01*
X195625811Y-131382999D01*
X195631681Y-131315911D01*
X195674028Y-131218215D01*
X195965855Y-130973344D01*
X195609465Y-131956175D02*
X195135247Y-132354091D01*
X195145724Y-131848002D01*
X195036289Y-131939829D01*
X194932723Y-131964568D01*
X194865636Y-131958699D01*
X194767940Y-131916351D01*
X194614895Y-131733960D01*
X194590156Y-131630394D01*
X194596025Y-131563307D01*
X194638373Y-131465611D01*
X194857243Y-131281957D01*
X194960808Y-131257218D01*
X195027895Y-131263087D01*
X193762893Y-132200225D02*
X194200633Y-131832918D01*
X193981763Y-132016572D02*
X194624551Y-132782616D01*
X194605681Y-132611963D01*
X194617420Y-132477789D01*
X194659767Y-132380093D01*
X165357142Y-63714642D02*
X165309523Y-63762261D01*
X165166666Y-63809880D01*
X165071428Y-63809880D01*
X164928571Y-63762261D01*
X164833333Y-63667023D01*
X164785714Y-63571785D01*
X164738095Y-63381309D01*
X164738095Y-63238452D01*
X164785714Y-63047976D01*
X164833333Y-62952738D01*
X164928571Y-62857500D01*
X165071428Y-62809880D01*
X165166666Y-62809880D01*
X165309523Y-62857500D01*
X165357142Y-62905119D01*
X165738095Y-62905119D02*
X165785714Y-62857500D01*
X165880952Y-62809880D01*
X166119047Y-62809880D01*
X166214285Y-62857500D01*
X166261904Y-62905119D01*
X166309523Y-63000357D01*
X166309523Y-63095595D01*
X166261904Y-63238452D01*
X165690476Y-63809880D01*
X166309523Y-63809880D01*
X167214285Y-62809880D02*
X166738095Y-62809880D01*
X166690476Y-63286071D01*
X166738095Y-63238452D01*
X166833333Y-63190833D01*
X167071428Y-63190833D01*
X167166666Y-63238452D01*
X167214285Y-63286071D01*
X167261904Y-63381309D01*
X167261904Y-63619404D01*
X167214285Y-63714642D01*
X167166666Y-63762261D01*
X167071428Y-63809880D01*
X166833333Y-63809880D01*
X166738095Y-63762261D01*
X166690476Y-63714642D01*
X178322602Y-39171761D02*
X178172238Y-38610282D01*
X177785634Y-38976321D02*
X178127655Y-38036628D01*
X178485633Y-38166922D01*
X178558841Y-38244242D01*
X178587301Y-38305276D01*
X178599475Y-38411058D01*
X178550615Y-38545299D01*
X178473294Y-38618507D01*
X178412261Y-38646968D01*
X178306479Y-38659142D01*
X177948501Y-38528848D01*
X179055009Y-38830234D02*
X178981801Y-38752913D01*
X178953341Y-38691879D01*
X178941167Y-38586098D01*
X178957453Y-38541351D01*
X179034774Y-38468143D01*
X179095808Y-38439683D01*
X179201589Y-38427509D01*
X179380578Y-38492655D01*
X179453786Y-38569976D01*
X179482247Y-38631010D01*
X179494420Y-38736791D01*
X179478134Y-38781538D01*
X179400813Y-38854746D01*
X179339779Y-38883207D01*
X179233998Y-38895381D01*
X179055009Y-38830234D01*
X178949228Y-38842408D01*
X178888194Y-38870869D01*
X178810873Y-38944076D01*
X178745727Y-39123066D01*
X178757900Y-39228847D01*
X178786361Y-39289881D01*
X178859569Y-39367201D01*
X179038558Y-39432348D01*
X179144339Y-39420174D01*
X179205373Y-39391713D01*
X179282694Y-39318506D01*
X179347840Y-39139517D01*
X179335666Y-39033735D01*
X179307206Y-38972701D01*
X179233998Y-38895381D01*
X130418772Y-49989079D02*
X130351930Y-49980872D01*
X130226454Y-49897616D01*
X130167820Y-49822568D01*
X130117392Y-49680678D01*
X130133807Y-49546995D01*
X130179538Y-49450836D01*
X130300318Y-49296043D01*
X130412891Y-49208091D01*
X130592306Y-49128346D01*
X130696672Y-49107236D01*
X130830355Y-49123651D01*
X130955831Y-49206906D01*
X131014465Y-49281955D01*
X131064892Y-49423845D01*
X131056685Y-49490687D01*
X130930067Y-50798200D02*
X130578261Y-50347908D01*
X130754164Y-50573054D02*
X131542175Y-49957393D01*
X131370967Y-49970296D01*
X131237284Y-49953881D01*
X131141126Y-49908150D01*
X132099202Y-50670355D02*
X132157836Y-50745403D01*
X132178946Y-50849769D01*
X132170739Y-50916611D01*
X132125008Y-51012770D01*
X132004228Y-51167563D01*
X131816606Y-51314149D01*
X131637192Y-51393893D01*
X131532826Y-51415003D01*
X131465984Y-51406796D01*
X131369826Y-51361065D01*
X131311191Y-51286016D01*
X131290081Y-51181650D01*
X131298288Y-51114809D01*
X131344020Y-51018650D01*
X131464800Y-50863857D01*
X131652421Y-50717271D01*
X131831836Y-50637526D01*
X131936202Y-50616416D01*
X132003043Y-50624623D01*
X132099202Y-50670355D01*
X201073340Y-131847791D02*
X200669279Y-131443730D01*
X201578417Y-130938653D02*
X200871310Y-131645760D01*
X201140684Y-130500921D02*
X200433577Y-131208027D01*
X200164203Y-130938653D01*
X200130531Y-130837638D01*
X200130531Y-130770295D01*
X200164203Y-130669279D01*
X200265218Y-130568264D01*
X200366234Y-130534592D01*
X200433577Y-130534592D01*
X200534592Y-130568264D01*
X200803966Y-130837638D01*
X199827485Y-130467249D02*
X199760142Y-130467249D01*
X199659127Y-130433577D01*
X199490768Y-130265218D01*
X199457096Y-130164203D01*
X199457096Y-130096859D01*
X199490768Y-129995844D01*
X199558111Y-129928501D01*
X199692798Y-129861157D01*
X200500921Y-129861157D01*
X200063188Y-129423424D01*
X198716318Y-129490768D02*
X199053035Y-129827485D01*
X199423424Y-129524440D01*
X199356081Y-129524440D01*
X199255066Y-129490768D01*
X199086707Y-129322409D01*
X199053035Y-129221394D01*
X199053035Y-129154050D01*
X199086707Y-129053035D01*
X199255066Y-128884676D01*
X199356081Y-128851005D01*
X199423424Y-128851005D01*
X199524440Y-128884676D01*
X199692798Y-129053035D01*
X199726470Y-129154050D01*
X199726470Y-129221394D01*
X174646659Y-146777920D02*
X174498763Y-146225962D01*
X175538637Y-146243122D02*
X174572711Y-146501941D01*
X175378415Y-145645168D02*
X174412490Y-145903987D01*
X174313892Y-145536015D01*
X174335239Y-145431698D01*
X174368911Y-145373376D01*
X174448579Y-145302730D01*
X174586568Y-145265756D01*
X174690886Y-145287103D01*
X174749207Y-145320775D01*
X174819853Y-145400443D01*
X174918451Y-145768415D01*
X174257988Y-144959408D02*
X174199667Y-144925736D01*
X174129021Y-144846068D01*
X174067398Y-144616086D01*
X174088745Y-144511768D01*
X174122416Y-144453447D01*
X174202085Y-144382801D01*
X174294078Y-144358152D01*
X174444392Y-144367174D01*
X175144246Y-144771235D01*
X174984025Y-144173281D01*
X174011494Y-144039479D02*
X173953173Y-144005807D01*
X173882527Y-143926139D01*
X173820903Y-143696156D01*
X173842250Y-143591839D01*
X173875922Y-143533518D01*
X173955590Y-143462872D01*
X174047583Y-143438222D01*
X174197897Y-143447245D01*
X174897752Y-143851306D01*
X174737530Y-143253352D01*
X129482230Y-67625370D02*
X129492184Y-67691974D01*
X129445488Y-67835136D01*
X129388839Y-67911694D01*
X129265585Y-67998205D01*
X129132377Y-68018113D01*
X129027495Y-67999742D01*
X128846054Y-67924722D01*
X128731217Y-67839747D01*
X128606427Y-67688169D01*
X128558194Y-67593240D01*
X128538286Y-67460032D01*
X128584982Y-67316871D01*
X128641631Y-67240313D01*
X128764885Y-67153801D01*
X128831489Y-67143847D01*
X129842037Y-67299231D02*
X129955336Y-67146116D01*
X129973707Y-67041233D01*
X129963753Y-66974629D01*
X129905566Y-66813097D01*
X129780776Y-66661518D01*
X129474545Y-66434919D01*
X129369662Y-66416548D01*
X129303058Y-66426502D01*
X129208129Y-66474735D01*
X129094830Y-66627851D01*
X129076459Y-66732733D01*
X129086413Y-66799337D01*
X129134646Y-66894266D01*
X129326040Y-67035890D01*
X129430923Y-67054261D01*
X129497527Y-67044307D01*
X129592455Y-66996074D01*
X129705755Y-66842959D01*
X129724126Y-66738076D01*
X129714172Y-66671472D01*
X129665939Y-66576543D01*
X196383339Y-123692161D02*
X196950808Y-123818049D01*
X196804641Y-123306110D02*
X197480231Y-124043387D01*
X197199363Y-124300755D01*
X197096975Y-124329988D01*
X197029696Y-124327051D01*
X196930246Y-124289005D01*
X196833733Y-124183680D01*
X196804499Y-124081292D01*
X196807437Y-124014012D01*
X196845483Y-123914562D01*
X197126350Y-123657194D01*
X196813170Y-124654635D02*
X196356761Y-125072858D01*
X196345152Y-124566794D01*
X196239827Y-124663306D01*
X196137439Y-124692540D01*
X196070159Y-124689602D01*
X195970709Y-124651557D01*
X195809854Y-124476014D01*
X195780621Y-124373626D01*
X195783558Y-124306347D01*
X195821604Y-124206897D01*
X196032255Y-124013871D01*
X196134643Y-123984637D01*
X196201922Y-123987575D01*
X196111002Y-125298055D02*
X195654592Y-125716277D01*
X195642983Y-125210213D01*
X195537658Y-125306726D01*
X195435270Y-125335959D01*
X195367991Y-125333022D01*
X195268540Y-125294976D01*
X195107685Y-125119434D01*
X195078452Y-125017046D01*
X195081389Y-124949766D01*
X195119435Y-124850316D01*
X195330086Y-124657290D01*
X195432474Y-124628057D01*
X195499753Y-124630994D01*
X125762887Y-131802309D02*
X125712145Y-132381355D01*
X126200626Y-132169616D02*
X125557839Y-132935661D01*
X125266012Y-132690789D01*
X125223664Y-132593093D01*
X125217795Y-132526006D01*
X125242535Y-132422440D01*
X125334361Y-132313005D01*
X125432058Y-132270658D01*
X125499145Y-132264788D01*
X125602710Y-132289528D01*
X125894537Y-132534399D01*
X124889490Y-132250526D02*
X124822403Y-132256395D01*
X124718838Y-132231655D01*
X124536446Y-132078611D01*
X124494098Y-131980915D01*
X124488229Y-131913827D01*
X124512969Y-131810262D01*
X124574186Y-131737305D01*
X124702491Y-131658479D01*
X125507538Y-131588047D01*
X125033320Y-131190131D01*
X124135185Y-131741912D02*
X123660967Y-131343996D01*
X124161186Y-131266432D01*
X124051751Y-131174606D01*
X124009404Y-131076909D01*
X124003534Y-131009822D01*
X124028274Y-130906257D01*
X124181319Y-130723865D01*
X124279015Y-130681517D01*
X124346102Y-130675648D01*
X124449667Y-130700388D01*
X124668537Y-130884041D01*
X124710885Y-130981737D01*
X124716754Y-131048825D01*
X134502380Y-91238095D02*
X135311904Y-91238095D01*
X135407142Y-91190476D01*
X135454761Y-91142857D01*
X135502380Y-91047619D01*
X135502380Y-90857142D01*
X135454761Y-90761904D01*
X135407142Y-90714285D01*
X135311904Y-90666666D01*
X134502380Y-90666666D01*
X135502380Y-89666666D02*
X135502380Y-90238095D01*
X135502380Y-89952380D02*
X134502380Y-89952380D01*
X134645238Y-90047619D01*
X134740476Y-90142857D01*
X134788095Y-90238095D01*
X134502380Y-89333333D02*
X134502380Y-88714285D01*
X134883333Y-89047619D01*
X134883333Y-88904761D01*
X134930952Y-88809523D01*
X134978571Y-88761904D01*
X135073809Y-88714285D01*
X135311904Y-88714285D01*
X135407142Y-88761904D01*
X135454761Y-88809523D01*
X135502380Y-88904761D01*
X135502380Y-89190476D01*
X135454761Y-89285714D01*
X135407142Y-89333333D01*
X204646825Y-110723722D02*
X205225421Y-110668091D01*
X204928210Y-110226376D02*
X205798566Y-110718800D01*
X205610976Y-111050364D01*
X205522633Y-111109806D01*
X205457739Y-111127803D01*
X205351399Y-111122351D01*
X205227062Y-111052004D01*
X205167620Y-110963661D01*
X205149623Y-110898767D01*
X205155075Y-110792427D01*
X205342665Y-110460863D01*
X205353040Y-111506264D02*
X205048206Y-112045056D01*
X204880783Y-111567347D01*
X204810437Y-111691684D01*
X204722094Y-111751126D01*
X204657200Y-111769123D01*
X204550860Y-111763671D01*
X204343632Y-111646427D01*
X204284190Y-111558084D01*
X204266193Y-111493190D01*
X204271645Y-111386850D01*
X204412338Y-111138177D01*
X204500681Y-111078735D01*
X204565575Y-111060738D01*
X204626129Y-112791075D02*
X204719924Y-112625293D01*
X204725376Y-112518953D01*
X204707379Y-112454059D01*
X204629940Y-112300822D01*
X204487607Y-112165581D01*
X204156042Y-111977991D01*
X204049703Y-111972539D01*
X203984808Y-111990536D01*
X203896465Y-112049978D01*
X203802670Y-112215760D01*
X203797219Y-112322100D01*
X203815215Y-112386994D01*
X203874658Y-112475337D01*
X204081885Y-112592581D01*
X204188225Y-112598033D01*
X204253119Y-112580036D01*
X204341462Y-112520594D01*
X204435257Y-112354812D01*
X204440709Y-112248472D01*
X204422712Y-112183578D01*
X204363270Y-112095235D01*
X151677142Y-70642857D02*
X151724761Y-70690476D01*
X151772380Y-70833333D01*
X151772380Y-70928571D01*
X151724761Y-71071428D01*
X151629523Y-71166666D01*
X151534285Y-71214285D01*
X151343809Y-71261904D01*
X151200952Y-71261904D01*
X151010476Y-71214285D01*
X150915238Y-71166666D01*
X150820000Y-71071428D01*
X150772380Y-70928571D01*
X150772380Y-70833333D01*
X150820000Y-70690476D01*
X150867619Y-70642857D01*
X150867619Y-70261904D02*
X150820000Y-70214285D01*
X150772380Y-70119047D01*
X150772380Y-69880952D01*
X150820000Y-69785714D01*
X150867619Y-69738095D01*
X150962857Y-69690476D01*
X151058095Y-69690476D01*
X151200952Y-69738095D01*
X151772380Y-70309523D01*
X151772380Y-69690476D01*
X150772380Y-68833333D02*
X150772380Y-69023809D01*
X150820000Y-69119047D01*
X150867619Y-69166666D01*
X151010476Y-69261904D01*
X151200952Y-69309523D01*
X151581904Y-69309523D01*
X151677142Y-69261904D01*
X151724761Y-69214285D01*
X151772380Y-69119047D01*
X151772380Y-68928571D01*
X151724761Y-68833333D01*
X151677142Y-68785714D01*
X151581904Y-68738095D01*
X151343809Y-68738095D01*
X151248571Y-68785714D01*
X151200952Y-68833333D01*
X151153333Y-68928571D01*
X151153333Y-69119047D01*
X151200952Y-69214285D01*
X151248571Y-69261904D01*
X151343809Y-69309523D01*
X193382694Y-72192560D02*
X192660910Y-72559107D01*
X192597556Y-72644689D01*
X192576660Y-72708708D01*
X192577325Y-72815185D01*
X192663572Y-72985017D01*
X192749153Y-73048371D01*
X192813172Y-73069267D01*
X192919650Y-73068602D01*
X193641434Y-72702054D01*
X193202612Y-74046464D02*
X192943873Y-73536969D01*
X193073242Y-73791716D02*
X193964858Y-73338923D01*
X193794361Y-73318692D01*
X193666322Y-73276899D01*
X193580741Y-73213545D01*
X109448635Y-109083305D02*
X109115169Y-109559403D01*
X109644075Y-109620272D02*
X108704382Y-109962293D01*
X108574089Y-109604314D01*
X108586263Y-109498533D01*
X108614723Y-109437499D01*
X108687931Y-109360179D01*
X108822173Y-109311319D01*
X108927954Y-109323493D01*
X108988988Y-109351953D01*
X109066309Y-109425161D01*
X109196602Y-109783139D01*
X109122901Y-108188360D02*
X109318341Y-108725327D01*
X109220621Y-108456843D02*
X108280929Y-108798864D01*
X108447744Y-108839498D01*
X108569812Y-108896419D01*
X108647132Y-108969627D01*
X108960034Y-107740887D02*
X108894888Y-107561898D01*
X108817567Y-107488690D01*
X108756533Y-107460230D01*
X108589718Y-107419595D01*
X108394442Y-107439995D01*
X108036464Y-107570288D01*
X107963256Y-107647609D01*
X107934796Y-107708643D01*
X107922622Y-107814424D01*
X107987768Y-107993413D01*
X108065089Y-108066621D01*
X108126123Y-108095081D01*
X108231904Y-108107255D01*
X108455641Y-108025822D01*
X108528848Y-107948501D01*
X108557309Y-107887467D01*
X108569483Y-107781686D01*
X108504336Y-107602697D01*
X108427016Y-107529489D01*
X108365982Y-107501029D01*
X108260200Y-107488855D01*
X138008159Y-120801017D02*
X138074763Y-120791063D01*
X138217925Y-120837759D01*
X138294483Y-120894408D01*
X138380994Y-121017662D01*
X138400902Y-121150870D01*
X138382531Y-121255752D01*
X138307511Y-121437193D01*
X138222536Y-121552029D01*
X138070958Y-121676820D01*
X137976029Y-121725053D01*
X137842821Y-121744961D01*
X137699660Y-121698265D01*
X137623102Y-121641615D01*
X137536590Y-121518362D01*
X137526636Y-121451758D01*
X137299231Y-120157961D02*
X137758578Y-120497860D01*
X137528905Y-120327911D02*
X136934082Y-121131767D01*
X137095614Y-121073580D01*
X137228822Y-121053672D01*
X137333705Y-121072043D01*
X135977109Y-120423645D02*
X136359898Y-120706894D01*
X136681426Y-120352430D01*
X136614822Y-120362384D01*
X136509940Y-120344013D01*
X136318545Y-120202389D01*
X136270312Y-120107460D01*
X136260358Y-120040856D01*
X136278729Y-119935973D01*
X136420354Y-119744579D01*
X136515282Y-119696346D01*
X136581886Y-119686392D01*
X136686769Y-119704763D01*
X136878163Y-119846387D01*
X136926396Y-119941316D01*
X136936350Y-120007920D01*
X184283527Y-143371971D02*
X184042031Y-142854080D01*
X185069087Y-142690407D02*
X184162779Y-143113025D01*
X184807466Y-142129360D02*
X183901158Y-142551978D01*
X183740161Y-142206718D01*
X183743069Y-142100278D01*
X183766102Y-142036996D01*
X183832292Y-141953589D01*
X183961764Y-141893215D01*
X184068204Y-141896123D01*
X184131486Y-141919156D01*
X184214893Y-141985346D01*
X184375891Y-142330606D01*
X183584979Y-141648578D02*
X183521697Y-141625545D01*
X183438290Y-141559355D01*
X183337667Y-141343567D01*
X183340575Y-141237128D01*
X183363608Y-141173846D01*
X183429798Y-141090439D01*
X183516113Y-141050189D01*
X183665711Y-141032973D01*
X184425097Y-141309367D01*
X184163476Y-140748319D01*
X183116295Y-140868835D02*
X182854675Y-140307787D01*
X183340808Y-140448892D01*
X183280433Y-140319420D01*
X183283342Y-140212980D01*
X183306374Y-140149698D01*
X183372565Y-140066291D01*
X183588352Y-139965668D01*
X183694792Y-139968576D01*
X183758074Y-139991609D01*
X183841481Y-140057799D01*
X183962229Y-140316744D01*
X183959321Y-140423184D01*
X183936288Y-140486466D01*
X159353333Y-64079380D02*
X158877142Y-64079380D01*
X158877142Y-63079380D01*
X159686666Y-64079380D02*
X159686666Y-63079380D01*
X159924761Y-63079380D01*
X160067619Y-63127000D01*
X160162857Y-63222238D01*
X160210476Y-63317476D01*
X160258095Y-63507952D01*
X160258095Y-63650809D01*
X160210476Y-63841285D01*
X160162857Y-63936523D01*
X160067619Y-64031761D01*
X159924761Y-64079380D01*
X159686666Y-64079380D01*
X161210476Y-64079380D02*
X160639047Y-64079380D01*
X160924761Y-64079380D02*
X160924761Y-63079380D01*
X160829523Y-63222238D01*
X160734285Y-63317476D01*
X160639047Y-63365095D01*
X140916693Y-39448635D02*
X140440595Y-39115169D01*
X140379726Y-39644075D02*
X140037705Y-38704382D01*
X140395684Y-38574089D01*
X140501465Y-38586263D01*
X140562499Y-38614723D01*
X140639819Y-38687931D01*
X140688679Y-38822173D01*
X140676505Y-38927954D01*
X140648045Y-38988988D01*
X140574837Y-39066309D01*
X140216859Y-39196602D01*
X141811638Y-39122901D02*
X141274671Y-39318341D01*
X141543155Y-39220621D02*
X141201134Y-38280929D01*
X141160500Y-38447744D01*
X141103579Y-38569812D01*
X141030371Y-38647132D01*
X142051332Y-37971482D02*
X142140827Y-37938908D01*
X142246608Y-37951082D01*
X142307642Y-37979543D01*
X142384963Y-38052751D01*
X142494857Y-38215453D01*
X142576290Y-38439190D01*
X142596690Y-38634465D01*
X142584516Y-38740247D01*
X142556055Y-38801280D01*
X142482847Y-38878601D01*
X142393353Y-38911174D01*
X142287571Y-38899000D01*
X142226537Y-38870540D01*
X142149217Y-38797332D01*
X142039323Y-38634630D01*
X141957890Y-38410893D01*
X141937490Y-38215618D01*
X141949664Y-38109836D01*
X141978125Y-38048802D01*
X142051332Y-37971482D01*
X173870202Y-36119856D02*
X174018099Y-35567898D01*
X174910076Y-36102696D02*
X173944150Y-35843877D01*
X175070298Y-35504742D02*
X174104372Y-35245923D01*
X174202969Y-34877951D01*
X174273615Y-34798283D01*
X174331937Y-34764611D01*
X174436254Y-34743264D01*
X174574244Y-34780238D01*
X174653912Y-34850884D01*
X174687584Y-34909205D01*
X174708931Y-35013523D01*
X174610333Y-35381495D01*
X174338541Y-34371990D02*
X174511087Y-33728039D01*
X175366091Y-34400827D01*
X124777972Y-49024130D02*
X124216535Y-48873609D01*
X124340233Y-49391437D02*
X123697445Y-48625393D01*
X123989271Y-48380521D01*
X124092837Y-48355782D01*
X124159924Y-48361651D01*
X124257620Y-48403999D01*
X124349447Y-48513434D01*
X124374187Y-48616999D01*
X124368317Y-48684087D01*
X124325970Y-48781783D01*
X124034143Y-49026654D01*
X125507538Y-48411951D02*
X125069799Y-48779259D01*
X125288669Y-48595605D02*
X124645881Y-47829561D01*
X124664751Y-48000213D01*
X124653012Y-48134388D01*
X124610665Y-48232084D01*
X125120099Y-47431644D02*
X125594317Y-47033728D01*
X125583840Y-47539817D01*
X125693275Y-47447990D01*
X125796841Y-47423251D01*
X125863928Y-47429120D01*
X125961624Y-47471468D01*
X126114669Y-47653859D01*
X126139408Y-47757425D01*
X126133539Y-47824512D01*
X126091191Y-47922208D01*
X125872321Y-48105862D01*
X125768756Y-48130602D01*
X125701669Y-48124732D01*
X216494451Y-105704578D02*
X215942494Y-105556681D01*
X216477292Y-104664704D02*
X216218473Y-105630630D01*
X215879337Y-104504483D02*
X215620518Y-105470408D01*
X215252547Y-105371811D01*
X215172878Y-105301165D01*
X215139207Y-105242844D01*
X215117860Y-105138526D01*
X215154834Y-105000537D01*
X215225480Y-104920868D01*
X215283801Y-104887197D01*
X215388119Y-104865850D01*
X215756090Y-104964447D01*
X214725239Y-105131921D02*
X214666917Y-105165593D01*
X214562600Y-105186940D01*
X214332617Y-105125316D01*
X214252949Y-105054670D01*
X214219277Y-104996349D01*
X214197930Y-104892032D01*
X214222580Y-104800039D01*
X214305550Y-104674374D01*
X215005405Y-104270313D01*
X214407451Y-104110092D01*
X213707596Y-104514153D02*
X213787265Y-104584799D01*
X213820936Y-104643120D01*
X213842283Y-104747437D01*
X213829959Y-104793434D01*
X213759313Y-104873102D01*
X213700992Y-104906774D01*
X213596674Y-104928121D01*
X213412688Y-104878822D01*
X213333020Y-104808176D01*
X213299348Y-104749855D01*
X213278001Y-104645537D01*
X213290326Y-104599541D01*
X213360972Y-104519873D01*
X213419293Y-104486201D01*
X213523610Y-104464854D01*
X213707596Y-104514153D01*
X213811914Y-104492806D01*
X213870235Y-104459134D01*
X213940881Y-104379466D01*
X213990180Y-104195480D01*
X213968833Y-104091162D01*
X213935161Y-104032841D01*
X213855493Y-103962195D01*
X213671507Y-103912896D01*
X213567189Y-103934243D01*
X213508868Y-103967915D01*
X213438222Y-104047583D01*
X213388923Y-104231569D01*
X213410270Y-104335887D01*
X213443942Y-104394208D01*
X213523610Y-104464854D01*
X171849025Y-54061735D02*
X171788757Y-54091784D01*
X171638173Y-54091613D01*
X171547856Y-54061393D01*
X171427491Y-53970906D01*
X171367394Y-53850370D01*
X171352455Y-53744944D01*
X171367736Y-53549201D01*
X171413065Y-53413726D01*
X171518663Y-53248203D01*
X171594040Y-53172996D01*
X171714576Y-53112899D01*
X171865161Y-53113070D01*
X171955478Y-53143289D01*
X172075843Y-53233777D01*
X172105891Y-53294045D01*
X172994118Y-53490813D02*
X172542535Y-53339716D01*
X172346279Y-53776189D01*
X172406547Y-53746140D01*
X172511974Y-53731202D01*
X172737765Y-53806750D01*
X172812972Y-53882128D01*
X172843020Y-53942396D01*
X172857959Y-54047822D01*
X172782410Y-54273614D01*
X172707033Y-54348821D01*
X172646765Y-54378869D01*
X172541338Y-54393808D01*
X172315547Y-54318259D01*
X172240340Y-54242881D01*
X172210292Y-54182613D01*
X112806250Y-105769363D02*
X112777790Y-105830397D01*
X112659835Y-105924004D01*
X112570340Y-105956578D01*
X112419812Y-105960690D01*
X112297744Y-105903769D01*
X112220423Y-105830561D01*
X112110529Y-105667859D01*
X112061669Y-105533617D01*
X112041270Y-105338341D01*
X112053444Y-105232560D01*
X112110365Y-105110492D01*
X112228320Y-105016885D01*
X112317815Y-104984312D01*
X112468343Y-104980199D01*
X112529377Y-105008660D01*
X113733769Y-105533124D02*
X113196802Y-105728564D01*
X113465286Y-105630844D02*
X113123265Y-104691152D01*
X113082631Y-104857967D01*
X113025710Y-104980035D01*
X112952502Y-105057355D01*
X114311207Y-104613502D02*
X114539220Y-105239964D01*
X113957177Y-104336958D02*
X113977741Y-105089600D01*
X114559455Y-104877873D01*
X193251173Y-113804859D02*
X193241219Y-113738255D01*
X193287915Y-113595093D01*
X193344564Y-113518535D01*
X193467818Y-113432024D01*
X193601026Y-113412116D01*
X193705908Y-113430487D01*
X193887349Y-113505507D01*
X194002185Y-113590482D01*
X194126976Y-113742060D01*
X194175209Y-113836989D01*
X194195117Y-113970197D01*
X194148421Y-114113358D01*
X194091771Y-114189916D01*
X193968518Y-114276428D01*
X193901914Y-114286382D01*
X193780198Y-114610984D02*
X193411974Y-115108610D01*
X193304017Y-114614058D01*
X193219042Y-114728895D01*
X193124114Y-114777128D01*
X193057510Y-114787082D01*
X192952627Y-114768711D01*
X192761233Y-114627086D01*
X192713000Y-114532158D01*
X192703046Y-114465554D01*
X192721417Y-114360671D01*
X192891366Y-114130998D01*
X192986295Y-114082765D01*
X193052899Y-114072811D01*
X192727565Y-115313032D02*
X192822494Y-115264799D01*
X192889098Y-115254845D01*
X192993980Y-115273216D01*
X193032259Y-115301541D01*
X193080492Y-115396470D01*
X193090446Y-115463074D01*
X193072075Y-115567956D01*
X192958776Y-115721072D01*
X192863847Y-115769305D01*
X192797243Y-115779259D01*
X192692361Y-115760888D01*
X192654082Y-115732563D01*
X192605849Y-115637634D01*
X192595895Y-115571031D01*
X192614266Y-115466148D01*
X192727565Y-115313032D01*
X192745936Y-115208150D01*
X192735982Y-115141546D01*
X192687749Y-115046617D01*
X192534634Y-114933318D01*
X192429751Y-114914947D01*
X192363147Y-114924901D01*
X192268218Y-114973134D01*
X192154919Y-115126249D01*
X192136548Y-115231132D01*
X192146502Y-115297736D01*
X192194735Y-115392664D01*
X192347850Y-115505964D01*
X192452733Y-115524335D01*
X192519337Y-115514381D01*
X192614266Y-115466148D01*
X103222078Y-104646659D02*
X103774036Y-104498763D01*
X103756876Y-105538637D02*
X103498057Y-104572711D01*
X104354830Y-105378415D02*
X104096011Y-104412490D01*
X104463983Y-104313892D01*
X104568300Y-104335239D01*
X104626622Y-104368911D01*
X104697268Y-104448579D01*
X104734242Y-104586568D01*
X104712895Y-104690886D01*
X104679223Y-104749207D01*
X104599555Y-104819853D01*
X104231583Y-104918451D01*
X105826717Y-104984025D02*
X105274759Y-105131921D01*
X105550738Y-105057973D02*
X105291919Y-104092047D01*
X105236900Y-104254686D01*
X105169557Y-104371328D01*
X105089889Y-104441974D01*
X106441831Y-103783929D02*
X105981866Y-103907176D01*
X106059117Y-104379466D01*
X106092789Y-104321144D01*
X106172457Y-104250499D01*
X106402439Y-104188875D01*
X106506757Y-104210222D01*
X106565078Y-104243894D01*
X106635724Y-104323562D01*
X106697348Y-104553544D01*
X106676001Y-104657862D01*
X106642329Y-104716183D01*
X106562661Y-104786829D01*
X106332678Y-104848453D01*
X106228361Y-104827106D01*
X106170039Y-104793434D01*
X184402380Y-91238095D02*
X185211904Y-91238095D01*
X185307142Y-91190476D01*
X185354761Y-91142857D01*
X185402380Y-91047619D01*
X185402380Y-90857142D01*
X185354761Y-90761904D01*
X185307142Y-90714285D01*
X185211904Y-90666666D01*
X184402380Y-90666666D01*
X185402380Y-89666666D02*
X185402380Y-90238095D01*
X185402380Y-89952380D02*
X184402380Y-89952380D01*
X184545238Y-90047619D01*
X184640476Y-90142857D01*
X184688095Y-90238095D01*
X184402380Y-88809523D02*
X184402380Y-89000000D01*
X184450000Y-89095238D01*
X184497619Y-89142857D01*
X184640476Y-89238095D01*
X184830952Y-89285714D01*
X185211904Y-89285714D01*
X185307142Y-89238095D01*
X185354761Y-89190476D01*
X185402380Y-89095238D01*
X185402380Y-88904761D01*
X185354761Y-88809523D01*
X185307142Y-88761904D01*
X185211904Y-88714285D01*
X184973809Y-88714285D01*
X184878571Y-88761904D01*
X184830952Y-88809523D01*
X184783333Y-88904761D01*
X184783333Y-89095238D01*
X184830952Y-89190476D01*
X184878571Y-89238095D01*
X184973809Y-89285714D01*
X144393502Y-43253723D02*
X144332468Y-43225263D01*
X144238860Y-43107307D01*
X144206287Y-43017813D01*
X144202174Y-42867284D01*
X144259095Y-42745216D01*
X144332303Y-42667896D01*
X144495006Y-42558002D01*
X144629248Y-42509142D01*
X144824523Y-42488742D01*
X144930305Y-42500916D01*
X145052372Y-42557838D01*
X145145980Y-42675793D01*
X145178553Y-42765287D01*
X145182666Y-42915816D01*
X145154205Y-42976850D01*
X145036414Y-43627824D02*
X145048588Y-43522042D01*
X145077049Y-43461008D01*
X145150257Y-43383688D01*
X145195004Y-43367401D01*
X145300785Y-43379575D01*
X145361819Y-43408036D01*
X145439140Y-43481244D01*
X145504286Y-43660233D01*
X145492113Y-43766014D01*
X145463652Y-43827048D01*
X145390444Y-43904368D01*
X145345697Y-43920655D01*
X145239916Y-43908481D01*
X145178882Y-43880021D01*
X145101561Y-43806813D01*
X145036414Y-43627824D01*
X144959094Y-43554616D01*
X144898060Y-43526155D01*
X144792279Y-43513981D01*
X144613290Y-43579128D01*
X144540082Y-43656449D01*
X144511621Y-43717482D01*
X144499447Y-43823264D01*
X144564594Y-44002253D01*
X144641914Y-44075461D01*
X144702948Y-44103921D01*
X144808730Y-44116095D01*
X144987719Y-44050948D01*
X145060927Y-43973628D01*
X145089387Y-43912594D01*
X145101561Y-43806813D01*
X186870471Y-43125643D02*
X186819892Y-42546583D01*
X186375600Y-42839928D02*
X186875600Y-41973903D01*
X187205514Y-42164379D01*
X187264183Y-42253237D01*
X187281613Y-42318286D01*
X187275233Y-42424574D01*
X187203805Y-42548292D01*
X187114946Y-42606961D01*
X187049898Y-42624391D01*
X186943609Y-42618011D01*
X186613695Y-42427535D01*
X187659147Y-42426284D02*
X188236497Y-42759617D01*
X187365343Y-43411357D01*
X184267640Y-122914943D02*
X184278754Y-122848523D01*
X184367404Y-122726798D01*
X184444939Y-122671493D01*
X184588894Y-122627303D01*
X184721734Y-122649533D01*
X184815806Y-122699415D01*
X184965183Y-122826832D01*
X185048141Y-122943134D01*
X185119984Y-123125856D01*
X185136521Y-123231044D01*
X185114292Y-123363884D01*
X185025642Y-123485608D01*
X184948107Y-123540914D01*
X184804152Y-123585104D01*
X184737732Y-123573989D01*
X184521666Y-123845091D02*
X184017689Y-124204574D01*
X184067841Y-123700867D01*
X183951539Y-123783825D01*
X183846351Y-123800362D01*
X183779932Y-123789247D01*
X183685859Y-123739365D01*
X183547596Y-123545528D01*
X183531059Y-123440341D01*
X183542174Y-123373921D01*
X183592056Y-123279848D01*
X183824660Y-123113933D01*
X183929848Y-123097396D01*
X183996268Y-123108511D01*
X183746318Y-124398142D02*
X183203574Y-124785277D01*
X182971778Y-123722289D01*
X179083305Y-140551363D02*
X179559403Y-140884829D01*
X179620272Y-140355923D02*
X179962293Y-141295616D01*
X179604314Y-141425909D01*
X179498533Y-141413735D01*
X179437499Y-141385275D01*
X179360179Y-141312067D01*
X179311319Y-141177825D01*
X179323493Y-141072044D01*
X179351953Y-141011010D01*
X179425161Y-140933689D01*
X179783139Y-140803396D01*
X179034774Y-141531855D02*
X179006313Y-141592889D01*
X178933105Y-141670209D01*
X178709369Y-141751643D01*
X178603588Y-141739469D01*
X178542554Y-141711008D01*
X178465233Y-141637800D01*
X178432660Y-141548306D01*
X178428547Y-141397777D01*
X178770074Y-140665370D01*
X178188360Y-140877097D01*
X177846833Y-141609504D02*
X177952614Y-141621678D01*
X178013648Y-141650139D01*
X178090968Y-141723347D01*
X178107255Y-141768094D01*
X178095081Y-141873875D01*
X178066621Y-141934909D01*
X177993413Y-142012230D01*
X177814424Y-142077376D01*
X177708643Y-142065202D01*
X177647609Y-142036742D01*
X177570288Y-141963534D01*
X177554001Y-141918787D01*
X177566175Y-141813005D01*
X177594636Y-141751971D01*
X177667844Y-141674651D01*
X177846833Y-141609504D01*
X177920041Y-141532184D01*
X177948501Y-141471150D01*
X177960675Y-141365368D01*
X177895528Y-141186379D01*
X177818208Y-141113171D01*
X177757174Y-141084711D01*
X177651393Y-141072537D01*
X177472404Y-141137684D01*
X177399196Y-141215004D01*
X177370735Y-141276038D01*
X177358561Y-141381819D01*
X177423708Y-141560808D01*
X177501029Y-141634016D01*
X177562062Y-141662477D01*
X177667844Y-141674651D01*
X135732358Y-57085055D02*
X135721244Y-57151475D01*
X135632594Y-57273200D01*
X135555059Y-57328505D01*
X135411104Y-57372695D01*
X135278264Y-57350465D01*
X135184192Y-57300583D01*
X135034815Y-57173166D01*
X134951857Y-57056864D01*
X134880014Y-56874142D01*
X134863477Y-56768954D01*
X134885706Y-56636114D01*
X134974356Y-56514390D01*
X135051891Y-56459084D01*
X135195846Y-56414894D01*
X135262266Y-56426009D01*
X135478332Y-56154907D02*
X135982309Y-55795424D01*
X135932157Y-56299131D01*
X136048459Y-56216173D01*
X136153647Y-56199636D01*
X136220066Y-56210751D01*
X136314139Y-56260633D01*
X136452402Y-56454470D01*
X136468939Y-56559657D01*
X136457824Y-56626077D01*
X136407942Y-56720150D01*
X136175338Y-56886065D01*
X136070150Y-56902602D01*
X136003730Y-56891487D01*
X137338360Y-56056489D02*
X136873151Y-56388319D01*
X137105755Y-56222404D02*
X136525052Y-55408289D01*
X136530475Y-55579896D01*
X136508245Y-55712736D01*
X136458363Y-55806808D01*
X187571539Y-136469594D02*
X188098309Y-136715320D01*
X188066410Y-136183879D02*
X188566410Y-137049905D01*
X188236496Y-137240381D01*
X188130208Y-137246761D01*
X188065159Y-137229331D01*
X187976301Y-137170662D01*
X187904872Y-137046944D01*
X187898492Y-136940656D01*
X187915922Y-136875607D01*
X187974591Y-136786748D01*
X188304506Y-136596272D01*
X187694005Y-137443617D02*
X187676575Y-137508665D01*
X187617906Y-137597524D01*
X187411710Y-137716571D01*
X187305422Y-137722951D01*
X187240373Y-137705521D01*
X187151514Y-137646852D01*
X187103895Y-137564374D01*
X187073706Y-137416846D01*
X187282864Y-136636260D01*
X186746753Y-136945784D01*
X186334359Y-137183879D02*
X186169402Y-137279117D01*
X186110733Y-137367976D01*
X186093303Y-137433025D01*
X186082253Y-137604361D01*
X186136252Y-137793128D01*
X186326728Y-138123043D01*
X186415587Y-138181712D01*
X186480636Y-138199142D01*
X186586924Y-138192762D01*
X186751881Y-138097524D01*
X186810550Y-138008665D01*
X186827980Y-137943617D01*
X186821600Y-137837328D01*
X186702552Y-137631132D01*
X186613694Y-137572463D01*
X186548645Y-137555033D01*
X186442357Y-137561413D01*
X186277400Y-137656651D01*
X186218731Y-137745509D01*
X186201301Y-137810558D01*
X186207681Y-137916846D01*
X194601895Y-48503778D02*
X194652636Y-47924733D01*
X194164155Y-48136471D02*
X194806942Y-47370426D01*
X195098769Y-47615298D01*
X195141117Y-47712994D01*
X195146986Y-47780081D01*
X195122246Y-47883647D01*
X195030420Y-47993082D01*
X194932723Y-48035430D01*
X194865636Y-48041299D01*
X194762071Y-48016559D01*
X194470244Y-47771688D01*
X195937770Y-48319303D02*
X195572987Y-48013214D01*
X195230419Y-48347388D01*
X195297507Y-48341519D01*
X195401072Y-48366258D01*
X195583464Y-48519303D01*
X195625811Y-48616999D01*
X195631681Y-48684087D01*
X195606941Y-48787652D01*
X195453896Y-48970044D01*
X195356200Y-49012391D01*
X195289113Y-49018261D01*
X195185547Y-48993521D01*
X195003156Y-48840476D01*
X194960808Y-48742780D01*
X194954939Y-48675693D01*
X106579820Y-76253043D02*
X106027863Y-76105146D01*
X106562661Y-75213169D02*
X106303842Y-76179095D01*
X105964706Y-75052948D02*
X105705887Y-76018873D01*
X105337916Y-75920276D01*
X105258247Y-75849630D01*
X105224576Y-75791309D01*
X105203229Y-75686991D01*
X105240203Y-75549002D01*
X105310849Y-75469333D01*
X105369170Y-75435662D01*
X105473488Y-75414315D01*
X105841459Y-75512912D01*
X104492820Y-74658557D02*
X105044777Y-74806453D01*
X104768798Y-74732505D02*
X104509979Y-75698431D01*
X104638946Y-75585091D01*
X104755589Y-75517747D01*
X104859906Y-75496400D01*
X103492337Y-75080662D02*
X103664883Y-74436712D01*
X103623722Y-75510258D02*
X104038575Y-74881934D01*
X103440621Y-74721713D01*
X198979851Y-102364587D02*
X198949803Y-102304319D01*
X198949973Y-102153734D01*
X198980193Y-102063418D01*
X199070680Y-101943053D01*
X199191217Y-101882956D01*
X199296643Y-101868017D01*
X199492386Y-101883297D01*
X199627860Y-101928627D01*
X199793384Y-102034224D01*
X199868591Y-102109602D01*
X199928688Y-102230138D01*
X199928517Y-102380722D01*
X199898297Y-102471039D01*
X199807810Y-102591404D01*
X199747542Y-102621452D01*
X199732090Y-102967780D02*
X199535663Y-103554837D01*
X199280165Y-103117851D01*
X199234836Y-103253326D01*
X199159458Y-103328533D01*
X199099190Y-103358582D01*
X198993764Y-103373520D01*
X198767973Y-103297972D01*
X198692766Y-103222594D01*
X198662717Y-103162326D01*
X198647779Y-103056900D01*
X198738437Y-102785950D01*
X198813815Y-102710743D01*
X198874083Y-102680695D01*
X198436242Y-103689115D02*
X198375803Y-103869748D01*
X198390742Y-103975175D01*
X198420790Y-104035443D01*
X198526046Y-104171089D01*
X198691569Y-104276686D01*
X199052835Y-104397564D01*
X199158262Y-104382625D01*
X199218530Y-104352576D01*
X199293907Y-104277370D01*
X199354346Y-104096737D01*
X199339408Y-103991310D01*
X199309359Y-103931042D01*
X199234152Y-103855664D01*
X199008361Y-103780116D01*
X198902935Y-103795055D01*
X198842667Y-103825103D01*
X198767289Y-103900310D01*
X198706850Y-104080943D01*
X198721789Y-104186369D01*
X198751837Y-104246637D01*
X198827044Y-104322015D01*
X210190180Y-65991703D02*
X210708070Y-65750207D01*
X210871743Y-66777263D02*
X210449125Y-65870955D01*
X211432791Y-66515642D02*
X211010172Y-65609334D01*
X211355432Y-65448337D01*
X211461872Y-65451245D01*
X211525154Y-65474278D01*
X211608561Y-65540468D01*
X211668935Y-65669941D01*
X211666027Y-65776380D01*
X211642994Y-65839663D01*
X211576804Y-65923069D01*
X211231544Y-66084067D01*
X211913572Y-65293156D02*
X211936605Y-65229873D01*
X212002795Y-65146467D01*
X212218583Y-65045843D01*
X212325022Y-65048751D01*
X212388305Y-65071784D01*
X212471711Y-65137975D01*
X212511961Y-65224290D01*
X212529177Y-65373887D01*
X212252783Y-66133273D01*
X212813831Y-65871652D01*
X182374629Y-59482230D02*
X182308025Y-59492184D01*
X182164863Y-59445488D01*
X182088305Y-59388839D01*
X182001794Y-59265585D01*
X181981886Y-59132377D01*
X182000257Y-59027495D01*
X182075277Y-58846054D01*
X182160252Y-58731217D01*
X182311830Y-58606427D01*
X182406759Y-58558194D01*
X182539967Y-58538286D01*
X182683128Y-58584982D01*
X182759686Y-58641631D01*
X182846198Y-58764885D01*
X182856152Y-58831489D01*
X183180754Y-58953205D02*
X183678380Y-59321429D01*
X183183828Y-59429386D01*
X183298665Y-59514361D01*
X183346898Y-59609289D01*
X183356852Y-59675893D01*
X183338481Y-59780776D01*
X183196856Y-59972170D01*
X183101928Y-60020403D01*
X183035324Y-60030357D01*
X182930441Y-60011986D01*
X182700768Y-59842037D01*
X182652535Y-59747108D01*
X182642581Y-59680504D01*
X123783660Y-56393838D02*
X123216191Y-56267950D01*
X123362358Y-56779889D02*
X122686768Y-56042612D01*
X122967636Y-55785244D01*
X123070024Y-55756011D01*
X123137303Y-55758948D01*
X123236753Y-55796994D01*
X123333266Y-55902319D01*
X123362500Y-56004707D01*
X123359562Y-56071987D01*
X123321516Y-56171437D01*
X123040649Y-56428805D01*
X124485829Y-55750418D02*
X124064527Y-56136470D01*
X124275178Y-55943444D02*
X123599588Y-55206167D01*
X123625884Y-55375834D01*
X123620009Y-55510393D01*
X123581963Y-55609843D01*
X124477299Y-54401893D02*
X124126214Y-54723602D01*
X124412816Y-55106858D01*
X124415753Y-55039578D01*
X124453799Y-54940128D01*
X124629341Y-54779273D01*
X124731729Y-54750040D01*
X124799008Y-54752977D01*
X124898459Y-54791023D01*
X125059314Y-54966565D01*
X125088547Y-55068953D01*
X125085610Y-55136233D01*
X125047564Y-55235683D01*
X124872021Y-55396538D01*
X124769634Y-55425771D01*
X124702354Y-55422834D01*
X182497657Y-120433519D02*
X182508771Y-120367099D01*
X182597421Y-120245374D01*
X182674956Y-120190069D01*
X182818911Y-120145879D01*
X182951751Y-120168109D01*
X183045823Y-120217991D01*
X183195200Y-120345408D01*
X183278158Y-120461710D01*
X183350001Y-120644432D01*
X183366538Y-120749620D01*
X183344309Y-120882460D01*
X183255659Y-121004184D01*
X183178124Y-121059490D01*
X183034169Y-121103680D01*
X182967749Y-121092565D01*
X181667003Y-120909035D02*
X182132212Y-120577204D01*
X181899608Y-120743119D02*
X182480311Y-121557235D01*
X182474888Y-121385628D01*
X182497118Y-121252788D01*
X182547000Y-121158715D01*
X181279329Y-121185560D02*
X181124260Y-121296170D01*
X181074377Y-121390242D01*
X181063263Y-121456662D01*
X181068685Y-121628269D01*
X181140528Y-121810992D01*
X181361748Y-122121131D01*
X181455821Y-122171013D01*
X181522241Y-122182128D01*
X181627428Y-122165590D01*
X181782497Y-122054980D01*
X181832380Y-121960908D01*
X181843495Y-121894488D01*
X181826957Y-121789301D01*
X181688694Y-121595464D01*
X181594622Y-121545581D01*
X181528202Y-121534466D01*
X181423015Y-121551004D01*
X181267945Y-121661614D01*
X181218063Y-121755687D01*
X181206948Y-121822107D01*
X181223486Y-121927294D01*
X132748297Y-63753970D02*
X133319947Y-64327158D01*
X133420917Y-64360965D01*
X133488261Y-64361056D01*
X133589321Y-64327519D01*
X133724189Y-64193013D01*
X133757996Y-64092043D01*
X133758087Y-64024700D01*
X133724551Y-63923640D01*
X133152900Y-63350452D01*
X133827238Y-62677922D02*
X133490069Y-63014187D01*
X133792617Y-63384983D01*
X133792708Y-63317639D01*
X133826515Y-63216669D01*
X133995100Y-63048537D01*
X134096160Y-63015000D01*
X134163504Y-63015091D01*
X134264474Y-63048898D01*
X134432606Y-63217483D01*
X134466142Y-63318543D01*
X134466052Y-63385887D01*
X134432244Y-63486857D01*
X134263660Y-63654989D01*
X134162599Y-63688525D01*
X134095256Y-63688435D01*
X112887547Y-63541920D02*
X112308488Y-63592499D01*
X112601833Y-64036791D02*
X111735808Y-63536791D01*
X111926284Y-63206877D01*
X112015142Y-63148208D01*
X112080191Y-63130778D01*
X112186479Y-63137158D01*
X112310197Y-63208586D01*
X112368866Y-63297445D01*
X112386296Y-63362493D01*
X112379916Y-63468782D01*
X112189440Y-63798696D01*
X113363738Y-62717133D02*
X113078024Y-63212005D01*
X113220881Y-62964569D02*
X112354855Y-62464569D01*
X112430954Y-62618477D01*
X112465814Y-62748574D01*
X112459434Y-62854862D01*
X112926284Y-61474826D02*
X112831046Y-61639783D01*
X112824666Y-61746071D01*
X112842096Y-61811120D01*
X112918195Y-61965027D01*
X113059342Y-62101505D01*
X113389257Y-62291981D01*
X113495545Y-62298361D01*
X113560594Y-62280931D01*
X113649452Y-62222262D01*
X113744690Y-62057305D01*
X113751070Y-61951016D01*
X113733640Y-61885968D01*
X113674971Y-61797109D01*
X113468775Y-61678062D01*
X113362486Y-61671682D01*
X113297438Y-61689112D01*
X113208579Y-61747781D01*
X113113341Y-61912738D01*
X113106961Y-62019026D01*
X113124391Y-62084075D01*
X113183060Y-62172933D01*
X200497472Y-118911544D02*
X200563578Y-118898694D01*
X200708640Y-118939101D01*
X200787596Y-118992357D01*
X200879402Y-119111720D01*
X200905102Y-119243932D01*
X200891323Y-119349517D01*
X200824288Y-119534057D01*
X200744403Y-119652491D01*
X200598412Y-119783774D01*
X200505678Y-119836102D01*
X200373466Y-119861802D01*
X200228403Y-119821395D01*
X200149447Y-119768138D01*
X200057642Y-119648776D01*
X200044792Y-119582669D01*
X199728968Y-119369644D02*
X199662862Y-119382493D01*
X199557278Y-119368715D01*
X199359888Y-119235574D01*
X199307560Y-119142839D01*
X199294710Y-119076733D01*
X199308489Y-118971149D01*
X199361745Y-118892193D01*
X199481108Y-118800387D01*
X200274383Y-118646190D01*
X199761169Y-118300023D01*
X198677770Y-118373407D02*
X199050565Y-117820715D01*
X198662134Y-118822372D02*
X199258947Y-118363343D01*
X198745734Y-118017176D01*
X120610245Y-51384696D02*
X120206184Y-50980635D01*
X121115322Y-50475558D02*
X120408215Y-51182665D01*
X120677589Y-50037826D02*
X119970482Y-50744932D01*
X119701108Y-50475558D01*
X119667436Y-50374543D01*
X119667436Y-50307200D01*
X119701108Y-50206184D01*
X119802123Y-50105169D01*
X119903139Y-50071497D01*
X119970482Y-50071497D01*
X120071497Y-50105169D01*
X120340871Y-50374543D01*
X119600093Y-48960329D02*
X120004154Y-49364390D01*
X119802123Y-49162360D02*
X119095016Y-49869467D01*
X119263375Y-49835795D01*
X119398062Y-49835795D01*
X119499077Y-49869467D01*
X118926658Y-48286894D02*
X119330719Y-48690955D01*
X119128688Y-48488925D02*
X118421581Y-49196032D01*
X118589940Y-49162360D01*
X118724627Y-49162360D01*
X118825642Y-49196032D01*
X175769363Y-137193748D02*
X175830397Y-137222208D01*
X175924004Y-137340163D01*
X175956578Y-137429658D01*
X175960690Y-137580186D01*
X175903769Y-137702254D01*
X175830561Y-137779575D01*
X175667859Y-137889469D01*
X175533617Y-137938329D01*
X175338341Y-137958728D01*
X175232560Y-137946554D01*
X175110492Y-137889633D01*
X175016885Y-137771678D01*
X174984312Y-137682183D01*
X174980199Y-137531655D01*
X175008660Y-137470621D01*
X174878366Y-137112643D02*
X174817332Y-137084182D01*
X174740012Y-137010974D01*
X174658578Y-136787238D01*
X174670752Y-136681457D01*
X174699213Y-136620423D01*
X174772421Y-136543102D01*
X174861915Y-136510529D01*
X175012444Y-136506416D01*
X175744851Y-136847943D01*
X175533124Y-136266229D01*
X174381705Y-136026535D02*
X174349131Y-135937040D01*
X174361305Y-135831259D01*
X174389766Y-135770225D01*
X174462974Y-135692904D01*
X174625676Y-135583010D01*
X174849413Y-135501577D01*
X175044688Y-135481177D01*
X175150470Y-135493351D01*
X175211503Y-135521812D01*
X175288824Y-135595020D01*
X175321397Y-135684514D01*
X175309223Y-135790296D01*
X175280763Y-135851330D01*
X175207555Y-135928650D01*
X175044853Y-136038544D01*
X174821116Y-136119977D01*
X174625841Y-136140377D01*
X174520059Y-136128203D01*
X174459025Y-136099742D01*
X174381705Y-136026535D01*
X142124869Y-140991104D02*
X142275233Y-141552583D01*
X142661836Y-141186544D02*
X142319816Y-142126236D01*
X141961838Y-141995943D01*
X141888630Y-141918622D01*
X141860169Y-141857588D01*
X141847996Y-141751807D01*
X141896856Y-141617565D01*
X141974176Y-141544357D01*
X142035210Y-141515897D01*
X142140991Y-141503723D01*
X142498969Y-141634016D01*
X141457444Y-141711008D02*
X141396410Y-141739469D01*
X141290629Y-141751643D01*
X141066893Y-141670209D01*
X140993685Y-141592889D01*
X140965224Y-141531855D01*
X140953050Y-141426074D01*
X140985624Y-141336579D01*
X141079231Y-141218624D01*
X141811638Y-140877097D01*
X141229924Y-140665370D01*
X140082453Y-141311903D02*
X140261442Y-141377049D01*
X140367223Y-141364875D01*
X140428257Y-141336415D01*
X140566611Y-141234746D01*
X140676505Y-141072044D01*
X140806799Y-140714066D01*
X140794625Y-140608285D01*
X140766164Y-140547251D01*
X140692956Y-140469930D01*
X140513967Y-140404783D01*
X140408186Y-140416957D01*
X140347152Y-140445418D01*
X140269832Y-140518626D01*
X140188398Y-140742362D01*
X140200572Y-140848143D01*
X140229033Y-140909177D01*
X140302241Y-140986498D01*
X140481230Y-141051644D01*
X140587011Y-141039471D01*
X140648045Y-141011010D01*
X140725365Y-140937802D01*
X151709380Y-75642857D02*
X151233190Y-75976190D01*
X151709380Y-76214285D02*
X150709380Y-76214285D01*
X150709380Y-75833333D01*
X150757000Y-75738095D01*
X150804619Y-75690476D01*
X150899857Y-75642857D01*
X151042714Y-75642857D01*
X151137952Y-75690476D01*
X151185571Y-75738095D01*
X151233190Y-75833333D01*
X151233190Y-76214285D01*
X150709380Y-75309523D02*
X150709380Y-74690476D01*
X151090333Y-75023809D01*
X151090333Y-74880952D01*
X151137952Y-74785714D01*
X151185571Y-74738095D01*
X151280809Y-74690476D01*
X151518904Y-74690476D01*
X151614142Y-74738095D01*
X151661761Y-74785714D01*
X151709380Y-74880952D01*
X151709380Y-75166666D01*
X151661761Y-75261904D01*
X151614142Y-75309523D01*
X151137952Y-74119047D02*
X151090333Y-74214285D01*
X151042714Y-74261904D01*
X150947476Y-74309523D01*
X150899857Y-74309523D01*
X150804619Y-74261904D01*
X150757000Y-74214285D01*
X150709380Y-74119047D01*
X150709380Y-73928571D01*
X150757000Y-73833333D01*
X150804619Y-73785714D01*
X150899857Y-73738095D01*
X150947476Y-73738095D01*
X151042714Y-73785714D01*
X151090333Y-73833333D01*
X151137952Y-73928571D01*
X151137952Y-74119047D01*
X151185571Y-74214285D01*
X151233190Y-74261904D01*
X151328428Y-74309523D01*
X151518904Y-74309523D01*
X151614142Y-74261904D01*
X151661761Y-74214285D01*
X151709380Y-74119047D01*
X151709380Y-73928571D01*
X151661761Y-73833333D01*
X151614142Y-73785714D01*
X151518904Y-73738095D01*
X151328428Y-73738095D01*
X151233190Y-73785714D01*
X151185571Y-73833333D01*
X151137952Y-73928571D01*
X132428459Y-43530404D02*
X131901689Y-43284678D01*
X131933588Y-43816119D02*
X131433588Y-42950093D01*
X131763502Y-42759617D01*
X131869790Y-42753237D01*
X131934839Y-42770667D01*
X132023697Y-42829336D01*
X132095126Y-42953054D01*
X132101506Y-43059342D01*
X132084076Y-43124391D01*
X132025407Y-43213250D01*
X131695492Y-43403726D01*
X133253245Y-43054214D02*
X132758374Y-43339928D01*
X133005810Y-43197071D02*
X132505810Y-42331046D01*
X132494760Y-42502383D01*
X132459900Y-42632480D01*
X132401231Y-42721339D01*
X134078032Y-42578024D02*
X133583160Y-42863738D01*
X133830596Y-42720881D02*
X133330596Y-41854855D01*
X133319546Y-42026192D01*
X133284686Y-42156290D01*
X133226017Y-42245148D01*
X184293375Y-133121837D02*
X184794169Y-133416921D01*
X184813353Y-132884869D02*
X185228046Y-133794831D01*
X184881394Y-133952809D01*
X184774984Y-133948972D01*
X184711905Y-133925388D01*
X184629079Y-133858472D01*
X184569837Y-133728478D01*
X184573674Y-133622067D01*
X184597259Y-133558989D01*
X184664174Y-133476163D01*
X185010826Y-133318184D01*
X184404748Y-134170029D02*
X183841439Y-134426744D01*
X183986781Y-133941861D01*
X183856786Y-134001103D01*
X183750376Y-133997266D01*
X183687297Y-133973682D01*
X183604471Y-133906766D01*
X183505735Y-133690109D01*
X183509572Y-133583698D01*
X183533156Y-133520620D01*
X183600071Y-133437794D01*
X183860060Y-133319310D01*
X183966471Y-133323147D01*
X184029549Y-133346731D01*
X183278129Y-134683459D02*
X183191466Y-134722954D01*
X183085056Y-134719117D01*
X183021977Y-134695532D01*
X182939151Y-134628617D01*
X182816831Y-134475038D01*
X182718094Y-134258381D01*
X182682436Y-134065307D01*
X182686273Y-133958897D01*
X182709857Y-133895818D01*
X182776773Y-133812992D01*
X182863436Y-133773498D01*
X182969846Y-133777335D01*
X183032925Y-133800919D01*
X183115751Y-133867834D01*
X183238072Y-134021413D01*
X183336808Y-134238071D01*
X183372466Y-134431144D01*
X183368629Y-134537554D01*
X183345045Y-134600633D01*
X183278129Y-134683459D01*
X126370838Y-126025339D02*
X126244950Y-126592808D01*
X126756889Y-126446641D02*
X126019612Y-127122231D01*
X125762244Y-126841363D01*
X125733011Y-126738975D01*
X125735948Y-126671696D01*
X125773994Y-126572246D01*
X125879319Y-126475733D01*
X125981707Y-126446499D01*
X126048987Y-126449437D01*
X126148437Y-126487483D01*
X126405805Y-126768350D01*
X125446410Y-126355720D02*
X125379130Y-126352783D01*
X125279680Y-126314737D01*
X125118825Y-126139194D01*
X125089592Y-126036807D01*
X125092529Y-125969527D01*
X125130575Y-125870077D01*
X125200792Y-125805735D01*
X125338288Y-125744330D01*
X126145641Y-125779580D01*
X125727418Y-125323170D01*
X124656823Y-125141612D02*
X125148341Y-124691218D01*
X124536810Y-125574522D02*
X125224292Y-125267500D01*
X124806069Y-124811090D01*
X135991703Y-39809818D02*
X135750207Y-39291928D01*
X136777263Y-39128255D02*
X135870955Y-39550873D01*
X136515642Y-38567207D02*
X135609334Y-38989826D01*
X135448337Y-38644566D01*
X135451245Y-38538126D01*
X135474278Y-38474844D01*
X135540468Y-38391437D01*
X135669941Y-38331063D01*
X135776380Y-38333971D01*
X135839663Y-38357004D01*
X135923069Y-38423194D01*
X136084067Y-38768454D01*
X136072899Y-37617742D02*
X135992400Y-37445112D01*
X135908993Y-37378922D01*
X135845711Y-37355889D01*
X135675989Y-37329948D01*
X135483235Y-37367289D01*
X135137975Y-37528287D01*
X135071784Y-37611693D01*
X135048751Y-37674976D01*
X135045843Y-37781415D01*
X135126342Y-37954045D01*
X135209749Y-38020236D01*
X135273031Y-38043269D01*
X135379471Y-38046177D01*
X135595258Y-37945553D01*
X135661449Y-37862146D01*
X135684481Y-37798864D01*
X135687390Y-37692425D01*
X135606891Y-37519794D01*
X135523484Y-37453604D01*
X135460202Y-37430571D01*
X135353762Y-37427663D01*
X131088454Y-130497472D02*
X131101304Y-130563578D01*
X131060897Y-130708640D01*
X131007641Y-130787596D01*
X130888278Y-130879402D01*
X130756066Y-130905102D01*
X130650481Y-130891323D01*
X130465941Y-130824288D01*
X130347507Y-130744403D01*
X130216224Y-130598412D01*
X130163896Y-130505678D01*
X130138196Y-130373466D01*
X130178603Y-130228403D01*
X130231860Y-130149447D01*
X130351222Y-130057642D01*
X130417329Y-130044792D01*
X131699975Y-129761169D02*
X131380436Y-130234905D01*
X131540205Y-129998037D02*
X130711168Y-129438844D01*
X130776345Y-129597684D01*
X130802045Y-129729897D01*
X130788266Y-129835481D01*
X131545778Y-128967894D02*
X131453043Y-129020222D01*
X131386937Y-129033072D01*
X131281353Y-129019293D01*
X131241875Y-128992665D01*
X131189547Y-128899931D01*
X131176698Y-128833824D01*
X131190476Y-128728240D01*
X131296989Y-128570328D01*
X131389723Y-128518001D01*
X131455830Y-128505151D01*
X131561414Y-128518929D01*
X131600892Y-128545558D01*
X131653220Y-128638292D01*
X131666069Y-128704398D01*
X131652291Y-128809982D01*
X131545778Y-128967894D01*
X131531999Y-129073478D01*
X131544849Y-129139585D01*
X131597177Y-129232319D01*
X131755089Y-129338832D01*
X131860673Y-129352611D01*
X131926779Y-129339761D01*
X132019514Y-129287433D01*
X132126027Y-129129521D01*
X132139805Y-129023937D01*
X132126955Y-128957831D01*
X132074628Y-128865096D01*
X131916716Y-128758583D01*
X131811131Y-128744805D01*
X131745025Y-128757655D01*
X131652291Y-128809982D01*
X147635411Y-128979851D02*
X147695679Y-128949803D01*
X147846264Y-128949973D01*
X147936580Y-128980193D01*
X148056945Y-129070680D01*
X148117042Y-129191217D01*
X148131981Y-129296643D01*
X148116701Y-129492386D01*
X148071371Y-129627860D01*
X147965774Y-129793384D01*
X147890396Y-129868591D01*
X147769860Y-129928688D01*
X147619276Y-129928517D01*
X147528959Y-129898297D01*
X147408594Y-129807810D01*
X147378546Y-129747542D01*
X147032218Y-129732090D02*
X146445161Y-129535663D01*
X146882147Y-129280165D01*
X146746672Y-129234836D01*
X146671465Y-129159458D01*
X146641416Y-129099190D01*
X146626478Y-128993764D01*
X146702026Y-128767973D01*
X146777404Y-128692766D01*
X146837672Y-128662717D01*
X146943098Y-128647779D01*
X147214048Y-128738437D01*
X147289255Y-128813815D01*
X147319303Y-128874083D01*
X145632312Y-129263688D02*
X145812945Y-129324127D01*
X145918371Y-129309188D01*
X145978639Y-129279140D01*
X146114285Y-129173884D01*
X146219882Y-129008361D01*
X146340760Y-128647095D01*
X146325821Y-128541668D01*
X146295773Y-128481400D01*
X146220566Y-128406023D01*
X146039933Y-128345584D01*
X145934507Y-128360522D01*
X145874239Y-128390571D01*
X145798861Y-128465778D01*
X145723312Y-128691569D01*
X145738251Y-128796995D01*
X145768300Y-128857263D01*
X145843506Y-128932641D01*
X146024139Y-128993080D01*
X146129566Y-128978141D01*
X146189834Y-128948093D01*
X146265211Y-128872886D01*
X168322857Y-69357142D02*
X168275238Y-69309523D01*
X168227619Y-69166666D01*
X168227619Y-69071428D01*
X168275238Y-68928571D01*
X168370476Y-68833333D01*
X168465714Y-68785714D01*
X168656190Y-68738095D01*
X168799047Y-68738095D01*
X168989523Y-68785714D01*
X169084761Y-68833333D01*
X169180000Y-68928571D01*
X169227619Y-69071428D01*
X169227619Y-69166666D01*
X169180000Y-69309523D01*
X169132380Y-69357142D01*
X169132380Y-69738095D02*
X169180000Y-69785714D01*
X169227619Y-69880952D01*
X169227619Y-70119047D01*
X169180000Y-70214285D01*
X169132380Y-70261904D01*
X169037142Y-70309523D01*
X168941904Y-70309523D01*
X168799047Y-70261904D01*
X168227619Y-69690476D01*
X168227619Y-70309523D01*
X169227619Y-70642857D02*
X169227619Y-71309523D01*
X168227619Y-70880952D01*
X194244871Y-54411744D02*
X194370759Y-53844275D01*
X193858819Y-53990443D02*
X194596097Y-53314853D01*
X194853464Y-53595720D01*
X194882698Y-53698108D01*
X194879760Y-53765387D01*
X194841714Y-53864838D01*
X194736389Y-53961351D01*
X194634001Y-53990584D01*
X194566722Y-53987647D01*
X194467272Y-53949601D01*
X194209904Y-53668733D01*
X195561226Y-54368106D02*
X195432542Y-54227672D01*
X195333091Y-54189626D01*
X195265812Y-54186689D01*
X195096145Y-54212985D01*
X194923540Y-54306560D01*
X194642672Y-54563928D01*
X194604626Y-54663378D01*
X194601689Y-54730658D01*
X194630922Y-54833045D01*
X194759606Y-54973479D01*
X194859057Y-55011525D01*
X194926336Y-55014463D01*
X195028724Y-54985229D01*
X195204266Y-54824374D01*
X195242312Y-54724924D01*
X195245250Y-54657645D01*
X195216016Y-54555257D01*
X195087332Y-54414823D01*
X194987882Y-54376777D01*
X194920602Y-54373840D01*
X194818215Y-54403073D01*
X203481235Y-66837939D02*
X203776319Y-66337145D01*
X203244267Y-66317961D02*
X204154229Y-65903268D01*
X204312207Y-66249919D01*
X204308370Y-66356330D01*
X204284786Y-66419408D01*
X204217870Y-66502235D01*
X204087876Y-66561476D01*
X203981465Y-66557640D01*
X203918387Y-66534055D01*
X203835561Y-66467140D01*
X203677582Y-66120488D01*
X204529427Y-66726566D02*
X204786142Y-67289875D01*
X204301259Y-67144533D01*
X204360501Y-67274528D01*
X204356664Y-67380938D01*
X204333080Y-67444017D01*
X204266164Y-67526843D01*
X204049507Y-67625579D01*
X203943096Y-67621742D01*
X203880018Y-67598158D01*
X203797192Y-67531242D01*
X203678708Y-67271254D01*
X203682545Y-67164843D01*
X203706129Y-67101764D01*
X192914943Y-65732358D02*
X192848523Y-65721244D01*
X192726798Y-65632594D01*
X192671493Y-65555059D01*
X192627303Y-65411104D01*
X192649533Y-65278264D01*
X192699415Y-65184192D01*
X192826832Y-65034815D01*
X192943134Y-64951857D01*
X193125856Y-64880014D01*
X193231044Y-64863477D01*
X193363884Y-64885706D01*
X193485608Y-64974356D01*
X193540914Y-65051891D01*
X193585104Y-65195846D01*
X193573989Y-65262266D01*
X193795209Y-65572405D02*
X193861629Y-65583520D01*
X193955701Y-65633402D01*
X194093964Y-65827239D01*
X194110502Y-65932426D01*
X194099387Y-65998846D01*
X194049504Y-66092919D01*
X193971970Y-66148224D01*
X193828015Y-66192414D01*
X193030976Y-66059035D01*
X193390459Y-66563012D01*
X194187498Y-66696390D02*
X194170960Y-66591203D01*
X194182075Y-66524783D01*
X194231957Y-66430710D01*
X194270725Y-66403058D01*
X194375912Y-66386520D01*
X194442332Y-66397635D01*
X194536404Y-66447518D01*
X194647014Y-66602587D01*
X194663552Y-66707774D01*
X194652437Y-66774194D01*
X194602555Y-66868267D01*
X194563787Y-66895919D01*
X194458600Y-66912457D01*
X194392180Y-66901342D01*
X194298108Y-66851460D01*
X194187498Y-66696390D01*
X194093425Y-66646508D01*
X194027005Y-66635393D01*
X193921818Y-66651931D01*
X193766748Y-66762541D01*
X193716866Y-66856613D01*
X193705751Y-66923033D01*
X193722289Y-67028220D01*
X193832899Y-67183290D01*
X193926971Y-67233172D01*
X193993391Y-67244287D01*
X194098579Y-67227750D01*
X194253648Y-67117140D01*
X194303531Y-67023067D01*
X194314645Y-66956647D01*
X194298108Y-66851460D01*
X210714230Y-71364165D02*
X211047696Y-70888068D01*
X210518790Y-70827198D02*
X211458483Y-70485178D01*
X211588776Y-70843156D01*
X211576602Y-70948937D01*
X211548142Y-71009971D01*
X211474934Y-71087292D01*
X211340692Y-71136152D01*
X211234911Y-71123978D01*
X211173877Y-71095518D01*
X211096556Y-71022310D01*
X210966263Y-70664332D01*
X211039964Y-72259111D02*
X210844523Y-71722144D01*
X210942244Y-71990627D02*
X211881936Y-71648607D01*
X211715121Y-71607973D01*
X211593053Y-71551051D01*
X211515733Y-71477844D01*
X119989079Y-119581226D02*
X119980872Y-119648068D01*
X119897616Y-119773544D01*
X119822568Y-119832178D01*
X119680678Y-119882606D01*
X119546995Y-119866191D01*
X119450836Y-119820460D01*
X119296043Y-119699680D01*
X119208091Y-119587107D01*
X119128346Y-119407692D01*
X119107236Y-119303326D01*
X119123651Y-119169643D01*
X119206906Y-119044167D01*
X119281955Y-118985533D01*
X119423845Y-118935106D01*
X119490687Y-118943313D01*
X120798200Y-119069931D02*
X120347908Y-119421737D01*
X120573054Y-119245834D02*
X119957393Y-118457823D01*
X119970296Y-118629031D01*
X119953881Y-118762714D01*
X119908150Y-118858872D01*
X120857976Y-117754210D02*
X120707879Y-117871479D01*
X120662148Y-117967638D01*
X120653941Y-118034479D01*
X120666844Y-118205687D01*
X120746588Y-118385101D01*
X120981126Y-118685296D01*
X121077285Y-118731027D01*
X121144126Y-118739234D01*
X121248492Y-118718124D01*
X121398589Y-118600855D01*
X121444321Y-118504697D01*
X121452528Y-118437855D01*
X121431418Y-118333489D01*
X121284832Y-118145868D01*
X121188673Y-118100136D01*
X121121831Y-118091929D01*
X121017465Y-118113039D01*
X120867368Y-118230308D01*
X120821637Y-118326467D01*
X120813430Y-118393308D01*
X120834540Y-118497674D01*
X125971622Y-73459781D02*
X126692419Y-73828265D01*
X126798894Y-73829216D01*
X126862969Y-73808492D01*
X126948720Y-73745368D01*
X127035422Y-73575769D01*
X127036374Y-73469293D01*
X127015649Y-73405218D01*
X126952525Y-73319467D01*
X126231728Y-72950983D01*
X126643564Y-72145387D02*
X126556862Y-72314986D01*
X126555910Y-72421461D01*
X126576635Y-72485536D01*
X126660483Y-72635363D01*
X126808407Y-72764465D01*
X127147605Y-72937869D01*
X127254080Y-72938820D01*
X127318156Y-72918096D01*
X127403907Y-72854972D01*
X127490609Y-72685372D01*
X127491560Y-72578897D01*
X127470836Y-72514822D01*
X127407712Y-72429071D01*
X127195713Y-72320693D01*
X127089237Y-72319742D01*
X127025162Y-72340466D01*
X126939411Y-72403590D01*
X126852709Y-72573190D01*
X126851758Y-72679665D01*
X126872482Y-72743740D01*
X126935606Y-72829491D01*
X134723848Y-142909103D02*
X134965344Y-142391213D01*
X135750904Y-143072776D02*
X134844596Y-142650158D01*
X136012525Y-142511728D02*
X135106217Y-142089110D01*
X135267215Y-141743850D01*
X135350622Y-141677660D01*
X135413904Y-141654627D01*
X135520343Y-141651719D01*
X135649816Y-141712093D01*
X135716006Y-141795500D01*
X135739039Y-141858782D01*
X135741947Y-141965222D01*
X135580950Y-142310482D01*
X135595026Y-141266209D02*
X135571993Y-141202927D01*
X135569085Y-141096487D01*
X135669708Y-140880700D01*
X135753115Y-140814509D01*
X135816397Y-140791477D01*
X135922837Y-140788568D01*
X136009152Y-140828818D01*
X136118500Y-140932349D01*
X136394894Y-141691736D01*
X136656515Y-141130688D01*
X136011828Y-140147022D02*
X136052077Y-140060707D01*
X136135484Y-139994517D01*
X136198766Y-139971484D01*
X136305206Y-139968576D01*
X136497961Y-140005917D01*
X136713748Y-140106540D01*
X136866254Y-140230197D01*
X136932444Y-140313603D01*
X136955477Y-140376886D01*
X136958385Y-140483325D01*
X136918136Y-140569640D01*
X136834729Y-140635831D01*
X136771446Y-140658864D01*
X136665007Y-140661772D01*
X136472252Y-140624430D01*
X136256464Y-140523807D01*
X136103959Y-140400151D01*
X136037769Y-140316744D01*
X136014736Y-140253462D01*
X136011828Y-140147022D01*
X113530404Y-117571540D02*
X113284678Y-118098310D01*
X113816119Y-118066411D02*
X112950093Y-118566411D01*
X112759617Y-118236497D01*
X112753237Y-118130209D01*
X112770667Y-118065160D01*
X112829336Y-117976302D01*
X112953054Y-117904873D01*
X113059342Y-117898493D01*
X113124391Y-117915923D01*
X113213250Y-117974592D01*
X113403726Y-118304507D01*
X112556381Y-117694006D02*
X112491333Y-117676576D01*
X112402474Y-117617907D01*
X112283427Y-117411711D01*
X112277047Y-117305423D01*
X112294477Y-117240374D01*
X112353146Y-117151515D01*
X112435624Y-117103896D01*
X112583152Y-117073707D01*
X113363738Y-117282865D01*
X113054214Y-116746754D01*
X111878665Y-116710643D02*
X111831046Y-116628164D01*
X111824666Y-116521876D01*
X111842096Y-116456827D01*
X111900765Y-116367969D01*
X112041913Y-116231491D01*
X112248109Y-116112444D01*
X112436876Y-116058445D01*
X112543164Y-116052065D01*
X112608213Y-116069495D01*
X112697071Y-116128164D01*
X112744690Y-116210643D01*
X112751070Y-116316931D01*
X112733640Y-116381980D01*
X112674971Y-116470838D01*
X112533823Y-116607315D01*
X112327627Y-116726363D01*
X112138860Y-116780362D01*
X112032572Y-116786741D01*
X111967523Y-116769312D01*
X111878665Y-116710643D01*
X186246028Y-62748297D02*
X185672840Y-63319947D01*
X185639033Y-63420917D01*
X185638942Y-63488261D01*
X185672479Y-63589321D01*
X185806985Y-63724189D01*
X185907955Y-63757996D01*
X185975298Y-63758087D01*
X186076358Y-63724551D01*
X186649546Y-63152900D01*
X186884751Y-63523605D02*
X186952094Y-63523696D01*
X187053064Y-63557503D01*
X187221197Y-63726088D01*
X187254733Y-63827148D01*
X187254643Y-63894491D01*
X187220835Y-63995461D01*
X187153401Y-64062714D01*
X187018624Y-64129877D01*
X186210503Y-64128792D01*
X186647647Y-64567112D01*
X205258681Y-57641009D02*
X205726768Y-57313251D01*
X206066301Y-58296282D02*
X205492725Y-57477130D01*
X206573395Y-57941211D02*
X205999819Y-57122059D01*
X206311877Y-56903554D01*
X206417204Y-56887935D01*
X206483525Y-56899629D01*
X206577158Y-56950330D01*
X206659098Y-57067352D01*
X206674717Y-57172679D01*
X206663023Y-57239000D01*
X206612322Y-57332633D01*
X206300264Y-57551139D01*
X206740956Y-56603109D02*
X207248051Y-56248038D01*
X207193505Y-56751288D01*
X207310527Y-56669348D01*
X207415854Y-56653729D01*
X207482175Y-56665423D01*
X207575808Y-56716125D01*
X207712374Y-56911161D01*
X207727993Y-57016488D01*
X207716299Y-57082809D01*
X207665598Y-57176442D01*
X207431555Y-57340321D01*
X207326227Y-57355940D01*
X207259906Y-57344246D01*
X190710044Y-67890015D02*
X190643624Y-67878901D01*
X190521899Y-67790251D01*
X190466594Y-67712716D01*
X190422404Y-67568761D01*
X190444634Y-67435922D01*
X190494516Y-67341849D01*
X190621933Y-67192472D01*
X190738235Y-67109514D01*
X190920958Y-67037671D01*
X191026145Y-67021134D01*
X191158985Y-67043363D01*
X191280710Y-67132013D01*
X191336015Y-67209548D01*
X191380205Y-67353503D01*
X191369090Y-67419923D01*
X191185560Y-68720669D02*
X190853729Y-68255460D01*
X191019645Y-68488064D02*
X191833760Y-67907361D01*
X191662153Y-67912784D01*
X191529313Y-67890554D01*
X191435241Y-67840672D01*
X118152207Y-131073340D02*
X118556268Y-130669279D01*
X119061345Y-131578417D02*
X118354238Y-130871310D01*
X119499077Y-131140684D02*
X118791971Y-130433577D01*
X119061345Y-130164203D01*
X119162360Y-130130531D01*
X119229703Y-130130531D01*
X119330719Y-130164203D01*
X119431734Y-130265218D01*
X119465406Y-130366234D01*
X119465406Y-130433577D01*
X119431734Y-130534592D01*
X119162360Y-130803966D01*
X120576574Y-130063188D02*
X120172513Y-130467249D01*
X120374543Y-130265218D02*
X119667436Y-129558111D01*
X119701108Y-129726470D01*
X119701108Y-129861157D01*
X119667436Y-129962172D01*
X120576574Y-129255066D02*
X120475558Y-129288737D01*
X120408215Y-129288737D01*
X120307200Y-129255066D01*
X120273528Y-129221394D01*
X120239856Y-129120379D01*
X120239856Y-129053035D01*
X120273528Y-128952020D01*
X120408215Y-128817333D01*
X120509230Y-128783661D01*
X120576574Y-128783661D01*
X120677589Y-128817333D01*
X120711261Y-128851005D01*
X120744932Y-128952020D01*
X120744932Y-129019363D01*
X120711261Y-129120379D01*
X120576574Y-129255066D01*
X120542902Y-129356081D01*
X120542902Y-129423424D01*
X120576574Y-129524440D01*
X120711261Y-129659127D01*
X120812276Y-129692798D01*
X120879619Y-129692798D01*
X120980635Y-129659127D01*
X121115322Y-129524440D01*
X121148993Y-129423424D01*
X121148993Y-129356081D01*
X121115322Y-129255066D01*
X120980635Y-129120379D01*
X120879619Y-129086707D01*
X120812276Y-129086707D01*
X120711261Y-129120379D01*
X191461822Y-44113114D02*
X191789580Y-43645027D01*
X192444853Y-44452647D02*
X191625701Y-43879071D01*
X192799925Y-43945553D02*
X191980773Y-43371976D01*
X192199278Y-43059918D01*
X192292911Y-43009217D01*
X192359232Y-42997523D01*
X192464559Y-43013142D01*
X192581581Y-43095082D01*
X192632282Y-43188715D01*
X192643977Y-43255036D01*
X192628357Y-43360363D01*
X192409852Y-43672421D01*
X192827481Y-42162752D02*
X192554349Y-42552824D01*
X192917108Y-42864963D01*
X192905414Y-42798643D01*
X192921033Y-42693315D01*
X193057599Y-42498279D01*
X193151233Y-42447578D01*
X193217553Y-42435884D01*
X193322881Y-42451503D01*
X193517917Y-42588069D01*
X193568618Y-42681702D01*
X193580312Y-42748022D01*
X193564693Y-42853350D01*
X193428127Y-43048386D01*
X193334494Y-43099088D01*
X193268173Y-43110782D01*
X201802309Y-124237111D02*
X202381355Y-124287853D01*
X202169616Y-123799372D02*
X202935661Y-124442159D01*
X202690789Y-124733986D01*
X202593093Y-124776334D01*
X202526006Y-124782203D01*
X202422440Y-124757463D01*
X202313005Y-124665637D01*
X202270658Y-124567940D01*
X202264788Y-124500853D01*
X202289528Y-124397288D01*
X202534399Y-124105461D01*
X202354091Y-125135247D02*
X201956175Y-125609465D01*
X201878611Y-125109246D01*
X201786784Y-125218681D01*
X201689088Y-125261028D01*
X201622001Y-125266898D01*
X201518435Y-125242158D01*
X201336044Y-125089113D01*
X201293696Y-124991417D01*
X201287827Y-124924330D01*
X201312566Y-124820764D01*
X201496220Y-124601895D01*
X201593916Y-124559547D01*
X201661003Y-124553678D01*
X201638347Y-125840074D02*
X201644216Y-125907161D01*
X201619477Y-126010727D01*
X201466432Y-126193118D01*
X201368736Y-126235466D01*
X201301649Y-126241335D01*
X201198083Y-126216596D01*
X201125126Y-126155378D01*
X201046300Y-126027073D01*
X200975868Y-125222026D01*
X200577952Y-125696244D01*
X133753970Y-117251701D02*
X134327158Y-116680051D01*
X134360965Y-116579081D01*
X134361056Y-116511737D01*
X134327519Y-116410677D01*
X134193013Y-116275809D01*
X134092043Y-116242002D01*
X134024700Y-116241911D01*
X133923640Y-116275447D01*
X133350452Y-116847098D01*
X133216760Y-116106139D02*
X133250296Y-116207200D01*
X133250205Y-116274543D01*
X133216398Y-116375513D01*
X133182681Y-116409140D01*
X133081621Y-116442676D01*
X133014277Y-116442585D01*
X132913307Y-116408778D01*
X132778801Y-116273910D01*
X132745265Y-116172850D01*
X132745355Y-116105507D01*
X132779163Y-116004537D01*
X132812880Y-115970910D01*
X132913940Y-115937374D01*
X132981284Y-115937464D01*
X133082253Y-115971272D01*
X133216760Y-116106139D01*
X133317730Y-116139947D01*
X133385073Y-116140037D01*
X133486133Y-116106501D01*
X133621001Y-115971995D01*
X133654808Y-115871025D01*
X133654899Y-115803682D01*
X133621363Y-115702621D01*
X133486857Y-115567754D01*
X133385887Y-115533946D01*
X133318543Y-115533856D01*
X133217483Y-115567392D01*
X133082615Y-115701898D01*
X133048808Y-115802868D01*
X133048717Y-115870211D01*
X133082253Y-115971272D01*
X206746275Y-74393502D02*
X206774735Y-74332468D01*
X206892691Y-74238860D01*
X206982185Y-74206287D01*
X207132714Y-74202174D01*
X207254782Y-74259095D01*
X207332102Y-74332303D01*
X207441996Y-74495006D01*
X207490856Y-74629248D01*
X207511256Y-74824523D01*
X207499082Y-74930305D01*
X207442160Y-75052372D01*
X207324205Y-75145980D01*
X207234711Y-75178553D01*
X207084182Y-75182666D01*
X207023148Y-75154205D01*
X206665170Y-75284499D02*
X206636710Y-75345533D01*
X206563502Y-75422853D01*
X206339765Y-75504286D01*
X206233984Y-75492113D01*
X206172950Y-75463652D01*
X206095630Y-75390444D01*
X206063056Y-75300950D01*
X206058944Y-75150421D01*
X206400471Y-74418014D01*
X205818756Y-74629741D01*
X213596674Y-75071877D02*
X214148631Y-74923981D01*
X214131472Y-75963855D02*
X213872653Y-74997929D01*
X214729426Y-75803633D02*
X214470607Y-74837707D01*
X214838578Y-74739110D01*
X214942896Y-74760457D01*
X215001217Y-74794129D01*
X215071863Y-74873797D01*
X215108837Y-75011786D01*
X215087490Y-75116104D01*
X215053819Y-75174425D01*
X214974150Y-75245071D01*
X214606179Y-75343669D01*
X216201313Y-75409242D02*
X215649355Y-75557139D01*
X215925334Y-75483191D02*
X215666515Y-74517265D01*
X215611496Y-74679904D01*
X215544153Y-74796546D01*
X215464484Y-74867192D01*
X153357142Y-63802380D02*
X153023809Y-63326190D01*
X152785714Y-63802380D02*
X152785714Y-62802380D01*
X153166666Y-62802380D01*
X153261904Y-62850000D01*
X153309523Y-62897619D01*
X153357142Y-62992857D01*
X153357142Y-63135714D01*
X153309523Y-63230952D01*
X153261904Y-63278571D01*
X153166666Y-63326190D01*
X152785714Y-63326190D01*
X154214285Y-63135714D02*
X154214285Y-63802380D01*
X153976190Y-62754761D02*
X153738095Y-63469047D01*
X154357142Y-63469047D01*
X154928571Y-62802380D02*
X155023809Y-62802380D01*
X155119047Y-62850000D01*
X155166666Y-62897619D01*
X155214285Y-62992857D01*
X155261904Y-63183333D01*
X155261904Y-63421428D01*
X155214285Y-63611904D01*
X155166666Y-63707142D01*
X155119047Y-63754761D01*
X155023809Y-63802380D01*
X154928571Y-63802380D01*
X154833333Y-63754761D01*
X154785714Y-63707142D01*
X154738095Y-63611904D01*
X154690476Y-63421428D01*
X154690476Y-63183333D01*
X154738095Y-62992857D01*
X154785714Y-62897619D01*
X154833333Y-62850000D01*
X154928571Y-62802380D01*
X111655658Y-123182552D02*
X112123745Y-122854794D01*
X112463278Y-123837825D02*
X111889701Y-123018673D01*
X112970372Y-123482754D02*
X112396795Y-122663602D01*
X112708853Y-122445096D01*
X112814181Y-122429477D01*
X112880501Y-122441171D01*
X112974135Y-122491873D01*
X113056074Y-122608894D01*
X113071694Y-122714222D01*
X113059999Y-122780542D01*
X113009298Y-122874176D01*
X112697240Y-123092681D01*
X114218604Y-122608732D02*
X113750517Y-122936490D01*
X113984560Y-122772611D02*
X113410984Y-121953459D01*
X113414909Y-122125107D01*
X113391521Y-122257748D01*
X113340819Y-122351382D01*
X113918078Y-121598388D02*
X114464179Y-121216004D01*
X114686690Y-122280974D01*
X183804859Y-56748825D02*
X183738255Y-56758779D01*
X183595093Y-56712083D01*
X183518535Y-56655434D01*
X183432024Y-56532180D01*
X183412116Y-56398972D01*
X183430487Y-56294090D01*
X183505507Y-56112649D01*
X183590482Y-55997813D01*
X183742060Y-55873022D01*
X183836989Y-55824789D01*
X183970197Y-55804881D01*
X184113358Y-55851577D01*
X184189916Y-55908227D01*
X184276428Y-56031480D01*
X184286382Y-56098084D01*
X184592613Y-56324683D02*
X184659217Y-56314729D01*
X184764100Y-56333100D01*
X184955494Y-56474724D01*
X185003727Y-56569653D01*
X185013681Y-56636257D01*
X184995310Y-56741140D01*
X184938660Y-56817697D01*
X184815407Y-56904209D01*
X184016161Y-57023657D01*
X184513787Y-57391881D01*
X184896576Y-57675130D02*
X185049691Y-57788429D01*
X185154574Y-57806800D01*
X185221178Y-57796846D01*
X185382710Y-57738659D01*
X185534289Y-57613869D01*
X185760888Y-57307637D01*
X185779259Y-57202755D01*
X185769305Y-57136151D01*
X185721072Y-57041222D01*
X185567956Y-56927923D01*
X185463074Y-56909552D01*
X185396470Y-56919506D01*
X185301541Y-56967739D01*
X185159917Y-57159133D01*
X185141546Y-57264016D01*
X185151500Y-57330620D01*
X185199733Y-57425548D01*
X185352848Y-57538848D01*
X185457731Y-57557219D01*
X185524335Y-57547265D01*
X185619264Y-57499032D01*
X118197689Y-55762887D02*
X117618643Y-55712145D01*
X117830382Y-56200626D02*
X117064337Y-55557839D01*
X117309209Y-55266012D01*
X117406905Y-55223664D01*
X117473992Y-55217795D01*
X117577558Y-55242535D01*
X117686993Y-55334361D01*
X117729340Y-55432058D01*
X117735210Y-55499145D01*
X117710470Y-55602710D01*
X117465599Y-55894537D01*
X118809867Y-55033320D02*
X118442560Y-55471060D01*
X118626214Y-55252190D02*
X117860169Y-54609403D01*
X117908386Y-54774186D01*
X117920125Y-54908361D01*
X117895386Y-55011926D01*
X118850132Y-53948186D02*
X119360828Y-54376711D01*
X118405261Y-53885706D02*
X118799391Y-54527231D01*
X119197307Y-54053013D01*
X207716137Y-124079718D02*
X207248051Y-123751960D01*
X208055670Y-123096687D02*
X207482094Y-123915839D01*
X207548576Y-122741616D02*
X206975000Y-123560768D01*
X206662942Y-123342263D01*
X206612241Y-123248629D01*
X206600547Y-123182309D01*
X206616166Y-123076981D01*
X206698105Y-122959959D01*
X206791739Y-122909258D01*
X206858059Y-122897564D01*
X206963387Y-122913183D01*
X207275445Y-123131688D01*
X206249481Y-122936490D02*
X206183161Y-122948184D01*
X206077833Y-122932565D01*
X205882797Y-122796000D01*
X205832096Y-122702366D01*
X205820402Y-122636046D01*
X205836021Y-122530718D01*
X205890647Y-122452703D01*
X206011594Y-122362995D01*
X206807439Y-122222666D01*
X206300345Y-121867595D01*
X205024638Y-122195110D02*
X205180667Y-122304363D01*
X205285994Y-122319982D01*
X205352315Y-122308288D01*
X205512269Y-122245892D01*
X205660529Y-122117176D01*
X205879034Y-121805118D01*
X205894653Y-121699791D01*
X205882959Y-121633470D01*
X205832258Y-121539837D01*
X205676229Y-121430584D01*
X205570901Y-121414965D01*
X205504581Y-121426659D01*
X205410947Y-121477361D01*
X205274381Y-121672397D01*
X205258762Y-121777724D01*
X205270456Y-121844045D01*
X205321158Y-121937678D01*
X205477187Y-122046931D01*
X205582514Y-122062550D01*
X205648835Y-122050856D01*
X205742468Y-122000155D01*
X127914141Y-45131389D02*
X127586383Y-44663302D01*
X128569414Y-44323769D02*
X127750262Y-44897346D01*
X128214343Y-43816675D02*
X127395191Y-44390252D01*
X127176685Y-44078194D01*
X127161066Y-43972866D01*
X127172760Y-43906546D01*
X127223462Y-43812912D01*
X127340483Y-43730973D01*
X127445811Y-43715353D01*
X127512131Y-43727048D01*
X127605765Y-43777749D01*
X127824270Y-44089807D01*
X127340321Y-42568443D02*
X127668079Y-43036530D01*
X127504200Y-42802487D02*
X126685048Y-43376063D01*
X126856696Y-43372138D01*
X126989337Y-43395526D01*
X127082971Y-43446228D01*
X126166098Y-42634926D02*
X126111472Y-42556911D01*
X126095853Y-42451584D01*
X126107547Y-42385263D01*
X126158248Y-42291630D01*
X126286964Y-42143370D01*
X126482000Y-42006804D01*
X126665342Y-41936559D01*
X126770670Y-41920939D01*
X126836990Y-41932634D01*
X126930624Y-41983335D01*
X126985250Y-42061349D01*
X127000869Y-42166677D01*
X126989175Y-42232997D01*
X126938474Y-42326631D01*
X126809758Y-42474891D01*
X126614722Y-42611457D01*
X126431380Y-42681702D01*
X126326052Y-42697321D01*
X126259732Y-42685627D01*
X126166098Y-42634926D01*
X119502526Y-61088454D02*
X119436420Y-61101304D01*
X119291358Y-61060897D01*
X119212402Y-61007641D01*
X119120596Y-60888278D01*
X119094896Y-60756066D01*
X119108675Y-60650481D01*
X119175710Y-60465941D01*
X119255595Y-60347507D01*
X119401586Y-60216224D01*
X119494320Y-60163896D01*
X119626532Y-60138196D01*
X119771595Y-60178603D01*
X119850551Y-60231860D01*
X119942356Y-60351222D01*
X119955206Y-60417329D01*
X120238829Y-61699975D02*
X119765093Y-61380436D01*
X120001961Y-61540205D02*
X120561154Y-60711168D01*
X120402314Y-60776345D01*
X120270101Y-60802045D01*
X120164517Y-60788266D01*
X121060589Y-61162919D02*
X121126696Y-61150069D01*
X121232280Y-61163848D01*
X121429670Y-61296989D01*
X121481997Y-61389723D01*
X121494847Y-61455830D01*
X121481069Y-61561414D01*
X121427812Y-61640370D01*
X121308450Y-61732176D01*
X120515175Y-61886372D01*
X121028389Y-62232539D01*
D11*
X116142312Y-64925627D02*
X115918689Y-65320880D01*
X117421735Y-65649490D02*
X117198112Y-66044743D01*
X177260501Y-123988372D02*
X178999151Y-123105424D01*
X181842775Y-133011518D02*
X183581425Y-132128570D01*
X181842775Y-133011518D02*
X180104125Y-133894466D01*
X177260501Y-123988372D02*
X174184429Y-125550511D01*
X116988481Y-111842775D02*
X117871429Y-113581425D01*
X116988481Y-111842775D02*
X116105533Y-110104125D01*
X126011627Y-107260501D02*
X124449488Y-104184429D01*
X126011627Y-107260501D02*
X126894575Y-108999151D01*
X111503660Y-65984495D02*
X105978808Y-63408214D01*
X110430210Y-68286517D02*
X104905358Y-65710236D01*
X186918698Y-116991074D02*
X188299406Y-115614069D01*
X194065004Y-124156596D02*
X195445713Y-122779590D01*
X186918698Y-116991074D02*
X184475906Y-119427315D01*
X194065004Y-124156596D02*
X192684296Y-125533601D01*
X120237336Y-123661246D02*
X119945428Y-123313364D01*
X119111250Y-124606144D02*
X118819342Y-124258262D01*
X199153916Y-52642134D02*
X203464439Y-48331611D01*
X197357865Y-50846083D02*
X201668388Y-46535560D01*
X130008690Y-135046206D02*
X126512168Y-140039757D01*
X127928044Y-133589322D02*
X124431522Y-138582873D01*
X166265000Y-75227064D02*
X166265000Y-74772936D01*
X167735000Y-75227064D02*
X167735000Y-74772936D01*
X116410677Y-57928044D02*
X111417126Y-54431522D01*
X114953793Y-60008690D02*
X109960242Y-56512168D01*
X152140000Y-104810000D02*
X152140000Y-106310000D01*
X168860000Y-102290000D02*
X151140000Y-102290000D01*
X151640000Y-104000000D02*
X151640000Y-102790000D01*
X150840000Y-106610000D02*
X153340000Y-106610000D01*
X151140000Y-102290000D02*
X151140000Y-106310000D01*
X168360000Y-102790000D02*
X168360000Y-104000000D01*
X167860000Y-104810000D02*
X167860000Y-106310000D01*
X168860000Y-104810000D02*
X167860000Y-104810000D01*
X168360000Y-104000000D02*
X168860000Y-104000000D01*
X151140000Y-104000000D02*
X151640000Y-104000000D01*
X151140000Y-106310000D02*
X168860000Y-106310000D01*
X168860000Y-106310000D02*
X168860000Y-102290000D01*
X150840000Y-104110000D02*
X150840000Y-106610000D01*
X151640000Y-102790000D02*
X168360000Y-102790000D01*
X151140000Y-104810000D02*
X152140000Y-104810000D01*
X142648297Y-123941903D02*
X139576430Y-122371510D01*
X138041811Y-132952713D02*
X136305539Y-132065100D01*
X142648297Y-123941903D02*
X144384569Y-124829516D01*
X138041811Y-132952713D02*
X139778084Y-133840326D01*
X111503660Y-114015504D02*
X105978808Y-116591785D01*
X110430210Y-111713482D02*
X104905358Y-114289763D01*
X191309970Y-113493157D02*
X191620767Y-113073139D01*
X192491639Y-114367547D02*
X192802436Y-113947529D01*
X181713482Y-40430210D02*
X184289763Y-34905358D01*
X184015504Y-41503660D02*
X186591785Y-35978808D01*
X110967173Y-72395146D02*
X111122494Y-71968405D01*
X109585824Y-71892377D02*
X109741145Y-71465636D01*
X144770646Y-141929818D02*
X143192885Y-147818102D01*
X147224098Y-142587219D02*
X145646337Y-148475502D01*
X134925627Y-133857687D02*
X135320880Y-134081310D01*
X135649490Y-132578264D02*
X136044743Y-132801887D01*
X181958188Y-47047286D02*
X183694460Y-47934899D01*
X177351702Y-56058096D02*
X180423569Y-57628489D01*
X177351702Y-56058096D02*
X175615430Y-55170483D01*
X181958188Y-47047286D02*
X180221915Y-46159673D01*
X139866330Y-45273148D02*
X139453091Y-45461471D01*
X139256731Y-43935505D02*
X138843492Y-44123828D01*
X136628600Y-56784616D02*
X136203221Y-57088036D01*
X137482233Y-57981366D02*
X137056854Y-58284786D01*
X125499942Y-114287749D02*
X125803362Y-114713128D01*
X124303192Y-115141382D02*
X124606612Y-115566761D01*
X120072172Y-76364847D02*
X119906379Y-76860350D01*
X118678137Y-75898410D02*
X118512344Y-76393913D01*
X134693823Y-123760126D02*
X135113841Y-124070923D01*
X133819433Y-124941795D02*
X134239451Y-125252592D01*
X190967901Y-128443267D02*
X190646215Y-128031528D01*
X189809525Y-129348290D02*
X189487839Y-128936551D01*
X160227064Y-76265000D02*
X159772936Y-76265000D01*
X160227064Y-77735000D02*
X159772936Y-77735000D01*
X210414175Y-108107622D02*
X210258854Y-108534363D01*
X209032826Y-107604853D02*
X208877505Y-108031594D01*
X142739498Y-56011627D02*
X141000848Y-56894575D01*
X138157224Y-46988481D02*
X136418574Y-47871429D01*
X142739498Y-56011627D02*
X145815570Y-54449488D01*
X138157224Y-46988481D02*
X139895874Y-46105533D01*
X199762663Y-56338753D02*
X200054571Y-56686635D01*
X200888749Y-55393855D02*
X201180657Y-55741737D01*
X122962663Y-77331991D02*
X122796870Y-77827494D01*
X121568628Y-76865554D02*
X121402835Y-77361057D01*
X134148143Y-135230857D02*
X133754857Y-135003793D01*
X133413143Y-136503915D02*
X133019857Y-136276851D01*
X125058204Y-63819433D02*
X124747407Y-64239451D01*
X126239873Y-64693823D02*
X125929076Y-65113841D01*
X208496339Y-114015504D02*
X214021191Y-116591785D01*
X209569789Y-111713482D02*
X215094641Y-114289763D01*
X184350509Y-47421735D02*
X183955256Y-47198112D01*
X185074372Y-46142312D02*
X184679119Y-45918689D01*
X192071955Y-133589322D02*
X195568477Y-138582873D01*
X189991309Y-135046206D02*
X193487831Y-140039757D01*
X205230857Y-115851856D02*
X205003793Y-116245142D01*
X206503915Y-116586856D02*
X206276851Y-116980142D01*
X193941903Y-107351702D02*
X194829516Y-105615430D01*
X202952713Y-111958188D02*
X203840326Y-110221915D01*
X193941903Y-107351702D02*
X192371510Y-110423569D01*
X202952713Y-111958188D02*
X202065100Y-113694460D01*
X160000000Y-72610000D02*
X158500000Y-72610000D01*
X160000000Y-69390000D02*
X157125000Y-69390000D01*
X160000000Y-69390000D02*
X161500000Y-69390000D01*
X160000000Y-72610000D02*
X161500000Y-72610000D01*
X174101589Y-48678137D02*
X173606086Y-48512344D01*
X173635152Y-50072172D02*
X173139649Y-49906379D01*
X197037336Y-102668008D02*
X197203129Y-102172505D01*
X198431371Y-103134445D02*
X198597164Y-102638942D01*
X198443267Y-59032098D02*
X198031528Y-59353784D01*
X199348290Y-60190474D02*
X198936551Y-60512160D01*
X147224098Y-37412780D02*
X145646337Y-31524497D01*
X144770646Y-38070181D02*
X143192885Y-32181897D01*
X206276851Y-63019856D02*
X206503915Y-63413142D01*
X205003793Y-63754856D02*
X205230857Y-64148142D01*
X186992113Y-48668152D02*
X186699932Y-49101328D01*
X188210798Y-49490166D02*
X187918617Y-49923342D01*
X146865554Y-128431371D02*
X147361057Y-128597164D01*
X147331991Y-127037336D02*
X147827494Y-127203129D01*
X126784616Y-113371399D02*
X127088036Y-113796778D01*
X127981366Y-112517766D02*
X128284786Y-112943145D01*
X113935505Y-110743268D02*
X114123828Y-111156507D01*
X115273148Y-110133669D02*
X115461471Y-110546908D01*
X194606144Y-130888749D02*
X194258262Y-131180657D01*
X193661246Y-129762663D02*
X193313364Y-130054571D01*
X165738748Y-64302500D02*
X166261252Y-64302500D01*
X165738748Y-65772500D02*
X166261252Y-65772500D01*
X178107622Y-39585824D02*
X178534363Y-39741145D01*
X177604853Y-40967173D02*
X178031594Y-41122494D01*
X129032098Y-51556732D02*
X129353784Y-51968471D01*
X130190474Y-50651709D02*
X130512160Y-51063448D01*
X199153916Y-127357865D02*
X203464439Y-131668388D01*
X197357865Y-129153916D02*
X201668388Y-133464439D01*
X172775901Y-142587219D02*
X174353662Y-148475502D01*
X175229353Y-141929818D02*
X176807114Y-147818102D01*
X127508360Y-65632452D02*
X127197563Y-66052470D01*
X128690029Y-66506842D02*
X128379232Y-66926860D01*
X192969614Y-126316117D02*
X193304432Y-126009313D01*
X193962732Y-127399915D02*
X194297550Y-127093111D01*
X126686635Y-130054571D02*
X126338753Y-129762663D01*
X125741737Y-131180657D02*
X125393855Y-130888749D01*
X146010000Y-90000000D02*
X146010000Y-91950000D01*
X146010000Y-90000000D02*
X146010000Y-88050000D01*
X135890000Y-90000000D02*
X135890000Y-93450000D01*
X135890000Y-90000000D02*
X135890000Y-88050000D01*
X202578264Y-114350509D02*
X202801887Y-113955256D01*
X203857687Y-115074372D02*
X204081310Y-114679119D01*
X152265000Y-70261252D02*
X152265000Y-69738748D01*
X153735000Y-70261252D02*
X153735000Y-69738748D01*
X203011518Y-68157224D02*
X203894466Y-69895874D01*
X193988372Y-72739498D02*
X193105424Y-71000848D01*
X193988372Y-72739498D02*
X195550511Y-75815570D01*
X203011518Y-68157224D02*
X202128570Y-66418574D01*
X111122494Y-108031594D02*
X110967173Y-107604853D01*
X109741145Y-108534363D02*
X109585824Y-108107622D01*
X135632452Y-122491639D02*
X136052470Y-122802436D01*
X136506842Y-121309970D02*
X136926860Y-121620767D01*
X181713482Y-139569789D02*
X184289763Y-145094641D01*
X184015504Y-138496339D02*
X186591785Y-144021191D01*
X159200000Y-65735000D02*
X161660000Y-65735000D01*
X161660000Y-64265000D02*
X159200000Y-64265000D01*
X161660000Y-65735000D02*
X161660000Y-64265000D01*
X141968405Y-41122494D02*
X142395146Y-40967173D01*
X141465636Y-39741145D02*
X141892377Y-39585824D01*
X172775901Y-37412780D02*
X174353662Y-31524497D01*
X175229353Y-38070181D02*
X176807114Y-32181897D01*
X125393855Y-49111250D02*
X125741737Y-48819342D01*
X126338753Y-50237336D02*
X126686635Y-49945428D01*
X211929818Y-105229353D02*
X217818102Y-106807114D01*
X212587219Y-102775901D02*
X218475502Y-104353662D01*
X172668008Y-52962663D02*
X172172505Y-52796870D01*
X173134445Y-51568628D02*
X172638942Y-51402835D01*
X113365902Y-106191252D02*
X113856895Y-106012545D01*
X113868671Y-107572601D02*
X114359664Y-107393894D01*
X194941795Y-116180566D02*
X195252592Y-115760548D01*
X193760126Y-115306176D02*
X194070923Y-114886158D01*
X108070181Y-105229353D02*
X102181897Y-106807114D01*
X107412780Y-102775901D02*
X101524497Y-104353662D01*
X184110000Y-90000000D02*
X184110000Y-86550000D01*
X173990000Y-90000000D02*
X173990000Y-88050000D01*
X184110000Y-90000000D02*
X184110000Y-91950000D01*
X173990000Y-90000000D02*
X173990000Y-91950000D01*
X143808747Y-43365902D02*
X143987454Y-43856895D01*
X142427398Y-43868671D02*
X142606105Y-44359664D01*
X186586857Y-43496084D02*
X186980143Y-43723148D01*
X185851857Y-44769142D02*
X186245143Y-44996206D01*
X185141382Y-125696807D02*
X185566761Y-125393387D01*
X184287749Y-124500057D02*
X184713128Y-124196637D01*
X178031594Y-138877505D02*
X177604853Y-139032826D01*
X178534363Y-140258854D02*
X178107622Y-140414175D01*
X134858617Y-54303192D02*
X134433238Y-54606612D01*
X135712250Y-55499942D02*
X135286871Y-55803362D01*
X186980142Y-136276851D02*
X186586856Y-136503915D01*
X186245142Y-135003793D02*
X185851856Y-135230857D01*
X194258262Y-48819342D02*
X194606144Y-49111250D01*
X193313364Y-49945428D02*
X193661246Y-50237336D01*
X108070181Y-74770646D02*
X102181897Y-73192885D01*
X107412780Y-77224098D02*
X101524497Y-75646337D01*
X199927827Y-103635152D02*
X200093620Y-103139649D01*
X201321862Y-104101589D02*
X201487655Y-103606086D01*
X209569789Y-68286517D02*
X215094641Y-65710236D01*
X208496339Y-65984495D02*
X214021191Y-63408214D01*
X184367547Y-57508360D02*
X183947529Y-57197563D01*
X183493157Y-58690029D02*
X183073139Y-58379232D01*
X127030385Y-53683882D02*
X126695567Y-53990686D01*
X126037267Y-52600084D02*
X125702449Y-52906888D01*
X182517766Y-122018633D02*
X182943145Y-121715213D01*
X183371399Y-123215383D02*
X183796778Y-122911963D01*
X125934995Y-55843403D02*
X127315703Y-54466398D01*
X125934995Y-55843403D02*
X124554286Y-57220409D01*
X133081301Y-63008925D02*
X135524093Y-60572684D01*
X133081301Y-63008925D02*
X131700593Y-64385930D01*
X113496084Y-63413142D02*
X113723148Y-63019856D01*
X114769142Y-64148142D02*
X114996206Y-63754856D01*
X200509833Y-118210798D02*
X200076657Y-117918617D01*
X201331847Y-116992113D02*
X200898671Y-116699932D01*
X120846083Y-52642134D02*
X116535560Y-48331611D01*
X122642134Y-50846083D02*
X118331611Y-46535560D01*
X176191252Y-136634097D02*
X176012545Y-136143104D01*
X177572601Y-136131328D02*
X177393894Y-135640335D01*
X142395146Y-139032826D02*
X141968405Y-138877505D01*
X141892377Y-140414175D02*
X141465636Y-140258854D01*
X152265000Y-74772936D02*
X152265000Y-75227064D01*
X153735000Y-74772936D02*
X153735000Y-75227064D01*
X133754857Y-44996206D02*
X134148143Y-44769142D01*
X133019857Y-43723148D02*
X133413143Y-43496084D01*
X180133669Y-134726851D02*
X180546908Y-134538528D01*
X180743268Y-136064494D02*
X181156507Y-135876171D01*
X122600084Y-123962732D02*
X122906888Y-124297550D01*
X123683882Y-122969614D02*
X123990686Y-123304432D01*
X135984495Y-41503660D02*
X133408214Y-35978808D01*
X138286517Y-40430210D02*
X135710236Y-34905358D01*
X131789201Y-130509833D02*
X132081382Y-130076657D01*
X133007886Y-131331847D02*
X133300067Y-130898671D01*
X145898410Y-131321862D02*
X146393913Y-131487655D01*
X146364847Y-129927827D02*
X146860350Y-130093620D01*
X166265000Y-69738748D02*
X166265000Y-70261252D01*
X167735000Y-69738748D02*
X167735000Y-70261252D01*
X196316117Y-57030385D02*
X196009313Y-56695567D01*
X197399915Y-56037267D02*
X197093111Y-55702449D01*
X206064494Y-69256731D02*
X205876171Y-68843492D01*
X204726851Y-69866330D02*
X204538528Y-69453091D01*
X195696807Y-64858617D02*
X195393387Y-64433238D01*
X194500057Y-65712250D02*
X194196637Y-65286871D01*
X210258854Y-71465636D02*
X210414175Y-71892377D01*
X208877505Y-71968405D02*
X209032826Y-72395146D01*
X121556732Y-120967901D02*
X121968471Y-120646215D01*
X120651709Y-119809525D02*
X121063448Y-119487839D01*
X117047286Y-68041811D02*
X117934899Y-66305539D01*
X126058096Y-72648297D02*
X127628489Y-69576430D01*
X117047286Y-68041811D02*
X116159673Y-69778084D01*
X126058096Y-72648297D02*
X125170483Y-74384569D01*
X135984495Y-138496339D02*
X133408214Y-144021191D01*
X138286517Y-139569789D02*
X135710236Y-145094641D01*
X114996206Y-116245143D02*
X114769142Y-115851857D01*
X113723148Y-116980143D02*
X113496084Y-116586857D01*
X186991074Y-63081301D02*
X189427315Y-65524093D01*
X194156596Y-55934995D02*
X195533601Y-57315703D01*
X194156596Y-55934995D02*
X192779590Y-54554286D01*
X186991074Y-63081301D02*
X185614069Y-61700593D01*
X203589322Y-57928044D02*
X208582873Y-54431522D01*
X205046206Y-60008690D02*
X210039757Y-56512168D01*
X192018633Y-67482233D02*
X191715213Y-67056854D01*
X193215383Y-66628600D02*
X192911963Y-66203221D01*
X122642134Y-129153916D02*
X118331611Y-133464439D01*
X120846083Y-127357865D02*
X116535560Y-131668388D01*
X189991309Y-44953793D02*
X193487831Y-39960242D01*
X192071955Y-46410677D02*
X195568477Y-41417126D01*
X200054571Y-123313364D02*
X199762663Y-123661246D01*
X201180657Y-124258262D02*
X200888749Y-124606144D01*
X125843403Y-124065004D02*
X124466398Y-122684296D01*
X133008925Y-116918698D02*
X134385930Y-118299406D01*
X133008925Y-116918698D02*
X130572684Y-114475906D01*
X125843403Y-124065004D02*
X127220409Y-125445713D01*
X206131328Y-72427398D02*
X205640335Y-72606105D01*
X206634097Y-73808747D02*
X206143104Y-73987454D01*
X212587219Y-77224098D02*
X218475502Y-75646337D01*
X211929818Y-74770646D02*
X217818102Y-73192885D01*
X153772936Y-65735000D02*
X154227064Y-65735000D01*
X153772936Y-64265000D02*
X154227064Y-64265000D01*
X116410677Y-122071955D02*
X111417126Y-125568477D01*
X114953793Y-119991309D02*
X109960242Y-123487831D01*
X186180566Y-55058204D02*
X185760548Y-54747407D01*
X185306176Y-56239873D02*
X184886158Y-55929076D01*
X119945428Y-56686635D02*
X120237336Y-56338753D01*
X118819342Y-55741737D02*
X119111250Y-55393855D01*
X203589322Y-122071955D02*
X208582873Y-125568477D01*
X205046206Y-119991309D02*
X210039757Y-123487831D01*
X127928044Y-46410677D02*
X124431522Y-41417126D01*
X130008690Y-44953793D02*
X126512168Y-39960242D01*
X118668152Y-63007886D02*
X119101328Y-63300067D01*
X119490166Y-61789201D02*
X119923342Y-62081382D01*
%LPC*%
D12*
X121900000Y-90000000D03*
D13*
X121900000Y-90000000D03*
D14*
X117162636Y-64614829D03*
X116177788Y-66355541D03*
D15*
X175332222Y-125657380D03*
X175907270Y-126789731D03*
X176482318Y-127922083D03*
X177057366Y-129054434D03*
X177632414Y-130186785D03*
X178207463Y-131319137D03*
X178782511Y-132451488D03*
X179357559Y-133583840D03*
X183771054Y-131342510D03*
X183196006Y-130210159D03*
X182620958Y-129077807D03*
X182045910Y-127945456D03*
X181470862Y-126813105D03*
X180895813Y-125680753D03*
X180320765Y-124548402D03*
X179745717Y-123416050D03*
D16*
X124342619Y-105332222D03*
X123210268Y-105907270D03*
X122077916Y-106482318D03*
X120945565Y-107057366D03*
X119813214Y-107632414D03*
X118680862Y-108207463D03*
X117548511Y-108782511D03*
X116416159Y-109357559D03*
X118657489Y-113771054D03*
X119789840Y-113196006D03*
X120922192Y-112620958D03*
X122054543Y-112045910D03*
X123186894Y-111470862D03*
X124319246Y-110895813D03*
X125451597Y-110320765D03*
X126583949Y-109745717D03*
D17*
X104751476Y-64237190D03*
D18*
X112117946Y-67672231D03*
D19*
X185600547Y-119174267D03*
X186497366Y-120073497D03*
X187394185Y-120972727D03*
X188291004Y-121871958D03*
X189187823Y-122771188D03*
X190084642Y-123670419D03*
X190981462Y-124569649D03*
X191878281Y-125468880D03*
X195383155Y-121973403D03*
X194486336Y-121074173D03*
X193589517Y-120174943D03*
X192692698Y-119275712D03*
X191795879Y-118376482D03*
X190899060Y-117477251D03*
X190002240Y-116578021D03*
X189105421Y-115678790D03*
D20*
X120171127Y-124725798D03*
X118885551Y-123193710D03*
D17*
X203105229Y-46894770D03*
D18*
X197357865Y-52642134D03*
D17*
X125034780Y-139935508D03*
D18*
X129696809Y-133277441D03*
D21*
X167000000Y-76000000D03*
X167000000Y-74000000D03*
D17*
X110064491Y-55034780D03*
D18*
X116722558Y-59696809D03*
D22*
X153750000Y-104000000D03*
D23*
X156250000Y-104000000D03*
X158750000Y-104000000D03*
X161250000Y-104000000D03*
X163750000Y-104000000D03*
X166250000Y-104000000D03*
D24*
X140164627Y-123362911D03*
X139586540Y-124493714D03*
X139008453Y-125624517D03*
X138430367Y-126755320D03*
X137852280Y-127886123D03*
X137274193Y-129016927D03*
X136696107Y-130147730D03*
X136118020Y-131278533D03*
X140525481Y-133531705D03*
X141103568Y-132400902D03*
X141681655Y-131270099D03*
X142259741Y-130139296D03*
X142837828Y-129008493D03*
X143415915Y-127877689D03*
X143994001Y-126746886D03*
X144572088Y-125616083D03*
D17*
X104751476Y-115762809D03*
D18*
X112117946Y-112327768D03*
D25*
X191439074Y-114554344D03*
X192673332Y-112886342D03*
D17*
X185762809Y-34751476D03*
D18*
X182327768Y-42117946D03*
D26*
X110012139Y-72870084D03*
X110696179Y-70990698D03*
D17*
X144222391Y-148882838D03*
D18*
X146326072Y-141031793D03*
D27*
X134614829Y-132837363D03*
X136355541Y-133822211D03*
D28*
X179835372Y-56637088D03*
X180413459Y-55506285D03*
X180991546Y-54375482D03*
X181569632Y-53244679D03*
X182147719Y-52113876D03*
X182725806Y-50983072D03*
X183303892Y-49852269D03*
X183881979Y-48721466D03*
X179474518Y-46468294D03*
X178896431Y-47599097D03*
X178318344Y-48729900D03*
X177740258Y-49860703D03*
X177162171Y-50991506D03*
X176584084Y-52122310D03*
X176005998Y-53253113D03*
X175427911Y-54383916D03*
D29*
X140264872Y-44283795D03*
X138444950Y-45113181D03*
D30*
X137687372Y-56932222D03*
X135998082Y-58137180D03*
D31*
X124450798Y-114082610D03*
X125655756Y-115771900D03*
D32*
X119621462Y-75395494D03*
X118963054Y-77363266D03*
D33*
X133632636Y-123889230D03*
X135300638Y-125123488D03*
D34*
X190866619Y-129507470D03*
X189589121Y-127872348D03*
D35*
X161000000Y-77000000D03*
X159000000Y-77000000D03*
D36*
X209987860Y-107129915D03*
X209303820Y-109009301D03*
D37*
X144667777Y-54342619D03*
X144092729Y-53210268D03*
X143517681Y-52077916D03*
X142942633Y-50945565D03*
X142367585Y-49813214D03*
X141792536Y-48680862D03*
X141217488Y-47548511D03*
X140642440Y-46416159D03*
X136228945Y-48657489D03*
X136803993Y-49789840D03*
X137379041Y-50922192D03*
X137954089Y-52054543D03*
X138529137Y-53186894D03*
X139104186Y-54319246D03*
X139679234Y-55451597D03*
X140254282Y-56583949D03*
D38*
X199828872Y-55274201D03*
X201114448Y-56806289D03*
D32*
X122511953Y-76362638D03*
X121853545Y-78330410D03*
D39*
X134450025Y-136253854D03*
X132717975Y-135253854D03*
D40*
X126110769Y-63632636D03*
X124876511Y-65300638D03*
D17*
X215248523Y-115762809D03*
D18*
X207882053Y-112327768D03*
D41*
X185385170Y-47162636D03*
X183644458Y-46177788D03*
D17*
X194965219Y-139935508D03*
D18*
X190303190Y-133277441D03*
D42*
X206253854Y-115549974D03*
X205253854Y-117282024D03*
D43*
X193362911Y-109835372D03*
X194493714Y-110413459D03*
X195624517Y-110991546D03*
X196755320Y-111569632D03*
X197886123Y-112147719D03*
X199016927Y-112725806D03*
X200147730Y-113303892D03*
X201278533Y-113881979D03*
X203531705Y-109474518D03*
X202400902Y-108896431D03*
X201270099Y-108318344D03*
X200139296Y-107740258D03*
X199008493Y-107162171D03*
X197877689Y-106584084D03*
X196746886Y-106005998D03*
X195616083Y-105427911D03*
D44*
X157850000Y-70000000D03*
X157850000Y-70500000D03*
X157850000Y-71000000D03*
X157850000Y-71500000D03*
X157850000Y-72000000D03*
X162150000Y-72000000D03*
X162150000Y-71500000D03*
X162150000Y-71000000D03*
X162150000Y-70500000D03*
X162150000Y-70000000D03*
D45*
X160000000Y-71000000D03*
D46*
X174604505Y-49621462D03*
X172636733Y-48963054D03*
D47*
X197488046Y-103637361D03*
X198146454Y-101669589D03*
D48*
X199507470Y-59133380D03*
X197872348Y-60410878D03*
D17*
X144222391Y-31117161D03*
D18*
X146326072Y-38968206D03*
D49*
X205253854Y-62717974D03*
X206253854Y-64450024D03*
D50*
X188035528Y-48435621D03*
X186875202Y-50155873D03*
D51*
X146362638Y-127488046D03*
X148330410Y-128146454D03*
D31*
X126932222Y-112312627D03*
X128137180Y-114001917D03*
D52*
X114283795Y-109735127D03*
X115113181Y-111555049D03*
D53*
X194725798Y-129828872D03*
X193193710Y-131114448D03*
D54*
X164962500Y-65037500D03*
X167037500Y-65037500D03*
D55*
X177129915Y-40012139D03*
X179009301Y-40696179D03*
D56*
X129133380Y-50492529D03*
X130410878Y-52127651D03*
D13*
X160000000Y-128100000D03*
D12*
X160000000Y-128100000D03*
D17*
X203105229Y-133105229D03*
D18*
X197357865Y-127357865D03*
D17*
X175777608Y-148882838D03*
D18*
X173673927Y-141031793D03*
D40*
X128560925Y-65445655D03*
X127326667Y-67113657D03*
D57*
X192896305Y-127380204D03*
X194370859Y-126029024D03*
D58*
X126806289Y-131114448D03*
X125274201Y-129828872D03*
D59*
X136505000Y-92575000D03*
X137775000Y-92575000D03*
X139045000Y-92575000D03*
X140315000Y-92575000D03*
X141585000Y-92575000D03*
X142855000Y-92575000D03*
X144125000Y-92575000D03*
X145395000Y-92575000D03*
X145395000Y-87425000D03*
X144125000Y-87425000D03*
X142855000Y-87425000D03*
X141585000Y-87425000D03*
X140315000Y-87425000D03*
X139045000Y-87425000D03*
X137775000Y-87425000D03*
X136505000Y-87425000D03*
D60*
X202837363Y-115385170D03*
X203822211Y-113644458D03*
D61*
X153000000Y-71037500D03*
X153000000Y-68962500D03*
D62*
X195657380Y-74667777D03*
X196789731Y-74092729D03*
X197922083Y-73517681D03*
X199054434Y-72942633D03*
X200186785Y-72367585D03*
X201319137Y-71792536D03*
X202451488Y-71217488D03*
X203583840Y-70642440D03*
X201342510Y-66228945D03*
X200210159Y-66803993D03*
X199077807Y-67379041D03*
X197945456Y-67954089D03*
X196813105Y-68529137D03*
X195680753Y-69104186D03*
X194548402Y-69679234D03*
X193416050Y-70254282D03*
D63*
X110696179Y-109009301D03*
X110012139Y-107129915D03*
D33*
X135445655Y-121439074D03*
X137113657Y-122673332D03*
D17*
X185762809Y-145248523D03*
D18*
X182327768Y-137882053D03*
D64*
X160875000Y-65000000D03*
X159125000Y-65000000D03*
D65*
X140990698Y-40696179D03*
X142870084Y-40012139D03*
D17*
X175777608Y-31117161D03*
D18*
X173673927Y-38968206D03*
D66*
X125274201Y-50171127D03*
X126806289Y-48885551D03*
D17*
X218882838Y-105777608D03*
D18*
X211031793Y-103673927D03*
D46*
X173637361Y-52511953D03*
X171669589Y-51853545D03*
D67*
X112887852Y-107147419D03*
X114837714Y-106437727D03*
D25*
X193889230Y-116367363D03*
X195123488Y-114699361D03*
D17*
X101117161Y-105777608D03*
D18*
X108968206Y-103673927D03*
D68*
X183495000Y-87425000D03*
X182225000Y-87425000D03*
X180955000Y-87425000D03*
X179685000Y-87425000D03*
X178415000Y-87425000D03*
X177145000Y-87425000D03*
X175875000Y-87425000D03*
X174605000Y-87425000D03*
X174605000Y-92575000D03*
X175875000Y-92575000D03*
X177145000Y-92575000D03*
X178415000Y-92575000D03*
X179685000Y-92575000D03*
X180955000Y-92575000D03*
X182225000Y-92575000D03*
X183495000Y-92575000D03*
D69*
X142852580Y-42887852D03*
X143562272Y-44837714D03*
D70*
X185549975Y-43746145D03*
X187282025Y-44746145D03*
D71*
X184082610Y-125549201D03*
X185771900Y-124344243D03*
D72*
X179009301Y-139303820D03*
X177129915Y-139987860D03*
D30*
X135917389Y-54450798D03*
X134228099Y-55655756D03*
D73*
X187282024Y-135253854D03*
X185549974Y-136253854D03*
D74*
X193193710Y-48885551D03*
X194725798Y-50171127D03*
D17*
X101117161Y-74222391D03*
D18*
X108968206Y-76326072D03*
D47*
X200378537Y-104604505D03*
X201036945Y-102636733D03*
D17*
X215248523Y-64237190D03*
D18*
X207882053Y-67672231D03*
D75*
X184554344Y-58560925D03*
X182886342Y-57326667D03*
D76*
X127103694Y-52619795D03*
X125629140Y-53970975D03*
D71*
X182312627Y-123067777D03*
X184001917Y-121862819D03*
D77*
X134399452Y-60825732D03*
X133502633Y-59926502D03*
X132605814Y-59027272D03*
X131708995Y-58128041D03*
X130812176Y-57228811D03*
X129915357Y-56329580D03*
X129018537Y-55430350D03*
X128121718Y-54531119D03*
X124616844Y-58026596D03*
X125513663Y-58925826D03*
X126410482Y-59825056D03*
X127307301Y-60724287D03*
X128204120Y-61623517D03*
X129100939Y-62522748D03*
X129997759Y-63421978D03*
X130894578Y-64321209D03*
D78*
X113746145Y-64450024D03*
X114746145Y-62717974D03*
D79*
X201564378Y-118035528D03*
X199844126Y-116875202D03*
D17*
X116894770Y-46894770D03*
D18*
X122642134Y-52642134D03*
D80*
X177147419Y-137112147D03*
X176437727Y-135162285D03*
D12*
X198100000Y-90000000D03*
D13*
X198100000Y-90000000D03*
D81*
X142870084Y-139987860D03*
X140990698Y-139303820D03*
D82*
X153000000Y-74000000D03*
X153000000Y-76000000D03*
D83*
X132717975Y-44746145D03*
X134450025Y-43746145D03*
D84*
X179735127Y-135716204D03*
X181555049Y-134886818D03*
D85*
X122619795Y-122896305D03*
X123970975Y-124370859D03*
D17*
X134237190Y-34751476D03*
D18*
X137672231Y-42117946D03*
D86*
X131964471Y-131564378D03*
X133124797Y-129844126D03*
D51*
X145395494Y-130378537D03*
X147363266Y-131036945D03*
D87*
X167000000Y-68962500D03*
X167000000Y-71037500D03*
D88*
X197380204Y-57103694D03*
X196029024Y-55629140D03*
D89*
X205716204Y-70264872D03*
X204886818Y-68444950D03*
D90*
X195549201Y-65917389D03*
X194344243Y-64228099D03*
D91*
X209303820Y-70990698D03*
X209987860Y-72870084D03*
D92*
X120492529Y-120866619D03*
X122127651Y-119589121D03*
D93*
X126637088Y-70164627D03*
X125506285Y-69586540D03*
X124375482Y-69008453D03*
X123244679Y-68430367D03*
X122113876Y-67852280D03*
X120983072Y-67274193D03*
X119852269Y-66696107D03*
X118721466Y-66118020D03*
X116468294Y-70525481D03*
X117599097Y-71103568D03*
X118729900Y-71681655D03*
X119860703Y-72259741D03*
X120991506Y-72837828D03*
X122122310Y-73415915D03*
X123253113Y-73994001D03*
X124383916Y-74572088D03*
D17*
X134237190Y-145248523D03*
D18*
X137672231Y-137882053D03*
D94*
X114746145Y-117282025D03*
X113746145Y-115549975D03*
D95*
X189174267Y-64399452D03*
X190073497Y-63502633D03*
X190972727Y-62605814D03*
X191871958Y-61708995D03*
X192771188Y-60812176D03*
X193670419Y-59915357D03*
X194569649Y-59018537D03*
X195468880Y-58121718D03*
X191973403Y-54616844D03*
X191074173Y-55513663D03*
X190174943Y-56410482D03*
X189275712Y-57307301D03*
X188376482Y-58204120D03*
X187477251Y-59100939D03*
X186578021Y-59997759D03*
X185678790Y-60894578D03*
D17*
X209935508Y-55034780D03*
D18*
X203277441Y-59696809D03*
D90*
X193067777Y-67687372D03*
X191862819Y-65998082D03*
D17*
X116894770Y-133105229D03*
D18*
X122642134Y-127357865D03*
D17*
X194965219Y-40064491D03*
D18*
X190303190Y-46722558D03*
D13*
X160000000Y-51900000D03*
D12*
X160000000Y-51900000D03*
D96*
X201114448Y-123193710D03*
X199828872Y-124725798D03*
D97*
X130825732Y-115600547D03*
X129926502Y-116497366D03*
X129027272Y-117394185D03*
X128128041Y-118291004D03*
X127228811Y-119187823D03*
X126329580Y-120084642D03*
X125430350Y-120981462D03*
X124531119Y-121878281D03*
X128026596Y-125383155D03*
X128925826Y-124486336D03*
X129825056Y-123589517D03*
X130724287Y-122692698D03*
X131623517Y-121795879D03*
X132522748Y-120899060D03*
X133421978Y-120002240D03*
X134321209Y-119105421D03*
D98*
X207112147Y-72852580D03*
X205162285Y-73562272D03*
D17*
X218882838Y-74222391D03*
D18*
X211031793Y-76326072D03*
D99*
X160000000Y-90000000D03*
D100*
X160000000Y-90000000D03*
D101*
X153000000Y-65000000D03*
X155000000Y-65000000D03*
D17*
X110064491Y-124965219D03*
D18*
X116722558Y-120303190D03*
D75*
X186367363Y-56110769D03*
X184699361Y-54876511D03*
D102*
X118885551Y-56806289D03*
X120171127Y-55274201D03*
D17*
X209935508Y-124965219D03*
D18*
X203277441Y-120303190D03*
D17*
X125034780Y-40064491D03*
D18*
X129696809Y-46722558D03*
D103*
X118435621Y-61964471D03*
X120155873Y-63124797D03*
M02*
