M48
; DRILL file {KiCad 8.0.1-rc1} date 2024-04-13T15:11:49-0700
; FORMAT={-:-/ absolute / inch / decimal}
; #@! TF.CreationDate,2024-04-13T15:11:49-07:00
; #@! TF.GenerationSoftware,Kicad,Pcbnew,8.0.1-rc1
; #@! TF.FileFunction,Plated,1,4,PTH
FMAT,2
INCH
; #@! TA.AperFunction,Plated,PTH,ViaDrill
T1C0.0157
; #@! TA.AperFunction,Plated,PTH,ComponentDrill
T2C0.0197
; #@! TA.AperFunction,Plated,PTH,ComponentDrill
T3C0.0374
; #@! TA.AperFunction,Plated,PTH,ComponentDrill
T4C0.1457
%
G90
G05
T1
X8.3869Y-4.4206
X8.45Y-3.8
X8.452Y-5.0205
X8.4669Y-4.4106
X8.4819Y-4.7374
X8.4823Y-4.9453
X8.5Y-4.1173
X8.5Y-4.3213
X8.5154Y-5.3248
X8.5154Y-5.5276
X8.55Y-5.5807
X8.5587Y-4.3161
X8.563Y-4.5516
X8.5697Y-4.9421
X8.5782Y-4.1644
X8.5791Y-3.9134
X8.5858Y-5.1398
X8.5862Y-3.9858
X8.5902Y-4.5976
X8.5988Y-4.3217
X8.6Y-5.35
X8.6Y-5.54
X8.61Y-3.85
X8.61Y-4.42
X8.6169Y-4.7606
X8.6181Y-5.0508
X8.62Y-5.7
X8.64Y-5.77
X8.6516Y-5.5425
X8.6724Y-5.2046
X8.6854Y-5.3484
X8.7004Y-4.7606
X8.71Y-4.15
X8.71Y-5.93
X8.7157Y-4.598
X8.7236Y-6.0059
X8.73Y-3.87
X8.7343Y-4.5173
X8.7846Y-4.9087
X8.7945Y-4.7
X8.8Y-5.9
X8.8016Y-4.5602
X8.8094Y-4.8181
X8.83Y-3.71
X8.8382Y-5.4067
X8.8618Y-4.6386
X8.8646Y-5.0969
X8.878Y-4.4689
X8.8807Y-5.865
X8.8827Y-5.8224
X8.8909Y-4.2591
X8.8917Y-5.6287
X8.9232Y-5.0197
X8.9484Y-3.939
X8.95Y-3.7
X8.9836Y-4.3336
X9.0173Y-5.05
X9.025Y-5.975
X9.0272Y-5.1681
X9.0307Y-5.2185
X9.0465Y-5.8642
X9.05Y-5.9
X9.0657Y-4.6157
X9.0697Y-4.6701
X9.0736Y-4.4063
X9.0744Y-4.3035
X9.0827Y-3.6425
X9.0957Y-3.5669
X9.1114Y-5.3799
X9.1455Y-5.1583
X9.1697Y-5.2866
X9.18Y-4.28
X9.18Y-4.33
X9.18Y-4.37
X9.1807Y-5.5898
X9.1843Y-4.5571
X9.185Y-4.8134
X9.1858Y-5.1193
X9.202Y-4.6504
X9.2094Y-3.8976
X9.2118Y-4.9469
X9.2209Y-4.1567
X9.2252Y-5.3004
X9.2283Y-4.5941
X9.2283Y-4.7996
X9.2283Y-5.975
X9.2358Y-5.0138
X9.24Y-5.89
X9.25Y-3.75
X9.25Y-5.85
X9.2778Y-4.8494
X9.278Y-4.1559
X9.28Y-5.9
X9.29Y-3.78
X9.3Y-3.5685
X9.3169Y-4.2122
X9.32Y-4.4
X9.3291Y-4.1496
X9.34Y-5.85
X9.35Y-5.9
X9.3543Y-5.5827
X9.3598Y-4.211
X9.389Y-4.5957
X9.39Y-4.15
X9.4Y-4.4
X9.408Y-4.21
X9.43Y-4.15
X9.4319Y-3.6642
X9.4339Y-3.7689
X9.45Y-3.96
X9.45Y-4.4
X9.4583Y-3.7331
X9.4626Y-4.2059
X9.4693Y-3.6894
X9.47Y-4.15
X9.4846Y-4.5311
X9.5Y-4.4
X9.5224Y-3.9524
X9.535Y-3.6937
X9.55Y-3.6
X9.5528Y-6.1256
X9.5531Y-5.8988
X9.5689Y-3.6543
X9.5783Y-4.0937
X9.5783Y-4.4028
X9.5933Y-4.0205
X9.6Y-5.85
X9.6075Y-3.5717
X9.615Y-4.3803
X9.6614Y-5.8909
X9.6646Y-4.1831
X9.6654Y-4.2134
X9.6862Y-5.7957
X9.7039Y-5.224
X9.7181Y-4.5931
X9.7181Y-5.0827
X9.8008Y-5.0949
X9.8063Y-3.5724
X9.825Y-5.975
X9.8398Y-5.8256
X9.85Y-5.9
X9.9112Y-5.2376
X9.9314Y-5.6469
X9.9449Y-3.6854
X9.9492Y-3.7646
X9.9559Y-4.2307
X9.9777Y-3.9468
X9.9906Y-3.7571
X10.0079Y-3.6756
X10.0083Y-5.1339
X10.024Y-5.8496
X10.025Y-5.975
X10.0472Y-5.9209
X10.08Y-3.67
X10.0882Y-4.6138
X10.1Y-3.45
X10.1Y-5.9
X10.1024Y-4.572
X10.1049Y-4.2947
X10.11Y-3.6
X10.1213Y-4.4665
X10.1272Y-4.0524
X10.1323Y-4.7681
X10.1492Y-4.3654
X10.1496Y-3.576
X10.15Y-3.7
X10.1802Y-5.604
X10.1913Y-4.7689
X10.1933Y-4.7173
X10.1945Y-4.8362
X10.225Y-5.875
X10.2299Y-4.4949
X10.235Y-5.9343
X10.239Y-5.1484
X10.239Y-5.8055
X10.2433Y-5.0469
X10.2504Y-4.2622
X10.2909Y-5.4055
X10.3Y-3.7
X10.3181Y-3.7579
X10.3181Y-4.9705
X10.3476Y-3.6799
X10.35Y-3.58
X10.375Y-5.975
X10.3854Y-5.8213
X10.3969Y-4.6665
X10.4028Y-5.8768
X10.4154Y-5.161
X10.4429Y-4.5594
X10.4433Y-3.937
X10.4557Y-5.0299
X10.4669Y-5.6465
X10.4959Y-3.675
X10.502Y-4.5433
X10.5079Y-4.4724
X10.524Y-4.7295
X10.5244Y-4.802
X10.5472Y-4.9508
X10.5665Y-4.726
X10.5681Y-3.689
X10.5732Y-5.8449
X10.5752Y-5.9106
X10.576Y-4.8465
X10.5882Y-5.9756
X10.5921Y-5.0291
X10.63Y-3.7
X10.65Y-3.5
X10.6591Y-3.5811
X10.665Y-5.9232
X10.67Y-5.87
X10.69Y-3.74
X10.7081Y-5.5156
X10.7218Y-5.599
X10.75Y-4.4472
X10.75Y-5.15
X10.7508Y-4.0598
X10.755Y-4.395
X10.7575Y-4.6209
X10.7598Y-4.9701
X10.7673Y-4.8154
X10.7709Y-5.5224
X10.7744Y-4.2102
X10.78Y-4.53
X10.78Y-5.09
X10.7898Y-5.3394
X10.8Y-3.84
X10.8Y-4.05
X10.8Y-4.25
X10.8Y-4.45
X10.8Y-4.6
X10.8Y-5.0
X10.8Y-5.55
X10.8Y-5.7
X10.8039Y-5.7764
X10.8075Y-4.7961
X10.81Y-3.93
X10.81Y-5.16
X10.81Y-5.38
X10.8717Y-4.6283
X10.8748Y-5.1776
X10.875Y-4.275
X10.875Y-5.385
X10.8772Y-4.824
X10.8872Y-4.0719
X10.8996Y-5.6787
X10.9193Y-5.1193
X10.95Y-5.69
X11.0Y-4.55
T2
X8.6059Y-4.4984
X8.64Y-3.95
X8.6752Y-3.8091
X8.724Y-3.9398
X8.8476Y-5.1992
X8.9Y-3.55
X9.0551Y-5.5902
X9.2626Y-5.1827
X9.34Y-3.91
X9.4618Y-6.1803
X9.5902Y-5.7622
X9.6563Y-5.6177
X9.7449Y-4.4484
X9.85Y-5.63
X9.8717Y-3.9039
X10.28Y-3.98
X10.2953Y-5.6248
X10.4012Y-5.5839
X10.478Y-5.3406
X10.51Y-4.28
X10.5508Y-3.7579
X11.0783Y-4.3701
X11.0921Y-5.7807
T3
X9.5047Y-5.4087
X9.6031Y-5.4087
X9.7016Y-5.4087
X9.8Y-5.4087
X9.8984Y-5.4087
X9.9969Y-5.4087
X10.0953Y-5.4087
T4
X8.5Y-3.6378
X8.5Y-6.0
X10.8622Y-3.6378
X10.8622Y-6.0
M30
