%TF.GenerationSoftware,KiCad,Pcbnew,8.0.1-rc1*%
%TF.CreationDate,2024-04-13T15:11:56-07:00*%
%TF.ProjectId,PCB,5043422e-6b69-4636-9164-5f7063625858,rev?*%
%TF.SameCoordinates,Original*%
%TF.FileFunction,Drillmap*%
%TF.FilePolarity,Positive*%
%FSLAX45Y45*%
G04 Gerber Fmt 4.5, Leading zero omitted, Abs format (unit mm)*
G04 Created by KiCad (PCBNEW 8.0.1-rc1) date 2024-04-13 15:11:56*
%MOMM*%
%LPD*%
G01*
G04 APERTURE LIST*
%ADD10C,0.200000*%
G04 APERTURE END LIST*
D10*
X28028000Y-8382000D02*
G75*
G02*
X28328000Y-8682000I0J-300000D01*
G01*
X28328000Y-15582000D02*
G75*
G02*
X28028000Y-15882000I-300000J0D01*
G01*
X20828000Y-8682000D02*
G75*
G02*
X21128000Y-8382000I300000J0D01*
G01*
X21128000Y-8382000D02*
X28028000Y-8382000D01*
X28028000Y-15882000D02*
X21128000Y-15882000D01*
X28328000Y-8682000D02*
X28328000Y-15582000D01*
X20828000Y-15582000D02*
X20828000Y-8682000D01*
X21128000Y-15882000D02*
G75*
G02*
X20828000Y-15582000I0J300000D01*
G01*
X21078777Y-16203484D02*
X21078777Y-16003484D01*
X21078777Y-16003484D02*
X21126396Y-16003484D01*
X21126396Y-16003484D02*
X21154967Y-16013008D01*
X21154967Y-16013008D02*
X21174015Y-16032055D01*
X21174015Y-16032055D02*
X21183539Y-16051103D01*
X21183539Y-16051103D02*
X21193063Y-16089198D01*
X21193063Y-16089198D02*
X21193063Y-16117769D01*
X21193063Y-16117769D02*
X21183539Y-16155865D01*
X21183539Y-16155865D02*
X21174015Y-16174912D01*
X21174015Y-16174912D02*
X21154967Y-16193960D01*
X21154967Y-16193960D02*
X21126396Y-16203484D01*
X21126396Y-16203484D02*
X21078777Y-16203484D01*
X21278777Y-16203484D02*
X21278777Y-16070150D01*
X21278777Y-16108246D02*
X21288301Y-16089198D01*
X21288301Y-16089198D02*
X21297824Y-16079674D01*
X21297824Y-16079674D02*
X21316872Y-16070150D01*
X21316872Y-16070150D02*
X21335920Y-16070150D01*
X21402586Y-16203484D02*
X21402586Y-16070150D01*
X21402586Y-16003484D02*
X21393063Y-16013008D01*
X21393063Y-16013008D02*
X21402586Y-16022531D01*
X21402586Y-16022531D02*
X21412110Y-16013008D01*
X21412110Y-16013008D02*
X21402586Y-16003484D01*
X21402586Y-16003484D02*
X21402586Y-16022531D01*
X21526396Y-16203484D02*
X21507348Y-16193960D01*
X21507348Y-16193960D02*
X21497824Y-16174912D01*
X21497824Y-16174912D02*
X21497824Y-16003484D01*
X21631158Y-16203484D02*
X21612110Y-16193960D01*
X21612110Y-16193960D02*
X21602586Y-16174912D01*
X21602586Y-16174912D02*
X21602586Y-16003484D01*
X21859729Y-16203484D02*
X21859729Y-16003484D01*
X21859729Y-16003484D02*
X21926396Y-16146341D01*
X21926396Y-16146341D02*
X21993063Y-16003484D01*
X21993063Y-16003484D02*
X21993063Y-16203484D01*
X22174015Y-16203484D02*
X22174015Y-16098722D01*
X22174015Y-16098722D02*
X22164491Y-16079674D01*
X22164491Y-16079674D02*
X22145444Y-16070150D01*
X22145444Y-16070150D02*
X22107348Y-16070150D01*
X22107348Y-16070150D02*
X22088301Y-16079674D01*
X22174015Y-16193960D02*
X22154967Y-16203484D01*
X22154967Y-16203484D02*
X22107348Y-16203484D01*
X22107348Y-16203484D02*
X22088301Y-16193960D01*
X22088301Y-16193960D02*
X22078777Y-16174912D01*
X22078777Y-16174912D02*
X22078777Y-16155865D01*
X22078777Y-16155865D02*
X22088301Y-16136817D01*
X22088301Y-16136817D02*
X22107348Y-16127293D01*
X22107348Y-16127293D02*
X22154967Y-16127293D01*
X22154967Y-16127293D02*
X22174015Y-16117769D01*
X22269253Y-16070150D02*
X22269253Y-16270150D01*
X22269253Y-16079674D02*
X22288301Y-16070150D01*
X22288301Y-16070150D02*
X22326396Y-16070150D01*
X22326396Y-16070150D02*
X22345444Y-16079674D01*
X22345444Y-16079674D02*
X22354967Y-16089198D01*
X22354967Y-16089198D02*
X22364491Y-16108246D01*
X22364491Y-16108246D02*
X22364491Y-16165388D01*
X22364491Y-16165388D02*
X22354967Y-16184436D01*
X22354967Y-16184436D02*
X22345444Y-16193960D01*
X22345444Y-16193960D02*
X22326396Y-16203484D01*
X22326396Y-16203484D02*
X22288301Y-16203484D01*
X22288301Y-16203484D02*
X22269253Y-16193960D01*
X22450205Y-16184436D02*
X22459729Y-16193960D01*
X22459729Y-16193960D02*
X22450205Y-16203484D01*
X22450205Y-16203484D02*
X22440682Y-16193960D01*
X22440682Y-16193960D02*
X22450205Y-16184436D01*
X22450205Y-16184436D02*
X22450205Y-16203484D01*
X22450205Y-16079674D02*
X22459729Y-16089198D01*
X22459729Y-16089198D02*
X22450205Y-16098722D01*
X22450205Y-16098722D02*
X22440682Y-16089198D01*
X22440682Y-16089198D02*
X22450205Y-16079674D01*
X22450205Y-16079674D02*
X22450205Y-16098722D01*
M02*
