%TF.GenerationSoftware,KiCad,Pcbnew,8.0.0*%
%TF.CreationDate,2024-02-27T15:47:42-08:00*%
%TF.ProjectId,PCB,5043422e-6b69-4636-9164-5f7063625858,rev?*%
%TF.SameCoordinates,Original*%
%TF.FileFunction,Soldermask,Bot*%
%TF.FilePolarity,Negative*%
%FSLAX46Y46*%
G04 Gerber Fmt 4.6, Leading zero omitted, Abs format (unit mm)*
G04 Created by KiCad (PCBNEW 8.0.0) date 2024-02-27 15:47:42*
%MOMM*%
%LPD*%
G01*
G04 APERTURE LIST*
G04 Aperture macros list*
%AMRoundRect*
0 Rectangle with rounded corners*
0 $1 Rounding radius*
0 $2 $3 $4 $5 $6 $7 $8 $9 X,Y pos of 4 corners*
0 Add a 4 corners polygon primitive as box body*
4,1,4,$2,$3,$4,$5,$6,$7,$8,$9,$2,$3,0*
0 Add four circle primitives for the rounded corners*
1,1,$1+$1,$2,$3*
1,1,$1+$1,$4,$5*
1,1,$1+$1,$6,$7*
1,1,$1+$1,$8,$9*
0 Add four rect primitives between the rounded corners*
20,1,$1+$1,$2,$3,$4,$5,0*
20,1,$1+$1,$4,$5,$6,$7,0*
20,1,$1+$1,$6,$7,$8,$9,0*
20,1,$1+$1,$8,$9,$2,$3,0*%
G04 Aperture macros list end*
%ADD10C,4.000000*%
%ADD11R,1.600000X1.600000*%
%ADD12C,1.600000*%
%ADD13C,4.100000*%
%ADD14C,7.400000*%
%ADD15RoundRect,0.250000X0.600000X0.725000X-0.600000X0.725000X-0.600000X-0.725000X0.600000X-0.725000X0*%
%ADD16O,1.700000X1.950000*%
G04 APERTURE END LIST*
D10*
X136455000Y-89770331D03*
X183555000Y-89770331D03*
D11*
X176625000Y-91190331D03*
D12*
X173855000Y-91190331D03*
X171085000Y-91190331D03*
X168315000Y-91190331D03*
X165545000Y-91190331D03*
X162775000Y-91190331D03*
X160005000Y-91190331D03*
X157235000Y-91190331D03*
X154465000Y-91190331D03*
X151695000Y-91190331D03*
X148925000Y-91190331D03*
X146155000Y-91190331D03*
X143385000Y-91190331D03*
X175240000Y-88350331D03*
X172470000Y-88350331D03*
X169700000Y-88350331D03*
X166930000Y-88350331D03*
X164160000Y-88350331D03*
X161390000Y-88350331D03*
X158620000Y-88350331D03*
X155850000Y-88350331D03*
X153080000Y-88350331D03*
X150310000Y-88350331D03*
X147540000Y-88350331D03*
X144770000Y-88350331D03*
D13*
X160000000Y-134450000D03*
D14*
X160000000Y-134450000D03*
D13*
X160000000Y-45550000D03*
D14*
X160000000Y-45550000D03*
D15*
X167640000Y-101600000D03*
D16*
X165140000Y-101600000D03*
X162640000Y-101600000D03*
X160140000Y-101600000D03*
X157640000Y-101600000D03*
X155140000Y-101600000D03*
X152640000Y-101600000D03*
D13*
X115550000Y-90000000D03*
D14*
X115550000Y-90000000D03*
D13*
X204450000Y-90000000D03*
D14*
X204450000Y-90000000D03*
M02*
