%TF.GenerationSoftware,KiCad,Pcbnew,8.0.1-rc1*%
%TF.CreationDate,2024-04-13T15:11:29-07:00*%
%TF.ProjectId,PCB,5043422e-6b69-4636-9164-5f7063625858,rev?*%
%TF.SameCoordinates,Original*%
%TF.FileFunction,Copper,L4,Bot*%
%TF.FilePolarity,Positive*%
%FSLAX46Y46*%
G04 Gerber Fmt 4.6, Leading zero omitted, Abs format (unit mm)*
G04 Created by KiCad (PCBNEW 8.0.1-rc1) date 2024-04-13 15:11:29*
%MOMM*%
%LPD*%
G01*
G04 APERTURE LIST*
G04 Aperture macros list*
%AMRoundRect*
0 Rectangle with rounded corners*
0 $1 Rounding radius*
0 $2 $3 $4 $5 $6 $7 $8 $9 X,Y pos of 4 corners*
0 Add a 4 corners polygon primitive as box body*
4,1,4,$2,$3,$4,$5,$6,$7,$8,$9,$2,$3,0*
0 Add four circle primitives for the rounded corners*
1,1,$1+$1,$2,$3*
1,1,$1+$1,$4,$5*
1,1,$1+$1,$6,$7*
1,1,$1+$1,$8,$9*
0 Add four rect primitives between the rounded corners*
20,1,$1+$1,$2,$3,$4,$5,0*
20,1,$1+$1,$4,$5,$6,$7,0*
20,1,$1+$1,$6,$7,$8,$9,0*
20,1,$1+$1,$8,$9,$2,$3,0*%
G04 Aperture macros list end*
%TA.AperFunction,ComponentPad*%
%ADD10R,1.000000X1.000000*%
%TD*%
%TA.AperFunction,ComponentPad*%
%ADD11C,4.100000*%
%TD*%
%TA.AperFunction,ConnectorPad*%
%ADD12C,7.400000*%
%TD*%
%TA.AperFunction,ComponentPad*%
%ADD13RoundRect,0.250000X-0.600000X-0.725000X0.600000X-0.725000X0.600000X0.725000X-0.600000X0.725000X0*%
%TD*%
%TA.AperFunction,ComponentPad*%
%ADD14O,1.700000X1.950000*%
%TD*%
%TA.AperFunction,ViaPad*%
%ADD15C,0.800000*%
%TD*%
%TA.AperFunction,Conductor*%
%ADD16C,0.300000*%
%TD*%
G04 APERTURE END LIST*
D10*
X221590000Y-100070000D03*
X226060000Y-90170000D03*
X245270000Y-142690000D03*
D11*
X275900000Y-152400000D03*
D12*
X275900000Y-152400000D03*
D10*
X224730000Y-132060000D03*
X247520000Y-112990000D03*
X220350000Y-96750000D03*
X237236000Y-99314000D03*
X281740000Y-146830000D03*
X235270000Y-131640000D03*
X266954000Y-108712000D03*
X230000000Y-141990000D03*
X250190000Y-143002000D03*
D11*
X215900000Y-92400000D03*
D12*
X215900000Y-92400000D03*
D10*
X218590000Y-114260000D03*
D11*
X215900000Y-152400000D03*
D12*
X215900000Y-152400000D03*
D10*
X219456000Y-100330000D03*
X240330000Y-156980000D03*
X243590000Y-146360000D03*
D11*
X275900000Y-92400000D03*
D12*
X275900000Y-92400000D03*
D10*
X264190000Y-141830000D03*
X267990000Y-95450000D03*
X266140000Y-135650000D03*
X281390000Y-111000000D03*
X261500000Y-142870000D03*
X250740000Y-99160000D03*
X261112000Y-101092000D03*
D13*
X241420000Y-137380000D03*
D14*
X243920000Y-137380000D03*
X246420000Y-137380000D03*
X248920000Y-137380000D03*
X251420000Y-137380000D03*
X253920000Y-137380000D03*
X256420000Y-137380000D03*
D15*
X273812000Y-129286000D03*
X219750000Y-140780000D03*
X242190000Y-93820000D03*
X265260000Y-100000000D03*
X276225000Y-136779000D03*
X233172000Y-110998000D03*
X215440000Y-120330000D03*
X217170000Y-141750000D03*
X262890000Y-90932000D03*
X234696000Y-149606000D03*
X240030000Y-111760000D03*
X249555000Y-151765000D03*
X243050000Y-92820000D03*
X279400000Y-115570000D03*
X276225000Y-108585000D03*
X238760000Y-111760000D03*
X256032000Y-93218000D03*
X276850000Y-144240000D03*
X242570000Y-91440000D03*
X274320000Y-102870000D03*
X242640000Y-155590000D03*
X268610000Y-150130000D03*
X226650000Y-127500000D03*
X238506000Y-105410000D03*
X266900000Y-113600000D03*
X253432500Y-100249475D03*
X236960000Y-105400000D03*
X270510000Y-88900000D03*
X240538000Y-105410000D03*
X214680000Y-127520000D03*
X230370000Y-118620000D03*
X241870000Y-100390000D03*
X233172000Y-109982000D03*
X242650000Y-149830000D03*
X224490000Y-137330000D03*
X252256750Y-143430000D03*
X218440000Y-140716000D03*
X272332500Y-142213750D03*
X217670000Y-125530000D03*
X230700000Y-92520000D03*
X273070000Y-103120000D03*
X264550000Y-131090000D03*
X278130000Y-144526000D03*
X255200000Y-150390000D03*
X229235000Y-151765000D03*
X235660000Y-105560000D03*
X268560000Y-148460000D03*
X249080000Y-90740000D03*
X234210000Y-105580000D03*
X277350000Y-130030000D03*
X215900000Y-104580000D03*
X236728000Y-111760000D03*
X258577500Y-142342500D03*
X257360000Y-121110000D03*
X227290000Y-100050000D03*
X221234000Y-150622000D03*
X274574000Y-131064000D03*
X225850000Y-142970000D03*
X256794000Y-91440000D03*
X235712000Y-149860000D03*
X263525000Y-151765000D03*
X237600000Y-141800000D03*
X216290000Y-135250000D03*
X256540000Y-149860000D03*
X254610000Y-148580000D03*
X257230000Y-102930000D03*
X273240000Y-117370000D03*
X213028000Y-112284000D03*
X274320000Y-116840000D03*
X262080000Y-126250000D03*
X217390000Y-109630000D03*
X233920000Y-99000000D03*
X223130000Y-124680000D03*
X221580000Y-152550000D03*
X268390000Y-120040000D03*
X214630000Y-96520000D03*
X225500000Y-113510000D03*
X218410000Y-109770000D03*
X276280000Y-122530000D03*
X235655000Y-123175000D03*
X265860000Y-143420000D03*
X233172000Y-108712000D03*
X233190000Y-141980000D03*
X225830000Y-108180000D03*
X264080000Y-118530000D03*
X273050000Y-130810000D03*
X239522000Y-105410000D03*
X243670000Y-102120000D03*
X215060000Y-112030000D03*
X270740000Y-90960000D03*
X225160000Y-129460000D03*
X234950000Y-148590000D03*
X256540000Y-87630000D03*
X257810000Y-93980000D03*
X269040000Y-127740000D03*
X236220000Y-90639997D03*
X237740000Y-106960000D03*
X238963200Y-106934000D03*
X224282000Y-94234000D03*
X217885331Y-105774571D03*
X234950000Y-95250000D03*
X218870000Y-120920000D03*
X265250000Y-115810000D03*
X220990000Y-120920000D03*
X261620000Y-93980000D03*
X274060000Y-135620000D03*
X270002000Y-93980000D03*
X274320000Y-127000000D03*
X271526000Y-94996000D03*
X274510000Y-121820000D03*
X240240000Y-94820000D03*
X217910000Y-99400000D03*
X264230000Y-149270000D03*
X274320000Y-144780000D03*
X218948000Y-144780000D03*
X244220000Y-111260000D03*
X237490000Y-149860000D03*
X262830000Y-93470000D03*
X217500000Y-115610000D03*
X223520000Y-149860000D03*
X219456000Y-146558000D03*
X229780000Y-148950000D03*
X262080000Y-95450000D03*
X230270000Y-117240000D03*
X263790000Y-147860000D03*
X218694000Y-112268000D03*
X234400000Y-116690000D03*
X254200000Y-93360000D03*
X245400000Y-149630000D03*
X221850000Y-114740000D03*
X259970000Y-150730000D03*
X218080000Y-130550000D03*
X273490000Y-122310000D03*
X271018000Y-149098000D03*
X273812000Y-115062000D03*
X243840000Y-148590000D03*
X221742000Y-98298000D03*
X240350000Y-106830000D03*
X274574000Y-136652000D03*
X253760000Y-95430000D03*
X249930000Y-147970000D03*
X237236000Y-148590000D03*
X274320000Y-97536000D03*
X218900025Y-128289975D03*
X227330000Y-93980000D03*
X268430000Y-93700000D03*
X250190000Y-149860000D03*
X274320000Y-140970000D03*
X229870000Y-149860000D03*
X220610000Y-135850000D03*
X218694000Y-97790000D03*
X221234000Y-105410000D03*
X270890000Y-150450000D03*
X235966000Y-96012000D03*
X274420000Y-146720000D03*
X274574000Y-99822000D03*
X240520000Y-93710000D03*
X274320000Y-113030000D03*
X274320000Y-107950000D03*
X273670000Y-106940000D03*
X236650000Y-106990000D03*
X218440000Y-135890000D03*
X216290000Y-140400000D03*
X257800000Y-90830000D03*
X276535000Y-103425000D03*
X254635000Y-151765000D03*
X246840000Y-116665000D03*
X234400000Y-151765000D03*
X276140000Y-117560000D03*
X231030000Y-90600000D03*
X276220000Y-131510000D03*
X244030000Y-90720000D03*
X215900000Y-109760000D03*
X268940000Y-151780000D03*
X245480000Y-106250000D03*
X245500000Y-107020000D03*
X246840000Y-129100000D03*
X215450000Y-125610000D03*
X233320000Y-130030000D03*
X256240000Y-117190000D03*
X246480000Y-132690000D03*
X225090000Y-117820000D03*
X229290000Y-131270000D03*
X234590050Y-127349950D03*
X234320000Y-134630000D03*
X256600000Y-116130000D03*
X251745331Y-133035331D03*
X248940000Y-129410000D03*
X233280000Y-115750000D03*
X229380000Y-132550000D03*
X231430000Y-136650000D03*
X239620000Y-95730000D03*
X267320000Y-121970000D03*
X232910000Y-134280000D03*
X220279672Y-132197213D03*
X225620000Y-147890000D03*
X257790000Y-110880000D03*
X271985000Y-140095000D03*
X252710000Y-95620000D03*
X260360000Y-108260000D03*
X246030000Y-147210000D03*
X221380000Y-116790000D03*
X232296867Y-131020000D03*
X260070000Y-147460000D03*
X273177000Y-111633000D03*
X241300000Y-111760000D03*
X240030000Y-100584000D03*
X243290000Y-111830000D03*
X243290000Y-103980000D03*
X240910000Y-115090000D03*
X228182500Y-110072500D03*
X254210000Y-130400000D03*
X233980000Y-125650000D03*
X265575000Y-127760000D03*
X260070000Y-130770000D03*
X273580000Y-140270000D03*
X267900000Y-125750000D03*
X268630331Y-123100331D03*
X273300000Y-126240000D03*
X267310000Y-120130000D03*
X273050000Y-112960000D03*
X258910000Y-119820000D03*
X266595000Y-93345000D03*
X257080000Y-113450000D03*
X259840000Y-114170000D03*
X256664669Y-109085331D03*
X252880000Y-107460000D03*
X258860000Y-121130000D03*
X252600000Y-93610000D03*
X239570000Y-93070000D03*
X233730000Y-118120000D03*
X230470000Y-111920000D03*
X230490000Y-109310000D03*
X223560000Y-115830000D03*
X218090000Y-101240000D03*
X218190000Y-116780000D03*
X223380000Y-119380000D03*
X223760000Y-122380000D03*
X225570000Y-148970000D03*
X233300000Y-122260000D03*
X258940000Y-122840000D03*
X259715000Y-149225000D03*
X261390000Y-137300000D03*
X234400000Y-121910000D03*
X260180000Y-128190000D03*
X266750000Y-115400000D03*
X238480000Y-116730000D03*
X229040000Y-128270000D03*
D16*
X233320000Y-131845604D02*
X234164396Y-132690000D01*
X228210000Y-120940000D02*
X228210000Y-129632893D01*
X246620000Y-132690000D02*
X246480000Y-132690000D01*
X254740000Y-131280000D02*
X248050000Y-131280000D01*
X256240000Y-117190000D02*
X256030000Y-117190000D01*
X228212000Y-130192000D02*
X229290000Y-131270000D01*
X248040000Y-131270000D02*
X246620000Y-132690000D01*
X246420000Y-137380000D02*
X246420000Y-141540000D01*
X234164396Y-132690000D02*
X246480000Y-132690000D01*
X228210000Y-129632893D02*
X228212000Y-129634893D01*
X246420000Y-141540000D02*
X245270000Y-142690000D01*
X255190000Y-130830000D02*
X254740000Y-131280000D01*
X225090000Y-117820000D02*
X228210000Y-120940000D01*
X228212000Y-129634893D02*
X228212000Y-130192000D01*
X233320000Y-130030000D02*
X233060000Y-130030000D01*
X233320000Y-130030000D02*
X233320000Y-131845604D01*
X255190000Y-118030000D02*
X255190000Y-130830000D01*
X256030000Y-117190000D02*
X255190000Y-118030000D01*
X248050000Y-131280000D02*
X248040000Y-131270000D01*
X234590050Y-127349950D02*
X234590050Y-131010050D01*
X234590050Y-131010050D02*
X235060000Y-131480000D01*
X241200000Y-134660000D02*
X243920000Y-137380000D01*
X234320000Y-134630000D02*
X234350000Y-134660000D01*
X234350000Y-134660000D02*
X241200000Y-134660000D01*
X247520000Y-112990000D02*
X247520000Y-114570000D01*
X248940000Y-129410000D02*
X248940000Y-115990000D01*
X256600000Y-116130000D02*
X255060000Y-116130000D01*
X247215661Y-115980000D02*
X247150661Y-115915000D01*
X251745331Y-133035331D02*
X251420000Y-133360662D01*
X247520000Y-114570000D02*
X248940000Y-115990000D01*
X233445000Y-115915000D02*
X233280000Y-115750000D01*
X247150661Y-115915000D02*
X233445000Y-115915000D01*
X254910000Y-115980000D02*
X247215661Y-115980000D01*
X255060000Y-116130000D02*
X254910000Y-115980000D01*
X251420000Y-133360662D02*
X251420000Y-137380000D01*
X248920000Y-137340000D02*
X248870000Y-137390000D01*
X257790000Y-110880000D02*
X257790000Y-111250000D01*
X224270050Y-121600000D02*
X221380000Y-118709950D01*
X267970000Y-105410000D02*
X262890000Y-105410000D01*
X251670000Y-140190000D02*
X262890000Y-140190000D01*
X257384975Y-114952814D02*
X257384975Y-117515025D01*
X224310000Y-119500000D02*
X224310000Y-105184000D01*
X221380000Y-118709950D02*
X221380000Y-116790000D01*
X262890000Y-144640000D02*
X260070000Y-147460000D01*
X245570000Y-133360000D02*
X248920000Y-136710000D01*
X231430000Y-136650000D02*
X231440000Y-136650000D01*
X252710000Y-95620000D02*
X261620000Y-104530000D01*
X248920000Y-136710000D02*
X248920000Y-137380000D01*
X233816000Y-133360000D02*
X245570000Y-133360000D01*
X267944000Y-95530000D02*
X262890000Y-100584000D01*
X257840000Y-111300000D02*
X257840000Y-114497789D01*
X262910000Y-140170000D02*
X262890000Y-140190000D01*
X251670000Y-140190000D02*
X250120000Y-141740000D01*
X260360000Y-107960000D02*
X260350000Y-107950000D01*
X232910000Y-134280000D02*
X232910000Y-134350000D01*
X224310000Y-105184000D02*
X219456000Y-100330000D01*
X226400000Y-147890000D02*
X225620000Y-147890000D01*
X273177000Y-110617000D02*
X267970000Y-105410000D01*
X232156000Y-137366000D02*
X232156000Y-142134000D01*
X232296867Y-131854867D02*
X233816000Y-133374000D01*
X267320000Y-121970000D02*
X267160000Y-121970000D01*
X257384975Y-117515025D02*
X256220000Y-118680000D01*
X250120000Y-141740000D02*
X250120000Y-142932000D01*
X261620000Y-104530000D02*
X261620000Y-106680000D01*
X250750000Y-139270000D02*
X251670000Y-140190000D01*
X262890000Y-140190000D02*
X262890000Y-144640000D01*
X226360000Y-130250000D02*
X226360000Y-128490000D01*
X251520000Y-132200000D02*
X248920000Y-134800000D01*
X226360000Y-128490000D02*
X224830000Y-126960000D01*
X268010000Y-95530000D02*
X267944000Y-95530000D01*
X233816000Y-133374000D02*
X232910000Y-134280000D01*
X257840000Y-114497789D02*
X257384975Y-114952814D01*
X248870000Y-137390000D02*
X250750000Y-139270000D01*
X255180000Y-132200000D02*
X251520000Y-132200000D01*
X223870000Y-133590000D02*
X222477213Y-132197213D01*
X228660000Y-132550000D02*
X226360000Y-130250000D01*
X257790000Y-110880000D02*
X257930000Y-111020000D01*
X267320000Y-121970000D02*
X267110000Y-121920000D01*
X229380000Y-132550000D02*
X228384000Y-132550000D01*
X261620000Y-106680000D02*
X260350000Y-107950000D01*
X224830000Y-120020000D02*
X224310000Y-119500000D01*
X232910000Y-134350000D02*
X233050000Y-134210000D01*
X222477213Y-132197213D02*
X220279672Y-132197213D01*
X232296867Y-131020000D02*
X232156000Y-131160867D01*
X250120000Y-142932000D02*
X250190000Y-143002000D01*
X260360000Y-108260000D02*
X260360000Y-107960000D01*
X231440000Y-136650000D02*
X232156000Y-137366000D01*
X228384000Y-132550000D02*
X227344000Y-133590000D01*
X231440000Y-136650000D02*
X232080000Y-137290000D01*
X224830000Y-121600000D02*
X224270050Y-121600000D01*
X256220000Y-118680000D02*
X256220000Y-131160000D01*
X262890000Y-105410000D02*
X261620000Y-106680000D01*
X248920000Y-134800000D02*
X248920000Y-137380000D01*
X228750000Y-132550000D02*
X228660000Y-132550000D01*
X267110000Y-121920000D02*
X256220000Y-121920000D01*
X256220000Y-131160000D02*
X255180000Y-132200000D01*
X232156000Y-142134000D02*
X226400000Y-147890000D01*
X239631191Y-95699720D02*
X239631191Y-95741191D01*
X250190000Y-143050000D02*
X250190000Y-143002000D01*
X233816000Y-133360000D02*
X233816000Y-133374000D01*
X224830000Y-126960000D02*
X224830000Y-120020000D01*
X271985000Y-140095000D02*
X271910000Y-140170000D01*
X232296867Y-131020000D02*
X232296867Y-131854867D01*
X246030000Y-147210000D02*
X250190000Y-143050000D01*
X227344000Y-133590000D02*
X223870000Y-133590000D01*
X271910000Y-140170000D02*
X262910000Y-140170000D01*
X259080000Y-106680000D02*
X260350000Y-107950000D01*
X262890000Y-100584000D02*
X262890000Y-105410000D01*
X273177000Y-111633000D02*
X273177000Y-110617000D01*
X239631191Y-95741191D02*
X250570000Y-106680000D01*
X250570000Y-106680000D02*
X259080000Y-106680000D01*
X241300000Y-101854000D02*
X241300000Y-111760000D01*
X240030000Y-100584000D02*
X241300000Y-101854000D01*
X243150000Y-103980000D02*
X243290000Y-103980000D01*
X243140000Y-103990000D02*
X243150000Y-103980000D01*
X243290000Y-103980000D02*
X243290000Y-111820000D01*
X238780000Y-114320000D02*
X239550000Y-115090000D01*
X239550000Y-115090000D02*
X240910000Y-115090000D01*
X234140000Y-114320000D02*
X238780000Y-114320000D01*
X228182500Y-110072500D02*
X229892500Y-110072500D01*
X229892500Y-110072500D02*
X234140000Y-114320000D01*
X254020000Y-130210000D02*
X254210000Y-130400000D01*
X233980000Y-125650000D02*
X233980000Y-125679239D01*
X262555000Y-130780000D02*
X262580000Y-130780000D01*
X266140000Y-134340000D02*
X266140000Y-135650000D01*
X260080000Y-130780000D02*
X260070000Y-130770000D01*
X263055000Y-130280000D02*
X262555000Y-130780000D01*
X265575000Y-127760000D02*
X263055000Y-130280000D01*
X262580000Y-130780000D02*
X266140000Y-134340000D01*
X262555000Y-130780000D02*
X260080000Y-130780000D01*
X238510761Y-130210000D02*
X254020000Y-130210000D01*
X233980000Y-125679239D02*
X238510761Y-130210000D01*
X273570000Y-140659339D02*
X273570000Y-142020661D01*
X271760000Y-138450000D02*
X273580000Y-140270000D01*
X271255339Y-127790000D02*
X271760000Y-128294661D01*
X278379339Y-146830000D02*
X281740000Y-146830000D01*
X273570000Y-142020661D02*
X278379339Y-146830000D01*
X270650000Y-127790000D02*
X269620000Y-126760000D01*
X273580000Y-140270000D02*
X273580000Y-140649339D01*
X273580000Y-140649339D02*
X273570000Y-140659339D01*
X269620000Y-126760000D02*
X268890000Y-126760000D01*
X271760000Y-128294661D02*
X271760000Y-138450000D01*
X268890000Y-126760000D02*
X267910000Y-125780000D01*
X271255339Y-127790000D02*
X270650000Y-127790000D01*
X281390000Y-111000000D02*
X281390000Y-116000661D01*
X281390000Y-116000661D02*
X273300000Y-124090661D01*
X271770000Y-126240000D02*
X273300000Y-126240000D01*
X268630331Y-123100331D02*
X271770000Y-126240000D01*
X273300000Y-124090661D02*
X273300000Y-126240000D01*
X266000000Y-118820000D02*
X267310000Y-120130000D01*
X267760000Y-114350000D02*
X266739339Y-114350000D01*
X266000000Y-115089339D02*
X266000000Y-118820000D01*
X273050000Y-112960000D02*
X269150000Y-112960000D01*
X269150000Y-112960000D02*
X267760000Y-114350000D01*
X267310000Y-120130000D02*
X267310000Y-120190000D01*
X267310000Y-120190000D02*
X267220000Y-120100000D01*
X266739339Y-114350000D02*
X266000000Y-115089339D01*
X266954000Y-110764000D02*
X269150000Y-112960000D01*
X266954000Y-108712000D02*
X266954000Y-110764000D01*
X257080000Y-113450000D02*
X256630000Y-113000000D01*
X256630000Y-113000000D02*
X256630000Y-109120000D01*
X256630000Y-109120000D02*
X256664669Y-109085331D01*
X261112000Y-98868000D02*
X261112000Y-101092000D01*
X266595000Y-93385000D02*
X261112000Y-98868000D01*
X258910000Y-119820000D02*
X258980000Y-119840000D01*
X259840000Y-114170000D02*
X259840000Y-118890000D01*
X266595000Y-93345000D02*
X266595000Y-93385000D01*
X259840000Y-118890000D02*
X258910000Y-119820000D01*
X258150000Y-120415075D02*
X258860000Y-121125075D01*
X258770000Y-115840000D02*
X258150000Y-116460000D01*
X258150000Y-116460000D02*
X258150000Y-120415075D01*
X252600000Y-93610000D02*
X250740000Y-95470000D01*
X258770000Y-110130000D02*
X258770000Y-115840000D01*
X252880000Y-107460000D02*
X253250000Y-107830000D01*
X256470000Y-107830000D02*
X258770000Y-110130000D01*
X258860000Y-121125075D02*
X258860000Y-121130000D01*
X253250000Y-107830000D02*
X256470000Y-107830000D01*
X250740000Y-95470000D02*
X250740000Y-99160000D01*
X230510000Y-109240000D02*
X230510000Y-107320000D01*
X239570000Y-93958050D02*
X237236000Y-96292050D01*
X233690000Y-118120000D02*
X233730000Y-118120000D01*
X230470000Y-111920000D02*
X230470000Y-114900000D01*
X230510000Y-107320000D02*
X237236000Y-100594000D01*
X237236000Y-100594000D02*
X237236000Y-99314000D01*
X233730000Y-118160000D02*
X233670000Y-118100000D01*
X233730000Y-118120000D02*
X233730000Y-118160000D01*
X239570000Y-93070000D02*
X239570000Y-93958050D01*
X230470000Y-114900000D02*
X233690000Y-118120000D01*
X237236000Y-96292050D02*
X237236000Y-99314000D01*
X220350000Y-96750000D02*
X218673339Y-96750000D01*
X217160000Y-98263339D02*
X217160000Y-100310000D01*
X218673339Y-96750000D02*
X217160000Y-98263339D01*
X222600000Y-109428579D02*
X218090000Y-104918579D01*
X218090000Y-104918579D02*
X218090000Y-101240000D01*
X222600000Y-114870000D02*
X222600000Y-109428579D01*
X217160000Y-100310000D02*
X218090000Y-101240000D01*
X223560000Y-115830000D02*
X222600000Y-114870000D01*
X222000000Y-115610000D02*
X220520000Y-115610000D01*
X218860000Y-114070000D02*
X218980000Y-114070000D01*
X220520000Y-115610000D02*
X219350000Y-116780000D01*
X223370000Y-116980000D02*
X222000000Y-115610000D01*
X223370000Y-119370000D02*
X223370000Y-116980000D01*
X223380000Y-119380000D02*
X223370000Y-119370000D01*
X218980000Y-114070000D02*
X220520000Y-115610000D01*
X219350000Y-116780000D02*
X218190000Y-116780000D01*
X223940000Y-122380000D02*
X223760000Y-122380000D01*
X224730000Y-132060000D02*
X222350000Y-129680000D01*
X222350000Y-129680000D02*
X222350000Y-123970000D01*
X222350000Y-123970000D02*
X223940000Y-122380000D01*
X225570000Y-148970000D02*
X224660000Y-148060000D01*
X233270000Y-122260000D02*
X233300000Y-122260000D01*
X233300000Y-122260000D02*
X233300000Y-122230000D01*
X233300000Y-122230000D02*
X233190000Y-122340000D01*
X230266000Y-125264000D02*
X233270000Y-122260000D01*
X229450000Y-141990000D02*
X230000000Y-141990000D01*
X230000000Y-141990000D02*
X230266000Y-141724000D01*
X224660000Y-148060000D02*
X224660000Y-146780000D01*
X230266000Y-141724000D02*
X230266000Y-125264000D01*
X224660000Y-146780000D02*
X229450000Y-141990000D01*
X258770000Y-147020000D02*
X261500000Y-144290000D01*
X261390000Y-137300000D02*
X258910000Y-134820000D01*
X259715000Y-149225000D02*
X258770000Y-148280000D01*
X258770000Y-148280000D02*
X258770000Y-147020000D01*
X258910000Y-134820000D02*
X258910000Y-122870000D01*
X258910000Y-122870000D02*
X258940000Y-122840000D01*
X258940000Y-122840000D02*
X258910000Y-122810000D01*
X261500000Y-144290000D02*
X261500000Y-142870000D01*
X258910000Y-122810000D02*
X258910000Y-122600000D01*
X234460000Y-122190000D02*
X234400000Y-121910000D01*
X231546867Y-134010867D02*
X231546867Y-125103133D01*
X231546867Y-125103133D02*
X234460000Y-122190000D01*
X243590000Y-146050000D02*
X231550867Y-134010867D01*
X231550867Y-134010867D02*
X231546867Y-134010867D01*
X243590000Y-146360000D02*
X243590000Y-146050000D01*
X234400000Y-121910000D02*
X234460000Y-121880000D01*
X269280000Y-117930000D02*
X266750000Y-115400000D01*
X260180000Y-128190000D02*
X262480000Y-128190000D01*
X262480000Y-128190000D02*
X269280000Y-121390000D01*
X269280000Y-121390000D02*
X269280000Y-117930000D01*
X228960000Y-124140000D02*
X236370000Y-116730000D01*
X236370000Y-116730000D02*
X238480000Y-116730000D01*
X229040000Y-128270000D02*
X228960000Y-128190000D01*
X228960000Y-128190000D02*
X228960000Y-124140000D01*
M02*
